<svg width="12" height="12" viewBox="0 0 12 12" fill="none" xmlns="http://www.w3.org/2000/svg">
<path d="M7.2 3.5V0.23C7.75503 0.404668 8.25917 0.675656 8.679 1.025L10.7694 2.768C11.1891 3.11744 11.5145 3.53745 11.724 4H7.8C7.64087 4 7.48826 3.94732 7.37574 3.85355C7.26321 3.75979 7.2 3.63261 7.2 3.5ZM12 5.2425V9.5C11.999 10.1628 11.6827 10.7982 11.1203 11.2669C10.5579 11.7356 9.79536 11.9992 9 12H3C2.20464 11.9992 1.44213 11.7356 0.879732 11.2669C0.317329 10.7982 0.000952715 10.1628 0 9.5V2.5C0.000952715 1.8372 0.317329 1.20178 0.879732 0.73311C1.44213 0.264441 2.20464 0.000793929 3 0L5.709 0C5.8068 0 5.9034 0.0065 6 0.012V3.5C6 3.89782 6.18964 4.27936 6.52721 4.56066C6.86477 4.84196 7.32261 5 7.8 5H11.9856C11.9922 5.0805 12 5.161 12 5.2425ZM8.8344 7.1555C8.72472 7.05956 8.57381 7.00382 8.41485 7.00054C8.25588 6.99726 8.10185 7.0467 7.9866 7.138L5.8266 8.8535C5.76888 8.90188 5.6999 8.93991 5.62389 8.96524C5.54787 8.99057 5.46645 9.00267 5.38461 9.0008C5.30278 8.99893 5.22227 8.98312 5.14805 8.95434C5.07382 8.92557 5.00744 8.88445 4.953 8.8335L3.9996 8.1265C3.94074 8.08277 3.87212 8.04913 3.79766 8.0275C3.7232 8.00587 3.64436 7.99667 3.56563 8.00043C3.40664 8.00802 3.25778 8.06794 3.1518 8.167C3.09932 8.21605 3.05895 8.27323 3.033 8.33528C3.00704 8.39733 2.996 8.46303 3.00052 8.52864C3.00963 8.66113 3.08153 8.78518 3.2004 8.8735L4.1268 9.5605C4.4626 9.8404 4.91755 9.99836 5.3925 9.99995C5.86745 10.0015 6.3239 9.84664 6.6624 9.569L8.8134 7.862C8.92853 7.7706 8.99541 7.64484 8.99935 7.51237C9.00329 7.3799 8.94396 7.25154 8.8344 7.1555Z" fill="#2683F2"/>
</svg>
