<svg viewBox="0 0 16 16" fill="none" xmlns="http://www.w3.org/2000/svg"><path d="M1.875 2H14.125C14.6082 2 15 2.39178 15 2.875V4.625H1V2.875C1 2.39178 1.39175 2 1.875 2Z" fill="currentColor"></path><path fill-rule="evenodd" clip-rule="evenodd" d="M2.74986 14C2.2667 14 1.875 13.483 1.875 13V6H14.125V13C14.125 13.483 13.7333 14 13.2502 14H2.74986ZM9.5 7.5H6.875C6.39175 7.5 6 7.89178 6 8.375C6 8.85822 6.39175 9.25 6.875 9.25H9.5C9.98325 9.25 10.375 8.85822 10.375 8.375C10.375 7.89178 9.98325 7.5 9.5 7.5Z" fill="currentColor"></path></svg>