<svg xmlns="http://www.w3.org/2000/svg" width="20" height="22" fill="none"><path fill="#A7A8A9" fill-rule="evenodd" d="M9.534.777a1 1 0 0 1 .931 0l8.338 4.387a1 1 0 0 1 .535.885v9.904a1 1 0 0 1-.535.885l-8.338 4.386a1 1 0 0 1-.93 0l-8.338-4.386a1 1 0 0 1-.535-.885V6.049a1 1 0 0 1 .535-.885L9.534.777ZM2.662 7.705 9 11.039v7.644L2.662 15.35V7.705ZM11 18.683l6.338-3.334V7.705L11 11.039v7.644Zm-1-9.378 6.19-3.256-2.021-1.064-6.19 3.257 2.02 1.063ZM5.83 7.112l6.19-3.257L10 2.792 3.81 6.05l2.02 1.062Z" clip-rule="evenodd"/><path fill="#A7A8A9" fill-rule="evenodd" d="M5.101 11.867a.5.5 0 0 1-.269-.443V8.871a.25.25 0 0 1 .25-.25h1.5a.25.25 0 0 1 .25.25v3.486a.25.25 0 0 1-.365.222L5.1 11.867Z" clip-rule="evenodd"/></svg>