<svg width="15" height="16" viewBox="0 0 15 16" fill="none" xmlns="http://www.w3.org/2000/svg">
<path d="M14.9713 3.96289L9.71 9.22414C9.12336 9.8093 8.32859 10.1379 7.5 10.1379C6.67141 10.1379 5.87664 9.8093 5.29 9.22414L0.02875 3.96289C0.02 4.06164 0 4.15102 0 4.24914V11.7491C0.000992411 12.5776 0.330551 13.3719 0.916387 13.9578C1.50222 14.5436 2.2965 14.8731 3.125 14.8741H11.875C12.7035 14.8731 13.4978 14.5436 14.0836 13.9578C14.6694 13.3719 14.999 12.5776 15 11.7491V4.24914C15 4.15102 14.98 4.06164 14.9713 3.96289Z" fill="#2683F2"/>
<path d="M8.82609 8.34125L14.5348 2.63188C14.2583 2.17332 13.8683 1.79377 13.4023 1.52983C12.9364 1.26589 12.4103 1.12646 11.8748 1.125H3.12484C2.58936 1.12646 2.06328 1.26589 1.59736 1.52983C1.13144 1.79377 0.741393 2.17332 0.464844 2.63188L6.17359 8.34125C6.52583 8.69207 7.00271 8.88904 7.49984 8.88904C7.99698 8.88904 8.47386 8.69207 8.82609 8.34125Z" fill="#2683F2"/>
</svg>
