<svg xmlns="http://www.w3.org/2000/svg" width="16" height="16" fill="none"><path d="m9.58 6.692-.013.008a.869.869 0 0 0-.42.486c-.294-.275-.72-.36-1.07-.177a.883.883 0 0 0-.434.551c-.287-.215-.663-.265-.978-.1l-.015.008a.822.822 0 0 0-.382.407L5.195 5.833c-.26-.494-.84-.7-1.292-.464-.45.237-.608.832-.35 1.325l2.125 4.054-.367-.163a1.248 1.248 0 0 0-1.014-.015 1.214 1.214 0 0 0-.664.734l-.106.266a.205.205 0 0 0 .072.241l3.83 2.745c.7.502 1.574.585 2.28.214l2.11-1.107-.002-.002c1.07-.562 1.432-1.98.813-3.16-.278-.53-.486-.922-.654-1.241-.447-.855-.614-1.17-1.11-2.11-.26-.491-.835-.694-1.285-.458zM8.135 2.824c1.158 0 2.145.33 2.804.792.096.068.116.086.184.15l.007.006c.057.053.137.128.28.253a.91.91 0 0 0 1.59-.61.91.91 0 0 0-.274-.652C11.722 1.68 10.022 1 8.135 1s-3.587.68-4.59 1.763a.91.91 0 0 0 .637 1.564.91.91 0 0 0 .678-.302c.143-.125.223-.2.28-.253l.007-.006c.068-.064.088-.082.184-.15.66-.461 1.647-.792 2.804-.792z" fill="#fff"/></svg>