<svg width="16" height="17" viewBox="0 0 16 17" fill="none" xmlns="http://www.w3.org/2000/svg">
<path d="M11.8225 9.21035C11.7089 8.62282 11.4755 8.06515 11.1368 7.57222L10.8575 7.16478C10.848 7.15125 10.8352 7.14027 10.8205 7.13282C10.8057 7.12537 10.7893 7.12166 10.7728 7.12203C10.7562 7.1224 10.74 7.12683 10.7255 7.13493C10.7111 7.14303 10.6989 7.15456 10.6899 7.16851L10.4266 7.58697C10.2621 7.84964 10.0134 8.09931 9.69024 8.32669C9.66897 8.34105 9.64836 8.34143 9.63468 8.33956C9.621 8.33769 9.60085 8.33047 9.58652 8.30918C9.57285 8.29061 9.56939 8.26669 9.57567 8.24501C9.79012 7.52109 9.76192 6.64227 9.48995 5.63014C9.26563 4.78959 8.84864 4.07803 8.25321 3.51159L7.81854 3.09914C7.76177 3.04494 7.66591 3.07678 7.65183 3.15447L7.54357 3.74616C7.46956 4.15047 7.34167 4.49353 7.16424 4.76222C6.94726 5.09116 6.67771 5.38099 6.36245 5.62431C6.14312 5.79335 5.90554 5.93721 5.65418 6.05318C5.04933 6.33012 4.51481 6.74045 4.09063 7.25344C3.66601 7.77165 3.36654 8.38096 3.21556 9.03389C3.08275 9.60963 3.06744 10.1932 3.17029 10.7706C3.26993 11.3267 3.47626 11.8582 3.77787 12.3355C4.08247 12.8169 4.46954 13.2299 4.93066 13.5611C5.40807 13.9051 5.94248 14.1465 6.52105 14.28C7.09961 14.4134 7.68579 14.4304 8.26534 14.3316C8.82339 14.2368 9.35773 14.0341 9.8385 13.7348C10.3232 13.4355 10.7378 13.0507 11.0701 12.5942C11.4149 12.1215 11.6599 11.5835 11.7902 11.0131C11.9275 10.4178 11.9391 9.81151 11.8225 9.21035Z" fill="white"/>
</svg>
