<svg xmlns="http://www.w3.org/2000/svg" width="32" height="32" fill="none" viewBox="0 0 32 32"><path fill="currentColor" fill-rule="evenodd" d="M21.626 11.72c1.56 1.296 3.16 2.625 3.964 4.717 1.49 3.565.48 7.662-2.288 10.229-2.513 2.301-6.012 2.9-9.244 2.487-2.261-.292-8.553-2.58-9.058-10.029 0-.835.085-1.538.226-2.146.399-1.812 1.249-3.074 1.918-4.067q.15-.223.286-.429c.386-.572 1.29-.24 1.21.453l-.022.193c-.211 1.837-.463 4.023 1.862 5.783.519.4 1.237-.173.998-.785-2.913-7.475.558-13.181 5.387-16.028.505-.305 1.13.147.997.732-1.103 4.847 1.279 6.826 3.764 8.89m-5.473 1.778c.23 1.132 1.205 2.04 2.189 2.956 1.145 1.066 2.3 2.14 2.3 3.588a4.53 4.53 0 0 1-.633 2.459c-1.022 1.582-3.098 2.142-4.868 1.434l.22-.22c.87-.862 1.408-1.394 1.504-2.78.1-1.46-.356-2.31-.778-3.096-.173-.322-.34-.633-.46-.97a4.1 4.1 0 0 1-.173-1.294c.038-.466.177-1.007.464-1.666q.104-.2.235-.41" clip-rule="evenodd"></path></svg>