<svg width="12" height="12" viewBox="0 0 12 12" fill="none" xmlns="http://www.w3.org/2000/svg">
<g clip-path="url(#clip0_1016_24230)">
<path d="M9.5 7.5H9C8.7235 7.5 8.5 7.2765 8.5 7C8.5 6.7235 8.7235 6.5 9 6.5H9.5C9.7765 6.5 10 6.7235 10 7C10 7.2765 9.7765 7.5 9.5 7.5ZM10 9C10 8.7235 9.7765 8.5 9.5 8.5H9C8.7235 8.5 8.5 8.7235 8.5 9C8.5 9.2765 8.7235 9.5 9 9.5H9.5C9.7765 9.5 10 9.2765 10 9ZM8 3C8 2.7235 7.7765 2.5 7.5 2.5H7C6.7235 2.5 6.5 2.7235 6.5 3C6.5 3.2765 6.7235 3.5 7 3.5H7.5C7.7765 3.5 8 3.2765 8 3ZM10 3C10 2.7235 9.7765 2.5 9.5 2.5H9C8.7235 2.5 8.5 2.7235 8.5 3C8.5 3.2765 8.7235 3.5 9 3.5H9.5C9.7765 3.5 10 3.2765 10 3ZM10 5C10 4.7235 9.7765 4.5 9.5 4.5H9C8.7235 4.5 8.5 4.7235 8.5 5C8.5 5.2765 8.7235 5.5 9 5.5H9.5C9.7765 5.5 10 5.2765 10 5ZM12 9.5V2.5C12 1.1215 10.8785 0 9.5 0H7C5.6215 0 4.5 1.1215 4.5 2.5C4.5 2.7765 4.7235 3 5 3C5.2765 3 5.5 2.7765 5.5 2.5C5.5 1.673 6.173 1 7 1H9.5C10.327 1 11 1.673 11 2.5V9.5C11 10.327 10.327 11 9.5 11H9C8.7235 11 8.5 11.2235 8.5 11.5C8.5 11.7765 8.7235 12 9 12H9.5C10.8785 12 12 10.8785 12 9.5ZM8 9.75V7.674C8 6.9 7.6505 6.183 7.0405 5.705L5.5405 4.5305C4.6335 3.8215 3.3665 3.821 2.4595 4.5305L0.9595 5.7045C0.3495 6.182 0 6.8995 0 7.6735V9.7495C0 10.99 1.0095 11.9995 2.25 11.9995H5.75C6.9905 11.9995 8 10.9905 8 9.75ZM4.9245 5.3185L6.4245 6.4925C6.79 6.779 7 7.21 7 7.674V9.75C7 10.4395 6.4395 11 5.75 11H2.25C1.5605 11 1 10.4395 1 9.75V7.674C1 7.2095 1.21 6.779 1.5755 6.4925L3.0755 5.319C3.3475 5.106 3.6735 4.9995 4 4.9995C4.3265 4.9995 4.6525 5.106 4.9245 5.3185ZM5 9V8C5 7.724 4.776 7.5 4.5 7.5H3.5C3.224 7.5 3 7.724 3 8V9C3 9.276 3.224 9.5 3.5 9.5H4.5C4.776 9.5 5 9.276 5 9Z" fill="#32425F"/>
</g>
<defs>
<clipPath id="clip0_1016_24230">
<rect width="12" height="12" fill="white"/>
</clipPath>
</defs>
</svg>
