<svg width="20" height="21" viewBox="0 0 20 21" fill="none" xmlns="http://www.w3.org/2000/svg">
<path d="M16.875 4.25H3.125C2.77982 4.25 2.5 4.52982 2.5 4.875V16.125C2.5 16.4702 2.77982 16.75 3.125 16.75H16.875C17.2202 16.75 17.5 16.4702 17.5 16.125V4.875C17.5 4.52982 17.2202 4.25 16.875 4.25Z" stroke="#7A7FAA" stroke-width="1.5" stroke-linecap="round" stroke-linejoin="round"/>
<path d="M2.5 13.624L6.42969 9.69427C6.48784 9.63521 6.55716 9.58832 6.63361 9.55631C6.71006 9.5243 6.79212 9.50781 6.875 9.50781C6.95788 9.50781 7.03994 9.5243 7.11639 9.55631C7.19284 9.58832 7.26216 9.63521 7.32031 9.69427L10.8047 13.1786C10.8628 13.2377 10.9322 13.2846 11.0086 13.3166C11.0851 13.3486 11.1671 13.3651 11.25 13.3651C11.3329 13.3651 11.4149 13.3486 11.4914 13.3166C11.5678 13.2846 11.6372 13.2377 11.6953 13.1786L13.3047 11.5693C13.3628 11.5102 13.4322 11.4633 13.5086 11.4313C13.5851 11.3993 13.6671 11.3828 13.75 11.3828C13.8329 11.3828 13.9149 11.3993 13.9914 11.4313C14.0678 11.4633 14.1372 11.5102 14.1953 11.5693L17.5 14.874" stroke="#7A7FAA" stroke-width="1.5" stroke-linecap="round" stroke-linejoin="round"/>
<path d="M12.1875 9.09375C12.619 9.09375 12.9688 8.74397 12.9688 8.3125C12.9688 7.88103 12.619 7.53125 12.1875 7.53125C11.756 7.53125 11.4062 7.88103 11.4062 8.3125C11.4062 8.74397 11.756 9.09375 12.1875 9.09375Z" fill="#7A7FAA"/>
</svg>
