<svg width="25" height="24" viewBox="0 0 25 24" fill="none" xmlns="http://www.w3.org/2000/svg"><path d="M5.94876 12.1854V20C5.94876 20.5523 6.39648 21 6.94876 21H13.0215M5.94876 12.1854H20.0943M5.94876 12.1854H4.5V7.81994C4.5 7.26766 4.94772 6.81994 5.5 6.81994H13.0215M20.0943 12.1854V20C20.0943 20.5523 19.6466 21 19.0943 21H13.0215M20.0943 12.1854H21.5V7.81994C21.5 7.26766 21.0523 6.81994 20.5 6.81994H13.0215M13.0215 21V6.81994M13.0215 6.81994C12.1932 4.64822 9.66551 0.432739 7.86032 2.60425C5.94876 4.90372 10.4091 6.1812 13.0215 6.81994ZM13.0215 6.81994C13.0853 5.41471 15.1243 1.07131 17.4181 2.60425C19.712 4.13719 15.8889 6.81994 13.0215 6.81994Z" stroke="currentColor" stroke-width="2" stroke-linejoin="round"></path> <rect x="4.5" y="7" width="17" height="5" fill="currentColor"></rect></svg>