<svg xmlns="http://www.w3.org/2000/svg" xmlns:xlink="http://www.w3.org/1999/xlink" width="14" height="17"><defs><path d="M5.999 4C7.999 4.665 9 6.665 9 9.997H5.999L12 16l6-6.002h-3c0-2.665-.334-4.665-1.002-5.999C12.986 1.98 11 0 7 0S1 4 0 8c2-4 3.852-4.716 5.999-4z" id="a"/></defs><g transform="rotate(-135 8.015 8.42)" fill="none" fill-rule="evenodd" opacity=".6"><use fill="#4B545B" xlink:href="#a"/><path stroke="#4B545B" d="M7.206 10.498L12 15.293l4.793-4.795H14.5v-.5c0-2.594-.322-4.523-.95-5.775C12.374 1.873 10.31.5 7 .5 4.695.5 2.953 1.962 1.711 4.574c1.327-1.315 2.76-1.61 4.446-1.049C8.399 4.272 9.5 6.474 9.5 9.998v.5H7.206z"/></g></svg>