<svg xmlns="http://www.w3.org/2000/svg" width="16" height="16" fill="none"><path fill="#A7A8A9" d="M12.337 8.582a.805.805 0 0 1-.969.602 4.67 4.67 0 0 1-1.88-.917c-.066-.163-.237-.634-.315-.835v1.692l1.475 1.69c.13.146.2.334.202.528v2.94a.805.805 0 1 1-1.61 0v-2.638L7.754 9.94l-1.84 4.64a.805.805 0 1 1-1.497-.594L6.35 9.12V7.021l.358-.956-.358.367c-.442.513-.862 1.281-1.054 2.436a.805.805 0 0 1-1.586-.27c.653-3.927 3.448-4.65 3.764-4.72a.866.866 0 0 1 .089 0 1.401 1.401 0 0 1 1.548.942l.015.032c.201.85.988 2.39 2.61 2.766a.805.805 0 0 1 .601.964Zm-4.22-5.063a1.51 1.51 0 1 0 0-3.019 1.51 1.51 0 0 0 0 3.02Z"/></svg>