<svg width="20" height="20" viewBox="0 0 20 20" fill="none" xmlns="http://www.w3.org/2000/svg">
<path d="M16.4299 2.80607L1.8674 6.90763C1.74344 6.94152 1.63293 7.0128 1.55094 7.11176C1.46895 7.21073 1.41947 7.33256 1.40922 7.46066C1.39897 7.58877 1.42846 7.71691 1.49367 7.82765C1.55889 7.93839 1.65665 8.02633 1.77365 8.0795L8.46115 11.2436C8.59215 11.3042 8.69736 11.4094 8.75802 11.5404L11.9221 18.2279C11.9753 18.3449 12.0632 18.4427 12.1739 18.5079C12.2847 18.5731 12.4128 18.6026 12.5409 18.5924C12.669 18.5821 12.7909 18.5326 12.8898 18.4506C12.9888 18.3687 13.0601 18.2582 13.094 18.1342L17.1955 3.57169C17.2266 3.46542 17.2285 3.35275 17.2011 3.24549C17.1736 3.13822 17.1179 3.04031 17.0396 2.96202C16.9613 2.88373 16.8634 2.82794 16.7561 2.8005C16.6488 2.77306 16.5362 2.77499 16.4299 2.80607V2.80607Z" stroke="#006CEE" stroke-width="1.5" stroke-linecap="round" stroke-linejoin="round"/>
<path d="M8.66406 11.3359L12.1953 7.80469" stroke="#006CEE" stroke-width="1.5" stroke-linecap="round" stroke-linejoin="round"/>
</svg>
