<svg width="20" height="21" viewBox="0 0 20 21" fill="none" xmlns="http://www.w3.org/2000/svg">
<path d="M10 18C14.1421 18 17.5 14.6421 17.5 10.5C17.5 6.35786 14.1421 3 10 3C5.85786 3 2.5 6.35786 2.5 10.5C2.5 14.6421 5.85786 18 10 18Z" stroke="#7A7FAA" stroke-width="1.5" stroke-linecap="round" stroke-linejoin="round"/>
<path d="M7.1875 9.71875C7.61897 9.71875 7.96875 9.36897 7.96875 8.9375C7.96875 8.50603 7.61897 8.15625 7.1875 8.15625C6.75603 8.15625 6.40625 8.50603 6.40625 8.9375C6.40625 9.36897 6.75603 9.71875 7.1875 9.71875Z" fill="#7A7FAA"/>
<path d="M12.8125 9.71875C13.244 9.71875 13.5938 9.36897 13.5938 8.9375C13.5938 8.50603 13.244 8.15625 12.8125 8.15625C12.381 8.15625 12.0312 8.50603 12.0312 8.9375C12.0312 9.36897 12.381 9.71875 12.8125 9.71875Z" fill="#7A7FAA"/>
<path d="M13.25 12.375C12.9196 12.9442 12.4455 13.4167 11.8751 13.7451C11.3048 14.0735 10.6582 14.2464 10 14.2464C9.34184 14.2464 8.69523 14.0735 8.12486 13.7451C7.5545 13.4167 7.0804 12.9442 6.75 12.375" stroke="#7A7FAA" stroke-width="1.5" stroke-linecap="round" stroke-linejoin="round"/>
</svg>
