<svg xmlns="http://www.w3.org/2000/svg" xmlns:xlink="http://www.w3.org/1999/xlink" width="14px" height="14px" viewBox="0 0 14 14" version="1.1">
    <!-- Generator: sketchtool 52.6 (67491) - http://www.bohemiancoding.com/sketch -->
    <title>971AD5DC-937D-4205-B30E-5DF2BB477115@1x</title>
    <desc>Created with sketchtool.</desc>
    <defs>
        <path d="M4,6 L18,6 L18,8 L4,8 L4,6 Z M4,12 L13,12 L13,14 L4,14 L4,12 Z M4,18 L9,18 L9,20 L4,20 L4,18 Z" id="path-1"/>
    </defs>
    <g id="ЕРЗ" stroke="none" stroke-width="1" fill="none" fill-rule="evenodd">
        <g id="ERZ_spisok_1" transform="translate(-120.000000, -362.000000)">
            <g id="Group-5" transform="translate(92.000000, 332.000000)">
                <g id="Group" transform="translate(24.000000, 24.000000)">
                    <g id="⭐️Icon-/-Filter-Copy">
                        <rect id="Size" x="0" y="0" width="24" height="24"/>
                        <mask id="mask-2" fill="white">
                            <use xlink:href="#path-1"/>
                        </mask>
                        <path stroke="#8BC540" d="M4.5,6.5 L4.5,7.5 L17.5,7.5 L17.5,6.5 L4.5,6.5 Z M4.5,12.5 L4.5,13.5 L12.5,13.5 L12.5,12.5 L4.5,12.5 Z M4.5,18.5 L4.5,19.5 L8.5,19.5 L8.5,18.5 L4.5,18.5 Z"/>
                        <g id="Colors" mask="url(#mask-2)" fill="#8BC540" fill-rule="nonzero">
                            <rect id="Rectangle" x="0" y="0" width="24" height="24"/>
                        </g>
                    </g>
                </g>
            </g>
        </g>
    </g>
</svg>