<svg width="25" height="26" viewBox="0 0 25 26" fill="none" xmlns="http://www.w3.org/2000/svg">
<path d="M13.1693 0.934432L16.5523 8.12416C16.5964 8.22434 16.692 8.29369 16.795 8.30911L24.3626 9.46501C24.973 9.55748 25.2157 10.3435 24.7745 10.7982L19.4572 16.2232C19.2807 16.4004 19.1998 16.6624 19.244 16.9167L20.5016 24.5842C20.6045 25.2239 19.9647 25.7093 19.4205 25.4088L12.6471 21.6791C12.5515 21.6251 12.4412 21.6251 12.3456 21.6791L5.57217 25.4088C5.02795 25.7093 4.38811 25.2239 4.49108 24.5842L5.7928 16.6856C5.80751 16.5777 5.77809 16.4621 5.69719 16.385L0.225532 10.7904C-0.215731 10.3358 0.026964 9.54978 0.637378 9.4573L8.20504 8.3014C8.308 8.28599 8.40361 8.21663 8.44773 8.11646L11.8308 0.926726C12.1029 0.35648 12.8971 0.35648 13.1693 0.934432Z" fill="url(#paint0_radial_1452_25206)"/>
<defs>
<radialGradient id="paint0_radial_1452_25206" cx="0" cy="0" r="1" gradientUnits="userSpaceOnUse" gradientTransform="translate(11.8783 10.3944) scale(12.2181 12.8023)">
<stop stop-color="#FFE343"/>
<stop offset="0.5492" stop-color="#FFE241"/>
<stop offset="0.7469" stop-color="#FFDF3A"/>
<stop offset="0.8874" stop-color="#FEDA2F"/>
<stop offset="1" stop-color="#FED31E"/>
</radialGradient>
</defs>
</svg>
