<svg width="18" height="17" viewBox="0 0 18 17" fill="none" xmlns="http://www.w3.org/2000/svg">
<path d="M2.09375 3.98438H10.5938C11.1573 3.98438 11.6978 4.20826 12.0964 4.60677C12.4949 5.00529 12.7188 5.54579 12.7188 6.10938V12.4844C12.7188 12.6253 12.6628 12.7604 12.5632 12.86C12.4635 12.9597 12.3284 13.0156 12.1875 13.0156H3.6875C3.12391 13.0156 2.58341 12.7917 2.1849 12.3932C1.78638 11.9947 1.5625 11.4542 1.5625 10.8906V4.51562C1.5625 4.37473 1.61847 4.2396 1.7181 4.13997C1.81773 4.04035 1.95285 3.98437 2.09375 3.98438V3.98438Z" stroke="white" stroke-width="1.5" stroke-linecap="round" stroke-linejoin="round"/>
<path d="M12.7188 7.4375L16.4375 5.3125V11.6875L12.7188 9.5625" stroke="white" stroke-width="1.5" stroke-linecap="round" stroke-linejoin="round"/>
</svg>
