<svg viewBox="0 0 33 34" xmlns="http://www.w3.org/2000/svg"><path fill="#006CEE" d="M28.9 7.091c2.267.05 4.1 2.514 4.1 5v18c0 1.345-1.642 3-3 3H3c-1.358 0-3-1.655-3-3v-21c0-4.469 2.933-4.839 3-5l22-4c2.375-.452 3 .889 3 1.514v2.486l-25 2c.659 1.155.99.97 2 1h23.9zm-.4 14.487v-1.661c0-1.168-.898-2.196-2.057-2.341l-2.284-.286c-.537-.067-1.403-.444-1.825-.796l-1.647-1.37c-.693-.577-1.922-1.033-2.861-1.033h-5.914c-.963 0-2.185.517-2.834 1.166l-1.861 1.819C6.523 17.771 6 18.998 6 19.917v1.661c0 1.166 1.016 2.156 2.267 2.156h.977c.347 1.072 1.375 1.897 2.587 1.897 1.211 0 2.24-.825 2.587-1.897h5.762c.348 1.072 1.376 1.897 2.587 1.897 1.212 0 2.24-.825 2.588-1.897h.977a2.147 2.147 0 0 0 2.168-2.156zm-5.733.365a.933.933 0 1 1-.932.932c0-.514.42-.932.932-.932zm-10.936 0a.932.932 0 1 1-.002 1.864.932.932 0 0 1 .002-1.864zm14.411-2.604c.26.034.517.317.517.579v1.66c0 .262-.277.282-.427.282h-1.03c-.392-.938-1.379-1.75-2.535-1.75-1.156 0-2.143.812-2.533 1.75h-5.87c-.39-.938-1.377-1.75-2.533-1.75s-2.144.812-2.534 1.75h-1.03c-.23 0-.526-.093-.526-.282v-1.66c0-.45.358-1.213.707-1.563l1.871-1.85c.325-.325 1.104-.672 1.593-.672h5.913c.525 0 1.346.327 1.728.644l1.648 1.37c.682.57 1.861 1.091 2.742 1.201l2.3.292z"></path></svg>


