<svg width="10" height="10" viewBox="0 0 10 10" fill="none" xmlns="http://www.w3.org/2000/svg">
<path d="M1.92893 1.92893C2.14092 1.71694 2.35555 1.5213 2.57152 1.34075L5 3.76923L7.42693 1.3423C7.64483 1.52265 7.85998 1.71784 8.07107 1.92893C8.29733 2.1552 8.50654 2.38737 8.69964 2.624L6.2772 5.04644L8.65774 7.42697C8.47637 7.64598 8.28107 7.86107 8.07107 8.07107C7.86107 8.28107 7.64598 8.47637 7.42697 8.65774L5.04644 6.2772L2.624 8.69964C2.38737 8.50654 2.1552 8.29733 1.92893 8.07107C1.71784 7.85998 1.52265 7.64483 1.3423 7.42693L3.76923 5L1.34226 2.57303C1.52363 2.35402 1.71893 2.13893 1.92893 1.92893Z" fill="#FF4848" stroke="#2683F2" stroke-width="20"/>
</svg>
