<svg xmlns="http://www.w3.org/2000/svg" width="40" height="40" viewBox="0 0 40 40" fill="none">
<g clip-path="url(#clip0_492_33749)">
<path d="M40 0H0V40H40V0Z" fill="#F9FBFC"/>
<path d="M40 0H0V40H40V0Z" fill="#FF5000"/>
<path d="M12.375 15.875V17.625H12C11.3125 16.375 10 15.625 8.5 15.625C6.0625 15.625 3.75 17.9375 3.75 20.9375C3.75 23.9375 6 26.1875 8.5 26.1875C10 26.1875 11.3125 25.4375 12 24.1875H12.375V25.9375H14.5625V15.875H12.375ZM9.125 24.125C7.375 24.125 5.9375 22.75 5.9375 20.875C5.9375 19.0625 7.3125 17.625 9.125 17.625C10.875 17.625 12.375 19 12.375 20.875C12.375 22.75 10.9375 24.125 9.125 24.125Z" fill="white"/>
<path d="M23.6875 19.5625H19.875V17.9375H26.3125V15.9375H17.6875V26H23.6875C25.75 26 27.125 24.625 27.125 22.75C27.125 20.9375 25.6875 19.5625 23.6875 19.5625ZM23.4375 24H19.875V21.5H23.4375C24.4375 21.5 24.9375 22 24.9375 22.75C24.9375 23.5 24.4375 24 23.4375 24Z" fill="white"/>
<path d="M32.5 20C34.5625 20 36.25 18.3125 36.25 16.25C36.25 14.1875 34.5625 12.5 32.5 12.5C30.4375 12.5 28.75 14.1875 28.75 16.25C28.75 18.3125 30.4375 20 32.5 20Z" fill="#00F500"/>
</g>
<defs>
<clipPath id="clip0_492_33749">
<rect width="40" height="40" rx="20" fill="white"/>
</clipPath>
</defs>
</svg>