<svg xmlns="http://www.w3.org/2000/svg" xmlns:xlink="http://www.w3.org/1999/xlink" width="32.000000" height="48.000000" viewBox="0 0 32 48" fill="none">
	<defs/>
	<rect id="Фон документа" x="0.500000" y="0.500000" rx="2.000000" width="31.000000" height="47.000000" fill="#FFFFFF"/>
	<rect id="Фон документа" x="0.500000" y="0.500000" rx="2.000000" width="31.000000" height="47.000000" stroke="#EAE9F2"/>
	<rect id="Полоска" x="7.000000" y="10.000000" width="8.000000" height="1.000000" fill="#B9B6C9"/>
	<rect id="Полоска" x="7.000000" y="15.000000" width="8.000000" height="1.000000" fill="#B9B6C9"/>
	<rect id="Полоска" x="18.000000" y="10.000000" width="7.000000" height="1.000000" fill="#B9B6C9"/>
	<rect id="Полоска" x="7.000000" y="12.000000" width="5.000000" height="1.000000" fill="#B9B6C9"/>
	<rect id="Полоска" x="7.000000" y="17.000000" width="5.000000" height="1.000000" fill="#B9B6C9"/>
	<rect id="Полоска" x="7.000000" y="28.000000" width="7.000000" height="1.000000" fill="#B9B6C9"/>
	<rect id="Полоска" x="7.000000" y="30.000000" width="4.000000" height="1.000000" fill="#B9B6C9"/>
	<rect id="Полоска" x="5.000000" y="5.000000" width="22.000000" height="1.000000" fill="#B9B6C9"/>
	<rect id="Полоска" x="5.000000" y="8.000000" width="22.000000" height="1.000000" fill="#B9B6C9"/>
	<rect id="Полоска" x="5.000000" y="5.000000" width="1.000000" height="16.000000" fill="#B9B6C9"/>
	<rect id="Полоска" x="26.000000" y="5.000000" width="1.000000" height="16.000000" fill="#B9B6C9"/>
	<rect id="Полоска" x="16.000000" y="5.000000" width="1.000000" height="16.000000" fill="#B9B6C9"/>
	<rect id="Полоска" x="5.000000" y="20.000000" width="22.000000" height="1.000000" fill="#B9B6C9"/>
	<path id="Печать" d="M22 26C19.791 26 18 27.7908 18 30C18 32.2092 19.791 34 22 34C24.209 34 26 32.2092 26 30C26 27.7908 24.209 26 22 26ZM19.0767 30.6807L19.0767 30.6807C19.0254 30.4597 19 30.2329 19 30C19 29.7673 19.0254 29.5405 19.0767 29.3196L19.0767 29.3193L19.0767 29.3193C19.1152 29.1538 19.168 28.9915 19.2354 28.8325C19.3052 28.668 19.3877 28.512 19.4839 28.3645C19.5972 28.1904 19.7285 28.0286 19.8789 27.8787C20.0288 27.7288 20.1904 27.5972 20.3643 27.4839L20.3643 27.4839L20.3643 27.4839C20.5117 27.3879 20.668 27.3049 20.8325 27.2354C20.9917 27.1682 21.1538 27.1152 21.3193 27.0769L21.3193 27.0769C21.5405 27.0256 21.7671 27 22 27C22.2329 27 22.4595 27.0256 22.6807 27.0769L22.6807 27.0769C22.8462 27.1152 23.0083 27.1682 23.1675 27.2354C23.332 27.3049 23.4878 27.3877 23.6353 27.4839L23.6357 27.4839C23.8096 27.5972 23.9712 27.7288 24.1211 27.8787C24.2715 28.0286 24.4028 28.1907 24.5161 28.3645L24.5161 28.3645C24.6123 28.512 24.6948 28.668 24.7646 28.8325C24.832 28.9915 24.8848 29.1538 24.9233 29.3193L24.9233 29.3193C24.9746 29.5403 25 29.7671 25 30C25 30.2329 24.9746 30.4597 24.9233 30.6807L24.9233 30.6807L24.9233 30.6807L24.9233 30.6807C24.8848 30.8462 24.832 31.0085 24.7646 31.1675C24.6948 31.332 24.6123 31.488 24.5161 31.6355L24.5161 31.6355C24.4028 31.8093 24.2715 31.9714 24.1211 32.1213C23.9712 32.2712 23.8096 32.4028 23.6357 32.5161L23.6357 32.5161C23.4883 32.6123 23.332 32.6951 23.1675 32.7646C23.0083 32.8318 22.8462 32.8848 22.6807 32.9231C22.4595 32.9744 22.2329 33 22 33C21.7671 33 21.5405 32.9744 21.3193 32.9231L21.3193 32.9231L21.3188 32.9231C21.1533 32.8845 20.9912 32.8318 20.8325 32.7646C20.668 32.6951 20.5117 32.6121 20.3643 32.5161L20.3643 32.5161C20.1904 32.4028 20.0288 32.2712 19.8789 32.1213C19.7285 31.9714 19.5972 31.8096 19.4839 31.6357L19.4839 31.6355C19.3877 31.488 19.3052 31.332 19.2354 31.1675C19.168 31.0085 19.1152 30.8462 19.0767 30.6807L19.0767 30.6807ZM20 30C20 28.8955 20.8955 28 22 28C23.1045 28 24 28.8955 24 30C24 31.1045 23.1045 32 22 32C20.8955 32 20 31.1045 20 30ZM21 30C21 30.0825 21.0098 30.1628 21.0288 30.2407C21.041 30.2913 21.0576 30.3406 21.0781 30.3889C21.1001 30.4414 21.1265 30.4912 21.1567 30.5383L21.1567 30.5383C21.1953 30.5989 21.2407 30.655 21.293 30.707C21.3447 30.759 21.4014 30.8044 21.4614 30.8433C21.5088 30.8735 21.5586 30.8997 21.6108 30.9219C21.6597 30.9424 21.709 30.9587 21.7593 30.9712L21.7593 30.9712C21.8369 30.9905 21.9175 31 22 31C22.0825 31 22.1631 30.9905 22.2407 30.9712C22.291 30.9587 22.3403 30.9424 22.3892 30.9219C22.4414 30.8997 22.4912 30.8735 22.5386 30.8433C22.5986 30.8044 22.6553 30.759 22.707 30.707C22.7593 30.655 22.8047 30.5989 22.8433 30.5383C22.8735 30.4912 22.8999 30.4414 22.9219 30.3889C22.9424 30.3406 22.9585 30.2913 22.9712 30.241L22.9712 30.2407C22.9902 30.1628 23 30.0825 23 30C23 29.9175 22.9902 29.8372 22.9712 29.7593C22.959 29.7087 22.9424 29.6594 22.9219 29.6111C22.8999 29.5586 22.8735 29.5088 22.8433 29.4617C22.8047 29.4011 22.7593 29.345 22.707 29.293C22.6553 29.241 22.5986 29.1956 22.5386 29.1567C22.4912 29.1265 22.4414 29.1003 22.3892 29.0781C22.3403 29.0576 22.291 29.0413 22.2407 29.0288L22.2407 29.0288C22.1631 29.0095 22.0825 29 22 29C21.9175 29 21.8369 29.0095 21.7593 29.0288L21.7593 29.0288C21.709 29.0413 21.6597 29.0576 21.6108 29.0781C21.5586 29.1003 21.5088 29.1265 21.4614 29.1567L21.4614 29.1567L21.4614 29.1567C21.4014 29.1956 21.3447 29.241 21.293 29.293C21.2407 29.345 21.1953 29.4011 21.1567 29.4617L21.1567 29.4617L21.1567 29.4617C21.1265 29.5088 21.1001 29.5586 21.0781 29.6111C21.0576 29.6594 21.041 29.7087 21.0288 29.7593L21.0288 29.7593C21.0098 29.8372 21 29.9175 21 30Z" clip-rule="evenodd" fill-rule="evenodd" fill="#A391F3" fill-opacity="1.000000"/>
	<path id="Печать" d="M22 13C20.3433 13 19 14.3433 19 16C19 17.6567 20.3433 19 22 19C23.6567 19 25 17.6567 25 16C25 14.3433 23.6567 13 22 13ZM20.0527 16.4607L20.0527 16.4607C20.0176 16.3113 20 16.1577 20 16C20 15.8423 20.0176 15.6887 20.0527 15.5393L20.0527 15.5391C20.0781 15.4312 20.1128 15.3254 20.1567 15.2219C20.2026 15.1133 20.2573 15.0103 20.3203 14.9131L20.3203 14.9131L20.3203 14.9131C20.3965 14.7959 20.4849 14.6868 20.5859 14.5857C20.6865 14.4849 20.7959 14.3962 20.9131 14.3203C21.0103 14.2571 21.1133 14.2026 21.2217 14.1567C21.3257 14.113 21.4312 14.0784 21.5391 14.0527L21.5391 14.0527L21.5391 14.0527C21.6885 14.0176 21.8423 14 22 14C22.1577 14 22.3115 14.0176 22.4609 14.0527L22.4609 14.0527C22.5688 14.0784 22.6743 14.113 22.7783 14.1567C22.8867 14.2026 22.9897 14.2571 23.0869 14.3203L23.0869 14.3203C23.2041 14.3962 23.3135 14.4849 23.4141 14.5857C23.5151 14.6868 23.6035 14.7959 23.6797 14.9131C23.7427 15.0103 23.7974 15.1133 23.8433 15.2219C23.8872 15.3254 23.9219 15.4314 23.9473 15.5393L23.9473 15.5393L23.9473 15.5393C23.9824 15.6887 24 15.8423 24 16C24 16.1577 23.9824 16.3113 23.9473 16.4607L23.9473 16.4607C23.9219 16.5686 23.8872 16.6746 23.8433 16.7781C23.7974 16.8867 23.7427 16.9897 23.6797 17.0869L23.6797 17.0869L23.6797 17.0869L23.6797 17.0872C23.6035 17.2041 23.5151 17.3132 23.4141 17.4143C23.3135 17.5151 23.2041 17.6038 23.0869 17.6797L23.0869 17.6799C22.9893 17.7429 22.8867 17.7974 22.7783 17.8433C22.6743 17.887 22.5688 17.9216 22.4609 17.9473L22.4609 17.9473C22.3115 17.9824 22.1577 18 22 18C21.8423 18 21.6885 17.9824 21.5391 17.9473L21.5391 17.9473L21.5391 17.9473C21.4312 17.9216 21.3257 17.887 21.2217 17.8433C21.1133 17.7974 21.0103 17.7429 20.9131 17.6797L20.9131 17.6797L20.9131 17.6797C20.7959 17.6038 20.6865 17.5151 20.5859 17.4143C20.4849 17.3132 20.3965 17.2041 20.3203 17.0869L20.3203 17.0869L20.3203 17.0869L20.3203 17.0869C20.2573 16.9895 20.2026 16.8867 20.1567 16.7781C20.1128 16.6746 20.0781 16.5686 20.0527 16.4607ZM21 16C21 15.4478 21.4478 15 22 15C22.5522 15 23 15.4478 23 16C23 16.5522 22.5522 17 22 17C21.4478 17 21 16.5522 21 16Z" clip-rule="evenodd" fill-rule="evenodd" fill="#6E6A81" fill-opacity="1.000000"/>
</svg>