<svg xmlns="http://www.w3.org/2000/svg" width="49" height="49" fill="none"><path d="M24.1 48.25a23.25 23.25 0 100-46.5 23.25 23.25 0 000 46.5z" fill="#F2F4F6"/><path d="M12.6 8h22.66c.74 0 1.34.64 1.34 1.43v31.14c0 .79-.6 1.43-1.34 1.43H12.43c-.73 0-1.33-.64-1.33-1.43V9.5c0-.8.76-1.5 1.5-1.5z" fill="#007B56"/><path d="M15.48 8h21.28c.74 0 1.34.64 1.34 1.44V40.56c0 .8-.6 1.44-1.34 1.44H15.43c-.73 0-1.33-.64-1.33-1.44V9.44C14.1 9 14.75 8 15.48 8z" fill="#16AF6F"/><path opacity=".5" d="M15.6 8h21.16c.74 0 1.34.64 1.34 1.44v8.51h-24l.11-8.51C14.21 9 14.86 8 15.6 8z" fill="#007B56"/><path d="M17.11 11H35.1l-.02 5H17.1l.01-5z" fill="#E0EFDB"/><path d="M34.1 11h1v5h-1v-5z" fill="#79CF6F"/><path d="M20.1 20h-2a1 1 0 00-1 1v2a1 1 0 001 1h2a1 1 0 001-1v-2a1 1 0 00-1-1zM27.1 20h-2a1 1 0 00-1 1v2a1 1 0 001 1h2a1 1 0 001-1v-2a1 1 0 00-1-1zM34.1 20h-2a1 1 0 00-1 1v2a1 1 0 001 1h2a1 1 0 001-1v-2a1 1 0 00-1-1zM20.1 27h-2a1 1 0 00-1 1v2a1 1 0 001 1h2a1 1 0 001-1v-2a1 1 0 00-1-1zM27.1 27h-2a1 1 0 00-1 1v2a1 1 0 001 1h2a1 1 0 001-1v-2a1 1 0 00-1-1zM34.1 27h-2a1 1 0 00-1 1v2a1 1 0 001 1h2a1 1 0 001-1v-2a1 1 0 00-1-1zM20.1 35h-2a1 1 0 00-1 1v2a1 1 0 001 1h2a1 1 0 001-1v-2a1 1 0 00-1-1z" fill="#fff"/><path d="M33.1 35h-9a1 1 0 00-1 1v2a1 1 0 001 1h9a1 1 0 001-1v-2a1 1 0 00-1-1z" fill="#F4682C"/><path d="M34.1 35h-9a1 1 0 00-1 1v2a1 1 0 001 1h9a1 1 0 001-1v-2a1 1 0 00-1-1z" fill="#FE9247"/></svg>