<svg xmlns="http://www.w3.org/2000/svg" xmlns:xlink="http://www.w3.org/1999/xlink" width="32.000000" height="48.000000" viewBox="0 0 32 48" fill="none">
	<defs/>
	<rect id="Фон документа" x="0.500000" y="0.500000" rx="2.000000" width="31.000000" height="47.000000" fill="#FFFFFF"/>
	<rect id="Фон документа" x="0.500000" y="0.500000" rx="2.000000" width="31.000000" height="47.000000" stroke="#EAE9F2"/>
	<rect id="Полоска" x="5.000000" y="8.000000" width="9.000000" height="1.000000" fill="#B9B6C9"/>
	<rect id="Полоска" x="5.000000" y="17.000000" width="9.000000" height="1.000000" fill="#B9B6C9"/>
	<rect id="Полоска" x="5.000000" y="11.000000" width="6.000000" height="1.000000" fill="#B9B6C9"/>
	<rect id="Полоска" x="5.000000" y="30.000000" width="6.000000" height="1.000000" fill="#B9B6C9"/>
	<rect id="Полоска" x="12.000000" y="30.000000" width="3.000000" height="1.000000" fill="#B9B6C9"/>
	<rect id="Полоска" x="5.000000" y="14.000000" width="3.000000" height="1.000000" fill="#B9B6C9"/>
	<rect id="Полоска" x="25.000000" y="17.000000" width="2.000000" height="1.000000" fill="#B9B6C9"/>
	<rect id="Полоска" x="15.000000" y="17.000000" width="3.000000" height="1.000000" fill="#B9B6C9"/>
	<rect id="Полоска" x="11.000000" y="20.000000" width="3.000000" height="1.000000" fill="#B9B6C9"/>
	<rect id="Полоска" x="15.000000" y="8.000000" width="5.000000" height="1.000000" fill="#B9B6C9"/>
	<rect id="Полоска" x="5.000000" y="20.000000" width="5.000000" height="1.000000" fill="#B9B6C9"/>
	<rect id="Полоска" x="12.000000" y="11.000000" width="5.000000" height="1.000000" fill="#B9B6C9"/>
	<rect id="Полоска" x="9.000000" y="14.000000" width="5.000000" height="1.000000" fill="#B9B6C9"/>
	<rect id="Полоска" x="19.000000" y="17.000000" width="5.000000" height="1.000000" fill="#B9B6C9"/>
	<rect id="Полоска" x="21.000000" y="14.000000" width="6.000000" height="1.000000" fill="#B9B6C9"/>
	<rect id="Полоска" x="15.000000" y="14.000000" width="5.000000" height="1.000000" fill="#B9B6C9"/>
	<rect id="Полоска" x="21.000000" y="8.000000" width="6.000000" height="1.000000" fill="#B9B6C9"/>
	<rect id="Полоска" x="18.000000" y="11.000000" width="9.000000" height="1.000000" fill="#B9B6C9"/>
	<path id="Печать" d="M23 26C20.791 26 19 27.7908 19 30C19 32.2092 20.791 34 23 34C25.209 34 27 32.2092 27 30C27 27.7908 25.209 26 23 26ZM20.0767 30.6807L20.0767 30.6807C20.0254 30.4597 20 30.2329 20 30C20 29.7673 20.0254 29.5405 20.0767 29.3196L20.0767 29.3193L20.0767 29.3193C20.1152 29.1538 20.168 28.9915 20.2354 28.8325C20.3052 28.668 20.3877 28.512 20.4839 28.3645C20.5972 28.1904 20.7285 28.0286 20.8789 27.8787C21.0288 27.7288 21.1904 27.5972 21.3643 27.4839L21.3643 27.4839L21.3643 27.4839C21.5117 27.3879 21.668 27.3049 21.8325 27.2354C21.9917 27.1682 22.1538 27.1152 22.3193 27.0769L22.3193 27.0769C22.5405 27.0256 22.7671 27 23 27C23.2329 27 23.4595 27.0256 23.6807 27.0769L23.6807 27.0769C23.8462 27.1152 24.0083 27.1682 24.1675 27.2354C24.332 27.3049 24.4878 27.3877 24.6353 27.4839L24.6357 27.4839C24.8096 27.5972 24.9712 27.7288 25.1211 27.8787C25.2715 28.0286 25.4028 28.1907 25.5161 28.3645L25.5161 28.3645C25.6123 28.512 25.6948 28.668 25.7646 28.8325C25.832 28.9915 25.8848 29.1538 25.9233 29.3193L25.9233 29.3193C25.9746 29.5403 26 29.7671 26 30C26 30.2329 25.9746 30.4597 25.9233 30.6807L25.9233 30.6807L25.9233 30.6807L25.9233 30.6807C25.8848 30.8462 25.832 31.0085 25.7646 31.1675C25.6948 31.332 25.6123 31.488 25.5161 31.6355L25.5161 31.6355C25.4028 31.8093 25.2715 31.9714 25.1211 32.1213C24.9712 32.2712 24.8096 32.4028 24.6357 32.5161L24.6357 32.5161C24.4883 32.6123 24.332 32.6951 24.1675 32.7646C24.0083 32.8318 23.8462 32.8848 23.6807 32.9231C23.4595 32.9744 23.2329 33 23 33C22.7671 33 22.5405 32.9744 22.3193 32.9231L22.3193 32.9231L22.3188 32.9231C22.1533 32.8845 21.9912 32.8318 21.8325 32.7646C21.668 32.6951 21.5117 32.6121 21.3643 32.5161L21.3643 32.5161C21.1904 32.4028 21.0288 32.2712 20.8789 32.1213C20.7285 31.9714 20.5972 31.8096 20.4839 31.6357L20.4839 31.6355C20.3877 31.488 20.3052 31.332 20.2354 31.1675C20.168 31.0085 20.1152 30.8462 20.0767 30.6807L20.0767 30.6807ZM21 30C21 28.8955 21.8955 28 23 28C24.1045 28 25 28.8955 25 30C25 31.1045 24.1045 32 23 32C21.8955 32 21 31.1045 21 30ZM22 30C22 30.0825 22.0098 30.1628 22.0288 30.2407C22.041 30.2913 22.0576 30.3406 22.0781 30.3889C22.1001 30.4414 22.1265 30.4912 22.1567 30.5383L22.1567 30.5383C22.1953 30.5989 22.2407 30.655 22.293 30.707C22.3447 30.759 22.4014 30.8044 22.4614 30.8433C22.5088 30.8735 22.5586 30.8997 22.6108 30.9219C22.6597 30.9424 22.709 30.9587 22.7593 30.9712L22.7593 30.9712C22.8369 30.9905 22.9175 31 23 31C23.0825 31 23.1631 30.9905 23.2407 30.9712C23.291 30.9587 23.3403 30.9424 23.3892 30.9219C23.4414 30.8997 23.4912 30.8735 23.5386 30.8433C23.5986 30.8044 23.6553 30.759 23.707 30.707C23.7593 30.655 23.8047 30.5989 23.8433 30.5383C23.8735 30.4912 23.8999 30.4414 23.9219 30.3889C23.9424 30.3406 23.9585 30.2913 23.9712 30.241L23.9712 30.2407C23.9902 30.1628 24 30.0825 24 30C24 29.9175 23.9902 29.8372 23.9712 29.7593C23.959 29.7087 23.9424 29.6594 23.9219 29.6111C23.8999 29.5586 23.8735 29.5088 23.8433 29.4617C23.8047 29.4011 23.7593 29.345 23.707 29.293C23.6553 29.241 23.5986 29.1956 23.5386 29.1567C23.4912 29.1265 23.4414 29.1003 23.3892 29.0781C23.3403 29.0576 23.291 29.0413 23.2407 29.0288L23.2407 29.0288C23.1631 29.0095 23.0825 29 23 29C22.9175 29 22.8369 29.0095 22.7593 29.0288L22.7593 29.0288C22.709 29.0413 22.6597 29.0576 22.6108 29.0781C22.5586 29.1003 22.5088 29.1265 22.4614 29.1567L22.4614 29.1567L22.4614 29.1567C22.4014 29.1956 22.3447 29.241 22.293 29.293C22.2407 29.345 22.1953 29.4011 22.1567 29.4617L22.1567 29.4617L22.1567 29.4617C22.1265 29.5088 22.1001 29.5586 22.0781 29.6111C22.0576 29.6594 22.041 29.7087 22.0288 29.7593L22.0288 29.7593C22.0098 29.8372 22 29.9175 22 30Z" clip-rule="evenodd" fill-rule="evenodd" fill="#A391F3" fill-opacity="1.000000"/>
</svg>