<svg xmlns="http://www.w3.org/2000/svg" width="49" height="49" fill="none"><path d="M24.1 48a23.07 23.07 0 01-23-23 23.07 23.07 0 0123-23 23.07 23.07 0 0123 23 23.07 23.07 0 01-23 23z" fill="#EDEEEE"/><path d="M6.33 42.3h-.66l.53-3.56h1.17L6.33 42.3zM9.36 42.3H8.7l.51-3.56h1.2L9.35 42.3zM42.74 42.3h.66l-.53-3.56H41.7l1.05 3.56zM40.16 42.3h.66l-.53-3.56h-1.18l1.05 3.56z" fill="#60696C"/><path d="M45.61 42H3.58c-.26 0-.48.18-.48.4v.19c0 .22.22.4.48.4h42.03c.27 0 .49-.18.49-.4v-.18c0-.23-.22-.41-.49-.41z" fill="#9CABB1"/><path d="M43.1 33h-38v-9.13c0-.5.2-.97.56-1.32.36-.35.85-.55 1.36-.55h34.12c.5 0 1 .2 1.36.55.36.35.56.82.56 1.32L43.1 33zM43.1 38h-37v1h37v-1z" fill="#F4682C"/><path d="M30.37 25.99l-3.76.78c-.8.16-1.32.95-1.16 1.75l.8 3.8c.16.8.94 1.32 1.75 1.16l3.76-.78c.8-.17 1.32-.96 1.15-1.76l-.78-3.8A1.49 1.49 0 0030.37 26z" fill="#FE9247"/><path d="M15.68 25.96l-4.07.85c-.72.15-1.18.85-1.03 1.57l.85 4.1c.15.72.85 1.19 1.57 1.04l4.07-.85a1.33 1.33 0 001.03-1.57l-.85-4.1a1.33 1.33 0 00-1.57-1.04zM34.96 34.38l-3.4-1.36a1.6 1.6 0 01-.9-2.06l1.36-3.4a1.6 1.6 0 012.08-.9l3.4 1.36a1.6 1.6 0 01.9 2.08l-1.36 3.4a1.6 1.6 0 01-2.08.9v-.02z" fill="#FABA89"/><path d="M44.1 33h-40v5h40v-5z" fill="#FE9247"/><path d="M32.1 7h-16v11h16V7z" fill="#16AF6F"/><path d="M31.1 8h-14v9h14V8z" fill="#79CF6F"/><path d="M24.1 10.75a1.63 1.63 0 00-3 1c.08 1.56 1.35 2.07 3 3.25 1.64-1.18 2.9-1.7 3-3.26a1.63 1.63 0 00-2.17-1.65c-.35.12-.64.35-.83.66z" fill="#16AF6F"/></svg>