<svg xmlns="http://www.w3.org/2000/svg" width="64" height="64" viewBox="0 0 64 64" fill="none"><g clip-path="url(#sffd623__a)"><path d="M60.783 21.23c-.252-3.298-2.77-7.527-5.287-9.556a96.089 96.089 0 0 0-8.81-5.751 97.916 97.916 0 0 0-9.316-4.905A13.527 13.527 0 0 0 32 .003c-1.84-.039-3.67.307-5.37 1.015a98.51 98.51 0 0 0-9.315 4.905c-4.868 2.96-8.812 5.75-8.812 5.75a15.61 15.61 0 0 0-3.287 3.848c-.1.165.02.374.214.374h4.09a.341.341 0 0 0 .257-.118 13.65 13.65 0 0 1 1.546-1.517s3.47-2.436 7.754-5.019c2.654-1.571 5.39-3 8.197-4.28A11.74 11.74 0 0 1 32 4.074a11.99 11.99 0 0 1 4.726.885 86.407 86.407 0 0 1 8.197 4.281 84.633 84.633 0 0 1 7.754 5.019c2.215 1.771 4.43 5.462 4.652 8.34 0 0 .517 4.28.59 9.351a87.542 87.542 0 0 1-.516 9.374 13.652 13.652 0 0 1-4.726 8.34s-3.471 2.51-7.754 5.093a86.92 86.92 0 0 1-8.197 4.28c-1.497.619-3.106.92-4.726.886a11.992 11.992 0 0 1-4.726-.864 86.426 86.426 0 0 1-8.197-4.28c-4.283-2.51-7.754-5.093-7.754-5.093-.45-.36-.902-.8-1.336-1.296a.341.341 0 0 0-.256-.118H5.625a.248.248 0 0 0-.212.38c.913 1.447 2.002 2.736 3.09 3.614 0 0 3.944 2.96 8.812 5.835a97.91 97.91 0 0 0 9.314 4.906 13.526 13.526 0 0 0 5.37.989c1.841.039 3.67-.307 5.372-1.015a98.515 98.515 0 0 0 9.314-4.905c4.867-2.96 8.811-5.835 8.811-5.835a15.675 15.675 0 0 0 5.371-9.557c.386-3.567.582-7.152.587-10.74-.084-5.81-.67-10.715-.67-10.715Z" fill="url(#sffd623__b)"/><path d="M22.101 40.62h-1.985a.101.101 0 0 1-.096-.128c.331-1.13.677-2.408.917-3.826.245-1.465.374-2.816.428-4.022a.1.1 0 0 1 .1-.097h5.9a.1.1 0 0 1 .1.1v7.873a.1.1 0 0 1-.1.1h-1.933a.1.1 0 0 1-.101-.1v-6.08h-1.94a25.898 25.898 0 0 1-.389 2.879c-.23 1.191-.5 2.273-.806 3.233a.1.1 0 0 1-.095.069Z" fill="#EE2F53"/><path d="M3.448 20.874a.1.1 0 0 1 .1-.1h5.688a.1.1 0 0 1 .091.139l-.704 1.692a.098.098 0 0 1-.101.06l-.01.001H5.577v6.08a.1.1 0 0 1-.1.101h-1.93a.1.1 0 0 1-.1-.1v-7.873Z" fill="#0066B3"/><path d="M38.098 32.648a.1.1 0 0 1 .1-.101h5.7a.1.1 0 0 1 .09.14l-.705 1.691a.098.098 0 0 1-.102.06l-.01.001h-2.94v6.08a.1.1 0 0 1-.1.102h-1.933a.1.1 0 0 1-.1-.101v-7.873Zm-34.549-.101a.1.1 0 0 0-.095.134l2.937 7.94a99.37 99.37 0 0 1-1.401 2.811.101.101 0 0 0 .089.148h2.089a.102.102 0 0 0 .09-.055c1.546-3.146 2.683-5.935 4.239-10.845a.101.101 0 0 0-.096-.133h-1.94a.102.102 0 0 0-.097.074c-.599 2.099-1.151 3.742-1.791 5.326L5.6 32.612a.1.1 0 0 0-.094-.065H3.549Zm25.313 0a.1.1 0 0 0-.094.134l2.937 7.94a99.483 99.483 0 0 1-1.402 2.811.101.101 0 0 0 .09.148h2.088a.102.102 0 0 0 .09-.055c1.546-3.146 2.684-5.935 4.24-10.845a.101.101 0 0 0-.096-.133h-1.94a.102.102 0 0 0-.098.074c-.599 2.099-1.15 3.742-1.79 5.326l-1.973-5.335a.1.1 0 0 0-.095-.065h-1.957ZM18.42 38.714a.11.11 0 0 0-.056-.06.116.116 0 0 0-.082-.004c-.464.172-1.333.31-1.938.31-1.325 0-1.956-.355-1.956-2.379 0-1.617.194-2.379 1.956-2.379.5 0 .963.072 1.552.243.048.014.1-.008.122-.052.22-.412.485-.915.785-1.532a.103.103 0 0 0 .002-.087.109.109 0 0 0-.066-.06 8.714 8.714 0 0 0-2.533-.39c-2.775 0-4.012 1.303-4.012 4.228 0 2.966 1.237 4.289 4.012 4.289.695 0 2.066-.145 2.727-.408a.106.106 0 0 0 .06-.133l-.573-1.586Z" fill="#EE2F53"/><path d="M25.064 26.94a.11.11 0 0 0-.056-.059.116.116 0 0 0-.082-.004c-.463.171-1.332.31-1.938.31-1.324 0-1.956-.356-1.956-2.379 0-1.617.194-2.38 1.956-2.38.5 0 .963.072 1.553.244.048.014.1-.008.122-.052.22-.412.485-.915.785-1.532A.103.103 0 0 0 25.45 21a.109.109 0 0 0-.066-.06 8.715 8.715 0 0 0-2.533-.39c-2.775 0-4.012 1.304-4.012 4.228 0 2.966 1.237 4.29 4.012 4.29.695 0 2.065-.146 2.727-.408a.106.106 0 0 0 .06-.134l-.574-1.585ZM13.61 20.55c-2.714 0-3.77 1.186-3.77 4.228 0 3.088 1.056 4.29 3.77 4.29 2.734 0 3.8-1.202 3.8-4.29 0-3.042-1.066-4.227-3.8-4.227Zm0 6.745c-1.237 0-1.622-.342-1.622-2.487 0-2.283.42-2.487 1.621-2.487 1.224 0 1.653.204 1.653 2.487 0 2.145-.393 2.487-1.653 2.487Z" fill="#0066B3"/><path d="M51.938 32.547h-1.932a.1.1 0 0 0-.1.1v6.084a4.762 4.762 0 0 1-1.308.172c-1.172 0-1.512-.33-1.556-1.703v-4.553a.1.1 0 0 0-.1-.1H45.01a.1.1 0 0 0-.1.1v.012l.001 4.585c.047 2.585.984 3.598 3.3 3.598 1.352 0 2.862-.344 3.757-.685a.102.102 0 0 0 .068-.099v-7.411a.097.097 0 0 0-.098-.1Z" fill="#EE2F53"/></g><defs><linearGradient id="sffd623__b" x1="32.817" y1="-.233" x2="32.817" y2="63.913" gradientUnits="userSpaceOnUse"><stop stop-color="#0F67B1"/><stop offset=".4" stop-color="#0F67B1"/><stop offset=".66" stop-color="#EE2F53"/><stop offset="1" stop-color="#EE2F53"/></linearGradient><clipPath id="sffd623__a"><path fill="white" d="M0 0h64v64H0z"/></clipPath></defs></svg>