<svg xmlns="http://www.w3.org/2000/svg" width="244" height="160" viewBox="0 0 244 160" fill="none">
    <path opacity="0.15" d="M237.732 152.442H8.22617C6.00699 152.442 4.81205 149.796 6.30573 148.132L20.6836 137.377H225.104L239.696 148.089C241.189 149.753 239.994 152.442 237.732 152.442Z" fill="#003D75"/>
    <path d="M37.9675 124.038V34.3374C37.9675 30.1551 41.339 26.7837 45.5213 26.7837H201.12C205.302 26.7837 208.674 30.1551 208.674 34.3374V124.038C208.674 128.22 205.302 131.592 201.12 131.592H45.5213C41.339 131.592 37.9675 128.22 37.9675 124.038Z" fill="#1279B3"/>
    <path d="M197.151 124.019H49.4473C47.1001 124.019 45.137 122.099 45.137 119.709V37.0502C45.137 34.703 47.0574 32.7399 49.4473 32.7399H197.151C199.498 32.7399 201.461 34.6603 201.461 37.0502V119.709C201.461 122.099 199.541 124.019 197.151 124.019Z" fill="#63BCEE"/>
    <path opacity="0.25" d="M195.558 32.7397H171.317L125.726 124.062H151.545L195.558 32.7397Z" fill="white"/>
    <path opacity="0.25" d="M157.66 32.7397H147.972L102.338 124.062H113.648L157.66 32.7397Z" fill="white"/>
    <path d="M234.988 139.583V139.542C234.988 138.958 234.774 138.292 234.305 137.792L210.514 134.5C208.552 132.292 205.738 131 202.796 131H123.021H122.936H43.2039C40.262 131 37.4479 132.292 35.4866 134.5L11.6948 137.792C11.2258 138.333 11.0126 138.958 11.0126 139.542V139.583C11.0126 139.583 10.8421 142.5 11.7801 145.042C12.6328 147.292 14.381 148 18.3463 148C26.7459 148 121.145 148 122.979 148H123.021C123.021 148 123.021 148 123.064 148C124.897 148 219.297 148 227.697 148C231.662 148 233.41 147.333 234.263 145.042C235.158 142.458 234.988 139.583 234.988 139.583Z" fill="#076EA8"/>
    <path d="M232.336 138H13.6441C12.0664 138 11.0005 137.725 11.0005 137.449C11.0005 137.331 11.2137 137.213 11.6827 137.096L35.4749 131.708C37.4362 131.275 40.2504 131 43.1924 131H202.788C205.772 131 208.544 131.275 210.548 131.708L234.34 137.096C235.832 137.449 234.638 138 232.336 138Z" fill="#5DA5D9"/>
    <path d="M62 109.5C62 107.567 63.567 106 65.5 106H180.5C182.433 106 184 107.567 184 109.5C184 111.433 182.433 113 180.5 113H65.5C63.567 113 62 111.433 62 109.5Z" fill="#00599A"/>
    <path d="M74 13H170V113H74V13Z" fill="#BDDBEC"/>
    <rect x="77" y="16" width="96" height="97" fill="#F2FAFD"/>
    <path d="M135.253 99.1666C133.841 98.2499 131.929 98.2916 130.6 99.3333C129.187 100.417 128.73 102.187 129.145 103.875C129.582 105.562 130.704 107.042 132.345 107.667C133.799 108.229 135.544 108.083 136.832 107.187C138.287 106.187 139.159 104.417 139.014 102.667C138.993 102.354 138.453 102.208 138.411 102.583C138.349 103.062 138.349 103.542 138.453 104.021C138.536 104.417 138.702 104.917 139.014 105.208C139.595 105.729 140.198 105.021 140.343 104.458C140.489 103.958 140.53 103.437 140.572 102.937C140.634 102.312 140.697 101.667 140.759 101.042C140.8 100.75 140.821 100.458 140.884 100.187C140.904 100.062 140.925 99.9583 140.967 99.8333C141.008 99.7083 140.987 99.7083 141.029 99.6458C140.863 99.6666 140.697 99.6874 140.53 99.7083C141.32 100.521 142.005 101.521 142.608 102.479C142.92 102.979 143.252 103.521 143.418 104.104C143.46 104.229 143.46 104.25 143.46 104.333C143.46 104.354 143.46 104.479 143.46 104.396C143.46 104.417 143.46 104.437 143.439 104.458C143.418 104.521 143.46 104.396 143.439 104.458C143.418 104.5 143.439 104.479 143.418 104.479C143.356 104.5 143.377 104.5 143.356 104.5C143.273 104.5 143.19 104.5 143.107 104.5C142.629 104.458 142.421 104.104 142.4 103.646C142.379 103.083 142.525 102.5 142.774 102C142.878 101.771 143.023 101.542 143.19 101.354C143.273 101.271 143.335 101.208 143.397 101.167C143.418 101.146 143.522 101.104 143.46 101.125C143.481 101.104 143.584 101.083 143.564 101.104C143.522 101.125 143.584 101.104 143.584 101.104C143.626 101.146 143.564 101.104 143.543 101.083C143.543 101.083 143.543 101.083 143.543 101.104C143.626 101.187 143.709 101.271 143.771 101.375C143.979 101.667 144.166 101.979 144.353 102.271C144.561 102.604 144.769 102.937 145.018 103.25C145.205 103.5 145.413 103.667 145.745 103.625C146.784 103.458 147.012 102.146 147.158 101.292C146.992 101.333 146.805 101.375 146.638 101.437C147.137 101.854 147.656 102.312 148.28 102.542C148.737 102.708 149.339 102.604 149.36 102.021C149.381 101.583 149.194 101.104 149.069 100.687C148.924 100.187 148.737 99.7083 148.654 99.2083C148.633 99.1458 148.633 99.1249 148.633 99.0416C148.633 98.9791 148.633 98.9999 148.633 98.9999C148.654 98.9999 148.633 98.8958 148.612 99.0208C148.612 99.0416 148.591 99.0833 148.612 99.0208C148.612 98.9999 148.654 98.9999 148.612 99.0208C148.633 99.0208 148.695 98.9999 148.674 98.9999C148.716 98.9999 148.799 98.9999 148.861 99.0208C149.339 99.1458 149.796 99.4374 150.212 99.6874C150.69 99.9791 151.147 100.292 151.666 100.521C151.874 100.625 152.082 100.708 152.289 100.75C152.643 100.812 153.017 100.729 153.349 100.646C154.367 100.396 155.302 99.8333 156.195 99.3333C157.13 98.7916 158.065 98.2291 158.896 97.5208C159.208 97.2499 158.751 96.8124 158.46 97.0833C157.753 97.6874 156.964 98.1874 156.174 98.6458C155.385 99.1041 154.575 99.6041 153.723 99.8958C153.328 100.042 152.913 100.167 152.497 100.167C152.393 100.167 152.186 100.104 152.04 100.042C151.562 99.8333 151.105 99.5208 150.648 99.2499C150.191 98.9583 149.734 98.6666 149.235 98.4999C148.882 98.3749 148.446 98.3124 148.155 98.6041C147.885 98.8749 148.01 99.3333 148.093 99.6874C148.217 100.187 148.384 100.667 148.529 101.167C148.591 101.396 148.674 101.646 148.716 101.896C148.716 101.917 148.716 102.042 148.716 102.083C148.716 101.979 148.737 102.146 148.737 102.042C148.737 101.937 148.841 102.042 148.716 102C148.591 101.979 148.487 101.979 148.363 101.917C148.197 101.854 148.03 101.75 147.885 101.646C147.594 101.458 147.345 101.229 147.075 101C146.909 100.875 146.597 100.875 146.555 101.146C146.472 101.604 146.41 102.104 146.202 102.542C146.119 102.708 146.015 102.875 145.87 102.958C145.807 103 145.724 103 145.662 103.042C145.558 103.083 145.641 103.021 145.704 103.062C145.641 103.021 145.704 103.062 145.683 103.062C145.205 102.542 144.893 101.917 144.499 101.333C144.332 101.083 144.166 100.792 143.917 100.625C143.709 100.479 143.439 100.521 143.21 100.625C142.712 100.854 142.379 101.437 142.172 101.917C141.735 102.896 141.403 104.833 142.857 105.146C143.397 105.271 144.062 105.146 144.104 104.5C144.145 103.937 143.813 103.333 143.564 102.854C143.169 102.104 142.67 101.417 142.172 100.729C141.818 100.25 141.445 99.7291 141.008 99.2916C140.863 99.1458 140.613 99.1874 140.51 99.3541C140.343 99.6666 140.302 100.021 140.24 100.375C140.156 100.896 140.115 101.417 140.073 101.937C140.032 102.458 139.969 103 139.907 103.521C139.886 103.729 139.845 103.917 139.803 104.125C139.782 104.208 139.762 104.292 139.741 104.354C139.741 104.396 139.72 104.417 139.699 104.458C139.699 104.458 139.72 104.437 139.679 104.5C139.637 104.583 139.512 104.812 139.408 104.771C139.263 104.708 139.159 104.312 139.118 104.187C138.972 103.729 138.91 103.25 138.993 102.771C138.785 102.75 138.577 102.708 138.39 102.687C138.494 104.042 137.954 105.396 136.957 106.312C135.939 107.25 134.505 107.583 133.176 107.271C131.701 106.937 130.6 105.896 130.018 104.5C129.415 103.083 129.436 101.417 130.517 100.229C131.659 98.9999 133.529 98.7916 134.921 99.7083C135.274 99.9166 135.586 99.3749 135.253 99.1666Z" fill="#01537C"/>
    <rect x="104" y="33" width="40" height="5" rx="2.5" fill="#BADEED"/>
    <rect x="89" y="45" width="70" height="5" rx="2.5" fill="#BADEED"/>
    <rect x="89" y="55" width="70" height="5" rx="2.5" fill="#BADEED"/>
    <rect x="89" y="65" width="70" height="5" rx="2.5" fill="#BADEED"/>
    <rect x="89" y="75" width="70" height="5" rx="2.5" fill="#BADEED"/>
    <rect x="89" y="85" width="48" height="5" rx="2.5" fill="#BADEED"/>
    <path opacity="0.2" d="M74 106H173V113H74V106Z" fill="url(#paint0_linear_4:2393)"/>
    <path opacity="0.2" d="M74 113H173V131L180 135H68L74 131V113Z" fill="#014266"/>
    <defs>
        <linearGradient id="paint0_linear_4:2393" x1="123.5" y1="106" x2="123.5" y2="113" gradientUnits="userSpaceOnUse">
            <stop offset="0.0989583" stop-color="#014266" stop-opacity="0"/>
            <stop offset="1" stop-color="#014266"/>
        </linearGradient>
    </defs>
</svg>