<svg xmlns="http://www.w3.org/2000/svg" width="160" height="160" viewBox="0 0 160 160" fill="none">
    <g clip-path="url(#clip0_4:2419)">
        <path d="M149.734 163.527C126.79 163.527 121.443 163.527 103.858 163.527C102.325 159.138 102.243 154.304 98.262 151.692C90.4839 146.588 86.1911 143.315 83.7737 138.255C82.6746 135.947 82.1999 134.429 82.1999 134.429C82.1999 134.429 83.0403 134.362 84.5421 134.254C93.4116 133.614 113.02 131.621 131.007 134.562C132.62 134.818 134.117 135.128 135.476 135.466C140.569 136.763 143.723 138.673 143.557 141.435C142.722 154.557 136.863 150.007 149.734 163.527Z" fill="#FFB596"/>
        <path d="M77.7158 86.317C69.6024 98.8716 69.2734 108.36 65.4606 115.87C58.5587 131.672 49.7515 123.707 49.7515 123.707C49.7515 123.707 53.0233 113.676 55.6954 100.226C56.7296 95.0258 60.6211 90.8805 65.663 89.5359L77.7158 86.317Z" fill="#F49777"/>
        <path d="M62.8941 101.889C67.7974 94.3141 69.3881 84.4364 78.1896 72.3339C78.9249 71.2987 79.7242 70.2636 80.5825 69.1959L76.3582 69.8609L65.9919 71.4792C65.1798 71.6081 64.3892 71.7992 63.622 72.0421L57.6521 107.45C59.4654 106.198 61.2611 104.416 62.8941 101.889Z" fill="#F49777"/>
        <path d="M63.6289 72.033L57.659 107.441C50.4657 115.985 43.4942 109.068 43.4942 109.068C43.4942 109.068 43.8955 107.987 44.5346 106.255C45.7009 103.107 47.6566 97.8103 49.4153 92.986C51.1201 88.2908 52.6426 84.0436 53.065 82.6471C54.6093 77.5421 58.6141 73.6176 63.6289 72.033Z" fill="#FFB596"/>
        <path d="M76.2573 50.6264C81.5116 49.364 87.1392 47.8189 92.7621 45.9539C93.4401 45.7332 94.1208 45.497 94.7954 45.2651C92.9432 43.6128 91.1498 41.9598 89.4282 40.3242C86.1502 37.2138 83.1544 34.1722 80.5045 31.391C80.1042 30.9778 79.7298 30.5691 79.3494 30.1646C77.3428 28.0343 74.3508 24.6211 72.0574 21.9745L68.7821 41.4004C70.1917 43.3024 71.7866 45.1826 73.4783 47.2172C74.3851 48.3007 75.3152 49.436 76.2573 50.6264Z" fill="#F49777"/>
        <path d="M68.781 18.1576C68.781 18.1576 54.2697 20.7714 66.2934 37.6312C67.0312 38.9254 67.8746 40.163 68.7881 41.3965L72.0625 21.9758C70.19 19.8096 68.781 18.1576 68.781 18.1576Z" fill="#FFB596"/>
        <path d="M66.6355 52.7423C60.8317 53.9068 48.9236 55.6426 48.9236 55.6426C48.9236 55.6426 46.4071 70.5678 64.1675 68.1088C64.2048 68.1097 64.2481 68.1064 64.2853 68.1073L66.8849 52.6886C66.8018 52.7065 66.7186 52.7244 66.6355 52.7423Z" fill="#FFB596"/>
        <path d="M83.5614 61.631C81.1913 57.222 78.6816 53.704 76.2571 50.6311C76.1844 50.6508 76.1064 50.6695 76.0337 50.6892C72.8108 51.4645 69.7353 52.1265 66.8832 52.6985L64.2844 68.112C70.2043 68.3497 76.2682 66.8144 84.109 66.3018C84.6709 66.2635 85.2465 66.2383 85.8222 66.2131C85.0927 64.5852 84.3396 63.065 83.5709 61.6379L83.5605 61.6362L83.5614 61.631Z" fill="#F49777"/>
        <path opacity="0.7" d="M50.8196 100.867L49.4207 105.364C49.1625 106.185 48.299 106.671 47.4352 106.48L44.6361 105.872C45.7603 102.881 47.6453 97.8494 49.3402 93.2661C51.0155 95.3486 51.662 98.1576 50.8196 100.867Z" fill="#FFD7C9"/>
        <path d="M99.2823 115.469C103.892 114.665 106.98 110.292 106.179 105.701C105.379 101.111 100.993 98.0422 96.3827 98.8463C91.7727 99.6505 88.6847 104.023 89.4855 108.614C90.2862 113.204 94.6724 116.273 99.2823 115.469Z" fill="#16AF6F"/>
        <path d="M99.775 105.763L97.053 109.618C96.9558 109.755 96.195 109.26 96.0569 109.164L95.6265 108.862C95.1472 108.527 94.4829 108.643 94.1455 109.121L93.2935 110.327C92.7788 111.056 93.1536 111.72 94.1921 112.045C95.2986 112.391 96.131 112.047 96.7241 111.808C98.7179 111.007 101.758 106.95 101.852 104.514C101.876 103.878 101.784 102.81 101.231 102.076C100.56 101.184 99.8112 101.089 99.3035 101.816L98.4514 103.023C98.114 103.501 98.2294 104.162 98.7087 104.498L99.1391 104.799C99.2715 104.903 99.8722 105.625 99.775 105.763Z" fill="#F6FDFF"/>
        <path d="M56.8586 129.777C56.6738 132.917 61.7353 134.239 64.6895 134.413L118.048 140.089C121.002 140.262 123.548 137.857 123.732 134.716L142.945 16.8901C143.5 13.8111 141.875 10.8279 138.333 9.58987L135.36 8.91573L84.9223 4.79997C81.968 4.62613 79.4223 7.03194 79.2375 10.1723L56.8586 129.777Z" fill="#004871"/>
        <path d="M55.5465 127.534C55.3617 130.674 57.6077 133.362 60.562 133.536L113.92 139.211C116.874 139.385 119.42 136.979 119.605 133.839L140.324 14.9085C140.509 11.7681 138.263 9.08038 135.309 8.90654L81.8984 4.11947C78.9441 3.94563 76.3984 6.35144 76.2136 9.49182L55.5465 127.534Z" fill="#076EA8"/>
        <path d="M59.1376 124.94C58.9696 127.796 61.0151 130.24 63.7061 130.399L112.294 135.565C114.985 135.723 117.303 133.536 117.471 130.68L136.503 20.2931C136.671 17.4374 134.625 14.993 131.934 14.8347L83.2944 10.552C80.6033 10.3936 78.2853 12.5812 78.1172 15.4369L59.1376 124.94Z" fill="#63BCEE"/>
        <path opacity="0.25" d="M59.1381 124.941C58.97 127.796 61.0155 130.241 63.7066 130.399L112.294 135.565C114.985 135.724 117.303 133.536 117.471 130.68L120.97 112.122C125.865 75.3169 68.4631 70.8671 62.6542 106.465L59.1381 124.941Z" fill="white"/>
        <path d="M103.582 9.7898C103.542 10.255 103.802 10.6584 104.163 10.6907L114.26 11.6047C114.621 11.637 114.944 11.2867 114.984 10.8214C115.023 10.3562 114.763 9.95278 114.403 9.92054L104.305 9.0065C103.945 8.97425 103.621 9.32456 103.582 9.7898Z" fill="#004871"/>
        <path opacity="0.6" d="M117.862 62.3455C119.304 62.4648 120.352 63.7663 120.162 65.2007C119.983 66.5524 118.766 67.5194 117.409 67.3879L109.789 66.6497C108.397 66.5149 107.392 65.2549 107.57 63.8675C107.739 62.5537 108.912 61.6052 110.232 61.7144L117.862 62.3455Z" fill="#4395C2"/>
        <path opacity="0.6" d="M114.001 71.0715C114.773 71.1367 115.35 71.8097 115.296 72.5827C115.241 73.375 114.546 73.9675 113.755 73.8966L82.145 71.063C81.4262 70.9986 80.8884 70.375 80.9304 69.6545C80.9742 68.9042 81.6279 68.3377 82.3767 68.4009L114.001 71.0715Z" fill="#4395C2"/>
        <path opacity="0.6" d="M101.221 60.8255C102.719 60.9336 103.797 62.3108 103.543 63.7914C103.32 65.0868 102.147 65.9987 100.836 65.8944L81.7217 64.3739C80.2781 64.2591 79.2422 62.9332 79.48 61.5047C79.6895 60.246 80.8228 59.3537 82.0955 59.4456L101.221 60.8255Z" fill="#4395C2"/>
        <path d="M86.5632 36.6528C85.0164 45.8612 90.8512 53.7434 99.5947 54.2579C108.338 54.7724 116.721 47.7268 118.322 38.5216C119.921 29.3162 114.088 21.4341 105.29 20.9165C96.4947 20.3989 88.11 27.4444 86.5632 36.6528Z" fill="white"/>
        <mask id="mask0_4:2419" style="mask-type:alpha" maskUnits="userSpaceOnUse" x="86" y="20" width="33" height="35">
            <path d="M86.5632 36.6528C85.0164 45.8612 90.8512 53.7434 99.5947 54.2579C108.338 54.7724 116.721 47.7268 118.322 38.5216C119.921 29.3162 114.088 21.4341 105.29 20.9165C96.4947 20.3989 88.11 27.4444 86.5632 36.6528Z" fill="white"/>
        </mask>
        <g mask="url(#mask0_4:2419)">
            <path d="M106.262 47.3513C106.297 49.1233 105.525 49.8553 103.765 49.7335C101.492 49.5742 99.5173 48.9148 97.5388 47.7858C97.4183 47.7171 97.2903 47.6371 97.241 47.5074C97.1816 47.3438 97.7365 47.3883 97.8213 47.2373C98.951 45.1089 99.244 42.7851 100.052 40.5662C100.198 40.1665 100.346 39.7551 100.631 39.4401C100.906 39.1378 101.284 38.9542 101.662 38.7974C102.638 38.3926 104.397 37.5712 105.449 37.4553C107.417 37.2396 107.152 39.9643 106.902 41.4825C106.601 43.3394 106.57 45.4934 106.262 47.3513Z" fill="#FFAB98"/>
            <path d="M105.595 39.8967C105.407 40.6001 105.098 41.2446 104.714 41.8859C103.738 43.5182 100.837 45.937 98.6871 45.2222C99.4103 42.6795 99.613 41.8384 100.217 40.1853C100.363 39.7856 100.862 39.4395 101.149 39.1251C101.424 38.8227 101.802 38.6392 102.18 38.4823C103.156 38.0776 104.193 37.812 105.242 37.6979C105.625 37.6546 105.915 37.7215 106.138 37.8648C105.945 38.5382 105.776 39.2187 105.595 39.8967Z" fill="#EA9380"/>
            <path d="M109.463 39.2513C110.993 36.568 112.222 33.5617 111.986 30.4813C111.974 30.3152 111.955 30.1453 111.888 29.9925C111.71 29.5971 111.253 29.4251 110.848 29.2638C110.685 29.1986 110.503 29.1075 110.457 28.9394C110.428 28.8407 110.457 28.7368 110.483 28.637C110.646 28.0067 110.754 27.2939 110.401 26.7455C109.165 24.8033 105.574 24.0588 103.545 24.1703C102.477 23.6289 99.2522 23.2633 98.2112 24.3938C97.4127 25.2609 97.733 26.0737 98.332 26.9042C97.936 27.0083 94.8898 27.2881 95.015 28.9921C94.9908 29.7536 95.6906 30.327 96.3532 30.7121C97.5053 31.3832 96.4519 31.328 97.7539 31.6271C98.5763 31.8181 99.4418 31.9421 100.158 32.3895C101.324 33.1222 101.793 34.439 102.446 35.5594C103.145 36.7599 104.466 37.5244 105.644 38.1765C106.168 38.4654 106.584 37.6807 106.787 38.2496C106.926 38.6444 106.927 40.1537 106.986 40.5686C107.996 40.3384 109.034 40.0073 109.463 39.2513Z" fill="#01333F"/>
            <path d="M95.6097 27.8637C96.2345 28.4803 96.5523 28.6969 96.9431 28.5819C96.9746 28.5713 97.4738 28.3223 97.4972 28.3393C97.5037 28.3431 97.5116 28.5669 97.5279 28.6068C97.7186 29.0488 98.4822 29.0616 98.8668 28.9648C99.3187 28.8502 99.4576 28.4003 99.8793 28.2306C100.339 28.0442 100.992 28.1173 101.473 28.1478C102.473 28.2116 103.494 28.4384 104.403 28.8596C104.922 29.098 105.424 29.4109 105.802 29.8427C106.122 30.2038 106.287 30.655 106.525 31.07C106.724 31.421 107.013 31.8124 107.423 31.9283C107.788 32.0326 108.184 31.9284 108.549 32.0351C109.262 32.2474 109.636 33.0834 110.38 33.2265C111.027 33.3522 111.521 32.7627 111.704 32.2145C111.917 31.5844 111.913 30.9123 111.954 30.2494C111.967 30.3278 111.973 30.4048 111.979 30.484C112.215 33.5621 110.986 36.5707 109.455 39.254C109.081 39.9076 107.902 40.4178 106.981 40.5718C106.929 40.2119 107.014 38.7209 106.76 38.1436C106.576 37.94 105.879 38.312 105.639 38.1797C104.461 37.5276 103.14 36.7631 102.441 35.5627C101.79 34.4427 101.322 33.1235 100.153 32.3927C99.4373 31.943 98.5713 31.8213 97.7489 31.6304C96.4474 31.3288 94.7764 29.8944 94.8011 29.1305C94.8215 28.6026 95.1751 28.1919 95.6097 27.8637Z" fill="#01252B"/>
            <path d="M107.101 35.9652C105.948 35.4167 105.596 32.8487 105.373 31.473C105.263 30.7838 105.086 30.0469 104.549 29.5997C104.116 29.2375 103.525 29.1356 102.962 29.0907C101.822 29.0007 100.638 29.3124 99.8143 30.1049C99.5121 30.3968 99.1936 30.5844 98.7284 30.5377C98.3589 30.5008 97.3035 30.3942 97.1288 30.8392C96.2864 34.5826 94.909 38.7709 97.1159 41.9899C98.8248 44.4825 104.693 42.931 106.201 40.3089C106.201 40.3089 106.723 38.5301 107.004 37.5124L107.101 35.9652Z" fill="#FFAB98"/>
            <path d="M99.5013 31.0782C97.9063 31.5371 97.7055 30.9214 97.0045 31.436C97.0543 31.2534 97.1184 30.8406 97.1827 30.6707C97.3573 30.2256 98.1888 30.4888 98.5578 30.5279C99.023 30.5747 99.6373 30.0401 100.006 29.8157C100.987 29.2178 101.649 28.9904 102.791 29.0809C103.355 29.1259 104.085 29.2241 104.52 29.5868C104.597 29.6515 104.653 29.7339 104.716 29.8103C103.246 29.5351 100.819 30.5427 99.5013 31.0782Z" fill="#EA9380"/>
            <path d="M106.033 38.2167L106.43 35.0705C106.755 34.1772 107.776 34.157 108.2 34.2697C108.938 34.466 109.321 35.1947 109.191 36.0253C109.049 36.9388 107.595 38.6618 106.033 38.2167Z" fill="#FFAB98"/>
            <path d="M97.8453 36.8014C97.7959 37.5816 99.7011 38.1249 100.244 37.5657C100.608 37.1964 101.146 33.5672 99.5674 33.8977C99.2972 34.3514 99.0995 34.7139 98.8786 35.105C98.6184 35.5655 97.8693 36.4212 97.8453 36.8014Z" fill="url(#paint0_linear_4:2419)"/>
            <path d="M102.016 34.0335C101.963 34.2932 102.13 34.5522 102.394 34.6065C102.657 34.6608 102.915 34.4907 102.968 34.231C103.022 33.9681 102.851 33.7115 102.59 33.658C102.327 33.6037 102.07 33.7707 102.016 34.0335Z" fill="#21222B"/>
            <path d="M97.4876 33.5445C97.4504 33.7757 97.6118 33.9897 97.8405 34.0264C98.0725 34.0638 98.2895 33.9071 98.3267 33.6759C98.3639 33.4447 98.2032 33.2275 97.9706 33.1933C97.7426 33.1533 97.5248 33.3133 97.4876 33.5445Z" fill="#21222B"/>
            <path d="M104.309 32.8782C104.62 33.1199 104.549 33.4728 104.11 33.3871C103.279 33.2453 102.673 33.1592 101.811 33.1702C101.597 33.175 101.289 32.9933 101.322 32.7326C101.454 31.7225 103.858 32.5268 104.309 32.8782Z" fill="#21222B"/>
            <path d="M97.1136 32.5447C96.9969 32.5418 96.8493 32.5119 96.8338 32.3993C96.8243 32.3365 96.8674 32.1928 96.9067 32.1479C97.1277 31.8904 97.4511 31.8147 97.7867 31.7663C98.1959 31.7078 99.0429 31.8469 98.8036 32.4365C98.5332 32.9429 98.0649 32.3891 97.1136 32.5447Z" fill="#21222B"/>
            <path d="M101.068 39.4101C101.167 39.7713 100.552 40.2063 100.274 40.2859C99.1843 40.7035 98.1006 40.251 97.6944 39.5819C97.6501 39.5081 97.4892 39.2455 97.5722 39.1183C97.7167 38.8846 98.2865 39.164 98.846 39.1998C99.9697 39.2718 100.937 38.955 101.068 39.4101Z" fill="white"/>
            <path d="M106.826 50.4147C101.531 65.2021 103.962 60.842 100.046 72.1532C100.022 72.4944 99.9924 72.8591 99.7906 73.1364C99.4497 73.6087 98.7738 73.6528 98.1924 73.6405C95.2085 73.5814 92.2309 73.228 89.3167 72.5887C89.1631 72.5552 88.9956 72.5136 88.8903 72.3968C88.7602 72.2545 88.7566 71.8518 88.7566 71.8518C89.6217 67.8137 90.6428 63.8092 91.7581 59.8323C92.294 57.9227 92.8512 56.0192 93.4247 54.1215C93.8171 52.8235 94.1222 50.0442 95.3718 49.2525C95.8433 48.9536 96.5895 49.0888 97.1219 49.0429C97.8301 48.9817 98.532 48.8673 99.2261 48.7237C99.5198 48.663 99.8184 48.6001 100.117 48.6187C100.546 48.6455 100.944 48.8452 101.34 49.0185C101.907 49.2646 102.496 49.4643 103.098 49.6096C103.671 49.7484 104.237 49.7453 104.817 49.851C104.95 49.8784 106.892 50.2296 106.826 50.4147Z" fill="#E8EFF0"/>
            <path opacity="0.6" d="M101.421 54.0414C100.765 53.919 100.074 52.6553 99.8089 52.1788C99.1281 50.9545 97.6431 51.6976 96.6252 51.7759C95.6072 51.8542 94.9869 51.4901 94.3995 50.6125C94.6445 50.0265 94.9538 49.5235 95.3753 49.2575C100.169 47.8755 103.983 49.1799 106.829 50.4173C106.177 52.2381 105.652 54.0361 105.06 55.8776C103.801 54.1907 103.205 54.3697 101.421 54.0414Z" fill="#BEE0ED"/>
            <path d="M117.957 56.2661C119.465 59.9504 118.545 63.9081 116.878 75.3517C113.586 77.326 105.816 74.7116 99.3706 74.0212L101.464 65.1812C102.363 62.2999 103.264 59.4188 104.159 56.5398C104.744 54.6644 105.794 49.3711 107.62 48.208C110.671 49.0018 116.885 53.6452 117.957 56.2661Z" fill="#003E51"/>
            <path d="M91.2866 68.4994C90.1681 73.6813 84.9491 72.2712 83.9287 70.8914C83.3572 63.4638 83.6179 55.6265 87.7396 50.818C89.8465 49.0146 93.7944 47.8986 95.4578 47.849C97.3396 47.7939 95.3849 52.1855 95.1331 53.073C93.6891 58.1723 92.4051 63.3175 91.2866 68.4994Z" fill="#003E51"/>
            <path d="M106.543 44.1558C108.017 44.7766 109.586 48.256 109.931 50.0553C110.112 50.9937 109.797 51.7862 109.423 52.5895C108.978 53.544 108.401 54.4592 107.586 55.1223C106.99 55.6099 106.264 55.9646 105.817 56.5909C105.347 57.2492 105.261 58.1039 105.282 58.9126C105.303 59.7213 105.421 60.5336 105.294 61.3331C105.107 62.5241 104.408 63.561 103.725 64.5535C102.524 66.2994 101.325 68.0455 100.124 69.7914C100.727 67.6009 101.329 65.4103 101.932 63.2198C102.847 59.8939 103.331 58.2399 103.896 56.428C104.558 54.3058 106.425 50.0718 106.543 46.5646C106.52 46.3642 106.543 44.8259 106.543 44.1558Z" fill="#124D68"/>
            <path d="M95.6876 52.1899C95.2649 53.3974 94.7952 54.59 94.4503 55.8191C93.9696 57.5333 93.7321 59.3058 93.3719 61.049C93.0809 62.4492 92.8072 63.4192 92.3206 65.2672C91.8091 67.2071 91.3251 68.8995 90.913 70.2825C90.2548 66.0731 89.8642 60.302 91.4242 56.1671C91.872 54.9803 92.9971 53.9963 92.9274 52.7318C92.8945 52.1068 92.5576 51.5156 92.5942 50.8902C92.6943 49.7022 96.709 45.6967 98.7681 44.8297C98.7086 45.1798 98.692 45.5266 98.5963 45.9658C97.8284 47.7379 96.1078 50.9915 95.6876 52.1899Z" fill="#124D68"/>
            <path d="M106.963 47.7655C106.697 48.8368 106.246 49.8702 105.756 50.8575C104.653 51.7196 103.795 52.1434 103.069 52.506C102.64 52.7198 102.289 52.7107 102.065 52.2685C101.467 51.1004 100.948 49.9562 100.535 48.7109C102.344 48.2942 104.276 47.3866 106.489 45.273C107.054 45.8773 107.142 47.0609 106.963 47.7655Z" fill="white"/>
            <path d="M100.532 48.7141C99.2027 49.9364 97.406 50.8662 96.5407 50.7028C95.851 50.5726 98.1796 46.4442 98.5915 45.9239C98.6826 47.1083 99.1101 48.173 100.532 48.7141Z" fill="white"/>
        </g>
        <path d="M160.376 163.437C146.945 163.437 136.73 163.437 126.006 163.437C118.191 158.942 111.067 138.67 115.517 120.427C118.565 107.928 125.767 98.3486 129.923 85.8207C133.042 72.0473 127.863 67.5337 128.61 59.0203C128.61 38.5967 138.97 40.9775 139.958 41.8214C140.946 42.6654 141.594 43.104 141.857 45.107C142.793 52.2445 144.369 57.4328 146.151 63.9962C146.911 66.7942 149.344 77.9862 152.165 96.6183C153.324 104.27 149.344 115.532 149.344 132.451C149.344 147.97 160.376 163.437 160.376 163.437Z" fill="#FFB596"/>
        <path opacity="0.7" d="M144.323 58.138C141.94 57.4219 140.315 57.9812 139.177 54.2266L138.319 49.4462C138.177 48.7084 138.525 47.7398 139.177 47.2732C140.112 46.6037 142.113 46.5463 142.135 46.8399L144.323 58.138Z" fill="#FFD7C9"/>
        <path d="M110.929 49.1621C112.833 49.1621 114.303 50.8388 114.052 52.7269C113.839 54.3342 112.441 55.5176 110.821 55.4621L110.671 55.457C108.817 55.3936 107.419 53.7488 107.656 51.9088C107.858 50.3382 109.195 49.1621 110.778 49.1621L110.929 49.1621Z" fill="#20A867"/>
        <g opacity="0.2">
            <path d="M14.5521 39.3593C14.7309 38.321 15.6846 37.5995 16.7324 37.7099L95.2861 45.9791C96.436 46.1001 97.244 47.1682 97.0477 48.3076L91.5377 80.295C91.3588 81.3333 90.4051 82.0548 89.3573 81.9445L10.8036 73.6752C9.65374 73.5542 8.84575 72.4861 9.04203 71.3467L14.5521 39.3593Z" fill="#014266"/>
            <path d="M23.194 54.7596H78.016L77.6827 59.8936H22.3013L23.194 54.7596Z" fill="#00599A"/>
            <path d="M21.2691 65.0267H75.952L75.6187 70.1607H20.2373L21.2691 65.0267Z" fill="#00599A"/>
            <path d="M84.4409 89.1776L85.6821 80.4886H75.752L84.4409 89.1776Z" fill="#014266"/>
        </g>
        <path d="M10.8865 35.1614C11.067 34.1251 12.0195 33.4057 13.0657 33.5156L91.8402 41.7859C92.9918 41.9068 93.8004 42.9773 93.6017 44.1181L88.0825 75.8067C87.902 76.843 86.9495 77.5624 85.9033 77.4526L7.12879 69.1823C5.97719 69.0613 5.16859 67.9908 5.36728 66.85L10.8865 35.1614Z" fill="#E3F7FD"/>
        <path d="M22.2379 43.2509L58.5773 46.9747L57.3361 53.181L21.3391 49.4572L22.2379 43.2509Z" fill="#BADEED"/>
        <path d="M19.8882 54.4219L73.8892 60.6282L72.6479 66.8346L18.8538 60.6282L19.8882 54.4219Z" fill="#BADEED"/>
        <path d="M80.5059 88.1299L82.2618 75.5516H68.2141L80.5059 88.1299Z" fill="#E3F7FD"/>
        <g opacity="0.2">
            <path d="M94.6488 95.3775C94.8492 94.3747 95.7738 93.6846 96.7922 93.7778L158.924 99.4583C160.107 99.5665 160.936 100.677 160.703 101.842L156.274 124.003C156.074 125.005 155.149 125.696 154.131 125.602L91.9994 119.922C90.816 119.814 89.9874 118.704 90.2203 117.538L94.6488 95.3775Z" fill="#363F46"/>
            <path d="M98.9912 127.791L112.729 120.595L101.608 119.286L98.9912 127.791Z" fill="#363F46"/>
        </g>
        <path d="M89.4989 88.3806C89.6869 87.3601 90.6242 86.6529 91.6572 86.7522L155.696 92.9099C156.863 93.0221 157.684 94.1099 157.471 95.2631L152.965 119.721C152.776 120.742 151.839 121.449 150.806 121.349L86.7675 115.192C85.6003 115.08 84.7796 113.992 84.9921 112.839L89.4989 88.3806Z" fill="#FFD338"/>
        <path d="M98.7719 98.3039L143.984 102.25L142.821 108.819L97.8267 104.868L98.7719 98.3039Z" fill="#E6B22D"/>
        <path d="M93.1018 125.174L110.431 114.736L95.7186 112.744L93.1018 125.174Z" fill="#FFD338"/>
    </g>
    <defs>
        <linearGradient id="paint0_linear_4:2419" x1="100.509" y1="35.4251" x2="97.7912" y2="35.4099" gradientUnits="userSpaceOnUse">
            <stop offset="0.2228" stop-color="#FFAB98"/>
            <stop offset="1" stop-color="#F2866E"/>
        </linearGradient>
        <clipPath id="clip0_4:2419">
            <rect width="160" height="160" fill="white"/>
        </clipPath>
    </defs>
</svg>