<svg xmlns="http://www.w3.org/2000/svg" width="228" height="166" viewBox="0 0 228 166" fill="none">
    <rect x="69.5244" y="45.019" width="80.3917" height="118.98" fill="#5DA5D9"/>
    <rect x="148.843" y="45.0195" width="32.1567" height="118.98" fill="#076EA8"/>
    <path d="M169.301 22.0436H141.226V29.277H169.301V22.0436Z" fill="#9BCEE1"/>
    <path d="M167.649 29.2777H142.876L144.065 45.0202H166.357L167.649 29.2777Z" fill="#9BCEE1"/>
    <path d="M167.649 29.2777H142.876L143.152 30.1123L167.098 32.8944L167.649 29.2777Z" fill="#6FB4D0"/>
    <path d="M156.639 22.0432C156.639 7.97392 162.923 5.6481 166.21 3.65454C168.715 13.0024 166.489 16.85 163.879 22.0432H156.639Z" fill="#6FB4D0"/>
    <path d="M153.063 21.9284C151.748 9.30251 147.548 5.63394 143.202 4.3186C140.883 11.6845 143.947 17.8362 146.362 21.9284H153.063Z" fill="#9BCEE1"/>
    <path d="M156.276 22.0439C158.375 6.4642 152.405 3.98749 150.761 2.65845C147.145 7.97461 147.786 16.8507 150.035 22.0439H156.276Z" fill="#6FB4D0"/>
    <path d="M145.501 22.0429H151.684C148.098 12.3737 144.186 10.9639 137.283 9.63489C138.927 18.2737 142.214 20.2672 145.501 22.0429Z" fill="#BEE0ED"/>
    <path d="M160.318 22.0435H154.011C152.482 8.05979 154.706 3.98712 158.65 0C162.924 6.97747 161.21 15.5583 160.318 22.0435Z" fill="#BEE0ED"/>
    <path d="M166.541 22.0433H160.953C161.939 14.287 166.87 10.2999 173.444 8.97083C173.773 13.9547 171.801 18.6064 166.541 22.0433Z" fill="#9BCEE1"/>
    <path opacity="0.4" d="M166.54 22.0434C167.198 21.5968 168.344 20.7702 169.17 19.9355C161.178 17.1706 154.162 17.0357 148.932 16.201C148.382 15.3664 147.146 13.9548 147.146 13.9548C143.201 13.6226 140.9 14.2871 138.928 15.2839C140.9 19.6033 142.872 20.6 145.502 22.0434H166.54Z" fill="#6FB4D0"/>
    <rect x="74" y="49" width="72" height="44" fill="#014266"/>
    <path fill-rule="evenodd" clip-rule="evenodd" d="M137.629 52.9801C137.629 51.8755 136.733 51 135.629 51H79.9922C78.8876 51 77.9922 51.8853 77.9922 52.9899C77.9922 64.668 77.9922 85.0921 77.9922 91.5231C77.9922 92.6276 78.8876 93.5208 79.9922 93.5208H135.629C136.734 93.5208 137.629 92.6434 137.629 91.5389C137.629 83.4672 137.629 59.965 137.629 52.9801Z" fill="#D38715"/>
    <path fill-rule="evenodd" clip-rule="evenodd" d="M134.918 53.7429H76.6367C76.6367 67.0162 76.6367 93.5204 76.6367 93.5204H134.918C134.918 87.7214 134.918 53.7429 134.918 53.7429Z" fill="white"/>
    <path fill-rule="evenodd" clip-rule="evenodd" d="M133.563 53.7429H75.2812C75.2812 67.0162 75.2812 93.5204 75.2812 93.5204H133.563C133.563 87.7214 133.563 53.7429 133.563 53.7429Z" fill="#9BCEE1"/>
    <path fill-rule="evenodd" clip-rule="evenodd" d="M109.807 52.3712C108.703 52.3712 107.811 53.2667 107.811 54.3712V58.6583C107.811 59.7629 106.916 60.6583 105.811 60.6583H74.5713C73.4667 60.6583 72.5713 61.5537 72.5713 62.6583V91.5209C72.5713 92.6255 73.4667 93.5209 74.5713 93.5209H130.396C131.501 93.5209 132.396 92.623 132.395 91.5185C132.38 78.2087 132.224 67.6834 132.209 54.3737C132.208 53.2691 131.319 52.3712 130.214 52.3712C125.211 52.3713 114.302 52.3712 109.807 52.3712Z" fill="#F4B24D"/>
    <path fill-rule="evenodd" clip-rule="evenodd" d="M128.141 53.1283C128.141 52.0237 127.245 51.1479 126.141 51.1479H70.5039C69.3993 51.1479 68.5039 52.0334 68.5039 53.138C68.5039 64.6683 68.5039 84.7938 68.5039 91.1687C68.5039 92.2733 69.3993 93.1648 70.5039 93.1648H126.141C127.245 93.1648 128.141 92.2869 128.141 91.1823C128.141 83.1929 128.141 60.0528 128.141 53.1283Z" fill="#D38715"/>
    <path fill-rule="evenodd" clip-rule="evenodd" d="M125.429 53.8584H67.1482C67.1482 66.9744 67.1482 93.1645 67.1482 93.1645H125.43C125.43 87.4342 125.429 53.8584 125.429 53.8584Z" fill="white"/>
    <path fill-rule="evenodd" clip-rule="evenodd" d="M124.075 53.8584H65.7935C65.7935 66.9744 65.7935 93.1645 65.7935 93.1645H124.075C124.075 87.4342 124.075 53.8584 124.075 53.8584Z" fill="#9BCEE1"/>
    <path fill-rule="evenodd" clip-rule="evenodd" d="M100.319 52.5032C99.2145 52.5032 98.323 53.3986 98.323 54.5032V58.692C98.323 59.7966 97.4275 60.692 96.323 60.692H65.083C63.9784 60.692 63.083 61.5875 63.083 62.692V91.1652C63.083 92.2698 63.9784 93.1652 65.083 93.1652H120.908C122.013 93.1652 122.908 92.2674 122.907 91.1628C122.892 78.0299 122.736 67.6385 122.721 54.5056C122.72 53.401 121.83 52.5032 120.726 52.5032C115.723 52.5032 104.813 52.5032 100.319 52.5032Z" fill="#F4B24D"/>
    <path opacity="0.19" d="M128.95 51H127V85H140L128.95 51Z" fill="#73461C"/>
    <path opacity="0.19" d="M119.331 51.1489H117.298V84.3558H130.852L119.331 51.1489Z" fill="#73461C"/>
    <path fill-rule="evenodd" clip-rule="evenodd" d="M118.655 53.1283C118.655 52.0237 117.76 51.1479 116.655 51.1479H61.0186C59.914 51.1479 59.0186 52.0334 59.0186 53.138C59.0186 64.6683 59.0186 84.7938 59.0186 91.1687C59.0186 92.2733 59.914 93.1648 61.0186 93.1648H116.655C117.76 93.1648 118.655 92.2869 118.655 91.1823C118.655 83.1929 118.655 60.0528 118.655 53.1283Z" fill="#D38715"/>
    <path fill-rule="evenodd" clip-rule="evenodd" d="M115.944 53.8584H57.6628C57.6628 66.9744 57.6628 93.1645 57.6628 93.1645H115.944C115.944 87.4342 115.944 53.8584 115.944 53.8584Z" fill="white"/>
    <path fill-rule="evenodd" clip-rule="evenodd" d="M114.589 53.8584H56.3081C56.3081 66.9744 56.3081 93.1645 56.3081 93.1645H114.59C114.59 87.4342 114.589 53.8584 114.589 53.8584Z" fill="#9BCEE1"/>
    <path fill-rule="evenodd" clip-rule="evenodd" d="M90.8338 52.5032C89.7292 52.5032 88.8376 53.3986 88.8376 54.5032V58.692C88.8376 59.7966 87.9422 60.692 86.8376 60.692H55.5977C54.4931 60.692 53.5977 61.5875 53.5977 62.692V91.1652C53.5977 92.2698 54.4931 93.1652 55.5977 93.1652H111.423C112.527 93.1652 113.423 92.2674 113.421 91.1628C113.407 78.0299 113.251 67.6385 113.236 54.5056C113.234 53.401 112.345 52.5032 111.24 52.5032C106.237 52.5032 95.328 52.5032 90.8338 52.5032Z" fill="#F4B24D"/>
    <path opacity="0.19" d="M100.357 51.1484H98.3242V84.3553H111.878L100.357 51.1484Z" fill="#73461C"/>
    <path fill-rule="evenodd" clip-rule="evenodd" d="M106.868 21.8924C107.006 20.7965 106.227 19.8153 105.131 19.6771L49.9311 12.719C48.8352 12.5809 47.8363 13.3456 47.6981 14.4415C46.2186 26.1784 43.4443 48.1875 42.6019 54.8709C42.4637 55.9668 43.2414 56.9573 44.3373 57.0955L99.5373 64.0536C100.633 64.1918 101.631 63.4351 101.769 62.3392C102.808 54.0977 105.959 29.1008 106.868 21.8924Z" fill="#007B56"/>
    <path fill-rule="evenodd" clip-rule="evenodd" d="M104.087 22.278L46.2637 14.9891C44.6233 28.0021 40.6699 59.3656 40.6699 59.3656L98.4938 66.6545C99.2104 60.9692 104.087 22.278 104.087 22.278Z" fill="white"/>
    <path fill-rule="evenodd" clip-rule="evenodd" d="M102.742 22.1076L44.9182 14.8187C43.2779 27.8317 39.3244 59.1952 39.3244 59.1952L97.1483 66.4841C97.865 60.7988 102.742 22.1076 102.742 22.1076Z" fill="#DDE2E3"/>
    <path fill-rule="evenodd" clip-rule="evenodd" d="M99.8828 23.114L46.0933 16.3336C44.7015 27.3749 41.347 53.9864 41.347 53.9864L95.1367 60.7667C95.7447 55.9429 99.8828 23.114 99.8828 23.114Z" fill="white"/>
    <path fill-rule="evenodd" clip-rule="evenodd" d="M79.3422 17.7919C78.2463 17.6538 77.2497 18.4306 77.1116 19.5265L76.5877 23.6825C76.4496 24.7784 75.4492 25.5548 74.3533 25.4167L43.3586 21.5097C42.2627 21.3716 41.2623 22.148 41.1242 23.2439L36.5462 59.5619C36.408 60.6578 37.1844 61.6582 38.2803 61.7964L93.667 68.778C94.7629 68.9162 95.763 68.1427 95.9 67.0466C97.612 53.3484 99.6064 36.2732 101.318 22.575C101.455 21.4789 100.685 20.4822 99.5887 20.344C94.6247 19.7184 83.8011 18.354 79.3422 17.7919Z" fill="#16AF6F"/>
    <path d="M145.763 104.363H75.2834V150.446H145.763V104.363Z" fill="#076EA8"/>
    <path opacity="0.2" d="M144.407 103.008H73.9272V149.091H144.407V103.008Z" fill="white"/>
    <path d="M144.408 104.363H75.2834V149.091H144.408V104.363Z" fill="#5DA5D9"/>
    <path d="M115.945 121.983H98.3247V134.181H115.945V121.983Z" fill="#014266"/>
    <path d="M114.589 123.338H99.6794V132.826H114.589V123.338Z" fill="white"/>
    <rect x="94.2576" y="112.495" width="25.7523" height="5.42153" fill="#014266"/>
    <path opacity="0.19" d="M90.8693 44.7268H88.8362V77.9337H102.39L90.8693 44.7268Z" fill="#73461C"/>
    <path opacity="0.2" d="M114.392 93.4703H69.5244V130.279L83.459 164.088H144.202L114.392 93.4703Z" fill="#004871"/>
    <path fill-rule="evenodd" clip-rule="evenodd" d="M91.5456 45.3528C91.5456 44.2482 90.6502 43.3721 89.5456 43.3721H33.9089C32.8044 43.3721 31.9089 44.2557 31.9089 45.3603C31.9089 57.1901 31.9089 79.3733 31.9089 86.1097C31.9089 87.2143 32.8044 88.0997 33.9089 88.0997H89.5458C90.6504 88.0997 91.5458 87.2242 91.5458 86.1196C91.5458 77.8129 91.5457 52.6182 91.5456 45.3528Z" fill="#D38715"/>
    <path fill-rule="evenodd" clip-rule="evenodd" d="M88.8345 46.0825H30.5532C30.5532 59.1985 30.5532 90.8102 30.5532 90.8102H88.8347C88.8347 85.0799 88.8345 46.0825 88.8345 46.0825Z" fill="white"/>
    <path fill-rule="evenodd" clip-rule="evenodd" d="M87.4798 46.0825H29.1985C29.1985 59.1985 29.1985 90.8102 29.1985 90.8102H87.48C87.48 85.0799 87.4798 46.0825 87.4798 46.0825Z" fill="#DDE2E3"/>
    <path fill-rule="evenodd" clip-rule="evenodd" d="M86.1238 47.4387H30.5532C30.5532 59.3623 30.5532 88.1002 30.5532 88.1002H86.1239C86.1239 82.8909 86.1238 47.4387 86.1238 47.4387Z" fill="white"/>
    <path fill-rule="evenodd" clip-rule="evenodd" d="M63.7241 44.7273C62.6196 44.7273 61.728 45.6227 61.728 46.7273V47.7005C61.728 48.805 60.8326 49.7005 59.728 49.7005H28.488C27.3835 49.7005 26.488 50.5959 26.488 51.7005V91.5216C26.488 92.6262 27.3835 93.5216 28.488 93.5216H84.313C85.4176 93.5216 86.3131 92.6291 86.3119 91.5245C86.2974 77.7198 86.1406 60.5292 86.126 46.7244C86.1248 45.6198 85.2354 44.7273 84.1308 44.7273C79.1276 44.7273 68.2183 44.7273 63.7241 44.7273Z" fill="#F4B24D"/>
    <path d="M146 62H67V94H146V62Z" fill="#06669B"/>
    <path d="M93.2241 62H67V94H106L93.2241 62Z" fill="#004871" fill-opacity="0.6"/>
    <path d="M146 84H81V88H146V84Z" fill="#014266"/>
    <path d="M87.4816 51.5039H19.7124V96.2315H87.4816V51.5039Z" fill="#207FB4"/>
    <path d="M84.7711 51.5045H17.002V96.2322H84.7711V51.5045Z" fill="#5DA5D9"/>
    <path d="M57.6642 70.4795H40.0442V82.6779H57.6642V70.4795Z" fill="#014266"/>
    <path d="M56.3091 71.8341H41.3999V81.3218H56.3091V71.8341Z" fill="white"/>
    <rect x="35.9761" y="60.9915" width="25.7523" height="5.42153" fill="#014266"/>
</svg>