<svg xmlns="http://www.w3.org/2000/svg" xmlns:xlink="http://www.w3.org/1999/xlink" width="32.000000" height="48.000000" viewBox="0 0 32 48" fill="none">
	<defs/>
	<rect id="Фон документа" rx="2.000000" width="32.000000" height="48.000000" fill="#E91F0C"/>
	<path id="Герб" d="M19.6948 13.7161C19.3818 13.4431 18.9321 13.4495 18.6743 13.5286C18.8433 13.322 19.2373 13.1526 19.353 13.1321C19.4414 13.165 19.6948 13.4243 19.6948 13.7161ZM20.6929 12.5859C20.4873 11.491 17.9312 12.2168 16.6436 11.7517C16.6191 12.0708 17.04 12.5823 17.4429 12.7715C16.7544 13.3662 16.1367 14.5645 16.0117 16.0281C15.8872 14.5645 15.2695 13.3662 14.5811 12.7715C14.9839 12.5823 15.4053 12.0708 15.3799 11.7517C14.0928 12.2168 11.5366 11.4912 11.3306 12.5862C11.2871 12.8181 11.3989 13.1711 11.52 13.2727C11.542 13.1992 11.6548 12.959 12.0112 12.9053C13.812 12.6343 15.3159 15.3972 13.9585 16.5144C13.938 16.5317 13.9497 16.563 13.9775 16.563L18.0469 16.563C18.0742 16.563 18.0859 16.5315 18.0659 16.5146C16.708 15.3975 18.2119 12.6345 20.0127 12.9053C20.3691 12.9592 20.4819 13.1995 20.5039 13.2727C20.6245 13.1711 20.7368 12.8181 20.6929 12.5864L20.6929 12.5859ZM21.1309 10.073C21.0986 9.96973 22.1548 9.96704 22.1548 10.625C22.1548 11.0659 21.5229 11.2747 21.5229 11.7324C21.5229 11.9456 21.7534 12.1018 21.8242 12.1018C21.6611 11.3672 22.334 11.7517 22.5156 11.8889C22.1548 10.9011 22.9673 10.9072 22.8872 10.4543C22.8315 10.1377 22.1255 10.2334 21.8696 10.073C21.416 9.78882 20.8794 8.68286 20.5259 9.78882C21.1851 10.3982 20.8013 11.2952 19.9644 11.2952C19.9644 11.2952 19.9595 11.4265 19.9673 11.437C20.9658 11.3884 21.3135 10.658 21.1309 10.073ZM9.48389 11.8889C9.66553 11.7517 10.3379 11.3672 10.1758 12.1018C10.2461 12.1018 10.4766 11.9456 10.4766 11.7324C10.4766 11.2747 9.84473 11.0659 9.84473 10.625C9.84473 9.96704 10.9009 9.96973 10.8682 10.073C10.686 10.658 11.0342 11.3884 12.0322 11.437C12.0396 11.4265 12.0352 11.2949 12.0352 11.2949C11.1982 11.2949 10.8149 10.3982 11.4736 9.78882C11.1201 8.68286 10.5835 9.78882 10.1299 10.073C9.87402 10.2334 9.16748 10.1377 9.11182 10.4543C9.03223 10.9075 9.84473 10.9011 9.48389 11.8892L9.48389 11.8889ZM12.3184 13.7161C12.6313 13.4431 13.0811 13.4495 13.3389 13.5286C13.1704 13.322 12.7759 13.1526 12.6602 13.1321C12.5723 13.165 12.3184 13.4243 12.3184 13.7161L12.3184 13.7161ZM16.4868 7.59106L16 7L15.5127 7.59106L15.9995 8.21313L16.4868 7.59106L16.4868 7.59106ZM19.2666 9.37817L18.9204 8.95825L18.5742 9.37817L18.9204 9.78882L19.2666 9.37817L19.2666 9.37817ZM22.0757 21.5198L21.6367 21.0574L21.1978 21.5198L21.6367 21.9255L22.0757 21.5198L22.0757 21.5198ZM13.4253 9.37817L13.0791 8.95825L12.7329 9.37817L13.0791 9.78882L13.4253 9.37817L13.4253 9.37817ZM12.4336 11.437L13.7251 11.437C14.811 11.437 15.2998 10.7734 15.4473 10.198L16.5522 10.198C16.7002 10.7734 17.1885 11.437 18.2749 11.437L19.5664 11.437C19.5664 11.437 19.7925 11.1318 19.8491 10.9807C20.0532 10.437 19.7925 10.1833 19.4121 10.1833L18.9204 10.627L18.4287 10.1836C18.0483 10.1836 17.7876 10.437 17.9917 10.9807C18.0181 11.0503 18.0801 11.1523 18.1392 11.2422C17.6807 11.1794 17.0957 10.8672 16.9673 10.198C16.9673 10.198 17.3062 9.6626 17.3911 9.4458C17.6963 8.6665 17.3066 8.3479 16.7363 8.3479L16 9.20947L15.2637 8.3479C14.6934 8.3479 14.3032 8.6665 14.6089 9.4458C14.6934 9.6626 15.0327 10.1982 15.0327 10.1982C14.9038 10.8672 14.3188 11.1794 13.8608 11.2422C13.9199 11.1523 13.9819 11.0503 14.0078 10.9807C14.2114 10.437 13.9517 10.1833 13.5708 10.1833L13.0791 10.627L12.5874 10.1836C12.207 10.1836 11.9468 10.437 12.1504 10.981C12.2075 11.1318 12.4336 11.437 12.4336 11.437L12.4336 11.437ZM25.7876 15.4226C25.5386 15.5483 24.0757 16.2302 22.2021 15.978C22.2217 15.8889 22.2378 15.7996 22.2515 15.7095C23.4985 15.561 24.5122 15.3503 25.1582 14.9927C25.8945 14.5847 26.2163 13.6108 25.8447 12.8862C25.835 12.8682 25.8086 12.8647 25.7949 12.8801C25.5913 13.1135 24.311 14.5002 22.293 14.9314C22.2881 14.8274 22.2783 14.7236 22.2646 14.6204C23.2446 14.0671 24.2012 13.4297 24.6567 12.8469C25.3452 11.9656 25.2822 10.8416 24.627 10.2686C24.6201 10.2627 24.6108 10.26 24.6021 10.2612C24.5933 10.2625 24.5854 10.2676 24.5806 10.2749C24.373 10.6155 22.4326 13.7378 20.3018 15.0857C20.2759 15.1023 20.2495 15.1184 20.2231 15.1343C20.1621 15.1714 20.1553 15.2502 20.2075 15.2971C20.4531 15.5188 20.6055 15.8271 20.6055 16.1697C20.6055 16.7651 20.1445 17.2603 19.5352 17.3677C19.2256 17.4272 18.7788 17.4099 18.3491 17.2686C18.3301 17.2625 18.3101 17.2751 18.3101 17.2944L18.3101 19.1797C18.3101 19.2102 18.3564 19.2178 18.3672 19.1887C18.6284 18.5002 19.4097 18.354 19.7515 18.354C19.8745 19.0898 20.0942 19.699 20.3794 20.0271C20.8442 20.5601 21.603 20.5525 21.9316 20.1841C21.937 20.178 21.9395 20.1697 21.938 20.1616C21.9365 20.1538 21.9316 20.1467 21.9243 20.1428C21.731 20.0325 20.625 19.3564 20.4038 18.2488C20.4907 18.2192 20.5757 18.1846 20.6582 18.1445C21.0151 18.7327 21.5347 19.2566 21.9531 19.4565C22.6558 19.792 23.2993 19.6289 23.5845 19.1377C23.5947 19.1204 23.582 19.0989 23.561 19.0969C23.1265 19.0625 21.7925 18.6819 21.2246 17.7546C21.29 17.6953 21.353 17.6328 21.4126 17.5671C22.0068 18.0178 22.8472 18.4158 23.4487 18.4971C24.1528 18.5925 24.9507 18.3689 24.9697 17.554C24.9702 17.5376 24.9556 17.5242 24.938 17.5251C24.688 17.5403 23.0308 17.6121 21.8501 16.9375C21.8911 16.8599 21.9297 16.7808 21.9648 16.7004C21.9648 16.7004 23.749 17.1204 24.5942 16.9812C25.4341 16.8433 25.9263 16.22 25.8311 15.4443C25.8286 15.425 25.8057 15.4136 25.7876 15.4229L25.7876 15.4226ZM10.0347 16.7002C10.0703 16.7805 10.1084 16.8596 10.1499 16.9373C8.96924 17.6116 7.31299 17.5403 7.06152 17.5249C7.04395 17.5239 7.0293 17.5381 7.02979 17.554C7.04932 18.3687 7.84668 18.5923 8.55078 18.4968C9.15234 18.4158 9.99268 18.0176 10.5869 17.5671C10.647 17.6326 10.7095 17.6951 10.7749 17.7544C10.207 18.6816 8.87305 19.0623 8.43848 19.0969C8.41748 19.0989 8.40527 19.1204 8.41504 19.1377C8.7002 19.6289 9.34375 19.792 10.0469 19.4565C10.4648 19.2563 10.9844 18.7327 11.3413 18.1445C11.4238 18.1843 11.5088 18.2192 11.5957 18.2485C11.3745 19.3562 10.2686 20.0322 10.0752 20.1428C10.0679 20.1467 10.063 20.1538 10.0615 20.1616C10.0601 20.1697 10.0625 20.178 10.0679 20.1841C10.3965 20.5525 11.1558 20.5601 11.6206 20.0271C11.9058 19.699 12.125 19.0896 12.248 18.354C12.5898 18.354 13.3711 18.5002 13.6323 19.1885C13.6436 19.2175 13.6899 19.21 13.6899 19.1797L13.6899 17.2944C13.6899 17.2751 13.6694 17.2625 13.6499 17.2686C13.2207 17.4099 12.7739 17.427 12.4644 17.3674C11.855 17.26 11.3936 16.7649 11.3936 16.1697C11.3936 15.8274 11.5469 15.5186 11.792 15.2971C11.8442 15.2505 11.8374 15.1714 11.7769 15.1345C11.75 15.1187 11.7236 15.1023 11.6973 15.0859C9.56787 13.7385 7.62842 10.6187 7.41943 10.2759C7.41455 10.2681 7.40625 10.2629 7.39746 10.2617C7.38818 10.2605 7.37891 10.2629 7.37207 10.269C6.71777 10.8425 6.6543 11.9661 7.34277 12.8469C7.79834 13.4299 8.75537 14.0671 9.73486 14.6204C9.72119 14.7236 9.71143 14.8274 9.70654 14.9314C7.69043 14.5007 6.41064 13.1162 6.20508 12.8813C6.19141 12.8652 6.16406 12.8684 6.15479 12.8867C5.78369 13.6116 6.10596 14.5847 6.84131 14.9927C7.4873 15.3503 8.50146 15.561 9.74805 15.7095C9.76172 15.7996 9.77832 15.8892 9.79736 15.978C7.92578 16.23 6.46387 15.5496 6.2124 15.4229C6.19385 15.4136 6.17139 15.4253 6.16895 15.4448C6.07422 16.2202 6.56592 16.843 7.40576 16.981C8.25098 17.1201 10.0347 16.7002 10.0347 16.7002L10.0347 16.7002ZM21.6367 22.521L20.9868 22.012C20.7271 22.1658 20.5366 22.4099 20.4624 22.696C20.0718 22.7505 19.0059 22.5146 19.1094 22.3584C20.2773 20.7227 19.3838 19.7488 18.3101 19.803L18.3101 20.9014C18.3101 21.2544 18.0005 21.5403 17.6196 21.5403L16.8779 21.5403C16.3462 21.5403 15.9995 22.0725 15.9995 22.0725C15.9995 22.0725 15.6533 21.54 15.1211 21.54L14.3799 21.54C13.9985 21.54 13.6899 21.2542 13.6899 20.9014L13.6899 19.803C12.6157 19.7488 11.7212 20.7227 12.8901 22.3584C12.9927 22.5132 11.897 22.7607 11.3833 22.6982C11.2476 22.5583 11.0522 22.4702 10.8335 22.4702C10.7407 22.4702 10.6484 22.4868 10.5615 22.519C10.5615 22.519 8.5415 20.6155 8.50488 20.5969L8.52148 20.5586C8.63623 20.3442 8.46045 20.1108 8.34912 20.1274C8.47852 19.9729 8.48438 19.2971 7.76709 19.1406C7.78809 19.2764 7.79883 19.5535 7.79883 19.5535C7.79883 19.5535 7.24512 19.2556 6.9668 19.5127C6.72266 19.8005 7.06152 20.3228 7.06152 20.3228C7.06152 20.3228 6.77832 20.3296 6.63867 20.3179C6.84424 21.0093 7.53271 20.9602 7.68164 20.8237C7.67188 20.9336 7.9209 21.0903 8.13184 20.9648L8.22461 20.9202C8.24121 20.9419 10.208 22.7917 10.208 22.7917C10.1177 22.9253 10.0747 23.0891 10.1045 23.2637C10.1509 23.5366 10.3794 23.7627 10.6709 23.8215C10.877 23.8628 11.0708 23.823 11.2261 23.7324L11.7466 24.2134C11.793 24.2554 11.8555 24.2815 11.9258 24.2766C12.0532 24.2681 12.1484 24.1653 12.1387 24.0474C12.1348 23.9941 12.1074 23.9485 12.0698 23.9138C12.0615 23.9048 11.5391 23.4224 11.5391 23.4224C11.9702 23.1218 12.7725 22.9102 13.4385 22.9102C13.5552 22.9102 13.6104 22.8115 13.5698 22.7148C13.2686 21.9927 13.917 21.4695 14.5879 21.8955C14.8809 22.0811 15.1777 22.447 15.4019 23.0574C14.3013 23.3225 12.9189 24.0537 12.6392 24.8516C12.5312 25.1597 12.8872 25.5798 13.3188 25.6643C13.3267 25.666 13.3345 25.6646 13.3413 25.6602C13.3477 25.656 13.3525 25.6494 13.354 25.6418C13.5796 24.4504 14.8667 23.5627 15.5366 23.4121C15.5698 23.5017 15.5591 23.4727 15.5928 23.562C14.8633 23.9055 14.1558 24.6296 13.9541 25.4905C13.8613 25.8848 14.3032 26.2402 14.6675 26.3376C14.686 26.3423 14.7041 26.3296 14.7051 26.312C14.7744 25.2234 15.2573 24.2986 15.6899 23.8779C15.7017 23.9602 15.7109 24.043 15.7168 24.1257C15.7168 24.1257 15.2734 25.3545 15.2734 26.251C15.2734 26.6682 15.8965 26.9592 15.9883 27C16.1035 26.9592 16.7256 26.6682 16.7256 26.251C16.7256 25.3545 16.2827 24.1257 16.2827 24.1257C16.2886 24.043 16.2979 23.9602 16.3096 23.8779C16.7422 24.2988 17.2256 25.2229 17.2944 26.3118C17.2954 26.3206 17.2998 26.3284 17.3071 26.3333C17.314 26.3381 17.3232 26.3398 17.3315 26.3376C17.6968 26.2402 18.1382 25.8848 18.0459 25.4905C17.8433 24.6296 17.1362 23.9055 16.4072 23.562C16.4404 23.4727 16.4292 23.5017 16.4629 23.4119C17.1333 23.5627 18.4194 24.4504 18.6455 25.6416C18.6489 25.6575 18.6646 25.6675 18.6802 25.6641C19.1118 25.5796 19.4683 25.1597 19.3599 24.8516C19.0811 24.0535 17.6982 23.3225 16.5972 23.0571C16.8218 22.4468 17.1191 22.0811 17.4116 21.8953C18.0825 21.4692 18.731 21.9924 18.4292 22.7148C18.3892 22.8113 18.4438 22.9099 18.561 22.9099C19.3145 22.9099 20.2422 23.1809 20.6099 23.5442C20.8442 23.8945 21.2778 24.1189 21.7671 24.0708C22.3232 24.0166 22.7769 23.6008 22.8394 23.0869C22.894 22.6365 22.6602 22.2322 22.2871 22.0117L21.6367 22.521L21.6367 22.521ZM16.8457 19.24C17.0771 19.1545 17.4404 19.2236 17.4282 19.5566C17.4253 19.6321 17.5312 19.6321 17.5391 19.5549C17.6084 19.0566 17.27 18.9131 16.916 18.9714C16.8721 18.8 16.8359 18.6504 16.7949 18.502C16.7622 18.3818 16.7505 18.1562 16.8901 18.1562C16.9653 18.1562 16.9351 18.366 16.9277 18.4563C16.9219 18.5356 16.9502 18.5837 17.0151 18.5859C17.0552 18.5876 17.1055 18.5364 17.1357 18.5024C17.3384 18.2742 17.3853 17.9211 17.1479 17.7507C16.9492 17.6079 16.4521 17.7141 16.3154 17.918C16.2944 17.8411 16.1963 17.7144 16.1489 17.6594C16.1025 17.6055 16.0908 17.5686 16.1543 17.5212C16.1846 17.4985 16.2749 17.4087 16.2749 17.3159C16.2749 17.2612 16.2324 17.1599 16.0967 17.1599C15.9897 17.1599 15.8706 17.2336 15.8706 17.3982C15.8706 17.4348 15.8799 17.4739 15.9033 17.5161C15.8359 17.5049 15.6519 17.5095 15.5576 17.5327L16.8618 21.0957C17.2354 20.9121 17.5093 20.6218 17.5093 20.3101C17.5093 20.0444 17.1162 20.1326 16.9253 20.3396C16.8638 20.0029 16.8091 19.6919 16.7495 19.3818C16.7329 19.2961 16.7769 19.2656 16.8457 19.2397L16.8457 19.24ZM15.0015 16.8196L15.2754 17.5776C15.041 17.6333 14.6636 17.8035 14.6636 18.0291C14.6636 18.3293 15.1973 18.5247 15.5059 18.5012C15.4902 18.5698 15.5083 18.6309 15.5562 18.6865C15.4443 18.6865 15.2329 18.7385 15.1636 18.813C15 18.6611 14.7437 18.606 14.6221 18.6982C14.5 18.7915 14.4961 18.949 14.6235 19.1272C14.7129 19.2505 14.7461 19.3723 14.646 19.5151C15.0181 19.5151 14.8809 19.0339 15.0269 19.0339C15.0078 19.1272 15.0195 19.2351 15.0615 19.355C15.0898 19.4346 15.0898 19.4912 15.0415 19.5679C14.9219 19.7588 14.7349 20.1973 14.7603 20.594C14.6382 20.5933 14.5762 20.5637 14.6191 20.3977C14.6353 20.3362 14.5972 20.292 14.5464 20.3682C14.4902 20.4521 14.4634 20.5955 14.4634 20.6565C14.4634 21.0098 14.8862 21.0808 15.0474 21.0061C15.5142 21.4558 16.4307 21.3359 16.7378 21.1851L15.1235 16.7769C15.0908 16.6936 14.9722 16.7334 15.0015 16.8198L15.0015 16.8196ZM14.9453 20.4509C14.9121 20.2695 15.166 19.9451 15.4883 19.6321C15.4199 19.8362 15.4624 20.1875 15.5972 20.3086C15.3633 20.3086 15.085 20.3525 14.9453 20.4509L14.9453 20.4509Z" fill-rule="evenodd" fill="#6B2335"/>
	<path id="ТРУДОВАЯ КНИЖКА" d="M5.56055 35L5.56055 32.1836L6.73633 32.1836Q7.17969 32.1836 7.41406 32.3926Q7.64844 32.6016 7.64844 32.9238Q7.64844 33.1484 7.54297 33.3008Q7.4375 33.4531 7.28125 33.5234Q7.47461 33.584 7.61426 33.75Q7.75391 33.916 7.75391 34.1875Q7.75391 34.5469 7.49414 34.7734Q7.23438 35 6.79297 35L5.56055 35ZM6.27734 34.416L6.68945 34.416Q6.8457 34.416 6.9375 34.3398Q7.0293 34.2637 7.0293 34.1289Q7.0293 33.9941 6.9375 33.917Q6.8457 33.8398 6.68945 33.8398L6.27734 33.8398L6.27734 34.416ZM6.27734 33.2969L6.63281 33.2969Q6.77539 33.2969 6.85254 33.2217Q6.92969 33.1465 6.92969 33.0312Q6.92969 32.9043 6.84961 32.8359Q6.76953 32.7676 6.62109 32.7676L6.27734 32.7676L6.27734 33.2969ZM8.21582 34.3623Q8.04102 34.0293 8.04102 33.5918Q8.04102 33.1543 8.21582 32.8213Q8.39062 32.4883 8.7002 32.3105Q9.00977 32.1328 9.4082 32.1328Q9.70703 32.1328 9.95996 32.2363Q10.2129 32.3398 10.3936 32.5283Q10.5742 32.7168 10.6758 32.9902Q10.7773 33.2637 10.7773 33.5918Q10.7773 34.0293 10.6025 34.3623Q10.4277 34.6953 10.1172 34.874Q9.80664 35.0527 9.4082 35.0527Q9.00977 35.0527 8.7002 34.874Q8.39062 34.6953 8.21582 34.3623ZM8.93945 33Q8.76953 33.2285 8.76953 33.5918Q8.76953 33.9551 8.93945 34.1836Q9.10938 34.4121 9.4082 34.4121Q9.70703 34.4121 9.87793 34.1836Q10.0488 33.9551 10.0488 33.5918Q10.0488 33.2285 9.87793 33Q9.70703 32.7715 9.4082 32.7715Q9.10938 32.7715 8.93945 33ZM11.1992 35L11.1992 32.1836L13.1309 32.1836L13.1309 32.8164L11.916 32.8164L11.916 33.2676L13.0566 33.2676L13.0566 33.877L11.916 33.877L11.916 34.3672L13.1309 34.3672L13.1309 35L11.1992 35ZM13.5859 35L13.5859 32.1836L14.3027 32.1836L14.3027 33.2402L15.2949 33.2402L15.2949 32.1836L16.0098 32.1836L16.0098 35L15.2949 35L15.2949 33.8809L14.3027 33.8809L14.3027 35L13.5859 35ZM16.5527 35L16.5527 32.1836L17.2695 32.1836L17.2695 33.2402L18.2617 33.2402L18.2617 32.1836L18.9766 32.1836L18.9766 35L18.2617 35L18.2617 33.8809L17.2695 33.8809L17.2695 35L16.5527 35ZM19.5195 35L19.5195 32.1836L20.2363 32.1836L20.2363 33.1035L20.6191 33.1035Q21.0977 33.1035 21.373 33.3643Q21.6484 33.625 21.6484 34.0527Q21.6484 34.4727 21.3701 34.7363Q21.0918 35 20.6367 35L19.5195 35ZM20.2363 34.3926L20.5566 34.3926Q20.7227 34.3926 20.8232 34.2998Q20.9238 34.207 20.9238 34.0527Q20.9238 33.8906 20.8262 33.8018Q20.7285 33.7129 20.5566 33.7129L20.2363 33.7129L20.2363 34.3926ZM21.8555 35L21.8555 32.1836L22.5684 32.1836L22.5684 35L21.8555 35ZM23.1113 35L23.1113 32.1836L23.8164 32.1836L23.8164 33.8672L24.875 32.1836L25.5801 32.1836L25.5801 35L24.875 35L24.875 33.3164L23.8164 35L23.1113 35ZM23.5762 31.2676L24.0684 31.2676Q24.0684 31.3945 24.1387 31.4814Q24.209 31.5684 24.3438 31.5684Q24.4785 31.5684 24.5488 31.4814Q24.6191 31.3945 24.6191 31.2676L25.1113 31.2676Q25.1113 31.5938 24.9062 31.793Q24.7012 31.9922 24.3438 31.9922Q23.9863 31.9922 23.7812 31.793Q23.5762 31.5938 23.5762 31.2676ZM9.56348 41L9.56348 38.1836L11.4678 38.1836L11.4678 38.8086L10.2803 38.8086L10.2803 39.2246L10.7393 39.2246Q11.1807 39.2246 11.4365 39.4609Q11.6924 39.6973 11.6924 40.1074Q11.6924 40.4941 11.4287 40.7471Q11.165 41 10.7354 41L9.56348 41ZM10.2803 40.4043L10.6357 40.4043Q10.792 40.4043 10.8818 40.3184Q10.9717 40.2324 10.9717 40.0957Q10.9717 39.9551 10.8828 39.8711Q10.7939 39.7871 10.6357 39.7871L10.2803 39.7871L10.2803 40.4043ZM12.0947 41L12.0947 38.1836L12.7998 38.1836L12.7998 39.8672L13.8584 38.1836L14.5635 38.1836L14.5635 41L13.8584 41L13.8584 39.3164L12.7998 41L12.0947 41ZM14.874 41.0078L14.874 40.3711L14.9541 40.3711Q15.1631 40.3711 15.2559 40.252Q15.3486 40.1328 15.3662 39.8633L15.4756 38.1836L17.4951 38.1836L17.4951 41L16.7783 41L16.7783 38.8164L16.1143 38.8164L16.042 39.9121Q16.0244 40.1699 15.9668 40.3623Q15.9092 40.5547 15.7979 40.7041Q15.6865 40.8535 15.502 40.9307Q15.3174 41.0078 15.0635 41.0078L14.874 41.0078ZM18.0381 41L18.0381 38.1836L19.9697 38.1836L19.9697 38.8164L18.7549 38.8164L18.7549 39.2676L19.8955 39.2676L19.8955 39.877L18.7549 39.877L18.7549 40.3672L19.9697 40.3672L19.9697 41L18.0381 41ZM20.2725 38.8164L20.2725 38.1836L22.5889 38.1836L22.5889 38.8164L21.79 38.8164L21.79 41L21.0732 41L21.0732 38.8164L20.2725 38.8164Z" fill-rule="evenodd" fill="#6B2335"/>
</svg>