<svg xmlns="http://www.w3.org/2000/svg" width="49" height="49" fill="none"><path d="M24.1 48a23.07 23.07 0 01-23-23 23.07 23.07 0 0123-23 23.07 23.07 0 0123 23 23.07 23.07 0 01-23 23z" fill="#EDEEEE"/><path fill="#fff" stroke="#DDE2E3" d="M5.6 4.5h24v31h-24z"/><path fill="#DBDDDE" d="M12.1 10h11v2h-11zM9.1 14h17v2h-17zM12.1 18h11v2h-11zM10.1 22h15v2h-15z"/><path d="M26.33 42.3h-.66l.52-3.56h1.18l-1.04 3.56zM29.36 42.3h-.65l.51-3.56h1.2l-1.06 3.56zM44.74 42.3h.66l-.53-3.56H43.7l1.05 3.56zM42.16 42.3h.66l-.53-3.56h-1.18l1.05 3.56z" fill="#60696C"/><path d="M45.86 42H16.33a.5.5 0 000 1h29.53a.5.5 0 000-1z" fill="#9CABB1"/><path d="M43.1 33h-15V21.68c0-4.9 14.98-4.9 14.98 0L43.1 33zM45.1 38h-19v1h19v-1z" fill="#F05918"/><path d="M45.1 33h-19v5h19v-5zM29.1 33v-3a2 2 0 00-4 0v2a1 1 0 001 1h3zM46.1 32v-2a2 2 0 00-4 0v3h3a1 1 0 001-1z" fill="#FF8834"/><path d="M16.1 36h6.5l-.5 6h-5.5l-.5-6z" fill="#014266"/><path d="M14.1 33.11c0 1.16 1.87 2.4 2.8 2.89h5.01c1.4-.4 2.64-2.4 2.03-3.25-.83-1.15-2.03-.2-2.03-1s1.63-.44 2.03-1.89c.4-1.44-1.2-1.44-1.6-1.8-.9-.8-.03-.91-.03-2.53 0-1.8-2-1.8-2.8-1.08-.8.72-.91 3.61-2.6 2.17-1.07-.91-2.81.72-1.61 2.52s1.6 2.53.4 2.89c-.38.11-1.6-.36-1.6 1.08z" fill="#16AF6F"/></svg>