<svg xmlns="http://www.w3.org/2000/svg" xmlns:xlink="http://www.w3.org/1999/xlink" width="32.000000" height="48.000000" viewBox="0 0 32 48" fill="none">
	<defs/>
	<rect id="Фон документа" x="0.500000" y="0.500000" rx="2.000000" width="31.000000" height="47.000000" fill="#FFFFFF"/>
	<rect id="Фон документа" x="0.500000" y="0.500000" rx="2.000000" width="31.000000" height="47.000000" stroke="#EAE9F2"/>
	<rect id="Полоска" x="5.000000" y="27.000000" width="9.000000" height="1.000000" fill="#B9B6C9"/>
	<rect id="Полоска" x="5.000000" y="30.000000" width="6.000000" height="1.000000" fill="#B9B6C9"/>
	<rect id="Полоска" x="5.000000" y="33.000000" width="3.000000" height="1.000000" fill="#B9B6C9"/>
	<rect id="Полоска" x="15.000000" y="27.000000" width="5.000000" height="1.000000" fill="#B9B6C9"/>
	<rect id="Полоска" x="12.000000" y="30.000000" width="5.000000" height="1.000000" fill="#B9B6C9"/>
	<rect id="Полоска" x="9.000000" y="33.000000" width="5.000000" height="1.000000" fill="#B9B6C9"/>
	<rect id="Полоска" x="21.000000" y="27.000000" width="6.000000" height="1.000000" fill="#B9B6C9"/>
	<rect id="Полоска" x="18.000000" y="30.000000" width="9.000000" height="1.000000" fill="#B9B6C9"/>
	<rect id="Полоска" x="5.000000" y="17.000000" width="22.000000" height="1.000000" fill="#EAE9F2"/>
	<rect id="Полоска" x="5.000000" y="20.000000" width="22.000000" height="1.000000" fill="#EAE9F2"/>
	<rect id="Полоска" x="5.000000" y="17.000000" width="1.000000" height="7.000000" fill="#EAE9F2"/>
	<rect id="Полоска" x="26.000000" y="17.000000" width="1.000000" height="7.000000" fill="#EAE9F2"/>
	<rect id="Полоска" x="16.000000" y="17.000000" width="1.000000" height="7.000000" fill="#EAE9F2"/>
	<rect id="Полоска" x="5.000000" y="23.000000" width="22.000000" height="1.000000" fill="#EAE9F2"/>
	<path id="Справка 2-НДФЛ" d="M7.23145 6.5918Q7.23145 6.26562 7.33105 5.99121Q7.43066 5.7168 7.60742 5.5293Q7.78418 5.3418 8.03125 5.2373Q8.27832 5.13281 8.56738 5.13281Q8.84668 5.13281 9.07617 5.21582Q9.30566 5.29883 9.45801 5.44531Q9.61035 5.5918 9.70117 5.78125Q9.79199 5.9707 9.81543 6.19141L9.10645 6.19141Q9.05957 6.00977 8.92188 5.89062Q8.78418 5.77148 8.56738 5.77148Q8.30176 5.77148 8.13086 5.99316Q7.95996 6.21484 7.95996 6.5918Q7.95996 6.96094 8.13086 7.18652Q8.30176 7.41211 8.5752 7.41211Q8.80371 7.41211 8.94336 7.28223Q9.08301 7.15234 9.10645 6.99219L9.81934 6.99219Q9.81152 7.14648 9.76172 7.29492Q9.71191 7.44336 9.60938 7.58105Q9.50684 7.71875 9.36523 7.82324Q9.22363 7.92773 9.01758 7.99023Q8.81152 8.05273 8.56738 8.05273Q8.28809 8.05273 8.04492 7.95312Q7.80176 7.85352 7.62012 7.6709Q7.43848 7.48828 7.33496 7.20996Q7.23145 6.93164 7.23145 6.5918ZM10.1865 8L10.1865 5.91211L12.1611 5.91211L12.1611 8L11.4814 8L11.4814 6.49219L10.8662 6.49219L10.8662 8L10.1865 8ZM12.626 8.76367L12.626 5.91211L13.2783 5.91211L13.2783 6.13672Q13.3623 6.01172 13.5098 5.93555Q13.6572 5.85938 13.8584 5.85938Q14.2471 5.85938 14.498 6.15625Q14.749 6.45312 14.749 6.95508Q14.749 7.45117 14.4941 7.75195Q14.2393 8.05273 13.8408 8.05273Q13.6592 8.05273 13.5215 7.98926Q13.3838 7.92578 13.3057 7.81641L13.3057 8.76367L12.626 8.76367ZM13.2939 6.96484Q13.2939 7.19531 13.3994 7.33203Q13.5049 7.46875 13.6807 7.46875Q13.8584 7.46875 13.9639 7.33008Q14.0693 7.19141 14.0693 6.95508Q14.0693 6.7207 13.9639 6.58203Q13.8584 6.44336 13.6807 6.44336Q13.5068 6.44336 13.4004 6.58105Q13.2939 6.71875 13.2939 6.94727L13.2939 6.96484ZM14.9912 7.38086Q14.9912 7.05273 15.2227 6.87207Q15.4541 6.69141 15.8643 6.69141L16.2803 6.69141L16.2803 6.61523Q16.2803 6.49805 16.2002 6.4375Q16.1201 6.37695 15.9873 6.37695Q15.8643 6.37695 15.792 6.4248Q15.7197 6.47266 15.7041 6.54492L15.0752 6.54492Q15.1182 6.24805 15.3633 6.05371Q15.6084 5.85938 16.0205 5.85938Q16.4502 5.85938 16.6973 6.05859Q16.9443 6.25781 16.9443 6.64062L16.9443 8L16.3193 8L16.3193 7.7832Q16.2275 7.91016 16.0742 7.98145Q15.9209 8.05273 15.7197 8.05273Q15.4053 8.05273 15.1982 7.87207Q14.9912 7.69141 14.9912 7.38086ZM15.6729 7.33984Q15.6729 7.42969 15.7412 7.48242Q15.8096 7.53516 15.9287 7.53516Q16.0752 7.53516 16.1777 7.4502Q16.2803 7.36523 16.2803 7.21289L16.2803 7.14453L15.917 7.14453Q15.8096 7.14453 15.7412 7.19824Q15.6729 7.25195 15.6729 7.33984ZM17.3916 8L17.3916 5.91211L18.4268 5.91211Q18.792 5.91211 18.9834 6.05957Q19.1748 6.20703 19.1748 6.45117Q19.1748 6.62305 19.0869 6.73828Q18.999 6.85352 18.8545 6.9043Q19.0244 6.95117 19.1357 7.07812Q19.2471 7.20508 19.2471 7.4043Q19.2471 7.66797 19.0381 7.83398Q18.8291 8 18.4424 8L17.3916 8ZM18.0557 7.53906L18.3545 7.53906Q18.4561 7.53906 18.5137 7.48828Q18.5713 7.4375 18.5713 7.34766Q18.5713 7.25781 18.5146 7.20898Q18.458 7.16016 18.3545 7.16016L18.0557 7.16016L18.0557 7.53906ZM18.0557 6.7168L18.3154 6.7168Q18.4072 6.7168 18.459 6.66992Q18.5107 6.62305 18.5107 6.54492Q18.5107 6.46289 18.4609 6.41699Q18.4111 6.37109 18.3193 6.37109L18.0557 6.37109L18.0557 6.7168ZM19.6025 8L19.6025 5.91211L20.2822 5.91211L20.2822 6.70703L20.8818 5.91211L21.6299 5.91211L20.8857 6.89258L21.6494 8L20.874 8L20.2822 7.11133L20.2822 8L19.6025 8ZM21.7529 7.38086Q21.7529 7.05273 21.9844 6.87207Q22.2158 6.69141 22.626 6.69141L23.042 6.69141L23.042 6.61523Q23.042 6.49805 22.9619 6.4375Q22.8818 6.37695 22.749 6.37695Q22.626 6.37695 22.5537 6.4248Q22.4814 6.47266 22.4658 6.54492L21.8369 6.54492Q21.8799 6.24805 22.125 6.05371Q22.3701 5.85938 22.7822 5.85938Q23.2119 5.85938 23.459 6.05859Q23.7061 6.25781 23.7061 6.64062L23.7061 8L23.0811 8L23.0811 7.7832Q22.9893 7.91016 22.8359 7.98145Q22.6826 8.05273 22.4814 8.05273Q22.167 8.05273 21.96 7.87207Q21.7529 7.69141 21.7529 7.38086ZM22.4346 7.33984Q22.4346 7.42969 22.5029 7.48242Q22.5713 7.53516 22.6904 7.53516Q22.8369 7.53516 22.9395 7.4502Q23.042 7.36523 23.042 7.21289L23.042 7.14453L22.6787 7.14453Q22.5713 7.14453 22.5029 7.19824Q22.4346 7.25195 22.4346 7.33984ZM7.32715 11.0273Q7.35449 10.6348 7.63867 10.3838Q7.92285 10.1328 8.3877 10.1328Q8.8623 10.1328 9.13965 10.3809Q9.41699 10.6289 9.41699 11.0039Q9.41699 11.1426 9.38184 11.2627Q9.34668 11.3828 9.27637 11.4883Q9.20605 11.5938 9.12695 11.6777Q9.04785 11.7617 8.93262 11.8594L8.31543 12.3887L9.45605 12.3887L9.45605 13L7.35254 13L7.35254 12.4277L8.4209 11.4805Q8.56543 11.3516 8.63281 11.251Q8.7002 11.1504 8.7002 11.0312Q8.7002 10.9023 8.60938 10.8232Q8.51855 10.7441 8.37207 10.7441Q8.22168 10.7441 8.12793 10.8223Q8.03418 10.9004 8.0127 11.0273L7.32715 11.0273ZM9.88379 12.207L9.88379 11.5957L11.2119 11.5957L11.2119 12.207L9.88379 12.207ZM11.7217 13L11.7217 10.1836L12.4385 10.1836L12.4385 11.2402L13.4307 11.2402L13.4307 10.1836L14.1455 10.1836L14.1455 13L13.4307 13L13.4307 11.8809L12.4385 11.8809L12.4385 13L11.7217 13ZM14.4561 13.5352L14.4561 12.3672L14.6807 12.3672Q14.8037 12.291 14.8584 12.0977Q14.9131 11.9043 14.9365 11.5645L15.0244 10.1836L17.1162 10.1836L17.1162 12.3672L17.4561 12.3672L17.4561 13.5352L16.7725 13.5352L16.7725 13L15.1416 13L15.1416 13.5352L14.4561 13.5352ZM15.4131 12.3672L16.4014 12.3672L16.4014 10.8164L15.665 10.8164L15.6123 11.5645Q15.5889 11.8965 15.5518 12.0664Q15.5146 12.2363 15.4131 12.3672ZM17.6533 11.5762Q17.6533 11.2988 17.7598 11.0752Q17.8662 10.8516 18.0459 10.71Q18.2256 10.5684 18.4502 10.4893Q18.6748 10.4102 18.9248 10.4004L18.9248 10.1035L19.6201 10.1035L19.6201 10.4004Q19.8193 10.4082 20.0029 10.459Q20.1865 10.5098 20.3496 10.6074Q20.5127 10.7051 20.6328 10.8398Q20.7529 10.9746 20.8232 11.1641Q20.8936 11.3535 20.8936 11.5762Q20.8936 11.8516 20.7871 12.0752Q20.6807 12.2988 20.501 12.4424Q20.3213 12.5859 20.0957 12.666Q19.8701 12.7461 19.6201 12.7559L19.6201 13.0449L18.9248 13.0449L18.9248 12.7559Q18.6748 12.7461 18.4502 12.666Q18.2256 12.5859 18.0459 12.4424Q17.8662 12.2988 17.7598 12.0752Q17.6533 11.8516 17.6533 11.5762ZM18.3564 11.5762Q18.3564 11.834 18.5166 11.9922Q18.6768 12.1504 18.9248 12.1602L18.9248 10.9961Q18.6748 11.002 18.5156 11.1582Q18.3564 11.3145 18.3564 11.5762ZM19.6201 12.1602Q19.8682 12.1504 20.0283 11.9922Q20.1885 11.834 20.1885 11.5762Q20.1885 11.3145 20.0293 11.1582Q19.8701 11.002 19.6201 10.9961L19.6201 12.1602ZM20.9873 13.0078L20.9873 12.3711L21.0674 12.3711Q21.2764 12.3711 21.3691 12.252Q21.4619 12.1328 21.4795 11.8633L21.5889 10.1836L23.6084 10.1836L23.6084 13L22.8916 13L22.8916 10.8164L22.2275 10.8164L22.1553 11.9121Q22.1377 12.1699 22.0801 12.3623Q22.0225 12.5547 21.9111 12.7041Q21.7998 12.8535 21.6152 12.9307Q21.4307 13.0078 21.1768 13.0078L20.9873 13.0078Z" fill-rule="evenodd" fill="#6E6A81"/>
	<path id="Печать" d="M23 35C20.791 35 19 36.7908 19 39C19 41.2092 20.791 43 23 43C25.209 43 27 41.2092 27 39C27 36.7908 25.209 35 23 35ZM20.0767 39.6807L20.0767 39.6807C20.0254 39.4597 20 39.2329 20 39C20 38.7673 20.0254 38.5405 20.0767 38.3196L20.0767 38.3193L20.0767 38.3193C20.1152 38.1538 20.168 37.9915 20.2354 37.8325C20.3052 37.668 20.3877 37.512 20.4839 37.3645C20.5972 37.1904 20.7285 37.0286 20.8789 36.8787C21.0288 36.7288 21.1904 36.5972 21.3643 36.4839L21.3643 36.4839L21.3643 36.4839C21.5117 36.3879 21.668 36.3049 21.8325 36.2354C21.9917 36.1682 22.1538 36.1152 22.3193 36.0769L22.3193 36.0769C22.5405 36.0256 22.7671 36 23 36C23.2329 36 23.4595 36.0256 23.6807 36.0769L23.6807 36.0769C23.8462 36.1152 24.0083 36.1682 24.1675 36.2354C24.332 36.3049 24.4878 36.3877 24.6353 36.4839L24.6357 36.4839C24.8096 36.5972 24.9712 36.7288 25.1211 36.8787C25.2715 37.0286 25.4028 37.1907 25.5161 37.3645L25.5161 37.3645C25.6123 37.512 25.6948 37.668 25.7646 37.8325C25.832 37.9915 25.8848 38.1538 25.9233 38.3193L25.9233 38.3193C25.9746 38.5403 26 38.7671 26 39C26 39.2329 25.9746 39.4597 25.9233 39.6807L25.9233 39.6807L25.9233 39.6807L25.9233 39.6807C25.8848 39.8462 25.832 40.0085 25.7646 40.1675C25.6948 40.332 25.6123 40.488 25.5161 40.6355L25.5161 40.6355C25.4028 40.8093 25.2715 40.9714 25.1211 41.1213C24.9712 41.2712 24.8096 41.4028 24.6357 41.5161L24.6357 41.5161C24.4883 41.6123 24.332 41.6951 24.1675 41.7646C24.0083 41.8318 23.8462 41.8848 23.6807 41.9231C23.4595 41.9744 23.2329 42 23 42C22.7671 42 22.5405 41.9744 22.3193 41.9231L22.3193 41.9231L22.3188 41.9231C22.1533 41.8845 21.9912 41.8318 21.8325 41.7646C21.668 41.6951 21.5117 41.6121 21.3643 41.5161L21.3643 41.5161C21.1904 41.4028 21.0288 41.2712 20.8789 41.1213C20.7285 40.9714 20.5972 40.8096 20.4839 40.6357L20.4839 40.6355C20.3877 40.488 20.3052 40.332 20.2354 40.1675C20.168 40.0085 20.1152 39.8462 20.0767 39.6807L20.0767 39.6807ZM21 39C21 37.8955 21.8955 37 23 37C24.1045 37 25 37.8955 25 39C25 40.1045 24.1045 41 23 41C21.8955 41 21 40.1045 21 39ZM22 39C22 39.0825 22.0098 39.1628 22.0288 39.2407C22.041 39.2913 22.0576 39.3406 22.0781 39.3889C22.1001 39.4414 22.1265 39.4912 22.1567 39.5383L22.1567 39.5383C22.1953 39.5989 22.2407 39.655 22.293 39.707C22.3447 39.759 22.4014 39.8044 22.4614 39.8433C22.5088 39.8735 22.5586 39.8997 22.6108 39.9219C22.6597 39.9424 22.709 39.9587 22.7593 39.9712L22.7593 39.9712C22.8369 39.9905 22.9175 40 23 40C23.0825 40 23.1631 39.9905 23.2407 39.9712C23.291 39.9587 23.3403 39.9424 23.3892 39.9219C23.4414 39.8997 23.4912 39.8735 23.5386 39.8433C23.5986 39.8044 23.6553 39.759 23.707 39.707C23.7593 39.655 23.8047 39.5989 23.8433 39.5383C23.8735 39.4912 23.8999 39.4414 23.9219 39.3889C23.9424 39.3406 23.9585 39.2913 23.9712 39.241L23.9712 39.2407C23.9902 39.1628 24 39.0825 24 39C24 38.9175 23.9902 38.8372 23.9712 38.7593C23.959 38.7087 23.9424 38.6594 23.9219 38.6111C23.8999 38.5586 23.8735 38.5088 23.8433 38.4617C23.8047 38.4011 23.7593 38.345 23.707 38.293C23.6553 38.241 23.5986 38.1956 23.5386 38.1567C23.4912 38.1265 23.4414 38.1003 23.3892 38.0781C23.3403 38.0576 23.291 38.0413 23.2407 38.0288L23.2407 38.0288C23.1631 38.0095 23.0825 38 23 38C22.9175 38 22.8369 38.0095 22.7593 38.0288L22.7593 38.0288C22.709 38.0413 22.6597 38.0576 22.6108 38.0781C22.5586 38.1003 22.5088 38.1265 22.4614 38.1567L22.4614 38.1567L22.4614 38.1567C22.4014 38.1956 22.3447 38.241 22.293 38.293C22.2407 38.345 22.1953 38.4011 22.1567 38.4617L22.1567 38.4617L22.1567 38.4617C22.1265 38.5088 22.1001 38.5586 22.0781 38.6111C22.0576 38.6594 22.041 38.7087 22.0288 38.7593L22.0288 38.7593C22.0098 38.8372 22 38.9175 22 39Z" clip-rule="evenodd" fill-rule="evenodd" fill="#A391F3" fill-opacity="1.000000"/>
</svg>