<svg xmlns="http://www.w3.org/2000/svg" xmlns:xlink="http://www.w3.org/1999/xlink" width="32.000000" height="48.000000" viewBox="0 0 32 48" fill="none">
	<defs/>
	<rect id="Фон документа" rx="2.000000" width="32.000000" height="48.000000" fill="#871B17"/>
	<path id="Паспорт" d="M6.44336 41L6.44336 38.1836L8.85547 38.1836L8.85547 41L8.14062 41L8.14062 38.8164L7.16016 38.8164L7.16016 41L6.44336 41ZM9.16602 41L10.1797 38.1836L10.9238 38.1836L11.9395 41L11.207 41L11.0312 40.4844L10.0703 40.4844L9.90234 41L9.16602 41ZM10.2598 39.9004L10.8398 39.9004L10.5469 38.9961L10.2598 39.9004ZM12.002 39.5918C12.002 39.3743 12.0352 39.1742 12.1016 38.9912C12.168 38.8083 12.2601 38.6543 12.3779 38.5293C12.4958 38.4043 12.637 38.307 12.8018 38.2373C12.9665 38.1676 13.1452 38.1328 13.3379 38.1328C13.5241 38.1328 13.6937 38.1605 13.8467 38.2158C13.9997 38.2712 14.127 38.3477 14.2285 38.4453C14.3301 38.543 14.4111 38.6549 14.4717 38.7812C14.5322 38.9076 14.5703 39.0443 14.5859 39.1914L13.877 39.1914C13.8457 39.0703 13.7842 38.9701 13.6924 38.8906C13.6006 38.8112 13.4824 38.7715 13.3379 38.7715C13.1608 38.7715 13.0153 38.8454 12.9014 38.9932C12.7874 39.1409 12.7305 39.3405 12.7305 39.5918C12.7305 39.8379 12.7874 40.0361 12.9014 40.1865C13.0153 40.3369 13.1634 40.4121 13.3457 40.4121C13.498 40.4121 13.6208 40.3688 13.7139 40.2822C13.807 40.1956 13.8613 40.099 13.877 39.9922L14.5898 39.9922C14.5846 40.0951 14.5654 40.196 14.5322 40.2949C14.499 40.3939 14.4482 40.4893 14.3799 40.5811C14.3115 40.6729 14.2301 40.7536 14.1357 40.8232C14.0413 40.8929 13.9255 40.9486 13.7881 40.9902C13.6507 41.0319 13.5007 41.0527 13.3379 41.0527C13.1517 41.0527 12.9775 41.0195 12.8154 40.9531C12.6533 40.8867 12.5117 40.7926 12.3906 40.6709C12.2695 40.5492 12.1745 40.3955 12.1055 40.21C12.0365 40.0244 12.002 39.8184 12.002 39.5918ZM14.9961 41L14.9961 38.1836L17.4082 38.1836L17.4082 41L16.6934 41L16.6934 38.8164L15.7129 38.8164L15.7129 41L14.9961 41ZM18.0068 40.3623C17.8903 40.1403 17.832 39.8835 17.832 39.5918C17.832 39.3001 17.8903 39.0433 18.0068 38.8213C18.1234 38.5993 18.2848 38.429 18.4912 38.3105C18.6976 38.1921 18.9336 38.1328 19.1992 38.1328C19.3984 38.1328 19.5824 38.1673 19.751 38.2363C19.9196 38.3053 20.0641 38.4027 20.1846 38.5283C20.305 38.654 20.3991 38.8079 20.4668 38.9902C20.5345 39.1725 20.5684 39.373 20.5684 39.5918C20.5684 39.8835 20.5101 40.1403 20.3936 40.3623C20.277 40.5843 20.1152 40.7549 19.9082 40.874C19.7012 40.9932 19.4648 41.0527 19.1992 41.0527C18.9336 41.0527 18.6976 40.9932 18.4912 40.874C18.2848 40.7549 18.1234 40.5843 18.0068 40.3623ZM18.7305 39C18.6172 39.1523 18.5605 39.3496 18.5605 39.5918C18.5605 39.834 18.6172 40.0312 18.7305 40.1836C18.8438 40.3359 19 40.4121 19.1992 40.4121C19.3984 40.4121 19.555 40.3359 19.6689 40.1836C19.7829 40.0312 19.8398 39.834 19.8398 39.5918C19.8398 39.3496 19.7829 39.1523 19.6689 39C19.555 38.8477 19.3984 38.7715 19.1992 38.7715C19 38.7715 18.8438 38.8477 18.7305 39ZM20.9902 41L20.9902 38.1836L22.1035 38.1836C22.4277 38.1836 22.6826 38.2738 22.8682 38.4541C23.0537 38.6344 23.1465 38.8685 23.1465 39.1562C23.1465 39.4388 23.0527 39.6716 22.8652 39.8545C22.6777 40.0374 22.429 40.1289 22.1191 40.1289L21.707 40.1289L21.707 41L20.9902 41ZM21.707 39.5195L22.0391 39.5195C22.1549 39.5195 22.2477 39.4854 22.3174 39.417C22.387 39.3486 22.4219 39.2617 22.4219 39.1562C22.4219 39.0456 22.388 38.9574 22.3203 38.8916C22.2526 38.8258 22.1589 38.793 22.0391 38.793L21.707 38.793L21.707 39.5195ZM23.3926 38.8164L23.3926 38.1836L25.709 38.1836L25.709 38.8164L24.9102 38.8164L24.9102 41L24.1934 41L24.1934 38.8164L23.3926 38.8164Z" fill-rule="evenodd" fill="#CC9900"/>
	<rect id="Полоска" x="6.000000" y="4.000000" width="20.000000" height="1.000000" fill="#CC9900"/>
	<rect id="Полоска" x="8.000000" y="7.000000" width="16.000000" height="1.000000" fill="#CC9900"/>
	<path id="Герб" d="M19.6943 19.7168C19.3818 19.4434 18.9326 19.4492 18.6748 19.5293C18.8438 19.3223 19.2373 19.1523 19.3525 19.1328C19.4414 19.166 19.6943 19.4238 19.6943 19.7168ZM20.6934 18.5859C20.4873 17.4902 17.9307 18.2168 16.6436 17.752C16.6191 18.0703 17.04 18.582 17.4424 18.7715C16.7549 19.3652 16.1367 20.5645 16.0117 22.0273C15.8877 20.5645 15.2695 19.3652 14.5811 18.7715C14.9834 18.582 15.4053 18.0703 15.3799 17.752C14.0928 18.2168 11.5361 17.4922 11.3301 18.5859C11.2871 18.8184 11.3994 19.1719 11.5205 19.2734C11.542 19.1992 11.6553 18.959 12.0107 18.9043C13.8125 18.6348 15.3154 21.3965 13.958 22.5137C13.9375 22.5312 13.9492 22.5625 13.9775 22.5625L18.0469 22.5625C18.0742 22.5625 18.0859 22.5312 18.0654 22.5137C16.708 21.3984 18.2119 18.6348 20.0127 18.9062C20.3691 18.959 20.4824 19.1992 20.5039 19.2734C20.625 19.1719 20.7363 18.8184 20.6934 18.5859L20.6934 18.5859ZM21.1309 16.0723C21.0986 15.9688 22.1543 15.9668 22.1543 16.625C22.1543 17.0664 21.5234 17.2754 21.5234 17.7324C21.5234 17.9453 21.7529 18.1016 21.8242 18.1016C21.6611 17.3672 22.334 17.752 22.5156 17.8887C22.1543 16.9004 22.9678 16.9062 22.8877 16.4551C22.832 16.1387 22.125 16.2324 21.8701 16.0723C21.416 15.7891 20.8789 14.6836 20.5254 15.7891C21.1846 16.3984 20.8018 17.2949 19.9639 17.2949C19.9639 17.2949 19.96 17.4258 19.9678 17.4375C20.9658 17.3887 21.3135 16.6582 21.1309 16.0723ZM9.4834 17.8887C9.66504 17.752 10.3379 17.3672 10.1758 18.1016C10.2461 18.1016 10.4766 17.9453 10.4766 17.7324C10.4766 17.2754 9.84473 17.0664 9.84473 16.625C9.84473 15.9668 10.9004 15.9688 10.8682 16.0723C10.6855 16.6582 11.0342 17.3887 12.0322 17.4375C12.04 17.4258 12.0352 17.2949 12.0352 17.2949C11.1982 17.2949 10.8145 16.3984 11.4736 15.7891C11.1201 14.6836 10.583 15.7891 10.1299 16.0723C9.87402 16.2324 9.16797 16.1387 9.1123 16.4551C9.03223 16.9082 9.84473 16.9004 9.4834 17.8887L9.4834 17.8887ZM12.3184 19.7168C12.6318 19.4434 13.0811 19.4492 13.3389 19.5293C13.1709 19.3223 12.7764 19.1523 12.6602 19.1328C12.5723 19.166 12.3184 19.4238 12.3184 19.7168L12.3184 19.7168ZM16.4863 13.5918L16 13L15.5127 13.5918L16 14.2129L16.4863 13.5918L16.4863 13.5918ZM19.2666 15.3789L18.9209 14.959L18.5742 15.3789L18.9199 15.7891L19.2666 15.3789L19.2666 15.3789ZM22.0752 27.5195L21.6367 27.0566L21.1973 27.5195L21.6367 27.9258L22.0762 27.5195L22.0752 27.5195ZM13.4248 15.3789L13.0791 14.959L12.7334 15.3789L13.0791 15.7891L13.4258 15.3789L13.4248 15.3789ZM12.4336 17.4375L13.7246 17.4375C14.8115 17.4375 15.2998 16.7734 15.4473 16.1973L16.5527 16.1973C16.7002 16.7734 17.1885 17.4375 18.2744 17.4375L19.5664 17.4375C19.5664 17.4375 19.792 17.1309 19.8496 16.9805C20.0527 16.4375 19.792 16.1836 19.4121 16.1836L18.9199 16.627L18.4287 16.1836C18.0488 16.1836 17.7881 16.4375 17.9922 16.9805C18.0176 17.0508 18.0801 17.1523 18.1396 17.2422C17.6807 17.1797 17.0957 16.8672 16.9678 16.1973C16.9678 16.1973 17.3057 15.6621 17.3916 15.4453C17.6963 14.666 17.3066 14.3477 16.7363 14.3477L16 15.209L15.2637 14.3477C14.6934 14.3477 14.3027 14.666 14.6084 15.4453C14.6934 15.6621 15.0322 16.1973 15.0322 16.1973C14.9043 16.8672 14.3193 17.1797 13.8604 17.2422C13.9199 17.1523 13.9824 17.0508 14.0078 16.9805C14.2119 16.4375 13.9512 16.1836 13.5713 16.1836L13.0791 16.627L12.5879 16.1836C12.207 16.1836 11.9473 16.4375 12.1504 16.9805C12.207 17.1328 12.4336 17.4375 12.4336 17.4375L12.4336 17.4375ZM25.7881 21.4219C25.5381 21.5488 24.0762 22.2305 22.2021 21.9785C22.2217 21.8887 22.2383 21.7988 22.251 21.709C23.498 21.5605 24.5117 21.3496 25.1582 20.9922C25.8945 20.584 26.2168 19.6113 25.8447 18.8867C25.835 18.8672 25.8086 18.8652 25.7949 18.8809C25.5918 19.1133 24.3105 20.5 22.293 20.9316C22.2881 20.8281 22.2783 20.7227 22.2646 20.6211C23.2441 20.0664 24.2012 19.4297 24.6572 18.8477C25.3457 17.9648 25.2822 16.8418 24.627 16.2676C24.6201 16.2617 24.6113 16.2598 24.6025 16.2617C24.5928 16.2617 24.585 16.2676 24.5801 16.2754C24.373 16.6152 22.4326 19.7383 20.3018 21.0859C20.2754 21.1016 20.25 21.1191 20.2236 21.1348C20.1621 21.1719 20.1553 21.25 20.207 21.2969C20.4531 21.5195 20.6055 21.8281 20.6055 22.1699C20.6055 22.7656 20.1445 23.2598 19.5352 23.3672C19.2256 23.4277 18.7783 23.4102 18.3496 23.2695C18.3301 23.2617 18.3096 23.2754 18.3096 23.2949L18.3096 25.1797C18.3096 25.2109 18.3564 25.2168 18.3672 25.1895C18.6279 24.5 19.4102 24.3535 19.751 24.3535C19.874 25.0898 20.0938 25.6992 20.3789 26.0273C20.8438 26.5605 21.6025 26.5527 21.9316 26.1836C21.9375 26.1777 21.9395 26.1699 21.9385 26.1621C21.9365 26.1543 21.9316 26.1465 21.9248 26.1426C21.7314 26.0332 20.625 25.3555 20.4033 24.248C20.4902 24.2188 20.5752 24.1836 20.6582 24.1445C21.0146 24.7324 21.5352 25.2559 21.9531 25.457C22.6562 25.793 23.2988 25.6289 23.584 25.1387C23.5947 25.1211 23.582 25.0996 23.5615 25.0977C23.126 25.0625 21.792 24.6816 21.2246 23.7539C21.29 23.6953 21.3525 23.6328 21.4121 23.5664C22.0068 24.0176 22.8477 24.416 23.4492 24.498C24.1533 24.5918 24.9502 24.3691 24.9697 23.5547C24.9697 23.5371 24.9551 23.5234 24.9385 23.5254C24.6875 23.541 23.0312 23.6113 21.8506 22.9375C21.8916 22.8594 21.9297 22.7812 21.9648 22.7012C21.9648 22.7012 23.749 23.1211 24.5938 22.9805C25.4346 22.8438 25.9258 22.2207 25.8311 21.4453C25.8281 21.4258 25.8057 21.4141 25.7881 21.4219L25.7881 21.4219ZM10.0352 22.6992C10.0703 22.7812 10.1084 22.8594 10.1494 22.9375C8.96973 23.6113 7.31348 23.541 7.06152 23.5254C7.04395 23.5234 7.0293 23.5371 7.0293 23.5547C7.0498 24.3691 7.84668 24.5918 8.55078 24.4961C9.15234 24.416 9.99316 24.0176 10.5869 23.5664C10.6465 23.6328 10.71 23.6953 10.7754 23.7539C10.207 24.6816 8.87305 25.0625 8.43848 25.0977C8.41699 25.0996 8.40527 25.1211 8.41504 25.1367C8.7002 25.6289 9.34375 25.793 10.0469 25.457C10.4648 25.2559 10.9844 24.7324 11.3408 24.1445C11.4238 24.1836 11.5088 24.2188 11.5957 24.248C11.374 25.3555 10.2686 26.0312 10.0752 26.1426C10.0684 26.1465 10.0625 26.1543 10.0615 26.1621C10.0605 26.1699 10.0625 26.1777 10.0674 26.1836C10.3965 26.5527 11.1553 26.5605 11.6201 26.0273C11.9053 25.6992 12.125 25.0898 12.248 24.3535C12.5898 24.3535 13.3711 24.5 13.6318 25.1895C13.6436 25.2168 13.6895 25.2109 13.6895 25.1797L13.6895 23.2949C13.6895 23.2754 13.6689 23.2617 13.6504 23.2676C13.2207 23.4102 12.7734 23.4277 12.4648 23.3672C11.8545 23.2598 11.3936 22.7656 11.3936 22.1699C11.3936 21.8281 11.5469 21.5195 11.792 21.2969C11.8447 21.25 11.8369 21.1719 11.7764 21.1348C11.75 21.1191 11.7236 21.1016 11.6973 21.0859C9.56836 19.7383 7.62891 16.6191 7.41895 16.2754C7.41406 16.2676 7.40625 16.2637 7.39746 16.2617C7.38867 16.2598 7.37891 16.2637 7.37207 16.2695C6.71777 16.8418 6.6543 17.9668 7.34277 18.8477C7.79883 19.4297 8.75488 20.0664 9.73438 20.6211C9.7207 20.7246 9.71191 20.8281 9.70605 20.9316C7.69043 20.5 6.41113 19.1172 6.20508 18.8809C6.19141 18.8652 6.16406 18.8691 6.15527 18.8867C5.78418 19.6113 6.10547 20.584 6.8418 20.9922C7.4873 21.3496 8.50098 21.5605 9.74805 21.709C9.76172 21.7988 9.77832 21.8887 9.79785 21.9785C7.92578 22.2305 6.46387 21.5488 6.21289 21.4238C6.19434 21.4141 6.1709 21.4258 6.16895 21.4453C6.07422 22.2207 6.56641 22.8438 7.40625 22.9805C8.25098 23.1191 10.0352 22.7012 10.0352 22.7012L10.0352 22.6992ZM21.6367 28.5215L20.9863 28.0117C20.7275 28.166 20.5371 28.4102 20.4629 28.6953C20.0713 28.75 19.0059 28.5156 19.1094 28.3594C20.2773 26.7227 19.3838 25.748 18.3096 25.8027L18.3096 26.9023C18.3096 27.2539 18.001 27.541 17.6201 27.541L16.8779 27.541C16.3457 27.541 16 28.0723 16 28.0723C16 28.0723 15.6533 27.541 15.1211 27.541L14.3799 27.541C13.998 27.541 13.6895 27.2539 13.6895 26.9023L13.6895 25.8027C12.6152 25.748 11.7217 26.7227 12.8896 28.3574C12.9932 28.5137 11.8975 28.7617 11.3828 28.6973C11.248 28.5586 11.0527 28.4707 10.834 28.4707C10.7402 28.4707 10.6484 28.4863 10.5615 28.5195C10.5615 28.5195 8.54199 26.6152 8.50488 26.5977L8.52148 26.5586C8.63672 26.3438 8.45996 26.1113 8.34863 26.127C8.47852 25.9727 8.48438 25.2969 7.7666 25.1406C7.78809 25.2773 7.79883 25.5527 7.79883 25.5527C7.79883 25.5527 7.24512 25.2559 6.9668 25.5137C6.72266 25.8008 7.06152 26.3223 7.06152 26.3223C7.06152 26.3223 6.77832 26.3301 6.63867 26.3184C6.84375 27.0098 7.5332 26.9609 7.68164 26.8242C7.67188 26.9336 7.9209 27.0898 8.13184 26.9648L8.22461 26.9199C8.24121 26.9414 10.208 28.791 10.208 28.791C10.1182 28.9258 10.0752 29.0898 10.1045 29.2637C10.1514 29.5371 10.3789 29.7637 10.6709 29.8223C10.877 29.8633 11.0703 29.8223 11.2256 29.7324L11.7471 30.2129C11.793 30.2559 11.8555 30.2812 11.9258 30.2773C12.0527 30.2676 12.1484 30.166 12.1387 30.0469C12.1348 29.9941 12.1074 29.9492 12.0693 29.9141C12.0615 29.9043 11.5391 29.4219 11.5391 29.4219C11.9697 29.1211 12.7725 28.9102 13.4385 28.9102C13.5557 28.9102 13.6104 28.8125 13.5703 28.7148C13.2686 27.9922 13.917 27.4688 14.5879 27.8945C14.8809 28.082 15.1777 28.4473 15.4023 29.0566C14.3008 29.3223 12.9189 30.0527 12.6387 30.8516C12.5312 31.1602 12.8867 31.5801 13.3193 31.6641C13.3271 31.666 13.335 31.6641 13.3408 31.6602C13.3477 31.6562 13.3525 31.6484 13.3545 31.6426C13.5801 30.4512 14.8672 29.5625 15.5361 29.4121C15.5703 29.502 15.5586 29.4727 15.5928 29.5625C14.8633 29.9062 14.1562 30.6289 13.9541 31.4902C13.8613 31.8848 14.3027 32.2402 14.668 32.3379C14.6855 32.3418 14.7041 32.3301 14.7051 32.3125C14.7744 31.2227 15.2568 30.2988 15.6904 29.8789C15.7021 29.9609 15.7109 30.043 15.7168 30.125C15.7168 30.125 15.2734 31.3555 15.2734 32.252C15.2734 32.668 15.8965 32.959 15.9883 33C16.1035 32.959 16.7256 32.668 16.7256 32.252C16.7256 31.3535 16.2822 30.125 16.2822 30.125C16.2891 30.043 16.2979 29.9609 16.3096 29.8789C16.7422 30.2988 17.2256 31.2227 17.2939 32.3125C17.2949 32.3203 17.2998 32.3281 17.3066 32.334C17.3145 32.3379 17.3232 32.3398 17.332 32.3379C17.6963 32.2402 18.1377 31.8848 18.0459 31.4902C17.8438 30.6289 17.1367 29.9062 16.4072 29.5625C16.4404 29.4727 16.4297 29.502 16.4629 29.4121C17.1328 29.5625 18.4199 30.4512 18.6455 31.6426C18.6484 31.6582 18.6641 31.668 18.6807 31.6641C19.1123 31.5801 19.4688 31.1602 19.3604 30.8516C19.0811 30.0527 17.6982 29.3223 16.5977 29.0566C16.8213 28.4473 17.1191 28.0801 17.4121 27.8945C18.082 27.4688 18.7314 27.9922 18.4297 28.7148C18.3887 28.8105 18.4434 28.9102 18.5605 28.9102C19.3145 28.9102 20.2422 29.1816 20.6094 29.5449C20.8447 29.8945 21.2783 30.1191 21.7676 30.0703C22.3232 30.0176 22.7764 29.6016 22.8389 29.0859C22.8936 28.6367 22.6602 28.2324 22.2871 28.0117L21.6367 28.5215L21.6367 28.5215ZM16.8457 25.2402C17.0771 25.1543 17.4404 25.2246 17.4277 25.5566C17.4248 25.6328 17.5312 25.6328 17.5391 25.5547C17.6084 25.0566 17.2705 24.9141 16.916 24.9707C16.8721 24.8008 16.8359 24.6504 16.7949 24.502C16.7627 24.3809 16.75 24.1562 16.8896 24.1562C16.9658 24.1562 16.9355 24.3652 16.9277 24.457C16.9219 24.5352 16.9502 24.584 17.0146 24.5859C17.0557 24.5879 17.1055 24.5371 17.1357 24.502C17.3389 24.2734 17.3857 23.9219 17.1484 23.75C16.9492 23.6074 16.4521 23.7148 16.3154 23.918C16.2949 23.8418 16.1963 23.7148 16.1484 23.6602C16.1025 23.6055 16.0908 23.5684 16.1543 23.5215C16.1846 23.498 16.2754 23.4082 16.2754 23.3164C16.2754 23.2617 16.2324 23.1602 16.0967 23.1602C15.9893 23.1602 15.8711 23.2344 15.8711 23.3984C15.8711 23.4355 15.8799 23.4746 15.9033 23.5156C15.8359 23.5059 15.6523 23.5098 15.5576 23.5332L16.8623 27.0957C17.2354 26.9121 17.5088 26.6211 17.5088 26.3105C17.5088 26.0449 17.1162 26.1328 16.9248 26.3398C16.8643 26.002 16.8096 25.6914 16.749 25.3809C16.7334 25.2969 16.7764 25.2656 16.8457 25.2402L16.8457 25.2402ZM15.001 22.8203L15.2754 23.5781C15.041 23.6328 14.6631 23.8027 14.6631 24.0293C14.6631 24.3301 15.1973 24.5254 15.5059 24.502C15.4902 24.5703 15.5078 24.6309 15.5557 24.6875C15.4443 24.6875 15.2324 24.7383 15.1631 24.8125C15 24.6621 14.7441 24.6055 14.6221 24.6992C14.5 24.791 14.4961 24.9492 14.624 25.127C14.7129 25.25 14.7461 25.373 14.6465 25.5156C15.0176 25.5156 14.8809 25.0332 15.0264 25.0332C15.0078 25.127 15.0195 25.2344 15.0615 25.3555C15.0898 25.4355 15.0898 25.4902 15.042 25.5684C14.9219 25.7598 14.7354 26.1973 14.7607 26.5938C14.6387 26.5938 14.5762 26.5645 14.6191 26.3984C14.6357 26.3359 14.5967 26.293 14.5469 26.3672C14.4902 26.4512 14.4629 26.5957 14.4629 26.6562C14.4629 27.0098 14.8857 27.0801 15.0469 27.0059C15.5137 27.4551 16.4307 27.3359 16.7373 27.1855L15.124 22.7773C15.0908 22.6934 14.9727 22.7324 15.001 22.8203L15.001 22.8203ZM14.9453 26.4512C14.9121 26.2695 15.166 25.9453 15.4883 25.6328C15.4199 25.8359 15.4629 26.1875 15.5967 26.3086C15.3633 26.3086 15.085 26.3516 14.9453 26.4512L14.9453 26.4512Z" fill-rule="evenodd" fill="#CC9900"/>
</svg>