<svg xmlns="http://www.w3.org/2000/svg" width="80" height="80" viewBox="0 0 80 80" fill="none"><rect x="23" y="9" width="44" height="58.667" rx="2.933" fill="url(#s44f314__a)"/><path fill-rule="evenodd" clip-rule="evenodd" d="M49.261 34.48c-.365-.32-.89-.313-1.191-.22.197-.242.657-.44.792-.465.104.039.4.343.4.685Zm1.166-1.326c-.24-1.284-3.225-.433-4.729-.979-.029.375.463.975.933 1.197-.804.698-1.525 2.103-1.671 3.82-.145-1.717-.867-3.122-1.671-3.82.47-.222.962-.822.933-1.197-1.503.546-4.49-.305-4.73.98-.05.271.08.686.222.805.025-.086.157-.368.573-.431 2.104-.318 3.86 2.924 2.275 4.234-.024.02-.01.057.022.057h4.753c.032 0 .046-.037.022-.057-1.586-1.31.17-4.552 2.274-4.234.416.063.548.345.573.43.142-.118.272-.533.221-.805Zm.512-2.948c-.038-.122 1.196-.125 1.196.647 0 .518-.738.763-.738 1.3 0 .25.269.433.352.433-.19-.862.595-.41.807-.25-.421-1.159.528-1.151.434-1.683-.065-.371-.89-.26-1.188-.447-.53-.334-1.157-1.631-1.57-.334.77.715.322 1.768-.655 1.768 0 0-.006.154.003.166 1.166-.057 1.573-.914 1.36-1.6Zm-13.603 2.13c.212-.16.997-.612.808.25.082 0 .35-.183.35-.433 0-.537-.737-.782-.737-1.3 0-.772 1.234-.769 1.196-.647-.213.686.193 1.543 1.36 1.6.008-.012.002-.166.002-.166-.977 0-1.425-1.053-.655-1.768-.413-1.297-1.04 0-1.57.334-.299.188-1.123.076-1.189.447-.093.532.856.524.434 1.684Zm3.31 2.144c.366-.32.891-.313 1.192-.22-.197-.242-.657-.44-.792-.465-.103.039-.4.343-.4.685Zm4.869-7.186-.57-.694-.568.694.569.73.569-.73Zm3.247 2.097-.405-.493-.404.493.404.481.405-.482Zm3.28 14.245-.512-.542-.513.542.513.476.512-.476ZM41.94 29.39l-.404-.492-.404.492.404.482.404-.482Zm-1.158 2.416h1.508c1.269 0 1.84-.778 2.012-1.454h1.29c.173.676.743 1.454 2.012 1.454h1.509s.264-.358.33-.535c.238-.638-.066-.936-.51-.936l-.575.52-.574-.52c-.444 0-.749.298-.51.936.03.081.103.201.171.306-.535-.073-1.218-.44-1.368-1.225 0 0 .396-.628.495-.882.357-.915-.099-1.288-.765-1.288l-.86 1.01-.86-1.01c-.666 0-1.122.373-.765 1.288.1.254.495.883.495.883-.15.784-.833 1.151-1.369 1.224.07-.105.142-.225.172-.306.238-.638-.065-.936-.51-.936l-.574.52-.574-.52c-.445 0-.749.298-.51.936.065.177.33.535.33.535Zm15.597 4.677c-.291.147-2 .947-4.188.651.023-.104.042-.21.058-.315 1.456-.174 2.64-.421 3.394-.84.86-.48 1.236-1.622.802-2.472-.01-.022-.042-.026-.058-.008-.237.274-1.733 1.901-4.09 2.407a4.373 4.373 0 0 0-.033-.365c1.144-.649 2.262-1.397 2.794-2.08.804-1.035.73-2.353-.035-3.026a.036.036 0 0 0-.054.008c-.242.4-2.509 4.063-4.998 5.644-.03.02-.06.039-.091.057a.118.118 0 0 0-.019.191c.287.26.466.622.466 1.024 0 .698-.539 1.28-1.25 1.405-.362.07-.884.05-1.386-.116-.022-.007-.046.008-.046.03v2.213c0 .035.055.044.067.01.305-.808 1.218-.98 1.617-.98.143.864.4 1.579.733 1.964.543.625 1.429.616 1.813.184a.031.031 0 0 0-.008-.048c-.226-.13-1.518-.923-1.776-2.223a2.54 2.54 0 0 0 .297-.122c.417.69 1.023 1.305 1.512 1.54.82.393 1.572.202 1.905-.375.012-.02-.002-.045-.027-.047-.508-.041-2.066-.488-2.729-1.575.076-.07.15-.143.22-.22.694.528 1.675.995 2.378 1.09.822.112 1.754-.15 1.776-1.106a.034.034 0 0 0-.036-.034c-.293.018-2.228.102-3.607-.69.048-.09.092-.183.134-.278 0 0 2.083.493 3.07.33.982-.162 1.556-.894 1.445-1.803-.003-.023-.03-.036-.05-.026ZM37.98 37.982c.041.094.086.187.134.278-1.378.79-3.313.707-3.606.69-.02-.002-.038.015-.038.033.023.956.955 1.219 1.777 1.107.702-.096 1.684-.563 2.378-1.091.07.077.144.15.22.22-.664 1.087-2.222 1.534-2.73 1.575-.024.002-.038.027-.027.047.334.577 1.085.768 1.906.374.488-.234 1.095-.849 1.512-1.539.096.047.196.087.297.122-.258 1.3-1.55 2.093-1.776 2.223a.031.031 0 0 0-.008.048c.384.432 1.27.441 1.813-.184.333-.385.59-1.1.733-1.963.4 0 1.312.172 1.617.98.013.033.067.024.067-.011v-2.212c0-.023-.024-.038-.046-.03-.502.165-1.024.185-1.385.115-.712-.126-1.25-.707-1.25-1.405 0-.402.178-.764.465-1.024a.117.117 0 0 0-.018-.19 4.597 4.597 0 0 1-.093-.058c-2.487-1.58-4.752-5.241-4.996-5.644a.037.037 0 0 0-.056-.008c-.764.673-.838 1.992-.034 3.025.532.684 1.65 1.432 2.794 2.081a4.372 4.372 0 0 0-.033.365c-2.355-.505-3.85-2.13-4.09-2.406-.016-.018-.048-.014-.059.007-.433.85-.057 1.992.802 2.471.755.42 1.939.667 3.395.84.016.107.035.212.058.316-2.186.296-3.894-.503-4.187-.651-.022-.011-.048.002-.051.025-.11.91.463 1.64 1.444 1.803.987.163 3.071-.33 3.071-.33Zm13.55 6.83-.759-.598a1.33 1.33 0 0 0-.612.803c-.456.063-1.701-.213-1.58-.396 1.364-1.92.32-3.062-.934-2.999v1.29c0 .413-.361.749-.806.749h-.866c-.622 0-1.026.624-1.026.624s-.405-.624-1.026-.624h-.866c-.446 0-.806-.336-.806-.75v-1.289c-1.254-.063-2.299 1.08-.934 2.999.12.181-1.16.472-1.76.398a.888.888 0 0 0-.642-.267.918.918 0 0 0-.318.057s-2.359-2.233-2.402-2.255l.02-.045c.134-.251-.072-.525-.202-.506.151-.181.159-.974-.68-1.158.025.16.038.485.038.485s-.647-.35-.972-.048c-.285.338.11.95.11.95s-.33.008-.493-.005c.24.81 1.044.753 1.218.593-.011.13.28.313.526.166l.108-.053c.02.026 2.317 2.196 2.317 2.196a.754.754 0 0 0-.121.554c.054.32.32.586.661.654a.916.916 0 0 0 .649-.104l.608.564a.28.28 0 0 0 .209.074c.148-.01.26-.13.249-.269a.239.239 0 0 0-.081-.156c-.01-.011-.62-.577-.62-.577.504-.353 1.44-.601 2.219-.601.136 0 .2-.116.153-.23-.352-.847.406-1.46 1.19-.96.341.217.688.646.95 1.363-1.286.31-2.9 1.169-3.227 2.105-.126.361.29.854.794.953a.034.034 0 0 0 .041-.026c.264-1.398 1.767-2.44 2.549-2.616l.066.176c-.852.403-1.678 1.252-1.914 2.263-.108.462.407.88.833.993.022.006.043-.009.044-.03.08-1.277.645-2.362 1.15-2.855.014.096.025.193.031.29 0 0-.517 1.442-.517 2.494 0 .49.727.83.835.879.134-.048.861-.39.861-.88 0-1.051-.517-2.493-.517-2.493.007-.097.017-.194.031-.29.505.493 1.07 1.578 1.15 2.855.001.02.023.036.044.03.426-.114.941-.53.834-.993-.237-1.01-1.062-1.86-1.914-2.263l.065-.176c.783.177 2.285 1.218 2.549 2.616a.034.034 0 0 0 .04.026c.505-.099.921-.592.795-.953-.326-.936-1.941-1.794-3.227-2.105.262-.717.61-1.146.951-1.364.784-.5 1.541.114 1.189.962-.047.113.017.229.154.229.88 0 1.963.318 2.392.744.274.411.78.674 1.352.618.65-.064 1.18-.552 1.252-1.155.064-.528-.21-1.003-.645-1.261l-.76.598Zm-5.595-3.85c.27-.1.695-.02.68.371-.003.089.12.089.13-.002.08-.585-.314-.753-.728-.684-.051-.202-.093-.377-.141-.552-.038-.14-.052-.405.11-.405.089 0 .053.246.045.352-.007.093.026.15.102.152.047.002.106-.058.14-.098.238-.267.292-.682.015-.882-.232-.167-.813-.043-.972.196-.024-.09-.14-.238-.195-.303-.054-.063-.068-.106.007-.162.035-.027.14-.132.14-.24 0-.065-.05-.184-.208-.184-.125 0-.264.087-.264.28 0 .043.01.089.038.138a1.41 1.41 0 0 0-.403.02l1.523 4.18c.436-.215.756-.556.756-.922 0-.311-.46-.208-.682.035-.072-.395-.136-.76-.205-1.124-.02-.1.031-.136.112-.166Zm-2.154-2.84.32.889c-.274.065-.715.265-.715.53 0 .352.623.581.984.554a.238.238 0 0 0 .059.217c-.131 0-.378.061-.459.148-.191-.178-.49-.242-.632-.134-.143.11-.147.294.002.503.104.145.143.288.026.456.434 0 .274-.565.444-.565a.714.714 0 0 0 .041.376c.033.094.033.16-.023.25-.14.224-.358.739-.328 1.204-.143 0-.215-.036-.165-.23.018-.072-.026-.124-.085-.035a.747.747 0 0 0-.097.339c0 .414.493.497.682.41.545.527 1.615.386 1.974.21l-1.885-5.173c-.039-.097-.177-.05-.143.05Zm-.066 4.26c-.038-.213.258-.593.635-.96-.08.239-.03.651.127.793-.274 0-.598.052-.761.167Z" fill="#E3CAA1"/><rect x="8" y="48" width="42" height="24" rx="2" fill="url(#s44f314__b)"/><rect opacity=".4" x="24" y="50.228" width="20" height="2" rx="1" fill="#8B1D56"/><path opacity=".8" fill-rule="evenodd" clip-rule="evenodd" d="M24 56a1 1 0 0 1 1-1h8.286a1 1 0 1 1 0 2H25a1 1 0 0 1-1-1Zm0 3.429a1 1 0 0 1 1-1h13.429a1 1 0 0 1 0 2H25a1 1 0 0 1-1-1Zm1 2.428a1 1 0 1 0 0 2h6.571a1 1 0 1 0 0-2H25Z" fill="#DABFB2"/><g clip-path="url(#s44f314__c)" opacity=".6"><rect x="11" y="53" width="10" height="13" rx="1" fill="url(#s44f314__d)" fill-opacity=".3"/><path d="M17.435 61.636c.656-.006 1.29-.01 1.82-.004a.278.278 0 0 0 .209-.465l-.43-.472a.999.999 0 0 1-.179-.278l-.22-.513a1 1 0 0 1-.071-.253l-.159-1.113a1.005 1.005 0 0 0-.05-.2l-.421-1.167a1 1 0 0 0-.105-.21l-.252-.383a1 1 0 0 0-1.054-.427l-.684.153a1 1 0 0 0-.488.267l-.374.373a1 1 0 0 0-.19.264l-.279.563a.998.998 0 0 0-.071.19l-.372 1.42-.287.756a.998.998 0 0 1-.132.241l-.537.724a.374.374 0 0 0-.069.281c.025.153.139.268.293.273.331.013.928.012 1.643.005l-.021.205a.94.94 0 0 0 .009.266c-.566-.045-1.532.08-1.905.191-.508.135-1.049.483-1.783 1.517-.38.536-.257 2.16-.257 2.16H21c0-1.073-.265-2.789-.624-3.112-.467-.422-1.448-.69-2.907-.727a.957.957 0 0 0-.002-.148l-.032-.377Z" fill="url(#s44f314__e)" fill-opacity=".8"/></g><defs><linearGradient id="s44f314__a" x1="21.574" y1="60.333" x2="78.624" y2="49.293" gradientUnits="userSpaceOnUse"><stop stop-color="#734037"/><stop offset="1" stop-color="#502011"/></linearGradient><linearGradient id="s44f314__b" x1="6.639" y1="69" x2="53.567" y2="47.81" gradientUnits="userSpaceOnUse"><stop stop-color="#F2DFC4"/><stop offset="1" stop-color="#F3BDCD"/></linearGradient><linearGradient id="s44f314__d" x1="21" y1="54.986" x2="10.662" y2="63.729" gradientUnits="userSpaceOnUse"><stop stop-color="#A68F88"/><stop offset="1" stop-color="#8C7E72"/></linearGradient><linearGradient id="s44f314__e" x1="17.652" y1="60.351" x2="14.113" y2="62.553" gradientUnits="userSpaceOnUse"><stop stop-color="#A68F88"/><stop offset="1" stop-color="#8C7E72"/></linearGradient><clipPath id="s44f314__c"><rect x="11" y="53" width="10" height="13" rx="1" fill="#fff"/></clipPath></defs></svg>