<svg xmlns="http://www.w3.org/2000/svg" width="52" height="54" viewBox="0 0 52 54" fill="none">
<path fill-rule="evenodd" clip-rule="evenodd" d="M0.40625 12.1989C0.40625 5.83696 5.54739 0.611328 11.942 0.611328H42.4449C43.2852 0.611328 44.0556 1.07966 44.4424 1.82574C44.8292 2.57181 44.768 3.47126 44.2836 4.15804L9.16381 53.9586L5.48629 51.3652L38.1049 5.11133H11.942C8.06523 5.11133 4.90625 8.28955 4.90625 12.1989C4.90625 16.092 8.10081 19.2865 11.9939 19.2865C15.8869 19.2865 19.0815 16.092 19.0815 12.1989V9.0864H23.5815V12.1989C23.5815 18.5773 18.3722 23.7865 11.9939 23.7865C5.61553 23.7865 0.40625 18.5773 0.40625 12.1989ZM40.0067 33.1242C36.0923 33.1242 32.9191 36.2974 32.9191 40.2118C32.9191 44.1261 36.0923 47.2994 40.0067 47.2994C43.9211 47.2994 47.0943 44.1261 47.0943 40.2118C47.0943 36.2974 43.9211 33.1242 40.0067 33.1242ZM28.4191 40.2118C28.4191 33.8121 33.607 28.6242 40.0067 28.6242C46.4063 28.6242 51.5943 33.8121 51.5943 40.2118C51.5943 46.6114 46.4063 51.7994 40.0067 51.7994C33.607 51.7994 28.4191 46.6114 28.4191 40.2118Z" fill="#007BFB"/>
</svg>