<svg width="20" height="20" viewBox="0 0 20 20" fill="none" xmlns="http://www.w3.org/2000/svg">
<path d="M2.3274 14.7607C0.958608 16.0934 2.75491 17.5245 0 19.4636C0 19.4636 1.62124 20.0085 3.0885 18.1517C3.59301 17.513 4.17589 17.2447 4.17589 17.2447C4.37557 17.3645 4.22296 18.0144 3.51424 18.5521C3.51424 18.5521 4.61995 18.5804 5.31074 17.8859C6.00154 17.1914 6.47119 16.1912 6.47119 16.1912C6.9442 17.0279 5.75992 18.0875 5.75992 18.0875C5.75992 18.0875 6.87784 17.7946 8.2039 16.4609C9.23536 15.4237 9.96889 12.8458 8.49101 11.3596C7.01312 9.87345 4.37242 10.1445 3.07845 11.4458C2.51211 12.0153 1.93218 12.9048 1.85775 13.6357C1.85775 13.6357 2.94711 12.4529 3.33228 12.9513C3.33228 12.9513 1.4897 14.0714 1.19353 15.135C1.19373 15.135 2.11079 14.5846 2.3274 14.7607Z" fill="url(#paint0_linear_1402_24954)"/>
<path d="M1.30949 15.778C-0.124485 16.3572 0.798877 17.5664 0.183105 18.1892C0.183105 18.1892 1.0084 17.7353 0.99501 16.8471C0.984179 16.1238 1.30949 15.778 1.30949 15.778Z" fill="url(#paint1_linear_1402_24954)"/>
<path d="M1.64455 19.9829C2.01181 19.9389 2.6329 18.8642 3.47611 19.0427C3.47611 19.0427 2.72013 20.1496 1.64455 19.9829Z" fill="url(#paint2_linear_1402_24954)"/>
<path d="M6.17834 17.8246C6.62811 17.6555 7.39495 17.2744 8.2039 16.4609C9.10973 15.55 9.86488 12.9639 8.3805 11.4711C6.92959 10.0121 4.38558 10.3066 3.16546 11.5337C2.72475 11.9769 2.25864 12.6401 2.07334 13.2532C2.33918 13.0152 2.72771 12.7215 3.05361 12.6906C3.2208 12.6747 3.35825 12.73 3.451 12.85L3.54414 12.9704L3.38266 13.0688C3.36671 13.0785 1.9351 13.9574 1.45127 14.8483C1.78308 14.6784 2.24328 14.4912 2.43036 14.6433L2.53669 14.7299L2.41224 14.8512C1.90123 15.3487 1.87681 15.8637 1.84846 16.4598C1.80789 17.3111 1.76221 18.2702 0.322129 19.3817C0.811476 19.4474 1.93274 19.4157 2.98666 18.0816C3.5144 17.4137 4.11915 17.1303 4.14455 17.1186L4.21367 17.087L4.26743 17.1192C4.36746 17.1788 4.41197 17.3064 4.39346 17.4777C4.36805 17.7117 4.21997 18.0505 3.88934 18.3878C4.24951 18.3412 4.82156 18.2036 5.22387 17.7991C5.88296 17.1363 6.34178 16.1679 6.34631 16.1582L6.4749 15.8843L6.59778 16.1016C6.91679 16.6661 6.56174 17.3547 6.17834 17.8246Z" fill="url(#paint3_linear_1402_24954)"/>
<path d="M0.183105 18.1892C0.587382 17.8585 1.00052 17.2123 0.99501 16.8471C0.98989 16.5131 1.08107 16.0404 1.30949 15.778C0.306775 16.2065 0.445403 16.8838 0.573204 17.219C0.628932 17.3658 0.553512 17.8024 0.183105 18.1892Z" fill="url(#paint4_radial_1402_24954)"/>
<path d="M0.96164 19.1834C2.86428 18.5507 3.37372 16.3775 4.59935 16.0005C5.82498 15.6235 5.51641 16.8021 5.04459 17.3336C5.04459 17.3336 6.66209 15.7007 6.67213 14.423C6.68217 13.1454 8.38534 15.1399 7.857 16.1779C7.857 16.1779 10.4598 13.5621 8.3805 11.4711C6.30122 9.3802 3.53165 11.4663 3.53165 11.4663C3.53165 11.4663 5.10819 11.4018 4.97192 12.5525C4.97192 12.5525 3.75535 13.0157 2.79871 13.7876C2.79871 13.7876 3.26876 13.8377 3.59033 14.322C3.59033 14.322 2.1597 15.3143 2.21622 16.1704C2.28908 17.2694 1.57091 18.9808 0.96164 19.1834Z" fill="url(#paint5_linear_1402_24954)"/>
<path d="M2.29288 17.5275C3.18296 17.3031 3.9667 15.2098 5.21478 15.3256C5.90459 15.3896 5.74489 15.9884 5.74489 15.9884C5.74489 15.9884 6.2236 15.3029 6.33328 14.3759C6.44297 13.449 8.15814 13.766 8.08213 15.5049C8.08213 15.5049 9.96843 13.0383 7.68081 11.4717C5.15688 9.74334 3.31253 11.9129 3.31253 11.9129C3.31253 11.9129 5.03696 11.3353 5.30497 12.7121C5.30497 12.7121 3.87828 13.1113 3.35349 13.6393C3.35349 13.6393 3.96394 13.7254 4.10966 14.3811C4.10966 14.3811 2.70385 15.4146 2.74599 15.8253C2.8476 16.8166 2.29288 17.5275 2.29288 17.5275Z" fill="url(#paint6_linear_1402_24954)"/>
<path d="M2.3274 14.7607C0.958608 16.0934 2.75491 17.5245 0 19.4636C0 19.4636 1.62124 20.0085 3.0885 18.1517C3.59301 17.513 4.17589 17.2447 4.17589 17.2447C4.37557 17.3645 4.22296 18.0144 3.51424 18.5521C3.51424 18.5521 4.61995 18.5804 5.31074 17.8859C6.00154 17.1914 6.47119 16.1912 6.47119 16.1912C6.9442 17.0279 5.75992 18.0875 5.75992 18.0875C5.75992 18.0875 6.87784 17.7946 8.2039 16.4609C9.23536 15.4237 9.96889 12.8458 8.49101 11.3596C7.01312 9.87345 4.37242 10.1445 3.07845 11.4458C2.51211 12.0153 1.93218 12.9048 1.85775 13.6357C1.85775 13.6357 2.94711 12.4529 3.33228 12.9513C3.33228 12.9513 1.4897 14.0714 1.19353 15.135C1.19373 15.135 2.11079 14.5846 2.3274 14.7607Z" fill="url(#paint7_radial_1402_24954)"/>
<path d="M2.3274 14.7607C0.958608 16.0934 2.75491 17.5245 0 19.4636C0 19.4636 1.62124 20.0085 3.0885 18.1517C3.59301 17.513 4.17589 17.2447 4.17589 17.2447C4.37557 17.3645 4.22296 18.0144 3.51424 18.5521C3.51424 18.5521 4.61995 18.5804 5.31074 17.8859C6.00154 17.1914 6.47119 16.1912 6.47119 16.1912C6.9442 17.0279 5.75992 18.0875 5.75992 18.0875C5.75992 18.0875 6.87784 17.7946 8.2039 16.4609C9.23536 15.4237 9.96889 12.8458 8.49101 11.3596C7.01312 9.87345 4.37242 10.1445 3.07845 11.4458C2.51211 12.0153 1.93218 12.9048 1.85775 13.6357C1.85775 13.6357 2.94711 12.4529 3.33228 12.9513C3.33228 12.9513 1.4897 14.0714 1.19353 15.135C1.19373 15.135 2.11079 14.5846 2.3274 14.7607Z" fill="url(#paint8_radial_1402_24954)"/>
<path d="M7.50879 16.898C8.84155 15.4703 9.59714 12.9165 8.20491 11.5165C6.81268 10.1165 4.25074 11.2927 3.11353 12.3488C3.11353 12.3488 4.01798 11.9644 4.73399 12.4256C5.44999 12.8868 3.40733 13.6779 2.98258 14.9336C2.98258 14.9336 4.80429 13.8334 5.37496 14.2995C5.94564 14.7657 5.36689 16.2307 4.81965 16.781C4.81965 16.781 6.12464 16.1099 6.82824 15.2431C7.8981 13.9253 7.50879 16.898 7.50879 16.898Z" fill="url(#paint9_radial_1402_24954)"/>
<path d="M2.3274 14.7607C0.958608 16.0934 2.75491 17.5245 0 19.4636C0 19.4636 1.62124 20.0085 3.0885 18.1517C3.59301 17.513 4.17589 17.2447 4.17589 17.2447C4.37557 17.3645 4.22296 18.0144 3.51424 18.5521C3.51424 18.5521 4.61995 18.5804 5.31074 17.8859C6.00154 17.1914 6.47119 16.1912 6.47119 16.1912C6.9442 17.0279 5.75992 18.0875 5.75992 18.0875C5.75992 18.0875 6.87784 17.7946 8.2039 16.4609C9.23536 15.4237 9.96889 12.8458 8.49101 11.3596C7.01312 9.87345 4.37242 10.1445 3.07845 11.4458C2.51211 12.0153 1.93218 12.9048 1.85775 13.6357C1.85775 13.6357 2.94711 12.4529 3.33228 12.9513C3.33228 12.9513 1.4897 14.0714 1.19353 15.135C1.19373 15.135 2.11079 14.5846 2.3274 14.7607Z" fill="url(#paint10_radial_1402_24954)"/>
<path d="M1.30949 15.778C-0.124485 16.3572 0.798877 17.5664 0.183105 18.1892C0.183105 18.1892 1.0084 17.7353 0.99501 16.8471C0.984179 16.1238 1.30949 15.778 1.30949 15.778Z" fill="url(#paint11_radial_1402_24954)"/>
<path d="M1.64455 19.9829C2.01181 19.9389 2.55078 19.1858 3.47611 19.0427C3.47611 19.0427 2.72013 20.1496 1.64455 19.9829Z" fill="url(#paint12_radial_1402_24954)"/>
<path d="M1.64455 19.9829C2.01181 19.9389 2.6329 18.8642 3.47611 19.0427C3.47611 19.0427 2.72013 20.1496 1.64455 19.9829Z" fill="url(#paint13_radial_1402_24954)"/>
<path d="M2.3274 14.7607C0.958608 16.0934 2.75491 17.5245 0 19.4636C0 19.4636 1.62124 20.0085 3.0885 18.1517C3.59301 17.513 4.17589 17.2447 4.17589 17.2447C4.37557 17.3645 4.22296 18.0144 3.51424 18.5521C3.51424 18.5521 4.61995 18.5804 5.31074 17.8859C6.00154 17.1914 6.47119 16.1912 6.47119 16.1912C6.9442 17.0279 5.75992 18.0875 5.75992 18.0875C5.75992 18.0875 6.87784 17.7946 8.2039 16.4609C9.23536 15.4237 9.96889 12.8458 8.49101 11.3596C7.01312 9.87345 4.37242 10.1445 3.07845 11.4458C2.51211 12.0153 1.93218 12.9048 1.85775 13.6357C1.85775 13.6357 2.94711 12.4529 3.33228 12.9513C3.33228 12.9513 1.4897 14.0714 1.19353 15.135C1.19373 15.135 2.11079 14.5846 2.3274 14.7607Z" fill="url(#paint14_radial_1402_24954)"/>
<path d="M2.3274 14.7607C0.958608 16.0934 2.75491 17.5245 0 19.4636C0 19.4636 1.62124 20.0085 3.0885 18.1517C3.59301 17.513 4.17589 17.2447 4.17589 17.2447C4.37557 17.3645 4.22296 18.0144 3.51424 18.5521C3.51424 18.5521 4.61995 18.5804 5.31074 17.8859C6.00154 17.1914 6.47119 16.1912 6.47119 16.1912C6.9442 17.0279 5.75992 18.0875 5.75992 18.0875C5.75992 18.0875 6.87784 17.7946 8.2039 16.4609C9.23536 15.4237 9.96889 12.8458 8.49101 11.3596C7.01312 9.87345 4.37242 10.1445 3.07845 11.4458C2.51211 12.0153 1.93218 12.9048 1.85775 13.6357C1.85775 13.6357 2.94711 12.4529 3.33228 12.9513C3.33228 12.9513 1.4897 14.0714 1.19353 15.135C1.19373 15.135 2.11079 14.5846 2.3274 14.7607Z" fill="url(#paint15_radial_1402_24954)"/>
<path d="M2.3274 14.7607C0.958608 16.0934 2.75491 17.5245 0 19.4636C0 19.4636 1.62124 20.0085 3.0885 18.1517C3.59301 17.513 4.17589 17.2447 4.17589 17.2447C4.37557 17.3645 4.22296 18.0144 3.51424 18.5521C3.51424 18.5521 4.61995 18.5804 5.31074 17.8859C6.00154 17.1914 6.47119 16.1912 6.47119 16.1912C6.9442 17.0279 5.75992 18.0875 5.75992 18.0875C5.75992 18.0875 6.87784 17.7946 8.2039 16.4609C9.23536 15.4237 9.96889 12.8458 8.49101 11.3596C7.01312 9.87345 4.37242 10.1445 3.07845 11.4458C2.51211 12.0153 1.93218 12.9048 1.85775 13.6357C1.85775 13.6357 2.94711 12.4529 3.33228 12.9513C3.33228 12.9513 1.4897 14.0714 1.19353 15.135C1.19373 15.135 2.11079 14.5846 2.3274 14.7607Z" fill="url(#paint16_radial_1402_24954)"/>
<path d="M13.3771 13.4487C13.2453 12.1368 13.5476 10.7435 14.2374 9.48287L14.456 9.08346L11.0832 11.3039L10.8004 13.343L9.48416 14.6153C9.76772 15.7228 9.77895 16.8033 9.77895 16.8033C12.0142 15.4543 13.3771 13.4487 13.3771 13.4487Z" fill="url(#paint17_linear_1402_24954)"/>
<path d="M9.77895 16.8033C9.77895 16.8033 9.77087 15.7068 9.48416 14.6153L10.0401 14.0783C10.2096 14.456 10.5414 15.2999 10.6241 16.2362C10.3569 16.4291 10.0779 16.6268 9.77895 16.8033Z" fill="url(#paint18_linear_1402_24954)"/>
<path d="M13.3771 13.4487C13.2453 12.1368 13.5476 10.7435 14.2374 9.48287L14.456 9.08346L11.0832 11.3039L10.8004 13.343L9.48416 14.6153C9.76772 15.7228 9.77895 16.8033 9.77895 16.8033C12.0142 15.4543 13.3771 13.4487 13.3771 13.4487Z" fill="url(#paint19_radial_1402_24954)"/>
<path d="M13.705 10.6986C13.8435 10.2847 14.0218 9.87714 14.2374 9.48287L14.3596 9.25914C14.3303 9.24151 14.3003 9.22369 14.2702 9.20587L11.0832 11.3039L10.892 12.6818C11.6189 12.3852 12.6472 11.7693 13.705 10.6986Z" fill="url(#paint20_linear_1402_24954)"/>
<path d="M10.0446 5.58575C10.0123 5.50575 9.98968 5.44694 9.96152 5.36575C8.70478 5.96814 7.28242 6.13448 5.91147 5.87705C5.91147 5.87705 3.88615 7.21114 2.64417 9.57596C2.64417 9.57596 3.80305 9.68705 5.01627 10.1037L6.26002 8.75455L8.27451 8.63474C8.72526 7.62957 9.27289 6.54004 10.0446 5.58575Z" fill="url(#paint21_linear_1402_24954)"/>
<path d="M2.64417 9.57596C2.64417 9.57596 3.80305 9.68705 5.01627 10.1037L5.54795 9.52703C5.12162 9.30544 4.1961 8.87255 3.17073 8.69453C2.98602 8.96998 2.80821 9.26367 2.64417 9.57596Z" fill="url(#paint22_linear_1402_24954)"/>
<path d="M10.0446 5.58575C10.0123 5.50575 9.98968 5.44694 9.96152 5.36575C8.70478 5.96814 7.28242 6.13448 5.91147 5.87705C5.91147 5.87705 3.88615 7.21114 2.64417 9.57596C2.64417 9.57596 3.80305 9.68705 5.01627 10.1037L6.26002 8.75455L8.27451 8.63474C8.72526 7.62957 9.27289 6.54004 10.0446 5.58575Z" fill="url(#paint23_radial_1402_24954)"/>
<path d="M9.96152 5.36575C9.47158 5.74497 7.93123 7.23649 7.39541 8.68722L8.27451 8.63474C8.72506 7.62957 9.40774 6.51667 10.1795 5.56219L9.96152 5.36575Z" fill="url(#paint24_linear_1402_24954)"/>
<path d="M10.4925 5.07466C11.0159 5.92874 11.7032 6.77371 12.4723 7.52679C12.509 7.56264 12.5458 7.59848 12.5828 7.63392C13.2321 8.25612 13.9359 8.81138 14.6459 9.25159C14.6456 9.25198 14.6452 9.25238 14.6448 9.25278C14.7096 9.1898 14.7747 9.12743 14.8387 9.06287C16.6835 7.20778 17.7496 5.81883 18.6676 4.0473C18.0121 2.77183 16.9361 1.68982 15.6676 1.0304C13.9059 1.95359 12.5247 3.0257 10.68 4.88079C10.6162 4.94495 10.5549 5.0097 10.4925 5.07466C10.4923 5.07485 10.4927 5.07426 10.4925 5.07466Z" fill="url(#paint25_linear_1402_24954)"/>
<path d="M18.6676 4.0473C19.9161 1.63853 19.7577 0.348746 19.5515 0.141414C19.3454 -0.065918 18.0631 -0.224878 15.6676 1.0304C16.9361 1.68982 18.0121 2.77183 18.6676 4.0473Z" fill="url(#paint26_linear_1402_24954)"/>
<path d="M8.38017 11.3752C9.043 12.0418 9.65148 12.5275 9.81493 12.5287C11.2987 11.8752 13.0735 10.7797 14.6459 9.25159C13.9359 8.81138 13.2321 8.25612 12.5828 7.63392C12.5458 7.59848 12.509 7.56264 12.4723 7.52679C11.7032 6.77371 11.0159 5.92874 10.4925 5.07466C8.97011 6.65925 7.88215 8.45139 7.23468 9.94708C7.26107 10.1304 7.73545 10.7271 8.38017 11.3752Z" fill="url(#paint27_linear_1402_24954)"/>
<path d="M8.38017 11.3752C9.043 12.0418 9.65148 12.5275 9.81493 12.5287C11.2987 11.8752 13.0735 10.7797 14.6459 9.25159C13.9359 8.81138 13.2321 8.25612 12.5828 7.63392C12.5458 7.59848 12.509 7.56264 12.4723 7.52679C11.7032 6.77371 11.0159 5.92874 10.4925 5.07466C8.97011 6.65925 7.88215 8.45139 7.23468 9.94708C7.26107 10.1304 7.73545 10.7271 8.38017 11.3752Z" fill="url(#paint28_radial_1402_24954)"/>
<path d="M12.5828 7.63392C12.5458 7.59848 12.509 7.56264 12.4723 7.52679C11.7032 6.77371 11.0159 5.92874 10.4925 5.07466C10.4541 5.11466 10.4173 5.15507 10.3793 5.19527C11.4454 7.22126 14.6946 9.14567 12.2136 10.1673C10.5849 10.838 9.85529 11.6311 9.46381 12.3386C9.62982 12.4594 9.75368 12.5283 9.81493 12.5287C11.2987 11.8752 13.0735 10.7797 14.6459 9.25159C13.9359 8.81138 13.2321 8.25612 12.5828 7.63392Z" fill="url(#paint29_radial_1402_24954)"/>
<path d="M8.38017 11.3752C7.73545 10.7271 7.26107 10.1304 7.23468 9.94708L6.32146 10.3503C6.21374 10.4586 6.81553 11.239 7.66544 12.0937C8.51535 12.9484 9.29161 13.5534 9.39913 13.4452L9.81493 12.5287C9.65148 12.5275 9.043 12.0418 8.38017 11.3752Z" fill="url(#paint30_linear_1402_24954)"/>
<path d="M8.38017 11.3752C7.73545 10.7271 7.26107 10.1304 7.23468 9.94708L6.32146 10.3503C6.21374 10.4586 6.81553 11.239 7.66544 12.0937C8.51535 12.9484 9.29161 13.5534 9.39913 13.4452L9.81493 12.5287C9.65148 12.5275 9.043 12.0418 8.38017 11.3752Z" fill="url(#paint31_linear_1402_24954)"/>
<path d="M18.4161 4.51646C18.425 4.49943 18.6588 4.06433 18.6676 4.0473C18.0121 2.77183 16.9361 1.68982 15.6676 1.0304C15.6504 1.03931 15.6344 1.04845 15.6175 1.05736C16.8593 1.76886 18.2675 3.36831 18.4161 4.51646Z" fill="url(#paint32_linear_1402_24954)"/>
<path d="M19.5515 0.141414C19.3454 -0.065918 18.0631 -0.224878 15.6676 1.0304C13.9059 1.95359 12.5247 3.0257 10.68 4.88079C10.6162 4.94495 10.5549 5.0097 10.4925 5.07466C10.4923 5.07485 10.4927 5.07426 10.4925 5.07466C8.97011 6.65925 7.88215 8.45139 7.23468 9.94708C7.26107 10.1304 7.73545 10.7271 8.38017 11.3752C9.043 12.0418 9.65148 12.5275 9.81493 12.5287C11.2987 11.8752 13.0735 10.7797 14.6459 9.25159C14.6456 9.25198 14.6452 9.25238 14.6448 9.25278C14.7096 9.1898 14.7747 9.12743 14.8387 9.06287C16.6835 7.20778 17.7496 5.81883 18.6676 4.0473C19.9161 1.63853 19.7577 0.348746 19.5515 0.141414Z" fill="url(#paint33_radial_1402_24954)"/>
<path d="M6.96639 14.3794C8.92988 12.7873 10.4688 11.0074 10.5086 10.9611L10.2018 10.6526C10.2018 10.6526 8.60043 12.4128 6.68518 14.1006L6.96639 14.3794Z" fill="url(#paint34_linear_1402_24954)"/>
<path d="M10.2018 10.6526C10.5584 9.96919 11.1627 9.11077 11.9349 8.18718C11.916 8.16956 11.8969 8.15252 11.8782 8.1347C11.0412 8.93314 10.2138 9.65652 9.46726 10.295L8.60278 11.5712L7.29976 12.8606C7.07409 13.437 6.68518 14.1006 6.68518 14.1006C8.60043 12.4128 10.2018 10.6526 10.2018 10.6526Z" fill="url(#paint35_linear_1402_24954)"/>
<path d="M7.36534 13.487C7.36652 13.4851 7.82279 12.6547 7.78084 12.3846L7.29976 12.8606C7.07409 13.437 6.68518 14.1006 6.68518 14.1006C6.91735 13.8961 7.1446 13.6904 7.36534 13.487Z" fill="url(#paint36_linear_1402_24954)"/>
<path d="M10.5104 10.9588C10.7664 10.1723 11.3481 9.28849 12.0873 8.32787C12.0361 8.28193 11.9855 8.23451 11.9349 8.18718C11.1627 9.11077 10.5584 9.96919 10.2018 10.6526C10.2018 10.6526 8.60043 12.4128 6.68518 14.1006L6.96639 14.3794C8.95567 12.7663 10.5104 10.9588 10.5104 10.9588Z" fill="url(#paint37_linear_1402_24954)"/>
<path d="M6.96639 14.3794C8.92988 12.7873 10.4688 11.0074 10.5086 10.9611L10.2018 10.6526C10.2018 10.6526 8.60043 12.4128 6.68518 14.1006L6.96639 14.3794Z" fill="url(#paint38_linear_1402_24954)"/>
<path d="M10.2018 10.6526C10.5584 9.96919 11.1627 9.11077 11.9349 8.18718C11.916 8.16956 11.8969 8.15252 11.8782 8.1347C11.0412 8.93314 10.2138 9.65652 9.46726 10.295L8.60278 11.5712L7.29976 12.8606C7.07409 13.437 6.68518 14.1006 6.68518 14.1006C8.60043 12.4128 10.2018 10.6526 10.2018 10.6526Z" fill="url(#paint39_radial_1402_24954)"/>
<path d="M19.5515 0.141414C19.3454 -0.065918 18.0631 -0.224878 15.6676 1.0304C13.9059 1.95359 12.5247 3.0257 10.68 4.88079C10.6162 4.94495 10.5549 5.0097 10.4925 5.07466C10.4923 5.07485 10.4927 5.07426 10.4925 5.07466C8.97011 6.65925 7.88215 8.45139 7.23468 9.94708C7.26107 10.1304 7.73545 10.7271 8.38017 11.3752C9.043 12.0418 9.65148 12.5275 9.81493 12.5287C11.2987 11.8752 13.0735 10.7797 14.6459 9.25159C14.6456 9.25198 14.6452 9.25238 14.6448 9.25278C14.7096 9.1898 14.7747 9.12743 14.8387 9.06287C16.6835 7.20778 17.7496 5.81883 18.6676 4.0473C19.9161 1.63853 19.7577 0.348746 19.5515 0.141414Z" fill="url(#paint40_radial_1402_24954)"/>
<path d="M18.1473 4.99747C18.1428 4.99747 18.1382 4.99529 18.1355 4.99133C17.9805 4.77291 17.822 4.5634 17.6508 4.35072C17.6457 4.34439 17.6467 4.33508 17.653 4.33013C17.6593 4.32498 17.6683 4.32597 17.6735 4.33231C17.845 4.54558 18.0039 4.75568 18.1591 4.9745C18.1638 4.98103 18.1623 4.99034 18.1558 4.99509C18.1532 4.99648 18.1503 4.99747 18.1473 4.99747Z" fill="black"/>
<path d="M18.3112 3.39403C18.3155 3.3871 18.3135 3.37799 18.3066 3.37363C18.2999 3.36947 18.2907 3.37126 18.2864 3.37819C18.2499 3.43601 18.2123 3.49482 18.1737 3.55443C17.1917 5.07387 16.1758 6.3149 14.5545 7.97533C14.0354 7.5977 13.5237 7.16502 13.0451 6.68401C12.7275 6.3646 12.4327 6.02915 12.1576 5.68795C13.8271 4.02771 15.0722 2.92847 16.4924 1.86231C16.5706 1.80349 16.6474 1.74646 16.7224 1.69141C16.7289 1.68666 16.7303 1.67735 16.7256 1.67082C16.7208 1.66408 16.7116 1.6627 16.7051 1.66765C16.6301 1.7229 16.5535 1.77993 16.4749 1.83874C15.0543 2.9053 13.8084 4.00494 12.1389 5.66557C11.79 5.23071 11.4763 4.78595 11.2173 4.34296C11.2132 4.33583 11.2041 4.33346 11.1972 4.33782C11.1902 4.34197 11.188 4.35089 11.1921 4.35801C11.4523 4.80298 11.7675 5.24992 12.118 5.68656C12.0113 5.7929 11.9085 5.89389 11.7982 6.00499C11.7478 6.05548 11.6984 6.10618 11.649 6.15687L11.6086 6.19806C11.6082 6.19846 11.608 6.19865 11.6078 6.19905C11.547 6.26103 11.4867 6.32321 11.4269 6.38539C11.4213 6.39114 11.4213 6.40044 11.4272 6.40619C11.4302 6.40896 11.4339 6.41034 11.4375 6.41034C11.4412 6.41034 11.4452 6.40876 11.4481 6.40579C11.5084 6.34321 11.569 6.28084 11.6301 6.21826C11.6305 6.21806 11.6307 6.21767 11.6309 6.21747L11.6699 6.17766C11.7193 6.12697 11.7689 6.07647 11.8189 6.02598C11.9288 5.91548 12.0308 5.81508 12.1369 5.70934C12.4124 6.05053 12.7072 6.38618 13.0247 6.7056C13.5055 7.18898 14.0203 7.62404 14.5423 8.00326C14.5429 8.00563 14.5405 8.00801 14.5423 8.00999C14.5451 8.01276 14.549 8.01415 14.5526 8.01415C14.5537 8.01415 14.5545 8.01316 14.5555 8.01296C14.8229 8.20663 15.0917 8.3902 15.3601 8.54881C15.3625 8.5502 15.3651 8.55079 15.3676 8.55079C15.3725 8.55079 15.3775 8.54822 15.3802 8.54347C15.3842 8.53634 15.382 8.52743 15.3751 8.52327C15.1094 8.36643 14.8436 8.18484 14.5788 7.99335C16.1998 6.33292 17.2163 5.0911 18.1987 3.57067C18.2369 3.51086 18.2745 3.45205 18.3112 3.39403Z" fill="black"/>
<path d="M9.40142 12.113C10.7493 11.323 12.4125 10.1151 13.9763 8.57822C13.9759 8.57862 13.9755 8.57902 13.9751 8.57941" fill="url(#paint41_radial_1402_24954)"/>
<path d="M15.4292 5.23626C14.6779 5.93232 13.5675 5.93786 12.9488 5.24854C12.3301 4.55921 12.4374 3.43622 13.1886 2.74016C13.9399 2.0441 15.0503 2.03856 15.669 2.72788C16.2878 3.4172 16.1804 4.5402 15.4292 5.23626Z" fill="url(#paint42_linear_1402_24954)"/>
<path d="M15.1059 4.84736C14.4901 5.41806 13.5795 5.42262 13.0723 4.85746C12.565 4.29249 12.653 3.37167 13.2688 2.80117C13.8845 2.23046 14.7951 2.2259 15.3024 2.79107C15.8096 3.35603 15.7216 4.27665 15.1059 4.84736Z" fill="url(#paint43_linear_1402_24954)"/>
<path d="M14.9644 4.69427C14.4152 5.20319 13.6035 5.20715 13.1511 4.70338C12.6988 4.1996 12.7774 3.37859 13.3264 2.86986C13.8754 2.36114 14.6873 2.35698 15.1396 2.86075C15.5919 3.36453 15.5136 4.18534 14.9644 4.69427Z" fill="url(#paint44_radial_1402_24954)"/>
<path d="M14.9644 4.69427C14.4152 5.20319 13.6035 5.20715 13.1511 4.70338C12.6988 4.1996 12.7774 3.37859 13.3264 2.86986C13.8754 2.36114 14.6873 2.35698 15.1396 2.86075C15.5919 3.36453 15.5136 4.18534 14.9644 4.69427Z" fill="url(#paint45_radial_1402_24954)"/>
<path d="M15.0301 3.23297C15.2375 3.46387 15.3487 3.7514 15.3708 4.0518C15.5001 3.63476 15.4291 3.18314 15.1396 2.86075C14.6873 2.35698 13.8754 2.36114 13.3264 2.86986C13.2713 2.92095 13.2221 2.97554 13.1767 3.03218C13.796 2.65553 14.5707 2.72108 15.0301 3.23297Z" fill="black"/>
<path d="M15.1396 2.86075C14.6873 2.35698 13.8754 2.36114 13.3264 2.86986C12.7774 3.37859 12.6988 4.1996 13.1511 4.70338C13.1982 4.75566 13.2441 4.79421 13.2158 4.76747C12.8109 4.36033 12.935 3.52586 13.457 3.00089C13.8717 2.58385 14.6805 2.42681 15.1423 2.86366" fill="url(#paint46_linear_1402_24954)"/>
<path d="M15.1396 2.86075L15.1423 2.86366C14.6805 2.42681 13.8717 2.58385 13.457 3.00089C12.9578 3.50288 12.8241 4.28682 13.167 4.7106C13.2211 4.73812 13.2416 4.79183 13.2158 4.76747C13.1981 4.74965 13.1827 4.7302 13.167 4.7106C13.1619 4.70802 13.1566 4.70556 13.1511 4.70338C13.6035 5.20715 14.4152 5.20319 14.9644 4.69427C15.5136 4.18534 15.5919 3.36453 15.1396 2.86075Z" fill="url(#paint47_radial_1402_24954)"/>
<path d="M18.6758 4.05319C18.668 4.05319 18.6603 4.04883 18.6563 4.04131C18.0004 2.76484 16.9414 1.69927 15.6748 1.04103C15.664 1.03549 15.6599 1.02222 15.6654 1.01133C15.6709 1.00044 15.6843 0.996281 15.6949 1.00183C16.9695 1.66442 18.0353 2.73652 18.6953 4.02111C18.7008 4.032 18.6967 4.04527 18.6859 4.05081C18.6827 4.0524 18.6794 4.05319 18.6758 4.05319Z" fill="#008EE6"/>
<path d="M14.6456 9.27343C14.6417 9.27343 14.6377 9.27244 14.6342 9.27006C13.9383 8.83877 13.2235 8.27836 12.5673 7.64963C12.5303 7.61418 12.4933 7.57834 12.4566 7.5423C11.6749 6.77673 10.9892 5.9274 10.4734 5.086C10.4671 5.0757 10.4703 5.06204 10.4807 5.0557C10.4908 5.04936 10.5046 5.05253 10.5109 5.06283C11.0246 5.90127 11.7081 6.74762 12.4874 7.51061C12.524 7.54646 12.5608 7.5821 12.5976 7.61755C13.2516 8.2441 13.9637 8.80253 14.657 9.23224C14.6675 9.23858 14.6706 9.25224 14.6643 9.26254C14.6602 9.26967 14.6531 9.27343 14.6456 9.27343Z" fill="#008EE6"/>
<defs>
<linearGradient id="paint0_linear_1402_24954" x1="17.239" y1="0.509862" x2="-3.34567" y2="26.7164" gradientUnits="userSpaceOnUse">
<stop stop-color="#FF0000"/>
<stop offset="0.2317" stop-color="#FF1500"/>
<stop offset="0.7367" stop-color="#FF3D00"/>
<stop offset="0.9987" stop-color="#FF4C00"/>
</linearGradient>
<linearGradient id="paint1_linear_1402_24954" x1="108.247" y1="-52.707" x2="57.2687" y2="88.3472" gradientUnits="userSpaceOnUse">
<stop stop-color="#FF0000"/>
<stop offset="0.2317" stop-color="#FF1500"/>
<stop offset="0.7367" stop-color="#FF3D00"/>
<stop offset="0.9987" stop-color="#FF4C00"/>
</linearGradient>
<linearGradient id="paint2_linear_1402_24954" x1="79.11" y1="-164.975" x2="-109.525" y2="-34.8708" gradientUnits="userSpaceOnUse">
<stop stop-color="#FF0000"/>
<stop offset="0.2317" stop-color="#FF1500"/>
<stop offset="0.7367" stop-color="#FF3D00"/>
<stop offset="0.9987" stop-color="#FF4C00"/>
</linearGradient>
<linearGradient id="paint3_linear_1402_24954" x1="13.2689" y1="4.56907" x2="-0.437786" y2="32.4876" gradientUnits="userSpaceOnUse">
<stop stop-color="#FF8000"/>
<stop offset="0.6388" stop-color="#FF5B00"/>
<stop offset="0.9987" stop-color="#FF4C00"/>
</linearGradient>
<radialGradient id="paint4_radial_1402_24954" cx="0" cy="0" r="1" gradientUnits="userSpaceOnUse" gradientTransform="translate(-42.1362 27.2702) rotate(-154.493) scale(66.2651 65.4062)">
<stop offset="0.00134333" stop-color="#FFED1C" stop-opacity="0.6"/>
<stop offset="0.9477" stop-color="#FFED1C" stop-opacity="0.0264782"/>
<stop offset="0.9914" stop-color="#FFED1C" stop-opacity="0"/>
</radialGradient>
<linearGradient id="paint5_linear_1402_24954" x1="1.17809" y1="21.8697" x2="13.6464" y2="3.47392" gradientUnits="userSpaceOnUse">
<stop stop-color="#FF8000"/>
<stop offset="0.022669" stop-color="#FE7F02" stop-opacity="0.9773"/>
<stop offset="0.6663" stop-color="#ED582A" stop-opacity="0.3337"/>
<stop offset="1" stop-color="#E74939" stop-opacity="0"/>
</linearGradient>
<linearGradient id="paint6_linear_1402_24954" x1="16.2493" y1="3.31661" x2="1.59324" y2="16.5757" gradientUnits="userSpaceOnUse">
<stop stop-color="#FFBC47"/>
<stop offset="0.1869" stop-color="#FFB137" stop-opacity="0.8131"/>
<stop offset="0.7223" stop-color="#FF940F" stop-opacity="0.2777"/>
<stop offset="1" stop-color="#FF8900" stop-opacity="0"/>
</linearGradient>
<radialGradient id="paint7_radial_1402_24954" cx="0" cy="0" r="1" gradientUnits="userSpaceOnUse" gradientTransform="translate(13.6282 6.20482) rotate(-133.961) scale(8.04988 8.29198)">
<stop offset="0.00134333" stop-color="#FFBC47"/>
<stop offset="0.2941" stop-color="#FFBF4B" stop-opacity="0.7068"/>
<stop offset="0.5624" stop-color="#FEC656" stop-opacity="0.4382"/>
<stop offset="0.8201" stop-color="#FCD368" stop-opacity="0.1801"/>
<stop offset="1" stop-color="#FBE07A" stop-opacity="0"/>
</radialGradient>
<radialGradient id="paint8_radial_1402_24954" cx="0" cy="0" r="1" gradientUnits="userSpaceOnUse" gradientTransform="translate(13.3366 6.50727) rotate(-133.961) scale(7.80183 8.03647)">
<stop offset="0.00134333" stop-color="white"/>
<stop offset="1" stop-color="white" stop-opacity="0"/>
</radialGradient>
<radialGradient id="paint9_radial_1402_24954" cx="0" cy="0" r="1" gradientUnits="userSpaceOnUse" gradientTransform="translate(16.7029 9.93675) rotate(-134.67) scale(14.7938 21.8737)">
<stop offset="0.00134333" stop-color="#FFED1C" stop-opacity="0.6"/>
<stop offset="0.9477" stop-color="#FFED1C" stop-opacity="0.0264782"/>
<stop offset="0.9914" stop-color="#FFED1C" stop-opacity="0"/>
</radialGradient>
<radialGradient id="paint10_radial_1402_24954" cx="0" cy="0" r="1" gradientUnits="userSpaceOnUse" gradientTransform="translate(13.3415 6.50445) rotate(-43.7649) scale(3.84021 2.4621)">
<stop offset="0.00134333" stop-color="white"/>
<stop offset="1" stop-color="white" stop-opacity="0"/>
</radialGradient>
<radialGradient id="paint11_radial_1402_24954" cx="0" cy="0" r="1" gradientUnits="userSpaceOnUse" gradientTransform="translate(1.80616 20.9002) rotate(-154.493) scale(21.8934 21.6096)">
<stop offset="0.00134333" stop-color="#FFED1C"/>
<stop offset="0.1997" stop-color="#FFEE2B" stop-opacity="0.8013"/>
<stop offset="0.5839" stop-color="#FFF254" stop-opacity="0.4167"/>
<stop offset="1" stop-color="#FFF686" stop-opacity="0"/>
</radialGradient>
<radialGradient id="paint12_radial_1402_24954" cx="0" cy="0" r="1" gradientUnits="userSpaceOnUse" gradientTransform="translate(12.8627 9.08472) rotate(148.516) scale(18.597 5.87239)">
<stop offset="0.00134333" stop-color="#FFED1C" stop-opacity="0.6"/>
<stop offset="0.9477" stop-color="#FFED1C" stop-opacity="0.0264782"/>
<stop offset="0.9914" stop-color="#FFED1C" stop-opacity="0"/>
</radialGradient>
<radialGradient id="paint13_radial_1402_24954" cx="0" cy="0" r="1" gradientUnits="userSpaceOnUse" gradientTransform="translate(1.10993 24.335) rotate(-59.0107) scale(23.2452 6.58315)">
<stop offset="0.00134333" stop-color="#FFED1C"/>
<stop offset="0.1997" stop-color="#FFEE2B" stop-opacity="0.8013"/>
<stop offset="0.5839" stop-color="#FFF254" stop-opacity="0.4167"/>
<stop offset="1" stop-color="#FFF686" stop-opacity="0"/>
</radialGradient>
<radialGradient id="paint14_radial_1402_24954" cx="0" cy="0" r="1" gradientUnits="userSpaceOnUse" gradientTransform="translate(0.745879 18.252) rotate(-133.961) scale(10.7281 13.614)">
<stop offset="0.00134333" stop-color="#FF4C00"/>
<stop offset="0.135" stop-color="#FF5B0C" stop-opacity="0.8661"/>
<stop offset="0.3941" stop-color="#FF842C" stop-opacity="0.6067"/>
<stop offset="0.7491" stop-color="#FFC45F" stop-opacity="0.2512"/>
<stop offset="1" stop-color="#FFF686" stop-opacity="0"/>
</radialGradient>
<radialGradient id="paint15_radial_1402_24954" cx="0" cy="0" r="1" gradientUnits="userSpaceOnUse" gradientTransform="translate(5.02007 6.79529) rotate(-133.961) scale(5.69429 7.22609)">
<stop offset="0.00134333" stop-color="#FFED1C"/>
<stop offset="0.1997" stop-color="#FFEE2B" stop-opacity="0.8013"/>
<stop offset="0.5839" stop-color="#FFF254" stop-opacity="0.4167"/>
<stop offset="1" stop-color="#FFF686" stop-opacity="0"/>
</radialGradient>
<radialGradient id="paint16_radial_1402_24954" cx="0" cy="0" r="1" gradientUnits="userSpaceOnUse" gradientTransform="translate(13.3259 7.06246) rotate(-133.961) scale(11.9075 15.1107)">
<stop offset="0.00134333" stop-color="#FFED1C"/>
<stop offset="0.1997" stop-color="#FFEE2B" stop-opacity="0.8013"/>
<stop offset="0.5839" stop-color="#FFF254" stop-opacity="0.4167"/>
<stop offset="1" stop-color="#FFF686" stop-opacity="0"/>
</radialGradient>
<linearGradient id="paint17_linear_1402_24954" x1="-7.0854" y1="21.4394" x2="6.84992" y2="-1.40787" gradientUnits="userSpaceOnUse">
<stop stop-color="#BD2719"/>
<stop offset="0.2151" stop-color="#D41A10"/>
<stop offset="0.5049" stop-color="#EC0C07"/>
<stop offset="0.774" stop-color="#FA0302"/>
<stop offset="1" stop-color="#FF0000"/>
</linearGradient>
<linearGradient id="paint18_linear_1402_24954" x1="29.3445" y1="1.70712" x2="19.182" y2="25.0697" gradientUnits="userSpaceOnUse">
<stop stop-color="#FC8D41"/>
<stop offset="0.0900324" stop-color="#FC7837"/>
<stop offset="0.294" stop-color="#FD4D24"/>
<stop offset="0.4922" stop-color="#FE2C14"/>
<stop offset="0.6802" stop-color="#FF1409"/>
<stop offset="0.854" stop-color="#FF0502"/>
<stop offset="1" stop-color="#FF0000"/>
</linearGradient>
<radialGradient id="paint19_radial_1402_24954" cx="0" cy="0" r="1" gradientUnits="userSpaceOnUse" gradientTransform="translate(-10.5126 19.3108) rotate(33.3358) scale(27.2068 24.9826)">
<stop offset="0.00134333" stop-color="#FFED1C"/>
<stop offset="0.1997" stop-color="#FFEE2B" stop-opacity="0.8013"/>
<stop offset="0.5839" stop-color="#FFF254" stop-opacity="0.4167"/>
<stop offset="1" stop-color="#FFF686" stop-opacity="0"/>
</radialGradient>
<linearGradient id="paint20_linear_1402_24954" x1="2.44841" y1="17.5113" x2="56.3866" y2="-43.8473" gradientUnits="userSpaceOnUse">
<stop stop-color="#BD2719"/>
<stop offset="0.2151" stop-color="#D41A10"/>
<stop offset="0.5049" stop-color="#EC0C07"/>
<stop offset="0.774" stop-color="#FA0302"/>
<stop offset="1" stop-color="#FF0000"/>
</linearGradient>
<linearGradient id="paint21_linear_1402_24954" x1="-1.91647" y1="18.7478" x2="15.1717" y2="13.4907" gradientUnits="userSpaceOnUse">
<stop stop-color="#BD2719"/>
<stop offset="0.2151" stop-color="#D41A10"/>
<stop offset="0.5049" stop-color="#EC0C07"/>
<stop offset="0.774" stop-color="#FA0302"/>
<stop offset="1" stop-color="#FF0000"/>
</linearGradient>
<linearGradient id="paint22_linear_1402_24954" x1="17.0459" y1="-7.63748" x2="-5.05188" y2="4.84329" gradientUnits="userSpaceOnUse">
<stop stop-color="#FC8D41"/>
<stop offset="0.0900324" stop-color="#FC7837"/>
<stop offset="0.294" stop-color="#FD4D24"/>
<stop offset="0.4922" stop-color="#FE2C14"/>
<stop offset="0.6802" stop-color="#FF1409"/>
<stop offset="0.854" stop-color="#FF0502"/>
<stop offset="1" stop-color="#FF0000"/>
</linearGradient>
<radialGradient id="paint23_radial_1402_24954" cx="0" cy="0" r="1" gradientUnits="userSpaceOnUse" gradientTransform="translate(8.99205 33.4622) rotate(57.9182) scale(30.9253 27.8341)">
<stop offset="0.00134333" stop-color="#FFED1C"/>
<stop offset="0.1997" stop-color="#FFEE2B" stop-opacity="0.8013"/>
<stop offset="0.5839" stop-color="#FFF254" stop-opacity="0.4167"/>
<stop offset="1" stop-color="#FFF686" stop-opacity="0"/>
</radialGradient>
<linearGradient id="paint24_linear_1402_24954" x1="16.7106" y1="9.69381" x2="-47.8639" y2="13.2211" gradientUnits="userSpaceOnUse">
<stop stop-color="#BD2719"/>
<stop offset="0.2151" stop-color="#D41A10"/>
<stop offset="0.5049" stop-color="#EC0C07"/>
<stop offset="0.774" stop-color="#FA0302"/>
<stop offset="1" stop-color="#FF0000"/>
</linearGradient>
<linearGradient id="paint25_linear_1402_24954" x1="6.19475" y1="4.87943" x2="15.1874" y2="13.7346" gradientUnits="userSpaceOnUse">
<stop stop-color="#BBCACC"/>
<stop offset="0.3717" stop-color="white"/>
<stop offset="1" stop-color="#99AFB3"/>
</linearGradient>
<linearGradient id="paint26_linear_1402_24954" x1="17.7559" y1="13.769" x2="7.77028" y2="1.00933" gradientUnits="userSpaceOnUse">
<stop stop-color="#008EE6"/>
<stop offset="0.688" stop-color="#80DAFE"/>
<stop offset="0.7325" stop-color="#76D5FB"/>
<stop offset="0.8071" stop-color="#5CC8F3"/>
<stop offset="0.9026" stop-color="#32B2E6"/>
<stop offset="1" stop-color="#0099D6"/>
</linearGradient>
<linearGradient id="paint27_linear_1402_24954" x1="13.335" y1="16.0127" x2="2.0632" y2="4.9715" gradientUnits="userSpaceOnUse">
<stop stop-color="#008EE6"/>
<stop offset="0.688" stop-color="#80DAFE"/>
<stop offset="0.7325" stop-color="#76D5FB"/>
<stop offset="0.8071" stop-color="#5CC8F3"/>
<stop offset="0.9026" stop-color="#32B2E6"/>
<stop offset="1" stop-color="#0099D6"/>
</linearGradient>
<radialGradient id="paint28_radial_1402_24954" cx="0" cy="0" r="1" gradientUnits="userSpaceOnUse" gradientTransform="translate(5.79521 19.733) rotate(45.4381) scale(10.6461 19.4832)">
<stop stop-opacity="0.75"/>
<stop offset="1" stop-opacity="0"/>
</radialGradient>
<radialGradient id="paint29_radial_1402_24954" cx="0" cy="0" r="1" gradientUnits="userSpaceOnUse" gradientTransform="translate(17.4257 17.2064) rotate(35.3762) scale(13.1023 22.6406)">
<stop stop-opacity="0.75"/>
<stop offset="1" stop-opacity="0"/>
</radialGradient>
<linearGradient id="paint30_linear_1402_24954" x1="2.99923" y1="-0.202875" x2="18.0893" y2="19.2245" gradientUnits="userSpaceOnUse">
<stop/>
<stop offset="0.1962" stop-color="#4D4D4C"/>
<stop offset="0.7655"/>
</linearGradient>
<linearGradient id="paint31_linear_1402_24954" x1="2.99923" y1="-0.202875" x2="18.0893" y2="19.2245" gradientUnits="userSpaceOnUse">
<stop stop-opacity="0"/>
<stop offset="0.1975" stop-color="#CFDCDE" stop-opacity="0.5"/>
<stop offset="0.7655" stop-opacity="0"/>
</linearGradient>
<linearGradient id="paint32_linear_1402_24954" x1="-21.2077" y1="3.79678" x2="17.1117" y2="13.5873" gradientUnits="userSpaceOnUse">
<stop stop-color="#BBCACC"/>
<stop offset="0.3717" stop-color="white"/>
<stop offset="1" stop-color="#99AFB3"/>
</linearGradient>
<radialGradient id="paint33_radial_1402_24954" cx="0" cy="0" r="1" gradientUnits="userSpaceOnUse" gradientTransform="translate(10.8786 14.7902) rotate(44.6749) scale(4.0858 13.235)">
<stop stop-color="#440063" stop-opacity="0.75"/>
<stop offset="1" stop-color="#420061" stop-opacity="0"/>
</radialGradient>
<linearGradient id="paint34_linear_1402_24954" x1="-0.824318" y1="17.1639" x2="35.7026" y2="-5.31331" gradientUnits="userSpaceOnUse">
<stop stop-color="#BD2719"/>
<stop offset="0.2151" stop-color="#D41A10"/>
<stop offset="0.5049" stop-color="#EC0C07"/>
<stop offset="0.774" stop-color="#FA0302"/>
<stop offset="1" stop-color="#FF0000"/>
</linearGradient>
<linearGradient id="paint35_linear_1402_24954" x1="-4.80881" y1="19.9549" x2="7.47958" y2="9.54448" gradientUnits="userSpaceOnUse">
<stop stop-color="#BD2719"/>
<stop offset="0.2151" stop-color="#D41A10"/>
<stop offset="0.5049" stop-color="#EC0C07"/>
<stop offset="0.774" stop-color="#FA0302"/>
<stop offset="1" stop-color="#FF0000"/>
</linearGradient>
<linearGradient id="paint36_linear_1402_24954" x1="37.7627" y1="-6.91551" x2="15.2604" y2="25.2375" gradientUnits="userSpaceOnUse">
<stop stop-color="#FC8D41"/>
<stop offset="0.0900324" stop-color="#FC7837"/>
<stop offset="0.294" stop-color="#FD4D24"/>
<stop offset="0.4922" stop-color="#FE2C14"/>
<stop offset="0.6802" stop-color="#FF1409"/>
<stop offset="0.854" stop-color="#FF0502"/>
<stop offset="1" stop-color="#FF0000"/>
</linearGradient>
<linearGradient id="paint37_linear_1402_24954" x1="7.43369" y1="15.9268" x2="14.5871" y2="-7.04715" gradientUnits="userSpaceOnUse">
<stop stop-color="#BD2719"/>
<stop offset="0.2151" stop-color="#D41A10"/>
<stop offset="0.5049" stop-color="#EC0C07"/>
<stop offset="0.774" stop-color="#FA0302"/>
<stop offset="1" stop-color="#FF0000"/>
</linearGradient>
<linearGradient id="paint38_linear_1402_24954" x1="-0.824318" y1="17.1639" x2="35.7026" y2="-5.31331" gradientUnits="userSpaceOnUse">
<stop stop-color="#BD2719"/>
<stop offset="0.2151" stop-color="#D41A10"/>
<stop offset="0.5049" stop-color="#EC0C07"/>
<stop offset="0.774" stop-color="#FA0302"/>
<stop offset="1" stop-color="#FF0000"/>
</linearGradient>
<radialGradient id="paint39_radial_1402_24954" cx="0" cy="0" r="1" gradientUnits="userSpaceOnUse" gradientTransform="translate(-0.799841 17.142) rotate(-36.0943) scale(22.0519 7.19514)">
<stop offset="0.00134333" stop-color="#FFED1C"/>
<stop offset="0.1997" stop-color="#FFEE2B" stop-opacity="0.8013"/>
<stop offset="0.5839" stop-color="#FFF254" stop-opacity="0.4167"/>
<stop offset="1" stop-color="#FFF686" stop-opacity="0"/>
</radialGradient>
<radialGradient id="paint40_radial_1402_24954" cx="0" cy="0" r="1" gradientUnits="userSpaceOnUse" gradientTransform="translate(8.0737 8.07602) rotate(44.6749) scale(4.0858 13.235)">
<stop stop-color="white" stop-opacity="0.5"/>
<stop offset="1" stop-color="white" stop-opacity="0"/>
</radialGradient>
<radialGradient id="paint41_radial_1402_24954" cx="0" cy="0" r="1" gradientUnits="userSpaceOnUse" gradientTransform="translate(10.2111 13.4847) rotate(51.7933) scale(3.12524 14.5977)">
<stop stop-color="#440063" stop-opacity="0.75"/>
<stop offset="1" stop-color="#420061" stop-opacity="0"/>
</radialGradient>
<linearGradient id="paint42_linear_1402_24954" x1="4.43775" y1="21.8164" x2="15.4751" y2="-1.60753" gradientUnits="userSpaceOnUse">
<stop stop-color="#BD2719"/>
<stop offset="0.2151" stop-color="#D41A10"/>
<stop offset="0.5049" stop-color="#EC0C07"/>
<stop offset="0.774" stop-color="#FA0302"/>
<stop offset="1" stop-color="#FF0000"/>
</linearGradient>
<linearGradient id="paint43_linear_1402_24954" x1="13.4456" y1="-2.124" x2="6.09394" y2="21.93" gradientUnits="userSpaceOnUse">
<stop stop-color="#FC8D41"/>
<stop offset="0.0900324" stop-color="#FC7837"/>
<stop offset="0.294" stop-color="#FD4D24"/>
<stop offset="0.4922" stop-color="#FE2C14"/>
<stop offset="0.6802" stop-color="#FF1409"/>
<stop offset="0.854" stop-color="#FF0502"/>
<stop offset="1" stop-color="#FF0000"/>
</linearGradient>
<radialGradient id="paint44_radial_1402_24954" cx="0" cy="0" r="1" gradientUnits="userSpaceOnUse" gradientTransform="translate(6.12083 10.3648) rotate(45.416) scale(26.1191 26.1145)">
<stop stop-color="#512D00"/>
<stop offset="1"/>
</radialGradient>
<radialGradient id="paint45_radial_1402_24954" cx="0" cy="0" r="1" gradientUnits="userSpaceOnUse" gradientTransform="translate(11.1093 5.21536) scale(22.7465 23.0824)">
<stop offset="0.4873" stop-color="#F5CBC0" stop-opacity="0"/>
<stop offset="1" stop-color="#E67E62"/>
</radialGradient>
<linearGradient id="paint46_linear_1402_24954" x1="10.1498" y1="2.23129" x2="11.2832" y2="-17.5168" gradientUnits="userSpaceOnUse">
<stop stop-color="#BD2719"/>
<stop offset="0.0422031" stop-color="#B42717"/>
<stop offset="0.257" stop-color="#89250F"/>
<stop offset="0.4654" stop-color="#682408"/>
<stop offset="0.6634" stop-color="#502304"/>
<stop offset="0.8464" stop-color="#412201"/>
<stop offset="1" stop-color="#3C2200"/>
</linearGradient>
<radialGradient id="paint47_radial_1402_24954" cx="0" cy="0" r="1" gradientUnits="userSpaceOnUse" gradientTransform="translate(-22.9506 -1.40505) scale(32.338 32.7851)">
<stop stop-color="white" stop-opacity="0.5"/>
<stop offset="1" stop-color="white" stop-opacity="0"/>
</radialGradient>
</defs>
</svg>
