<svg xmlns="http://www.w3.org/2000/svg" width="44" height="44" viewBox="0 0 44 44" fill="none">
    <g id="deltacredit">
        <g id="logo deltacredit">
            <g id="Group 757">
                <path id="Vector" d="M23.3252 16.9692C21.1285 16.9692 19.3424 18.3262 18.8992 18.8896V17.2571H15V33.9389H18.8751V28.0078C19.3302 28.5833 21.1045 29.9161 23.3132 29.9161C26.983 29.9161 29 27.923 29 23.4366C29 18.9623 26.983 16.9692 23.3252 16.9692ZM21.9373 26.6816C19.6234 26.6816 18.9022 25.8403 18.9022 23.4182C18.9022 20.9844 19.6234 20.155 21.9373 20.155C24.2633 20.155 24.9603 20.9844 24.9603 23.4182C24.9603 25.8403 24.2633 26.6816 21.9373 26.6816Z" fill="#00264E"/>
                <path id="Vector 34" d="M15 14.8154V10.6154L28.4615 9V13.5231L15 14.8154Z" fill="#E40139"/>
            </g>
        </g>
    </g>
</svg>