<svg xmlns="http://www.w3.org/2000/svg" width="20" height="20" viewBox="0 0 20 20" fill="none">
<path fill-rule="evenodd" clip-rule="evenodd" d="M9.99958 2.61487L18.6352 6.53894C18.7187 6.57115 18.8063 6.62004 18.8901 6.69329C19.1091 6.8849 19.1828 7.13871 19.1828 7.33876C19.1828 7.67409 18.9959 7.88563 18.9243 7.95719L18.8153 8.06622L18.4396 8.23694V12.6565H16.7396V9.00944L15.4036 9.61653V14.9237L9.99959 17.3855L4.59559 14.9237V9.61653L1.36168 8.14701C1.1845 8.07698 1.048 7.95338 0.961557 7.82373C0.846153 7.65064 0.816406 7.47277 0.816406 7.3435C0.816406 7.21424 0.846153 7.03637 0.961557 6.86328C1.048 6.73363 1.1845 6.61003 1.36169 6.53999L9.99958 2.61487ZM3.70269 7.3435L9.99958 10.2049L16.2965 7.3435L9.99958 4.48215L3.70269 7.3435ZM6.29559 10.389V13.8301L9.99959 15.5175L13.7036 13.8301V10.389L9.99958 12.0721L6.29559 10.389Z" fill="#007BFB"/>
</svg>