<svg xmlns="http://www.w3.org/2000/svg" width="58" height="58" fill="none"><path d="M29 0A29 29 0 0 0 6.66 47.49h44.62A29 29 0 0 0 29 0Z" fill="#AAE1FB"/><path d="M29 58a29 29 0 0 0 22.28-10.51H6.66A29 29 0 0 0 29 58Z" fill="#6FB4D0"/><path d="M39.47 11.86H28.79v16h10.68v-16Z" fill="#AAE1FB"/><path d="M7.71 47.43h-.78l.63-4.29h1.38l-1.23 4.29ZM11.28 47.43h-.77l.58-4.29h1.4l-1.21 4.29ZM50.58 47.43h.77l-.62-4.29h-1.38l1.23 4.29ZM47.55 47.43h.77l-.62-4.29h-1.4l1.25 4.29Z" fill="#00599A"/><path d="M51 36.2H6.22v-11a2.32 2.32 0 0 1 2.3-2.33h40.17A2.27 2.27 0 0 1 51 25.13V36.2ZM51 42.24H7.44v1.21H51v-1.21Z" fill="#F4682C"/><path d="m36 27.73-4.46.94a1.8 1.8 0 0 0-1.36 2.12l.93 4.59a1.74 1.74 0 0 0 2 1.4l4.44-.94A1.78 1.78 0 0 0 39 33.72l-.93-4.59a1.73 1.73 0 0 0-2.07-1.4Z" fill="#FE9247"/><path d="m18.71 27.7-4.78 1a1.61 1.61 0 0 0-1.22 1.9l1 4.95a1.56 1.56 0 0 0 1.85 1.25l4.78-1a1.62 1.62 0 0 0 1.22-1.91l-1-4.95a1.58 1.58 0 0 0-1.85-1.24ZM41.43 37.87l-4-1.64a1.7 1.7 0 0 1-.61-.41 1.8 1.8 0 0 1-.42-.62c-.1-.23-.15-.48-.15-.73s.04-.5.13-.74L38 29.62a1.85 1.85 0 0 1 2.43-1.09l4 1.64a2 2 0 0 1 1.05 2.51l-1.59 4.11a1.88 1.88 0 0 1-1.01 1.06 1.79 1.79 0 0 1-1.44.02h-.01Z" fill="#FABA89"/><path d="M52.18 36.2H5.08v6h47.1v-6Z" fill="#FE9247"/><path d="M38.85 5.33H19.51v13.29h19.34V5.33Z" fill="#6FB4D0"/><path d="M37.64 6.54H20.72v10.87h16.92V6.54Z" fill="#D7F6FF"/><path d="M29.18 9.86a2 2 0 0 0-2.28-.8c-.41.13-.77.4-1 .77a2 2 0 0 0-.34 1.25c.09 1.9 1.63 2.51 3.62 3.94 2-1.43 3.52-2 3.62-3.94a2 2 0 0 0-1.33-2 2 2 0 0 0-2.28.8l-.01-.02Z" fill="#6FB4D0"/></svg>