<svg xmlns="http://www.w3.org/2000/svg" xmlns:xlink="http://www.w3.org/1999/xlink" width="48.000000" height="32.000000" viewBox="0 0 48 32" fill="none">
	<defs/>
	<rect id="Фон документа" rx="2.000000" width="48.000000" height="32.000000" fill="#DEF2D0"/>
	<path id="Union" d="M14 20L7 20L7 21L14 21L14 20ZM19 20L15 20L15 21L19 21L19 20ZM9 23L7 23L7 24L9 24L9 23ZM10 23L19 23L19 24L10 24L10 23Z" clip-rule="evenodd" fill-rule="evenodd" fill="#696383" fill-opacity="0.600000"/>
	<path id="Union" d="M35 0L41 0L41 6L48 6L48 10L41 10L41 16.8027C42.7935 17.8401 44 19.7791 44 22C44 24.2209 42.7935 26.1599 41 27.1973L41 32L35 32L35 27.1973C33.2065 26.1599 32 24.2209 32 22C32 19.7791 33.2065 17.8401 35 16.8027L35 10L0 10L0 6L35 6L35 0Z" clip-rule="evenodd" fill-rule="evenodd" fill="#D1EAC4" fill-opacity="1.000000"/>
	<path id="СТРАХОВОЕ СВИДЕТЕЛЬСТВО" d="M12.1133 6.5918Q12.1133 6.16211 12.2812 5.83008Q12.4492 5.49805 12.748 5.31738Q13.0469 5.13672 13.4297 5.13672Q13.6992 5.13672 13.9209 5.2168Q14.1426 5.29688 14.292 5.43652Q14.4414 5.57617 14.5322 5.75781Q14.623 5.93945 14.6484 6.15234L14.041 6.15234Q13.9883 5.94922 13.833 5.81641Q13.6777 5.68359 13.4297 5.68359Q13.123 5.68359 12.9307 5.93164Q12.7383 6.17969 12.7383 6.5918Q12.7383 6.99805 12.9287 7.24902Q13.1191 7.5 13.4336 7.5Q13.5703 7.5 13.6836 7.45605Q13.7969 7.41211 13.8701 7.34082Q13.9434 7.26953 13.9873 7.18945Q14.0312 7.10938 14.0449 7.02734L14.6523 7.02734Q14.6426 7.17383 14.5918 7.31543Q14.541 7.45703 14.4414 7.59082Q14.3418 7.72461 14.2031 7.8252Q14.0645 7.92578 13.8643 7.9873Q13.6641 8.04883 13.4297 8.04883Q13.1504 8.04883 12.9102 7.94727Q12.6699 7.8457 12.4932 7.66211Q12.3164 7.47852 12.2148 7.20215Q12.1133 6.92578 12.1133 6.5918ZM14.8711 5.72852L14.8711 5.18359L17.1602 5.18359L17.1602 5.72852L16.3242 5.72852L16.3242 8L15.7129 8L15.7129 5.72852L14.8711 5.72852ZM17.5801 8L17.5801 5.18359L18.6504 5.18359Q19.125 5.18359 19.3945 5.4502Q19.6641 5.7168 19.6641 6.13672Q19.6641 6.54492 19.3906 6.81445Q19.1172 7.08398 18.668 7.08398L18.1914 7.08398L18.1914 8L17.5801 8ZM18.1914 6.56055L18.5957 6.56055Q18.8008 6.56055 18.9219 6.44238Q19.043 6.32422 19.043 6.13672Q19.043 5.94336 18.9248 5.8252Q18.8066 5.70703 18.5957 5.70703L18.1914 5.70703L18.1914 6.56055ZM19.6523 8L20.6797 5.18359L21.3125 5.18359L22.3438 8L21.7109 8L21.5117 7.41992L20.4805 7.41992L20.2832 8L19.6523 8ZM20.6523 6.9082L21.332 6.9082L20.9922 5.89258L20.6523 6.9082ZM22.4785 8L23.4062 6.58398L22.4863 5.18359L23.1875 5.18359L23.7949 6.14453L24.4102 5.18359L25.0859 5.18359L24.166 6.5957L25.0938 8L24.3984 8L23.7793 7.03516L23.1621 8L22.4785 8ZM25.3633 7.35352Q25.1934 7.02148 25.1934 6.5918Q25.1934 6.16211 25.3633 5.83008Q25.5332 5.49805 25.8398 5.31738Q26.1465 5.13672 26.541 5.13672Q26.9355 5.13672 27.2422 5.31738Q27.5488 5.49805 27.7188 5.83008Q27.8887 6.16211 27.8887 6.5918Q27.8887 7.02148 27.7188 7.35352Q27.5488 7.68555 27.2422 7.86719Q26.9355 8.04883 26.541 8.04883Q26.1465 8.04883 25.8398 7.86719Q25.5332 7.68555 25.3633 7.35352ZM26.0127 5.93652Q25.8184 6.18945 25.8184 6.5918Q25.8184 6.99414 26.0127 7.24707Q26.207 7.5 26.541 7.5Q26.875 7.5 27.0703 7.24609Q27.2656 6.99219 27.2656 6.5918Q27.2656 6.19141 27.0703 5.9375Q26.875 5.68359 26.541 5.68359Q26.207 5.68359 26.0127 5.93652ZM28.3535 8L28.3535 5.18359L29.4883 5.18359Q29.707 5.18359 29.8799 5.24121Q30.0527 5.29883 30.1602 5.40039Q30.2676 5.50195 30.3242 5.63379Q30.3809 5.76562 30.3809 5.91992Q30.3809 6.14844 30.2744 6.30176Q30.168 6.45508 30.0117 6.52344Q30.2031 6.58008 30.3457 6.74902Q30.4883 6.91797 30.4883 7.19141Q30.4883 7.54883 30.2314 7.77441Q29.9746 8 29.5371 8L28.3535 8ZM28.9609 7.49219L29.457 7.49219Q29.6445 7.49219 29.7568 7.40039Q29.8691 7.30859 29.8691 7.14844Q29.8691 6.98633 29.7588 6.89355Q29.6484 6.80078 29.4609 6.80078L28.9609 6.80078L28.9609 7.49219ZM28.9609 6.32422L29.4082 6.32422Q29.5801 6.32422 29.6719 6.23535Q29.7637 6.14648 29.7637 6.00781Q29.7637 5.85742 29.668 5.77441Q29.5723 5.69141 29.3926 5.69141L28.9609 5.69141L28.9609 6.32422ZM30.9785 7.35352Q30.8086 7.02148 30.8086 6.5918Q30.8086 6.16211 30.9785 5.83008Q31.1484 5.49805 31.4551 5.31738Q31.7617 5.13672 32.1562 5.13672Q32.5508 5.13672 32.8574 5.31738Q33.1641 5.49805 33.334 5.83008Q33.5039 6.16211 33.5039 6.5918Q33.5039 7.02148 33.334 7.35352Q33.1641 7.68555 32.8574 7.86719Q32.5508 8.04883 32.1562 8.04883Q31.7617 8.04883 31.4551 7.86719Q31.1484 7.68555 30.9785 7.35352ZM31.6279 5.93652Q31.4336 6.18945 31.4336 6.5918Q31.4336 6.99414 31.6279 7.24707Q31.8223 7.5 32.1562 7.5Q32.4902 7.5 32.6855 7.24609Q32.8809 6.99219 32.8809 6.5918Q32.8809 6.19141 32.6855 5.9375Q32.4902 5.68359 32.1562 5.68359Q31.8223 5.68359 31.6279 5.93652ZM33.9688 8L33.9688 5.18359L35.8555 5.18359L35.8555 5.72852L34.5801 5.72852L34.5801 6.30469L35.7793 6.30469L35.7793 6.82812L34.5801 6.82812L34.5801 7.45508L35.8555 7.45508L35.8555 8L33.9688 8ZM6.59766 11.5918Q6.59766 11.1621 6.76562 10.8301Q6.93359 10.498 7.23242 10.3174Q7.53125 10.1367 7.91406 10.1367Q8.18359 10.1367 8.40527 10.2168Q8.62695 10.2969 8.77637 10.4365Q8.92578 10.5762 9.0166 10.7578Q9.10742 10.9395 9.13281 11.1523L8.52539 11.1523Q8.47266 10.9492 8.31738 10.8164Q8.16211 10.6836 7.91406 10.6836Q7.60742 10.6836 7.41504 10.9316Q7.22266 11.1797 7.22266 11.5918Q7.22266 11.998 7.41309 12.249Q7.60352 12.5 7.91797 12.5Q8.05469 12.5 8.16797 12.4561Q8.28125 12.4121 8.35449 12.3408Q8.42773 12.2695 8.47168 12.1895Q8.51562 12.1094 8.5293 12.0273L9.13672 12.0273Q9.12695 12.1738 9.07617 12.3154Q9.02539 12.457 8.92578 12.5908Q8.82617 12.7246 8.6875 12.8252Q8.54883 12.9258 8.34863 12.9873Q8.14844 13.0488 7.91406 13.0488Q7.63477 13.0488 7.39453 12.9473Q7.1543 12.8457 6.97754 12.6621Q6.80078 12.4785 6.69922 12.2021Q6.59766 11.9258 6.59766 11.5918ZM9.58594 13L9.58594 10.1836L10.7207 10.1836Q10.9395 10.1836 11.1123 10.2412Q11.2852 10.2988 11.3926 10.4004Q11.5 10.502 11.5566 10.6338Q11.6133 10.7656 11.6133 10.9199Q11.6133 11.1484 11.5068 11.3018Q11.4004 11.4551 11.2441 11.5234Q11.4355 11.5801 11.5781 11.749Q11.7207 11.918 11.7207 12.1914Q11.7207 12.5488 11.4639 12.7744Q11.207 13 10.7695 13L9.58594 13ZM10.1934 12.4922L10.6895 12.4922Q10.877 12.4922 10.9893 12.4004Q11.1016 12.3086 11.1016 12.1484Q11.1016 11.9863 10.9912 11.8936Q10.8809 11.8008 10.6934 11.8008L10.1934 11.8008L10.1934 12.4922ZM10.1934 11.3242L10.6406 11.3242Q10.8125 11.3242 10.9043 11.2354Q10.9961 11.1465 10.9961 11.0078Q10.9961 10.8574 10.9004 10.7744Q10.8047 10.6914 10.625 10.6914L10.1934 10.6914L10.1934 11.3242ZM12.1699 13L12.1699 10.1836L12.7695 10.1836L12.7695 12.0391L13.9648 10.1836L14.5645 10.1836L14.5645 13L13.9648 13L13.9648 11.1523L12.7695 13L12.1699 13ZM14.8984 13.5352L14.8984 12.4551L15.1191 12.4551Q15.25 12.3691 15.3115 12.1611Q15.373 11.9531 15.3984 11.584L15.4922 10.1836L17.4922 10.1836L17.4922 12.4551L17.8359 12.4551L17.8359 13.5352L17.248 13.5352L17.248 13L15.4824 13L15.4824 13.5352L14.8984 13.5352ZM15.7637 12.4551L16.8789 12.4551L16.8789 10.7285L16.0391 10.7285L15.9785 11.584Q15.9531 11.9531 15.9111 12.1387Q15.8691 12.3242 15.7637 12.4551ZM18.2188 13L18.2188 10.1836L20.1055 10.1836L20.1055 10.7285L18.8301 10.7285L18.8301 11.3047L20.0293 11.3047L20.0293 11.8281L18.8301 11.8281L18.8301 12.4551L20.1055 12.4551L20.1055 13L18.2188 13ZM20.4277 10.7285L20.4277 10.1836L22.7168 10.1836L22.7168 10.7285L21.8809 10.7285L21.8809 13L21.2695 13L21.2695 10.7285L20.4277 10.7285ZM23.1367 13L23.1367 10.1836L25.0234 10.1836L25.0234 10.7285L23.748 10.7285L23.748 11.3047L24.9473 11.3047L24.9473 11.8281L23.748 11.8281L23.748 12.4551L25.0234 12.4551L25.0234 13L23.1367 13ZM25.2617 13.0078L25.2617 12.4609L25.3379 12.4609Q25.5566 12.4609 25.6514 12.335Q25.7461 12.209 25.7676 11.916L25.8789 10.1836L27.8145 10.1836L27.8145 13L27.2031 13L27.2031 10.7285L26.4258 10.7285L26.3457 11.9551Q26.3281 12.2012 26.2744 12.3848Q26.2207 12.5684 26.1172 12.7129Q26.0137 12.8574 25.8408 12.9326Q25.668 13.0078 25.4258 13.0078L25.2617 13.0078ZM28.4062 13L28.4062 10.1836L29.0176 10.1836L29.0176 11.1367L29.4688 11.1367Q29.9336 11.1367 30.2012 11.3955Q30.4688 11.6543 30.4688 12.0684Q30.4688 12.4766 30.1992 12.7383Q29.9297 13 29.4863 13L28.4062 13ZM29.0176 12.4766L29.4141 12.4766Q29.6133 12.4766 29.7314 12.3643Q29.8496 12.252 29.8496 12.0684Q29.8496 11.8789 29.7344 11.7715Q29.6191 11.6641 29.4141 11.6641L29.0176 11.6641L29.0176 12.4766ZM30.7852 11.5918Q30.7852 11.1621 30.9531 10.8301Q31.1211 10.498 31.4199 10.3174Q31.7188 10.1367 32.1016 10.1367Q32.3711 10.1367 32.5928 10.2168Q32.8145 10.2969 32.9639 10.4365Q33.1133 10.5762 33.2041 10.7578Q33.2949 10.9395 33.3203 11.1523L32.7129 11.1523Q32.6602 10.9492 32.5049 10.8164Q32.3496 10.6836 32.1016 10.6836Q31.7949 10.6836 31.6025 10.9316Q31.4102 11.1797 31.4102 11.5918Q31.4102 11.998 31.6006 12.249Q31.791 12.5 32.1055 12.5Q32.2422 12.5 32.3555 12.4561Q32.4688 12.4121 32.542 12.3408Q32.6152 12.2695 32.6592 12.1895Q32.7031 12.1094 32.7168 12.0273L33.3242 12.0273Q33.3145 12.1738 33.2637 12.3154Q33.2129 12.457 33.1133 12.5908Q33.0137 12.7246 32.875 12.8252Q32.7363 12.9258 32.5361 12.9873Q32.3359 13.0488 32.1016 13.0488Q31.8223 13.0488 31.582 12.9473Q31.3418 12.8457 31.165 12.6621Q30.9883 12.4785 30.8867 12.2021Q30.7852 11.9258 30.7852 11.5918ZM33.543 10.7285L33.543 10.1836L35.832 10.1836L35.832 10.7285L34.9961 10.7285L34.9961 13L34.3848 13L34.3848 10.7285L33.543 10.7285ZM36.252 13L36.252 10.1836L37.3867 10.1836Q37.6055 10.1836 37.7783 10.2412Q37.9512 10.2988 38.0586 10.4004Q38.166 10.502 38.2227 10.6338Q38.2793 10.7656 38.2793 10.9199Q38.2793 11.1484 38.1729 11.3018Q38.0664 11.4551 37.9102 11.5234Q38.1016 11.5801 38.2441 11.749Q38.3867 11.918 38.3867 12.1914Q38.3867 12.5488 38.1299 12.7744Q37.873 13 37.4355 13L36.252 13ZM36.8594 12.4922L37.3555 12.4922Q37.543 12.4922 37.6553 12.4004Q37.7676 12.3086 37.7676 12.1484Q37.7676 11.9863 37.6572 11.8936Q37.5469 11.8008 37.3594 11.8008L36.8594 11.8008L36.8594 12.4922ZM36.8594 11.3242L37.3066 11.3242Q37.4785 11.3242 37.5703 11.2354Q37.6621 11.1465 37.6621 11.0078Q37.6621 10.8574 37.5664 10.7744Q37.4707 10.6914 37.291 10.6914L36.8594 10.6914L36.8594 11.3242ZM38.877 12.3535Q38.707 12.0215 38.707 11.5918Q38.707 11.1621 38.877 10.8301Q39.0469 10.498 39.3535 10.3174Q39.6602 10.1367 40.0547 10.1367Q40.4492 10.1367 40.7559 10.3174Q41.0625 10.498 41.2324 10.8301Q41.4023 11.1621 41.4023 11.5918Q41.4023 12.0215 41.2324 12.3535Q41.0625 12.6855 40.7559 12.8672Q40.4492 13.0488 40.0547 13.0488Q39.6602 13.0488 39.3535 12.8672Q39.0469 12.6855 38.877 12.3535ZM39.5264 10.9365Q39.332 11.1895 39.332 11.5918Q39.332 11.9941 39.5264 12.2471Q39.7207 12.5 40.0547 12.5Q40.3887 12.5 40.584 12.2461Q40.7793 11.9922 40.7793 11.5918Q40.7793 11.1914 40.584 10.9375Q40.3887 10.6836 40.0547 10.6836Q39.7207 10.6836 39.5264 10.9365Z" fill-rule="evenodd" fill="#6C6E7C"/>
</svg>