<?xml version="1.0" encoding="utf-8"?><svg viewBox="0 0 800 800" xmlns="http://www.w3.org/2000/svg" xmlns:xlink="http://www.w3.org/1999/xlink"><style>:root>svg{display:none}:root>svg:target{display:block}</style><svg viewBox="0 0 24 24" id="ChatCircleDots" xmlns="http://www.w3.org/2000/svg"><path d="M19.675 2.758A11.936 11.936 0 0010.474.1 12 12 0 0012.018 24H19a5.006 5.006 0 005-5v-7.754a12.044 12.044 0 00-4.325-8.488zM8 7h4a1 1 0 010 2H8a1 1 0 010-2zm8 10H8a1 1 0 010-2h8a1 1 0 010 2zm0-4H8a1 1 0 010-2h8a1 1 0 010 2z"/></svg><svg viewBox="0 0 20 20" id="ChatCircleDots-2" xmlns="http://www.w3.org/2000/svg"><path d="M0 0h20v20H0z"/><path d="M3.547 13.828a7.492 7.492 0 112.625 2.625l-2.594.734a.617.617 0 01-.765-.765l.734-2.594z"/><path d="M10 10.781a.781.781 0 100-1.562.781.781 0 000 1.562zm3.75 0a.781.781 0 100-1.562.781.781 0 000 1.562zm-7.5 0a.781.781 0 100-1.562.781.781 0 000 1.562z"/></svg><svg viewBox="0 0 18 17" id="VideoCamera" xmlns="http://www.w3.org/2000/svg"><path d="M2.094 3.984h8.5a2.125 2.125 0 012.125 2.125v6.375a.531.531 0 01-.531.532h-8.5a2.125 2.125 0 01-2.126-2.125V4.516a.531.531 0 01.532-.532z"/><path d="M12.719 7.438l3.719-2.125v6.375l-3.72-2.126"/></svg><svg viewBox="0 0 24 24" data-name="Layer 1" id="add" xmlns="http://www.w3.org/2000/svg"><path d="M12 0a12 12 0 1012 12A12.013 12.013 0 0012 0zm0 21a9 9 0 119-9 9.01 9.01 0 01-9 9zm5-9a1.5 1.5 0 01-1.5 1.5h-2v2a1.5 1.5 0 01-3 0v-2h-2a1.5 1.5 0 010-3h2v-2a1.5 1.5 0 013 0v2h2A1.5 1.5 0 0117 12z"/></svg><svg viewBox="0 0 12 12" id="application" xmlns="http://www.w3.org/2000/svg"><path d="M7.2 3.5V.23c.555.175 1.06.446 1.479.795l2.09 1.743c.42.35.745.77.955 1.232H7.8a.666.666 0 01-.424-.146A.462.462 0 017.2 3.5zM12 5.242V9.5c-.001.663-.317 1.298-.88 1.767-.562.469-1.325.732-2.12.733H3c-.795 0-1.558-.264-2.12-.733C.317 10.798 0 10.163 0 9.5v-7C.001 1.837.317 1.202.88.733 1.442.264 2.205.001 3 0h2.709c.098 0 .194.006.291.012V3.5c0 .398.19.78.527 1.06.338.282.796.44 1.273.44h4.186c.006.08.014.161.014.242zM8.834 7.155a.66.66 0 00-.42-.154.671.671 0 00-.427.137l-2.16 1.716a.62.62 0 01-.203.111.708.708 0 01-.476-.01.605.605 0 01-.195-.121L4 8.127a.636.636 0 00-.202-.1A.712.712 0 003.566 8a.653.653 0 00-.414.167.49.49 0 00-.119.168.424.424 0 00-.032.194c.009.132.08.256.2.345l.926.686c.336.28.79.438 1.266.44.474.002.93-.153 1.27-.431l2.15-1.707A.467.467 0 009 7.512a.457.457 0 00-.165-.356z"/></svg><svg viewBox="0 0 12 12" id="apps" xmlns="http://www.w3.org/2000/svg"><g clip-path="url(#afa)"><path d="M2 0h1.5a2 2 0 012 2v1.5a2 2 0 01-2 2H2a2 2 0 01-2-2V2a2 2 0 012-2zm6.5 0H10a2 2 0 012 2v1.5a2 2 0 01-2 2H8.5a2 2 0 01-2-2V2a2 2 0 012-2zM2 6.5h1.5a2 2 0 012 2V10a2 2 0 01-2 2H2a2 2 0 01-2-2V8.5a2 2 0 012-2zm6.5 0H10a2 2 0 012 2V10a2 2 0 01-2 2H8.5a2 2 0 01-2-2V8.5a2 2 0 012-2z"/></g><defs><clipPath id="afa"><path d="M0 0h12v12H0z"/></clipPath></defs></svg><svg viewBox="0 0 16 16" id="archive" xmlns="http://www.w3.org/2000/svg"><path d="M1.875 2h12.25c.483 0 .875.392.875.875v1.75H1v-1.75C1 2.392 1.392 2 1.875 2z"/><path fill-rule="evenodd" clip-rule="evenodd" d="M2.75 14c-.483 0-.875-.517-.875-1V6h12.25v7c0 .483-.392 1-.875 1H2.75zM9.5 7.5H6.875a.875.875 0 000 1.75H9.5a.875.875 0 000-1.75z"/></svg><svg viewBox="0 0 20 20" id="arrow-left" xmlns="http://www.w3.org/2000/svg"><path d="M13 6.175L9.465 10 13 13.825 11.906 15l-4.62-5 4.62-5L13 6.175z"/></svg><svg viewBox="0 0 20 20" id="arrow-right" xmlns="http://www.w3.org/2000/svg"><path d="M7.143 13.68l3.534-3.825L7.143 6.03l1.093-1.175 4.62 5-4.62 5-1.093-1.175z"/></svg><svg viewBox="0 0 16 16" id="arrow-right-2" xmlns="http://www.w3.org/2000/svg"><path d="M6 3l5 5-5 5"/></svg><svg viewBox="0 0 10 5" id="arrow-small" xmlns="http://www.w3.org/2000/svg"><path d="M1.175 0L5 3.093 8.825 0 10 .957 5 5 0 .957 1.175 0z"/></svg><svg data-name="Layer 1" viewBox="0 0 24 24" id="assessment" xmlns="http://www.w3.org/2000/svg"><path d="M23.361 11.725l-6.016 6.016A4.3 4.3 0 0114.304 19H13v-1.304c0-1.14.453-2.234 1.259-3.041l6.016-6.016a2.182 2.182 0 013.086 3.086zM6 12A6 6 0 116 0a6 6 0 010 12zm-.674-3.003c.602 0 1.201-.225 1.653-.671l2.703-2.614a1 1 0 00-1.385-1.443L5.584 6.893a.374.374 0 01-.522.002L3.708 5.564a.999.999 0 10-1.4 1.428l1.354 1.332c.46.449 1.062.674 1.663.674zM15.5 9h1a1.5 1.5 0 100-3h-1a1.5 1.5 0 100 3zm4 9c-.829 0-1.5.672-1.5 1.5s-.673 1.5-1.5 1.5h-9c-.827 0-1.5-.673-1.5-1.5v-4a1.5 1.5 0 10-3 0v4C3 21.981 5.019 24 7.5 24h9c2.481 0 4.5-2.019 4.5-4.5a1.5 1.5 0 00-1.5-1.5z"/></svg><svg viewBox="0 0 24 24" data-name="Layer 1" id="bank" xmlns="http://www.w3.org/2000/svg"><path d="M24 22.5a1.5 1.5 0 01-1.5 1.5h-21a1.5 1.5 0 010-3h21a1.5 1.5 0 011.5 1.5zM.37 9.341A3.03 3.03 0 01.5 6.228a5.1 5.1 0 011.785-1.669L9.444.652a5.314 5.314 0 015.112 0l7.16 3.907A5.106 5.106 0 0123.5 6.226a3.032 3.032 0 01.134 3.115A3.126 3.126 0 0121 10.991V16h.5a1.5 1.5 0 010 3h-19a1.5 1.5 0 010-3H3v-5.009a3.126 3.126 0 01-2.63-1.65zM6 16h2v-5H6zm5-5v5h2v-5zm7 5v-5h-2v5zM3 7.887A.14.14 0 003.131 8h17.738A.145.145 0 0021 7.885a2.145 2.145 0 00-.721-.693l-7.16-3.906a2.325 2.325 0 00-2.236 0L3.722 7.192A2.1 2.1 0 003 7.887z"/></svg><svg viewBox="0 0 24 24" data-name="Layer 1" id="bank-2" xmlns="http://www.w3.org/2000/svg"><path d="M0 22h24v2H0zM24 7.909V10h-3v8h2v2H1v-2h2v-8H0V7.909a3 3 0 011.563-2.634l9-4.909a2.993 2.993 0 012.874 0l9 4.909A3 3 0 0124 7.909zM5 18h3v-8H5zm5-8v8h4v-8zm9 0h-3v8h3zm3-2.091a1 1 0 00-.521-.878l-9-4.909a1 1 0 00-.958 0l-9 4.909A1 1 0 002 7.909V8h20z"/></svg><svg viewBox="0 0 35 25" id="bank-card" xmlns="http://www.w3.org/2000/svg"><path d="M35 6H0V2.99A3 3 0 013 0h29c1.657 0 3 1.344 3 2.99V6zm0 5v11.01A3 3 0 0132 25H3c-1.657 0-3-1.344-3-2.99V11h35z"/></svg><svg viewBox="0 0 15 16" id="bolt" xmlns="http://www.w3.org/2000/svg"><g clip-path="url(#apa)"><path d="M7.025 15.5c-.204 0-.407-.046-.592-.133a1.363 1.363 0 01-.75-1.638l.975-3.229H4.36a1.874 1.874 0 01-1.797-2.418l1.89-6.25A1.864 1.864 0 016.25.5h2.308a1.625 1.625 0 011.521 2.194L9.027 5.5h1.598a1.875 1.875 0 011.552 2.928l-4 6.437a1.374 1.374 0 01-1.152.635zM6.25 1.75a.625.625 0 00-.598.444l-1.89 6.25a.625.625 0 00.598.806H7.5a.625.625 0 01.598.806l-1.216 4.027a.115.115 0 00.075.15.119.119 0 00.138-.008.116.116 0 00.03-.037l4-6.438a.625.625 0 00.05-.664.611.611 0 00-.55-.336h-2.5a.625.625 0 01-.585-.844l1.368-3.65a.375.375 0 00-.35-.506H6.25z"/></g><defs><clipPath id="apa"><path transform="translate(0 .5)" d="M0 0h15v15H0z"/></clipPath></defs></svg><svg data-name="Layer 1" viewBox="0 0 24 24" id="bonus" xmlns="http://www.w3.org/2000/svg"><path d="M14.613 9.472A2.98 2.98 0 0015 8c0-1.654-1.346-3-3-3h-1c-1.103 0-2 .897-2 2v6c0 1.103.897 2 2 2h2a3 3 0 001.613-5.528zM11 7h1a1.001 1.001 0 010 2h-1V7zm2 6h-2v-2h2a1.001 1.001 0 010 2zm10.615 5.58l-3.2-3.199A9.93 9.93 0 0022 10c0-5.514-4.486-10-10-10S2 4.486 2 10c0 1.991.591 3.843 1.598 5.403L.419 18.582a1.405 1.405 0 00-.31 1.546 1.4 1.4 0 001.317.884h1.562v1.562c0 .893.729 1.427 1.434 1.427.376 0 .72-.145.997-.42l3.944-3.944a9.927 9.927 0 002.636.364 9.97 9.97 0 002.664-.371l3.953 3.953c.275.273.619.418.995.418.705 0 1.434-.534 1.434-1.427v-1.562h1.562c.59 0 1.095-.339 1.316-.883a1.4 1.4 0 00-.31-1.548zM4.989 21.183v-2.171H2.817l2.033-2.033c.724.741 1.56 1.371 2.483 1.86l-2.345 2.345zM4 10c0-4.411 3.589-8 8-8s8 3.589 8 8-3.589 8-8 8-8-3.589-8-8zm15.046 9.011v2.171l-2.356-2.356a10.051 10.051 0 002.476-1.867l2.052 2.052h-2.172z"/></svg><svg viewBox="0 0 20 22" id="box" xmlns="http://www.w3.org/2000/svg"><path fill-rule="evenodd" d="M9.534.777a1 1 0 01.931 0l8.338 4.387a1 1 0 01.535.885v9.904a1 1 0 01-.535.885l-8.338 4.386a1 1 0 01-.93 0l-8.338-4.386a1 1 0 01-.535-.885V6.049a1 1 0 01.535-.885L9.534.777zM2.662 7.705L9 11.039v7.644L2.662 15.35V7.705zM11 18.683l6.338-3.334V7.705L11 11.039v7.644zm-1-9.378l6.19-3.256-2.021-1.064-6.19 3.257 2.02 1.063zM5.83 7.112l6.19-3.257L10 2.792 3.81 6.05l2.02 1.062z" clip-rule="evenodd"/><path fill-rule="evenodd" d="M5.101 11.867a.5.5 0 01-.269-.443V8.871a.25.25 0 01.25-.25h1.5a.25.25 0 01.25.25v3.486a.25.25 0 01-.365.222L5.1 11.867z" clip-rule="evenodd"/></svg><svg viewBox="0 0 10 10" id="briefcase" xmlns="http://www.w3.org/2000/svg"><g clip-path="url(#asa)"><path d="M7.917 1.667h-.459A2.087 2.087 0 005.417 0h-.834a2.087 2.087 0 00-2.041 1.667h-.459A2.086 2.086 0 000 3.75V5h10V3.75a2.086 2.086 0 00-2.083-2.083zm-4.507 0A1.25 1.25 0 014.583.833h.834a1.25 1.25 0 011.173.834H3.41zm2.007 4.582a.417.417 0 01-.834 0v-.417H0v2.083A2.086 2.086 0 002.083 10h5.834A2.086 2.086 0 0010 7.915V5.832H5.417v.417z"/></g><defs><clipPath id="asa"><path d="M0 0h10v10H0z"/></clipPath></defs></svg><svg viewBox="0 0 24 24" id="briefcase-2" xmlns="http://www.w3.org/2000/svg"><path d="M19 4h-1.1A5.009 5.009 0 0013 0h-2a5.009 5.009 0 00-4.9 4H5a5.006 5.006 0 00-5 5v10a5.006 5.006 0 005 5h14a5.006 5.006 0 005-5V9a5.006 5.006 0 00-5-5zm-8-2h2a3 3 0 012.816 2H8.184A3 3 0 0111 2zM5 6h14a3 3 0 013 3v3H2V9a3 3 0 013-3zm14 16H5a3 3 0 01-3-3v-5h9v1a1 1 0 002 0v-1h9v5a3 3 0 01-3 3z"/></svg><svg viewBox="0 0 24 24" id="briefcase-3" xmlns="http://www.w3.org/2000/svg"><path fill-rule="evenodd" d="M16 6l-.001.153.053.004c2.046.166 3.069.25 4.37 1.558s1.372 2.252 1.515 4.14a22 22 0 010 3.29c-.143 1.888-.214 2.832-1.515 4.14s-2.324 1.392-4.37 1.558A50 50 0 0112 21c-1.55 0-2.9-.063-4.053-.157-2.045-.166-3.068-.25-4.369-1.558s-1.372-2.251-1.515-4.138a22 22 0 010-3.294c.143-1.887.214-2.83 1.515-4.138s2.324-1.392 4.369-1.558L8 6.153V6c0-.52.043-1.02.103-1.469.109-.804.163-1.206.609-1.675s.84-.543 1.627-.69A9 9 0 0112 2c.579 0 1.151.07 1.66.166.788.147 1.182.22 1.628.69s.5.871.609 1.675c.06.449.103.95.103 1.469m-5.293-1.868C11.132 4.052 11.577 4 12 4s.868.052 1.293.132a13 13 0 01.537.11l.018.095c.02.114.038.25.067.462.05.379.085.788.085 1.201v.037a54 54 0 00-4 0V6c0-.413.034-.822.085-1.201a14 14 0 01.085-.557l.086-.021c.111-.025.244-.05.451-.09M12 15.399a1.399 1.399 0 100-2.798 1.399 1.399 0 000 2.798"/></svg><svg viewBox="0 0 15 16" id="budget" xmlns="http://www.w3.org/2000/svg"><g clip-path="url(#ava)"><path d="M10.313.5c-2.63 0-4.688 1.236-4.688 2.813v1.616a8.011 8.011 0 00-.938-.054C2.06 4.875 0 6.111 0 7.688v5C0 14.264 2.059 15.5 4.688 15.5c2.129 0 3.885-.81 4.474-1.957.374.055.76.082 1.15.082 2.63 0 4.688-1.236 4.688-2.813v-7.5C15 1.736 12.941.5 10.312.5zm3.437 7.813c0 .737-1.47 1.562-3.438 1.562-.32 0-.633-.022-.937-.064V8.57c.306.035.62.054.938.054 1.37 0 2.587-.336 3.437-.882v.57zM1.25 9.617c.85.546 2.066.882 3.438.882 1.37 0 2.587-.336 3.437-.882v.57c0 .737-1.47 1.562-3.438 1.562-1.967 0-3.437-.825-3.437-1.563v-.569zm12.5-3.806c0 .738-1.47 1.563-3.438 1.563-.334 0-.662-.024-.978-.07-.12-.554-.5-1.052-1.066-1.452a7.508 7.508 0 002.044.272c1.372 0 2.588-.336 3.438-.882v.57zM10.312 1.75c1.968 0 3.438.825 3.438 1.563 0 .737-1.47 1.562-3.438 1.562-1.967 0-3.437-.825-3.437-1.563 0-.737 1.47-1.562 3.438-1.562zM4.689 6.125c1.967 0 3.437.825 3.437 1.563 0 .737-1.47 1.562-3.438 1.562-1.967 0-3.437-.825-3.437-1.563 0-.737 1.47-1.562 3.438-1.562zm0 8.125c-1.968 0-3.438-.825-3.438-1.563v-.569c.85.546 2.066.882 3.438.882 1.37 0 2.587-.336 3.437-.882v.57c0 .737-1.47 1.562-3.438 1.562zm5.625-1.875a6.86 6.86 0 01-.938-.064v-1.24c.306.035.62.054.938.054 1.37 0 2.587-.336 3.437-.882v.57c0 .737-1.47 1.562-3.438 1.562z"/></g><defs><clipPath id="ava"><path transform="translate(0 .5)" d="M0 0h15v15H0z"/></clipPath></defs></svg><svg data-name="Layer 1" viewBox="0 0 24 24" id="bus" xmlns="http://www.w3.org/2000/svg"><path d="M22 10V4.229a2.986 2.986 0 00-1.822-2.76c-3.673-1.9-12.694-1.893-16.357 0A2.986 2.986 0 002 4.229V10H0v3a2 2 0 002 2v7h2v2h5v-2h6v2h5v-2h2v-7a2 2 0 002-2v-3zm-9 3V7h7v6zm-9 0V7h7v6zm.6-9.688A19.013 19.013 0 0112 2a19 19 0 017.4 1.312.988.988 0 01.6.917V5H4v-.771a.989.989 0 01.6-.917zM4 20v-5h2v1a1 1 0 002 0v-1h8v1a1 1 0 002 0v-1h2v5z"/></svg><svg viewBox="0 0 192 192" id="calc" xmlns="http://www.w3.org/2000/svg"><path d="M51.152 26v58.303M22 55.151h58.303m31.394 0H170m-58.303 102.031H170m-58.303-24.667H170m-139.462-8.28l41.227 41.227m-41.227 0l41.227-41.227"/></svg><svg viewBox="0 0 15 16" id="calculator" xmlns="http://www.w3.org/2000/svg"><g clip-path="url(#aya)"><path d="M11.563 15.5H3.437A3.441 3.441 0 010 12.062V3.938A3.441 3.441 0 013.438.5h8.124A3.441 3.441 0 0115 3.938v8.124a3.442 3.442 0 01-3.438 3.438zM3.437 2.375a1.562 1.562 0 00-1.562 1.563v8.124a1.563 1.563 0 001.563 1.563h8.124a1.563 1.563 0 001.563-1.563V3.938a1.563 1.563 0 00-1.563-1.563H3.438zm8.438 2.5a1.25 1.25 0 00-1.25-1.25h-6.25a1.25 1.25 0 000 2.5h6.25a1.25 1.25 0 001.25-1.25zM4.062 7.688a.937.937 0 100 1.874.937.937 0 000-1.874zm3.125 0a.937.937 0 100 1.874.937.937 0 000-1.874zM4.063 10.5a.938.938 0 100 1.875.938.938 0 000-1.875zm3.125 0a.938.938 0 100 1.875.938.938 0 000-1.875zm4.688.938a.938.938 0 00-.938-.938h-.624a.938.938 0 000 1.875h.624a.938.938 0 00.938-.938zm0-2.813a.938.938 0 00-.938-.938h-.624a.938.938 0 000 1.875h.624a.937.937 0 00.938-.937z"/></g><defs><clipPath id="aya"><path transform="translate(0 .5)" d="M0 0h15v15H0z"/></clipPath></defs></svg><svg data-name="Layer 1" viewBox="0 0 24 24" id="calendar" xmlns="http://www.w3.org/2000/svg"><path d="M19 2h-1V1c0-.55-.45-1-1-1s-1 .45-1 1v1H8V1c0-.55-.45-1-1-1S6 .45 6 1v1H5C2.24 2 0 4.24 0 7v12c0 2.76 2.24 5 5 5h14c2.76 0 5-2.24 5-5V7c0-2.76-2.24-5-5-5zm-8 7v3H8V9h3zm5 0v3h-3V9h3zm6 0v3h-4V9h4zM6 12H2V9h4v3zm-4 2h4v3H2v-3zm6 0h3v3H8v-3zm3 5v3H8v-3h3zm2 0h3v3h-3v-3zm0-2v-3h3v3h-3zm5-3h4v3h-4v-3zM5 4h14c1.65 0 3 1.35 3 3H2c0-1.65 1.35-3 3-3zM2 19h4v3H5c-1.65 0-3-1.35-3-3zm17 3h-1v-3h4c0 1.65-1.35 3-3 3z"/></svg><svg viewBox="0 0 12 12" id="calendar-lines-pen" xmlns="http://www.w3.org/2000/svg"><path d="M12 4H0v-.5C0 2.122 1.121 1 2.5 1H3V.5a.5.5 0 111 0V1h4V.5a.5.5 0 111 0V1h.5C10.879 1 12 2.122 12 3.5V4zm-7 7.273c0-.447.093-.877.268-1.273H3a.5.5 0 110-1h2.96l1-1H3a.5.5 0 110-1h4.961l1.37-1.37c.407-.407.946-.63 1.52-.63H0v4.5C0 10.879 1.121 12 2.5 12H5v-.727zm5.039-4.936a1.15 1.15 0 011.625 1.625L8.26 11.364A2.167 2.167 0 016.728 12H6v-.727c0-.575.229-1.127.635-1.533l3.404-3.404z"/></svg><svg data-name="Layer 1" viewBox="0 0 24 24" id="car" xmlns="http://www.w3.org/2000/svg"><path d="M24 13a3 3 0 00-3-3h-.478L15.84 3.285A3 3 0 0013.379 2h-7a3.016 3.016 0 00-2.804 1.937l-2.6 6.848A2.994 2.994 0 000 13v5h2v.5a3.5 3.5 0 007 0V18h6v.5a3.5 3.5 0 007 0V18h2zm-9.8-8.572L18.084 10H11V4h2.379a1 1 0 01.821.428zm-8.753.217A1 1 0 016.381 4H9v6H3.416zM7 18.5a1.5 1.5 0 01-3 0V18h3zm13 0a1.5 1.5 0 01-3 0V18h3zm2-2.5H2v-3a1 1 0 011-1h18a1 1 0 011 1z"/></svg><svg data-name="Layer 1" viewBox="0 0 24 24" id="car2" xmlns="http://www.w3.org/2000/svg"><path d="M20.418 2.975A3.008 3.008 0 0017.6 1H6.4a3.008 3.008 0 00-2.818 1.975L1.438 8.869A23.785 23.785 0 000 17.031V19h2v4h6v-4h8v4h6v-4h2v-1.969a23.785 23.785 0 00-1.438-8.162zm-14.957.683A1 1 0 016.4 3h11.2a1 1 0 01.939.658l2.144 5.9c.173.477.317.962.456 1.447H2.861c.139-.485.283-.97.456-1.447zM6 21H4v-2h2zm14 0h-2v-2h2zM2 17a21.9 21.9 0 01.382-4H4v1a1 1 0 001 1 1 1 0 001-1v-1h12v1a1 1 0 001 1 1 1 0 001-1v-1h1.618A21.9 21.9 0 0122 17z"/></svg><svg data-name="Layer 1" viewBox="0 0 24 24" id="cart-1" xmlns="http://www.w3.org/2000/svg"><path d="M23.32 6.35A3.467 3.467 0 0020.56 5H8.48l-.26-1.96A3.512 3.512 0 004.75 0H4.5C3.67 0 3 .67 3 1.5S3.67 3 4.5 3h.25c.25 0 .46.19.5.43l1.54 11.53A3.512 3.512 0 0010.26 18h7.25c2.53 0 4.72-1.71 5.34-4.17l1.12-4.49c.26-1.05.03-2.15-.64-3zm-2.27 2.27l-1.12 4.49A2.504 2.504 0 0117.5 15h-7.25c-.25 0-.46-.19-.5-.43L8.87 8h11.68c.21 0 .34.12.39.19.06.07.14.22.09.43zM0 7.5C0 6.67.67 6 1.5 6h1C3.33 6 4 6.67 4 7.5S3.33 9 2.5 9h-1C.67 9 0 8.33 0 7.5zm5 8c0 .83-.67 1.5-1.5 1.5h-2C.67 17 0 16.33 0 15.5S.67 14 1.5 14h2c.83 0 1.5.67 1.5 1.5zm6 6.5c0 1.1-.9 2-2 2s-2-.9-2-2 .9-2 2-2 2 .9 2 2zm9 0c0 1.1-.9 2-2 2s-2-.9-2-2 .9-2 2-2 2 .9 2 2zM0 11.5c0-.83.67-1.5 1.5-1.5h1.46c.83 0 1.5.67 1.5 1.5S3.79 13 2.96 13H1.5C.67 13 0 12.33 0 11.5z"/></svg><svg viewBox="0 0 24 24" id="cart-3" xmlns="http://www.w3.org/2000/svg"><circle cx="7" cy="22" r="2"/><circle cx="17" cy="22" r="2"/><path d="M19.75 13.163A2.5 2.5 0 0117.34 15H7.217a.329.329 0 01-.325-.3L6.036 8H9.5A1.5 1.5 0 0011 6.5 1.5 1.5 0 009.5 5H5.653l-.262-2.061A3.327 3.327 0 002.087 0H1.5a1.5 1.5 0 000 3h.587a.329.329 0 01.325.3l1.5 11.76A3.327 3.327 0 007.217 18h10.122a5.5 5.5 0 005.3-4.042l.016-.06A1.5 1.5 0 0021.213 12a1.5 1.5 0 00-1.446 1.1z"/><path d="M21.413 2.487l-4.294 4.294-.851-.881a1.5 1.5 0 00-2.163 2.079l1.263 1.314a2.4 2.4 0 001.7.754h.04a2.407 2.407 0 001.691-.7l4.734-4.735a1.5 1.5 0 10-2.121-2.121z"/></svg><svg data-name="Layer 1" viewBox="0 0 24 24" id="chalkboard-user" xmlns="http://www.w3.org/2000/svg"><path d="M3 10.5a3.5 3.5 0 117 0 3.5 3.5 0 01-7 0zM6.5 16A6.508 6.508 0 000 22.5a1.5 1.5 0 103 0C3 20.57 4.57 19 6.5 19s3.5 1.57 3.5 3.5a1.5 1.5 0 103 0c0-3.584-2.916-6.5-6.5-6.5zm12-16H9.965a5.518 5.518 0 00-4.763 2.749 1.5 1.5 0 002.596 1.502A2.511 2.511 0 019.965 3H18.5C19.878 3 21 4.121 21 5.5v8c0 1.379-1.122 2.5-2.5 2.5H18v-.5a1.5 1.5 0 00-1.5-1.5h-2a1.5 1.5 0 00-1.5 1.5v2a1.5 1.5 0 001.5 1.5h4c3.033 0 5.5-2.468 5.5-5.5v-8C24 2.468 21.533 0 18.5 0z"/></svg><svg data-name="Isolation Mode" viewBox="0 0 24 24" id="chat" xmlns="http://www.w3.org/2000/svg"><path d="M24 24H12.017A12 12 0 1124 11.246v.094zM12.017 3a9 9 0 100 18H21v-9.611A9.015 9.015 0 0012.017 3z"/><path d="M8 8h6v3H8zm0 6h10v3H8z"/></svg><svg viewBox="0 0 21 20" id="check" xmlns="http://www.w3.org/2000/svg"><path d="M6.675 7l3.825 3.535L14.325 7 15.5 8.094l-5 4.62-5-4.62L6.675 7z"/></svg><svg viewBox="0 0 20 21" id="check-circle" xmlns="http://www.w3.org/2000/svg"><path fill-rule="evenodd" clip-rule="evenodd" d="M13.98 8.107a.75.75 0 01-.025 1.06L9.37 13.544a.75.75 0 01-1.036 0l-2.289-2.188a.75.75 0 111.037-1.085l1.771 1.693 4.068-3.88a.75.75 0 011.06.024z"/><path fill-rule="evenodd" clip-rule="evenodd" d="M10 3.75a6.75 6.75 0 100 13.5 6.75 6.75 0 000-13.5zM1.75 10.5a8.25 8.25 0 1116.5 0 8.25 8.25 0 01-16.5 0z"/></svg><svg viewBox="0 0 5 8" id="check-right" xmlns="http://www.w3.org/2000/svg"><path d="M0 7.06L3.093 4 0 .94.957 0 5 4 .957 8 0 7.06z"/></svg><svg viewBox="0 0 20 20" id="clock" xmlns="http://www.w3.org/2000/svg"><path d="M10 17.5a7.5 7.5 0 100-15 7.5 7.5 0 000 15z"/><path d="M10 5.625V10h4.375"/></svg><svg viewBox="0 0 9 9" id="close" xmlns="http://www.w3.org/2000/svg"><path d="M7.031 1.969L1.97 7.03m5.061.001L1.97 1.97"/></svg><svg data-name="Layer 1" viewBox="0 0 24 24" id="coin-2" xmlns="http://www.w3.org/2000/svg"><path d="M16.5 0C12.294 0 9 1.977 9 4.5v2.587A12.829 12.829 0 007.5 7C3.294 7 0 8.977 0 11.5v8C0 22.023 3.294 24 7.5 24c3.416 0 6.231-1.304 7.167-3.146.597.087 1.207.146 1.833.146 4.206 0 7.5-1.977 7.5-4.5v-12C24 1.977 20.706 0 16.5 0zm0 2C19.648 2 22 3.32 22 4.5S19.648 7 16.5 7 11 5.68 11 4.5 13.352 2 16.5 2zm-9 7c3.148 0 5.5 1.32 5.5 2.5S10.648 14 7.5 14 2 12.68 2 11.5 4.352 9 7.5 9zM2 14.582C3.36 15.457 5.303 16 7.5 16s4.14-.543 5.5-1.418v.918c0 1.18-2.352 2.5-5.5 2.5S2 16.68 2 15.5v-.918zM7.5 22C4.352 22 2 20.68 2 19.5v-.918C3.36 19.457 5.303 20 7.5 20s4.14-.543 5.5-1.418v.918c0 1.18-2.352 2.5-5.5 2.5zm9-3c-.514 0-1.012-.047-1.5-.116v-1.98c.492.058.99.096 1.5.096 2.197 0 4.14-.543 5.5-1.418v.918c0 1.18-2.352 2.5-5.5 2.5zm0-4c-.514 0-1.012-.047-1.5-.116v-1.98c.492.058.99.096 1.5.096 2.197 0 4.14-.543 5.5-1.418v.918c0 1.18-2.352 2.5-5.5 2.5zm0-4c-.542 0-1.066-.051-1.578-.127-.198-.887-.809-1.684-1.721-2.321.992.285 2.106.449 3.299.449 2.197 0 4.14-.543 5.5-1.418v.918c0 1.18-2.352 2.5-5.5 2.5z"/></svg><svg data-name="Layer 1" viewBox="0 0 24 24" id="comment" xmlns="http://www.w3.org/2000/svg"><path d="M13.5 12a1.5 1.5 0 11-3.001-.001A1.5 1.5 0 0113.5 12zm3.5-1.5a1.5 1.5 0 10.001 3.001A1.5 1.5 0 0017 10.5zm-10 0a1.5 1.5 0 10.001 3.001A1.5 1.5 0 007 10.5zm17 1.84V19c0 2.757-2.243 5-5 5h-5.917C6.082 24 .47 19.208.03 12.854c-.241-3.476 1.027-6.878 3.479-9.333S9.363-.206 12.836.029C19.096.454 24 5.862 24 12.341zm-2 0c0-5.431-4.084-9.962-9.299-10.316a10.015 10.015 0 00-7.777 2.91 10.019 10.019 0 00-2.899 7.782c.373 5.38 5.024 9.285 11.059 9.285h5.917c1.654 0 3-1.346 3-3v-6.66z"/></svg><svg data-name="Layer 1" viewBox="0 0 24 24" id="comments-question" xmlns="http://www.w3.org/2000/svg"><path d="M9 11a1 1 0 01-1-1c0-1.308 1.038-1.879 1.481-2.123.29-.159.595-.535.502-1.066a1.003 1.003 0 00-.793-.793.992.992 0 00-.832.216.995.995 0 00-.358.767 1 1 0 11-2 0 2.996 2.996 0 013.535-2.952 3.023 3.023 0 012.417 2.417 3.016 3.016 0 01-1.506 3.164c-.447.246-.447.318-.447.371a1 1 0 01-1 1zm0 1a1.25 1.25 0 100 2.5A1.25 1.25 0 009 12zm10.996-2.92a10.968 10.968 0 01-.248 2.242A5.988 5.988 0 0122 16v5a1 1 0 01-1 1h-5a5.988 5.988 0 01-4.678-2.252c-.724.156-1.473.242-2.242.248C10.465 22.385 13.045 24 16 24h5a3 3 0 003-3v-5c0-2.955-1.615-5.535-4.004-6.92zm-2.019.571c.185-2.613-.768-5.17-2.613-7.016S10.964-.167 8.349.023C3.823.343 0 4.589 0 9.296v5.038A3.668 3.668 0 003.661 18h4.477c5.187 0 9.509-3.667 9.839-8.349zM13.95 4.05a7.015 7.015 0 012.033 5.46c-.253 3.578-3.772 6.489-7.845 6.489H3.661A1.665 1.665 0 012 14.333V9.295c0-3.696 2.972-7.029 6.49-7.278a7.005 7.005 0 015.46 2.033z"/></svg><svg viewBox="0 0 16 13" id="comparison" xmlns="http://www.w3.org/2000/svg"><path d="M0 1a1 1 0 011-1h13a1 1 0 110 2H1a1 1 0 01-1-1m1 4a1 1 0 000 2h5a1 1 0 000-2zm0 5a1 1 0 100 2h3a1 1 0 100-2zm7-1a1 1 0 011-1h2V6a1 1 0 112 0v2h2a1 1 0 110 2h-2v2a1 1 0 11-2 0v-2H9a1 1 0 01-1-1"/></svg><svg viewBox="0 0 14 12" id="comparison-active" xmlns="http://www.w3.org/2000/svg"><path d="M0 1a1 1 0 011-1h12a1 1 0 110 2H1a1 1 0 01-1-1m1 4a1 1 0 000 2h4a1 1 0 100-2zm-1 6a1 1 0 011-1h2a1 1 0 110 2H1a1 1 0 01-1-1m9.707.707l4-4a1 1 0 00-1.414-1.414L9 9.586 7.707 8.293a1 1 0 00-1.414 1.414l2 2a1 1 0 001.414 0z"/></svg><svg viewBox="0 0 20 20" id="complain" xmlns="http://www.w3.org/2000/svg"><path d="M9.167 10.832v-5c0-.458.375-.833.833-.833.458 0 .833.375.833.833v5a.836.836 0 01-.833.833.836.836 0 01-.833-.833zM10 12.499c-.692 0-1.25.558-1.25 1.25a1.25 1.25 0 101.25-1.25zm9.65 4.066c-.583 1.125-1.808 1.767-3.342 1.767H3.7c-1.542 0-2.758-.642-3.342-1.767-.591-1.133-.425-2.583.417-3.8l6.7-10.6A3.06 3.06 0 0110 .832c1 0 1.933.483 2.5 1.308l6.733 10.642c.842 1.217 1 2.658.409 3.783h.008zm-1.792-2.85s-.017-.016-.017-.033L11.117 3.057A1.366 1.366 0 0010 2.499a1.36 1.36 0 00-1.133.591L2.158 13.682c-.516.733-.633 1.533-.333 2.108.292.567.958.875 1.867.875h12.6c.908 0 1.574-.308 1.866-.875.3-.575.183-1.375-.308-2.075h.008z"/></svg><svg viewBox="0 0 12 13" id="crosshair" xmlns="http://www.w3.org/2000/svg"><path d="M6 10.625a4.125 4.125 0 100-8.25 4.125 4.125 0 000 8.25zm0-9.187v1.875M.938 6.5h1.875M6 11.563V9.687M11.063 6.5H9.187"/><path d="M6 8a1.5 1.5 0 100-3 1.5 1.5 0 000 3z"/></svg><svg viewBox="0 0 15 14" id="crown" xmlns="http://www.w3.org/2000/svg"><g clip-path="url(#bta)"><path d="M14.229 1.538a1.102 1.102 0 00-.723-.082 1.208 1.208 0 00-.64.392L11.25 3.697 8.384.419A1.176 1.176 0 007.5 0c-.331 0-.65.15-.884.419L3.75 3.697 2.134 1.848a1.21 1.21 0 00-.64-.39 1.105 1.105 0 00-.722.08 1.303 1.303 0 00-.561.527A1.58 1.58 0 000 2.859v7.567c.001.947.33 1.856.916 2.526.586.67 1.38 1.047 2.209 1.048h8.75c.829-.001 1.623-.378 2.209-1.048.585-.67.915-1.579.916-2.526V2.859c0-.283-.073-.56-.21-.794a1.303 1.303 0 00-.561-.527z"/></g><defs><clipPath id="bta"><path d="M0 0h15v14H0z"/></clipPath></defs></svg><svg viewBox="0 0 24 24" id="dislike" xmlns="http://www.w3.org/2000/svg"><path d="M23.951 12.3l-.705-5A5.024 5.024 0 0018.3 3H5a5.006 5.006 0 00-5 5v5a5.006 5.006 0 005 5h2.712l1.914 3.878a3.037 3.037 0 005.721-1.837L15.011 18H19a5 5 0 004.951-5.7zM5 5h2v11H5a3 3 0 01-3-3V8a3 3 0 013-3zm16.264 9.968A3 3 0 0119 16h-5.167a1 1 0 00-.987 1.162l.528 3.2a1.024 1.024 0 01-.233.84 1.07 1.07 0 01-1.722-.212L9.23 16.558a1 1 0 00-.23-.292V5h9.3a3.012 3.012 0 012.97 2.581l.706 5a3 3 0 01-.712 2.387z"/></svg><svg viewBox="0 0 15 16" id="dollar" xmlns="http://www.w3.org/2000/svg"><g clip-path="url(#bva)"><path d="M10 14.875c0 .345-.28.625-.625.625H3.75a3.129 3.129 0 01-3.125-3.125v-8.75A3.129 3.129 0 013.75.5h2.822a4.35 4.35 0 013.094 1.281l2.177 2.179c.17.17.327.355.468.552a.625.625 0 11-1.017.726c-.1-.14-.213-.274-.334-.394L8.782 2.666a3.132 3.132 0 00-.657-.503v2.712c0 .344.28.625.625.625h1.875a.625.625 0 110 1.25H8.75a1.877 1.877 0 01-1.875-1.875v-3.11a3.25 3.25 0 00-.303-.015H3.75a1.877 1.877 0 00-1.875 1.875v8.75c0 1.034.841 1.875 1.875 1.875h5.625c.346 0 .625.28.625.625zm3.553-4.208l-1.9-.317a.48.48 0 01-.403-.475c0-.344.28-.625.625-.625h1.418c.222 0 .43.12.541.313a.624.624 0 101.082-.626 1.88 1.88 0 00-1.624-.938h-.168v-.625a.625.625 0 10-1.25 0V8A1.877 1.877 0 0010 9.874c0 .85.61 1.57 1.447 1.708l1.9.317a.48.48 0 01.403.475c0 .345-.28.625-.625.625h-1.417a.63.63 0 01-.542-.312.623.623 0 10-1.081.626 1.88 1.88 0 001.623.936h.168v.625a.625.625 0 101.25 0v-.625A1.877 1.877 0 0015 12.374c0-.85-.609-1.568-1.447-1.707zm-8.866-.792h3.438a.625.625 0 100-1.25H4.687c-.86 0-1.562.701-1.562 1.563v1.25c0 .86.701 1.562 1.563 1.562h3.437a.625.625 0 100-1.25H4.687a.313.313 0 01-.312-.313v-1.25c0-.172.14-.312.313-.312zm-.937-2.5H5a.625.625 0 000-1.25H3.75a.625.625 0 000 1.25zm0-2.5H5a.625.625 0 000-1.25H3.75a.625.625 0 000 1.25z"/></g><defs><clipPath id="bva"><path transform="translate(0 .5)" d="M0 0h15v15H0z"/></clipPath></defs></svg><svg viewBox="0 0 12 12" id="donate" xmlns="http://www.w3.org/2000/svg"><g clip-path="url(#bwa)"><path d="M12 10.25c0 .965-.785 1.75-1.75 1.75h-8.5c-1.976-.005-2.403-2.806-.543-3.405 2.262 3.175 7.324 3.174 9.585 0 .699.23 1.208.881 1.208 1.655zM11 5c0 2.757-2.243 5-5 5C-.624 9.748-.622.25 6 0c2.757 0 5 2.243 5 5zM8 6c0-.68-.487-1.255-1.158-1.367l-1.52-.253c-.544-.105-.32-.913.178-.88h1.134a.5.5 0 01.433.25.499.499 0 10.866-.5 1.505 1.505 0 00-1.3-.75H6.5V2c-.003-.654-.998-.653-1 0v.5c-1.718-.01-2.092 2.542-.343 2.867l1.52.253c.544.105.321.912-.177.88H5.366a.502.502 0 01-.434-.25.499.499 0 10-.865.5c.267.463.765.75 1.299.75H5.5V8c.003.654.997.653 1 0v-.5C7.327 7.5 8 6.827 8 6z"/></g><defs><clipPath id="bwa"><path d="M0 0h12v12H0z"/></clipPath></defs></svg><svg data-name="Layer 1" viewBox="0 0 24 24" id="door-open" xmlns="http://www.w3.org/2000/svg"><path d="M22.5 21H21V6.5C21 4.019 18.981 2 16.5 2h-1.258a4.502 4.502 0 00-.889-.979 4.474 4.474 0 00-3.736-.932l-3.598.72a5.013 5.013 0 00-4.02 4.902V21H1.5a1.5 1.5 0 100 3h21a1.5 1.5 0 100-3zM18 6.5V21h-2V5h.5c.827 0 1.5.673 1.5 1.5zM6 5.711c0-.95.676-1.774 1.608-1.961l3.598-.72c.444-.087.897.025 1.246.312.349.285.549.708.549 1.159V21H6V5.711zm6 6.789a1.5 1.5 0 11-3.001-.001A1.5 1.5 0 0112 12.5z"/></svg><svg viewBox="0 0 12 14" id="dots-vertical" xmlns="http://www.w3.org/2000/svg"><g clip-path="url(#bya)"><path d="M6.5 4a1.5 1.5 0 100-3 1.5 1.5 0 000 3zm0 4.5a1.5 1.5 0 100-3 1.5 1.5 0 000 3zm0 5a1.5 1.5 0 100-3 1.5 1.5 0 000 3z"/></g><defs><clipPath id="bya"><path transform="translate(0 .5)" d="M0 0h12v13H0z"/></clipPath></defs></svg><svg class="bzbase-0-2-8" data-test-id="emoji-icon" viewBox="0 0 16 16" id="emoji" xmlns="http://www.w3.org/2000/svg"><path fill-rule="evenodd" d="M8 0c4.415 0 8 3.585 8 8s-3.585 8-8 8-8-3.585-8-8 3.585-8 8-8zm0 2c3.312 0 6 2.688 6 6s-2.688 6-6 6-6-2.688-6-6 2.688-6 6-6zM5.516 9c.519.944 1.438 1.573 2.484 1.573.987 0 1.861-.559 2.391-1.415l.002-.003a.736.736 0 011.33.619l-.131.353c-.797 1.286-2.11 2.126-3.592 2.126-1.572 0-2.952-.944-3.73-2.363l-.1-.273A.743.743 0 015.516 9zM7 6a1 1 0 00-2 0v1a1 1 0 002 0V6zm4 0a1 1 0 00-2 0v1a1 1 0 002 0V6z"/></svg><svg viewBox="0 0 15 16" id="envelope" xmlns="http://www.w3.org/2000/svg"><path d="M14.971 3.963L9.71 9.224a3.13 3.13 0 01-4.42 0L.029 3.963C.02 4.062 0 4.15 0 4.249v7.5a3.13 3.13 0 003.125 3.125h8.75A3.129 3.129 0 0015 11.75v-7.5c0-.098-.02-.187-.029-.286z"/><path d="M8.826 8.341l5.709-5.71a3.115 3.115 0 00-2.66-1.506h-8.75a3.116 3.116 0 00-2.66 1.507l5.709 5.71a1.88 1.88 0 002.652 0z"/></svg><svg viewBox="0 0 14 14" id="eye" xmlns="http://www.w3.org/2000/svg"><path d="M7 9.333a2.332 2.332 0 100-4.665 2.332 2.332 0 000 4.665z"/><path d="M13.572 5.495C12.668 4.022 10.611 1.551 7 1.551c-3.61 0-5.668 2.471-6.572 3.944a2.862 2.862 0 000 3.01C1.332 9.978 3.389 12.45 7 12.45c3.61 0 5.668-2.471 6.572-3.944.57-.922.57-2.088 0-3.01zM7 10.499A3.499 3.499 0 117 3.5a3.499 3.499 0 010 7z"/></svg><svg viewBox="0 0 24 24" id="eye-stroke" xmlns="http://www.w3.org/2000/svg"><path d="M23.271 9.419C21.72 6.893 18.192 2.655 12 2.655S2.28 6.893.729 9.419a4.908 4.908 0 000 5.162C2.28 17.107 5.808 21.345 12 21.345s9.72-4.238 11.271-6.764a4.908 4.908 0 000-5.162zm-1.705 4.115C20.234 15.7 17.219 19.345 12 19.345S3.766 15.7 2.434 13.534a2.918 2.918 0 010-3.068C3.766 8.3 6.781 4.655 12 4.655s8.234 3.641 9.566 5.811a2.918 2.918 0 010 3.068z"/><path d="M12 7a5 5 0 105 5 5.006 5.006 0 00-5-5zm0 8a3 3 0 113-3 3 3 0 01-3 3z"/></svg><svg viewBox="0 0 24 24" id="favorite" xmlns="http://www.w3.org/2000/svg"><path d="M17.5 1.917a6.4 6.4 0 00-5.5 3.3 6.4 6.4 0 00-5.5-3.3A6.8 6.8 0 000 8.967c0 4.547 4.786 9.513 8.8 12.88a4.974 4.974 0 006.4 0c4.014-3.367 8.8-8.333 8.8-12.88a6.8 6.8 0 00-6.5-7.05z"/></svg><svg viewBox="0 0 24 24" id="favorite-stroke" xmlns="http://www.w3.org/2000/svg"><path d="M17.25 1.851A6.568 6.568 0 0012 4.558a6.568 6.568 0 00-5.25-2.707A7.035 7.035 0 000 9.126c0 4.552 4.674 9.425 8.6 12.712a5.29 5.29 0 006.809 0c3.922-3.287 8.6-8.16 8.6-12.712a7.035 7.035 0 00-6.759-7.275zm-3.773 17.688a2.294 2.294 0 01-2.955 0C5.742 15.531 3 11.736 3 9.126a4.043 4.043 0 013.75-4.275 4.043 4.043 0 013.75 4.275 1.5 1.5 0 003 0 4.043 4.043 0 013.75-4.275A4.043 4.043 0 0121 9.126c0 2.61-2.742 6.405-7.523 10.413z"/></svg><svg viewBox="0 0 21 20" id="filter" xmlns="http://www.w3.org/2000/svg"><path d="M12.063 13.438H3.624m13.751 0h-2.188M13.625 15a1.563 1.563 0 100-3.125 1.563 1.563 0 000 3.125zM7.063 6.563H3.624m13.751 0h-7.188M8.625 8.125a1.563 1.563 0 100-3.125 1.563 1.563 0 000 3.125z"/></svg><svg viewBox="0 0 16 16" id="finger" xmlns="http://www.w3.org/2000/svg"><path d="M9.58 6.692l-.013.008a.869.869 0 00-.42.486c-.294-.275-.72-.36-1.07-.177a.883.883 0 00-.434.551c-.287-.215-.663-.265-.978-.1l-.015.008a.822.822 0 00-.382.407L5.195 5.833c-.26-.494-.84-.7-1.292-.464-.45.237-.608.832-.35 1.325l2.125 4.054-.367-.163a1.248 1.248 0 00-1.014-.015 1.214 1.214 0 00-.664.734l-.106.266a.205.205 0 00.072.241l3.83 2.745c.7.502 1.574.585 2.28.214l2.11-1.107-.002-.002c1.07-.562 1.432-1.98.813-3.16-.278-.53-.486-.922-.654-1.241-.447-.855-.614-1.17-1.11-2.11-.26-.491-.835-.694-1.285-.458zM8.135 2.824c1.158 0 2.145.33 2.804.792.096.068.116.086.184.15l.007.006c.057.053.137.128.28.253a.91.91 0 001.59-.61.91.91 0 00-.274-.652C11.722 1.68 10.022 1 8.135 1s-3.587.68-4.59 1.763a.91.91 0 00.637 1.564.91.91 0 00.678-.302c.143-.125.223-.2.28-.253l.007-.006c.068-.064.088-.082.184-.15.66-.461 1.647-.792 2.804-.792z"/></svg><svg data-name="Layer 1" viewBox="0 0 24 24" id="fingerprint" xmlns="http://www.w3.org/2000/svg"><path d="M17 0H7C4.243 0 2 2.243 2 5v14c0 2.757 2.243 5 5 5h10c2.757 0 5-2.243 5-5V5c0-2.757-2.243-5-5-5zM7.5 4.5a1.5 1.5 0 11-.001 3.001A1.5 1.5 0 017.5 4.5zm0 15a1.5 1.5 0 11.001-3.001A1.5 1.5 0 017.5 19.5zm1.365-5.979A1.641 1.641 0 017.7 14c-.427 0-.855-.162-1.182-.487l-.681-.655a1 1 0 111.386-1.442l.472.454 1.866-1.815a.999.999 0 111.394 1.434l-2.091 2.034zM17 19h-5a1 1 0 010-2h5a1 1 0 010 2zm0-6h-3a1 1 0 010-2h3a1 1 0 010 2zm0-6h-5a1 1 0 010-2h5a1 1 0 010 2z"/></svg><svg viewBox="0 0 16 17" id="fire" xmlns="http://www.w3.org/2000/svg"><path d="M11.822 9.21a4.351 4.351 0 00-.685-1.638l-.28-.407a.101.101 0 00-.167.004l-.263.418a2.66 2.66 0 01-.737.74.078.078 0 01-.055.013.069.069 0 01-.048-.03.074.074 0 01-.011-.065c.214-.724.186-1.603-.086-2.615a4.458 4.458 0 00-1.237-2.118l-.434-.413a.1.1 0 00-.167.055l-.108.592c-.074.404-.202.748-.38 1.016a3.57 3.57 0 01-.802.862c-.219.17-.456.313-.708.43a4.413 4.413 0 00-1.563 1.2 4.358 4.358 0 00-.92 3.517 4.391 4.391 0 003.35 3.51c.579.132 1.165.15 1.744.05a4.358 4.358 0 001.573-.596 4.332 4.332 0 001.952-2.722 4.315 4.315 0 00.033-1.803z"/></svg><svg viewBox="0 0 32 32" id="fire2" xmlns="http://www.w3.org/2000/svg"><path fill-rule="evenodd" d="M21.626 11.72c1.56 1.296 3.16 2.625 3.964 4.717 1.49 3.565.48 7.662-2.288 10.229-2.513 2.301-6.012 2.9-9.244 2.487-2.261-.292-8.553-2.58-9.058-10.029 0-.835.085-1.538.226-2.146.399-1.812 1.249-3.074 1.918-4.067q.15-.223.286-.429c.386-.572 1.29-.24 1.21.453l-.022.193c-.211 1.837-.463 4.023 1.862 5.783.519.4 1.237-.173.998-.785-2.913-7.475.558-13.181 5.387-16.028.505-.305 1.13.147.997.732-1.103 4.847 1.279 6.826 3.764 8.89m-5.473 1.778c.23 1.132 1.205 2.04 2.189 2.956 1.145 1.066 2.3 2.14 2.3 3.588a4.53 4.53 0 01-.633 2.459c-1.022 1.582-3.098 2.142-4.868 1.434l.22-.22c.87-.862 1.408-1.394 1.504-2.78.1-1.46-.356-2.31-.778-3.096-.173-.322-.34-.633-.46-.97a4.1 4.1 0 01-.173-1.294c.038-.466.177-1.007.464-1.666q.104-.2.235-.41" clip-rule="evenodd"/></svg><svg viewBox="0 0 20 20" id="fullscreen" xmlns="http://www.w3.org/2000/svg"><path d="M12.5 3.75h3.75V7.5m-4.375.625L16.25 3.75M7.5 16.25H3.75V12.5m4.375-.625L3.75 16.25"/></svg><svg viewBox="0 0 12 12" id="home" xmlns="http://www.w3.org/2000/svg"><g clip-path="url(#cla)"><path d="M6 7.496a1.5 1.5 0 00-1.5 1.5v3h3v-3a1.5 1.5 0 00-1.5-1.5z"/><path d="M8.5 8.996v3h2a1.5 1.5 0 001.5-1.5v-4.56a1 1 0 00-.281-.696L7.469.646a2 2 0 00-2.937 0L.291 5.238A1 1 0 000 5.943v4.553a1.5 1.5 0 001.5 1.5h2v-3c.01-1.363 1.11-2.476 2.44-2.508 1.373-.034 2.55 1.099 2.56 2.508z"/><path d="M6 7.496a1.5 1.5 0 00-1.5 1.5v3h3v-3a1.5 1.5 0 00-1.5-1.5z"/></g><defs><clipPath id="cla"><path d="M0 0h12v12H0z"/></clipPath></defs></svg><svg data-name="Layer 1" viewBox="0 0 24 24" id="house" xmlns="http://www.w3.org/2000/svg"><path d="M15.461 10h-.5v-.5c0-1.379-1.122-2.5-2.5-2.5h-1a2.503 2.503 0 00-2.5 2.5v.5h-.5a2.503 2.503 0 00-2.5 2.5v1c0 1.379 1.122 2.5 2.5 2.5h.5v.5c0 1.379 1.122 2.5 2.5 2.5h1c1.378 0 2.5-1.121 2.5-2.5V16h.5c1.378 0 2.5-1.121 2.5-2.5v-1c0-1.379-1.122-2.5-2.5-2.5zm.5 3.5a.5.5 0 01-.5.5h-1.5a1 1 0 00-1 1v1.5a.5.5 0 01-.5.5h-1a.5.5 0 01-.5-.5V15a1 1 0 00-1-1h-1.5a.5.5 0 01-.5-.5v-1a.5.5 0 01.5-.5h1.5a1 1 0 001-1V9.5a.5.5 0 01.5-.5h1a.5.5 0 01.5.5V11a1 1 0 001 1h1.5a.5.5 0 01.5.5v1zm5.797-7.921l-7-4.724a4.98 4.98 0 00-5.594 0L2.165 5.579A4.993 4.993 0 00-.039 9.724V19c0 2.757 2.243 5 5 5h14c2.757 0 5-2.243 5-5V9.724a4.995 4.995 0 00-2.203-4.145zM21.961 19c0 1.654-1.346 3-3 3h-14c-1.654 0-3-1.346-3-3V9.724c0-.999.494-1.928 1.322-2.486l7.001-4.724c.51-.345 1.094-.517 1.678-.517s1.168.172 1.678.517l7 4.724a2.994 2.994 0 011.322 2.486V19z"/></svg><svg viewBox="0 0 12 12" id="house-building" xmlns="http://www.w3.org/2000/svg"><g clip-path="url(#cna)"><path d="M9.5 7.5H9a.5.5 0 110-1h.5a.5.5 0 110 1zM10 9a.5.5 0 00-.5-.5H9a.5.5 0 100 1h.5A.5.5 0 0010 9zM8 3a.5.5 0 00-.5-.5H7a.5.5 0 100 1h.5A.5.5 0 008 3zm2 0a.5.5 0 00-.5-.5H9a.5.5 0 100 1h.5A.5.5 0 0010 3zm0 2a.5.5 0 00-.5-.5H9a.5.5 0 100 1h.5A.5.5 0 0010 5zm2 4.5v-7C12 1.121 10.879 0 9.5 0H7a2.503 2.503 0 00-2.5 2.5.5.5 0 101 0C5.5 1.673 6.173 1 7 1h2.5c.827 0 1.5.673 1.5 1.5v7c0 .827-.673 1.5-1.5 1.5H9a.5.5 0 100 1h.5c1.379 0 2.5-1.121 2.5-2.5zm-4 .25V7.674c0-.774-.35-1.491-.96-1.969L5.54 4.53a2.497 2.497 0 00-3.08 0L.96 5.705A2.485 2.485 0 000 7.673V9.75C0 10.99 1.01 12 2.25 12h3.5C6.99 12 8 10.991 8 9.75zM4.925 5.319l1.5 1.173C6.79 6.78 7 7.21 7 7.675V9.75C7 10.44 6.44 11 5.75 11h-3.5C1.56 11 1 10.44 1 9.75V7.674c0-.465.21-.895.575-1.182l1.5-1.173a1.496 1.496 0 011.85 0zM5 9V8a.5.5 0 00-.5-.5h-1A.5.5 0 003 8v1a.5.5 0 00.5.5h1A.5.5 0 005 9z"/></g><defs><clipPath id="cna"><path d="M0 0h12v12H0z"/></clipPath></defs></svg><svg data-name="Layer 1" viewBox="0 0 24 24" id="house-chimney-window" xmlns="http://www.w3.org/2000/svg"><path d="M13.5 10h-3A2.503 2.503 0 008 12.5v3c0 1.379 1.122 2.5 2.5 2.5h3c1.378 0 2.5-1.121 2.5-2.5v-3c0-1.379-1.122-2.5-2.5-2.5zm-.5 5h-2v-2h2v2zm9-9.356V2.5a1.5 1.5 0 10-3 0v1.089L15.077.941a5.475 5.475 0 00-6.153 0L2.423 5.327A5.496 5.496 0 000 9.886V18.5C0 21.532 2.467 24 5.5 24h13c3.033 0 5.5-2.468 5.5-5.5V9.886a5.492 5.492 0 00-2-4.242zM21 18.5c0 1.379-1.122 2.5-2.5 2.5h-13A2.503 2.503 0 013 18.5V9.886c0-.832.412-1.606 1.102-2.072l6.5-4.386a2.492 2.492 0 012.796 0l6.5 4.386A2.497 2.497 0 0121 9.886V18.5z"/></svg><svg data-name="Layer 1" viewBox="0 0 24 24" id="house-laptop" xmlns="http://www.w3.org/2000/svg"><path d="M4.91 18c-.22.62-.8 1-1.41 1-.17 0-.33-.03-.5-.09-1.79-.63-3-2.34-3-4.24V8.63c0-1.7.77-3.28 2.11-4.33l4-3.13c2-1.56 4.78-1.56 6.78 0l1.11.87V1.5c0-.83.67-1.5 1.5-1.5S17 .67 17 1.5v2.89c.45.37.84.81 1.16 1.31.44.7.23 1.63-.47 2.07-.7.44-1.63.23-2.07-.47a2.36 2.36 0 00-.58-.64l-4-3.13c-.91-.71-2.17-.71-3.08 0l-4 3.13C3.35 7.14 3 7.86 3 8.63v6.04c0 .63.4 1.2 1 1.41.78.28 1.19 1.13.91 1.91zM24 22c0 1.1-.9 2-2 2H8c-1.1 0-2-.9-2-2 0-.74.4-1.39 1-1.73V14.5c0-2.48 2.02-4.5 4.5-4.5h7c2.48 0 4.5 2.02 4.5 4.5v5.77c.6.35 1 .99 1 1.73zm-5.59-2H20v-5.5c0-.83-.67-1.5-1.5-1.5h-7c-.83 0-1.5.67-1.5 1.5V20h1.59c.27 0 .52.11.71.29l.41.41c.19.19.44.29.71.29h3.17c.27 0 .52-.11.71-.29l.41-.41a.99.99 0 01.71-.29z"/></svg><svg data-name="Layer 1" viewBox="0 0 24 24" id="house-laptop2" xmlns="http://www.w3.org/2000/svg"><path d="M23 18.77V14.5c0-2.48-2.02-4.5-4.5-4.5h-7C9.02 10 7 12.02 7 14.5v4.27c-.61.55-1 1.35-1 2.23 0 1.65 1.35 3 3 3h12c1.65 0 3-1.35 3-3 0-.89-.39-1.68-1-2.23zM9 14.5a2.5 2.5 0 012.5-2.5h7a2.5 2.5 0 012.5 2.5V18h-2.59c-.53 0-1.04.21-1.41.59l-.41.41h-3.17l-.41-.41c-.37-.37-.89-.59-1.41-.59H9.01v-3.5zM21 22H9c-.55 0-1-.45-1-1s.45-1 1-1h2.59l.41.41c.37.37.89.59 1.41.59h3.17c.53 0 1.04-.21 1.41-.59l.41-.41h2.59c.55 0 1 .45 1 1s-.45 1-1 1zM4 16c-1.1 0-2-.9-2-2V8.13c0-.93.42-1.79 1.15-2.36l4-3.13c1.09-.85 2.61-.85 3.7 0l4 3.13c.5.39.85.91 1.03 1.51.16.53.71.84 1.24.68.53-.16.83-.71.68-1.24a4.972 4.972 0 00-1.71-2.53l-.08-.06V1c0-.55-.45-1-1-1s-1 .45-1 1v1.56l-1.92-1.5a5 5 0 00-6.17 0l-4 3.13A4.965 4.965 0 000 8.13V14c0 2.21 1.79 4 4 4 .55 0 1-.45 1-1s-.45-1-1-1zM15.99 4.12z"/></svg><svg viewBox="0 0 24 24" id="house-stroke" xmlns="http://www.w3.org/2000/svg"><path d="M11.875 16.25V12.5a.624.624 0 00-.625-.625h-2.5a.625.625 0 00-.625.625v3.75a.625.625 0 01-.625.625H3.75a.625.625 0 01-.625-.625V9.023a.648.648 0 01.203-.46l6.25-5.68a.625.625 0 01.844 0l6.25 5.68a.648.648 0 01.203.46v7.227a.624.624 0 01-.625.625H12.5a.624.624 0 01-.625-.625z"/><path d="M15.012 22v1h3.976v-4.032H23v-3.936h-4.012V11h-3.976v4.032H11v3.936h4.012V22z"/></svg><svg viewBox="0 0 20 21" id="image" xmlns="http://www.w3.org/2000/svg"><path d="M16.875 4.25H3.125a.625.625 0 00-.625.625v11.25c0 .345.28.625.625.625h13.75c.345 0 .625-.28.625-.625V4.875a.625.625 0 00-.625-.625z"/><path d="M2.5 13.624l3.93-3.93a.625.625 0 01.89 0l3.485 3.485a.624.624 0 00.89 0l1.61-1.61a.624.624 0 01.89 0l3.305 3.305M12.188 9.094a.781.781 0 100-1.563.781.781 0 000 1.563z"/></svg><svg viewBox="0 0 20 20" id="info" xmlns="http://www.w3.org/2000/svg"><path d="M10 17.5a7.5 7.5 0 100-15 7.5 7.5 0 000 15z"/><path d="M9.375 9.375H10v4.375h.625M9.844 7.344a.781.781 0 100-1.563.781.781 0 000 1.563z"/></svg><svg viewBox="0 0 24 24" id="info-2" xmlns="http://www.w3.org/2000/svg"><path fill-rule="evenodd" clip-rule="evenodd" d="M22 12a10 10 0 11-20 0 10 10 0 0120 0zm-9-5v6a1 1 0 11-2 0V7a1 1 0 112 0zm-2 10a1 1 0 102 0 1 1 0 00-2 0z"/></svg><svg viewBox="0 0 24 24" id="initial-fee" xmlns="http://www.w3.org/2000/svg"><path d="M12 5.093c-3.962 0-4.958 3.738-4.958 6.907 0 3.17.996 6.907 4.958 6.907s4.958-3.738 4.958-6.907S15.962 5.093 12 5.093zM9.866 12c0-1.396.097-4.303 2.134-4.303.161 0 .308.025.445.059.285.246.425.585.151 1.059l-2.639 4.849A13 13 0 019.866 12zM12 16.303a1.85 1.85 0 01-.446-.051 4.725 4.725 0 01-.202-.067c-.454-.193-.74-.542-.328-1.16l2.949-5.092c.14.744.16 1.521.16 2.067.001 1.396-.096 4.303-2.133 4.303z"/><path d="M23.126 7.386a11.49 11.49 0 00-2.572-3.874C18.197 1.17 15.332 0 11.975 0 8.646 0 5.84 1.159 3.555 3.487a12.185 12.185 0 00-2.656 3.95A11.868 11.868 0 000 12c0 1.6.299 3.12.899 4.563.6 1.443 1.47 2.742 2.613 3.899a12.459 12.459 0 003.899 2.639c1.458.6 2.978.899 4.564.899 1.586 0 3.128-.31 4.614-.924a12.318 12.318 0 003.983-2.655 10.905 10.905 0 002.555-3.79C23.711 15.188 24 13.644 24 12c0-1.629-.289-3.17-.874-4.614zm-4.101 11.488a10.318 10.318 0 01-3.278 2.168c-1.2.5-2.437.748-3.723.748-1.3 0-2.545-.245-3.731-.731A10.107 10.107 0 015.1 18.916a10.248 10.248 0 01-2.185-3.193A9.582 9.582 0 012.159 12c0-1.3.256-2.545.756-3.731A10.427 10.427 0 015.1 5.034C6.972 3.119 9.282 2.16 12.025 2.16c2.714 0 5.029.962 6.958 2.891a9.61 9.61 0 012.126 3.177A9.847 9.847 0 0121.84 12c0 2.757-.943 5.045-2.815 6.874z"/></svg><svg viewBox="0 0 12 12" id="key" xmlns="http://www.w3.org/2000/svg"><path d="M7.993 6.35V5a.5.5 0 01.5-.5h.5a.5.5 0 00.5-.5v-.5a.5.5 0 01.5-.5h1.343a.509.509 0 00.462-.3 2.26 2.26 0 00.188-1.188A1.745 1.745 0 0010.232 0a2.27 2.27 0 00-1.605.665L4.672 4.618a3.751 3.751 0 00-3.386 6.46 3.752 3.752 0 002.855.902 3.766 3.766 0 003.215-2.715 3.67 3.67 0 00.024-1.94L7.705 7a.992.992 0 00.288-.65zM2.746 10a.75.75 0 110-1.501.75.75 0 010 1.501z"/></svg><svg viewBox="0 0 16 17" id="lightning" xmlns="http://www.w3.org/2000/svg"><path d="M13.488 7.89a.5.5 0 00-.312-.357l-3.6-1.35.912-4.581a.506.506 0 00-.256-.544.494.494 0 00-.594.1l-7 7.5a.494.494 0 00-.012.673c.054.062.123.11.2.14l3.6 1.35-.913 4.58a.506.506 0 00.256.544.495.495 0 00.594-.1l7-7.5a.493.493 0 00.125-.456z"/></svg><svg viewBox="0 0 24 24" id="like" xmlns="http://www.w3.org/2000/svg"><path d="M22.773 7.721A4.994 4.994 0 0019 6h-3.989l.336-2.041a3.037 3.037 0 00-5.721-1.837L7.712 6H5a5.006 5.006 0 00-5 5v5a5.006 5.006 0 005 5h13.3a5.024 5.024 0 004.951-4.3l.705-5a5 5 0 00-1.183-3.979zM2 16v-5a3 3 0 013-3h2v11H5a3 3 0 01-3-3zm19.971-4.581l-.706 5A3.012 3.012 0 0118.3 19H9V7.734a1 1 0 00.23-.292l2.189-4.435a1.07 1.07 0 011.722-.207 1.024 1.024 0 01.233.84l-.528 3.2A1 1 0 0013.833 8H19a3 3 0 012.971 3.419z"/></svg><svg viewBox="0 0 25 24" id="like-two" xmlns="http://www.w3.org/2000/svg"><path d="M14.5 6.75v1h6.05a1.287 1.287 0 01.94.42 1.298 1.298 0 01.302.991v.003l-1.124 8.989v.002a1.26 1.26 0 01-1.242 1.095H8.25V9.799l.176-.352 3.471-6.943A2.76 2.76 0 0114.5 5.251V6.75z"/></svg><svg viewBox="0 0 15 15" id="list" xmlns="http://www.w3.org/2000/svg"><g clip-path="url(#daa)"><path d="M5 4.375h9.063a.937.937 0 000-1.875H5a.937.937 0 100 1.875zm9.063 2.5H5A.937.937 0 105 8.75h9.063a.937.937 0 000-1.875zm0 4.375H5a.938.938 0 000 1.875h9.063a.938.938 0 000-1.875zM1.563 5a1.563 1.563 0 100-3.125 1.563 1.563 0 000 3.125zm0 4.063a1.563 1.563 0 100-3.126 1.563 1.563 0 000 3.125zm0 4.375a1.563 1.563 0 100-3.126 1.563 1.563 0 000 3.126z"/></g><defs><clipPath id="daa"><path d="M0 0h15v15H0z"/></clipPath></defs></svg><svg viewBox="0 0 15 15" id="list-check" xmlns="http://www.w3.org/2000/svg"><g clip-path="url(#dba)"><path d="M2.5 4.372A2.173 2.173 0 01.951 3.73l-.991-.99 1.326-1.327.99.99a.313.313 0 00.443 0L4.96.165 6.288 1.49 4.046 3.73a2.173 2.173 0 01-1.547.642zM15 1.247H7.5v1.875H15V1.247zM4.045 8.73l2.242-2.24-1.326-1.326L2.72 7.405a.312.312 0 01-.442 0l-.99-.99L-.04 7.74l.991.99a2.188 2.188 0 003.094 0zm10.953-2.484H7.5v1.875H15V6.247zM4.046 13.73l2.241-2.241-1.326-1.326-2.241 2.241a.312.312 0 01-.442 0l-.99-.99L-.04 12.74l.991.99a2.188 2.188 0 003.094 0zm10.953-2.484H7.5v1.875H15v-1.875z"/></g><defs><clipPath id="dba"><path d="M0 0h15v15H0z"/></clipPath></defs></svg><svg viewBox="0 0 20 20" id="location" xmlns="http://www.w3.org/2000/svg"><path d="M10 10.625a2.5 2.5 0 100-5 2.5 2.5 0 000 5z"/><path d="M16.25 8.125c0 5.625-6.25 10-6.25 10s-6.25-4.375-6.25-10a6.25 6.25 0 0112.5 0z"/></svg><svg data-name="Isolation Mode" viewBox="0 0 24 24" id="location-fill" xmlns="http://www.w3.org/2000/svg"><path d="M12 .021A10.077 10.077 0 001.935 10.087c0 5.274 8.166 12.329 9.1 13.117l.967.817.967-.817c.932-.788 9.1-7.843 9.1-13.117A10.077 10.077 0 0012 .021zm0 20.043c-3.065-2.792-7.067-7.328-7.067-9.977a7.067 7.067 0 1114.134 0c0 2.644-4.003 7.182-7.067 9.977z"/><circle cx="12" cy="10.002" r="2.997"/></svg><svg viewBox="0 0 19 18" id="location-two" xmlns="http://www.w3.org/2000/svg"><path d="M9.5 9a3 3 0 100-6 3 3 0 000 6zm0-4.5a1.5 1.5 0 110 3 1.5 1.5 0 010-3zm6.495 2.368l-.54-.18A6 6 0 009.5 0a5.995 5.995 0 00-5.935 6.819 3.784 3.784 0 00-1.911.975A3.71 3.71 0 00.5 10.5v3.056a3.76 3.76 0 002.7 3.6l2.153.675a3.759 3.759 0 002.133.029l4.334-1.282a2.24 2.24 0 011.18 0l1.79.6a3.001 3.001 0 003.71-2.912v-3.862a3.761 3.761 0 00-2.505-3.537zM6.319 2.82a4.49 4.49 0 016.362 0 4.528 4.528 0 01.009 6.375l-2.665 2.592a.744.744 0 01-1.042 0L6.32 9.208a4.53 4.53 0 010-6.386zM17 14.267a1.493 1.493 0 01-.573 1.179 1.476 1.476 0 01-1.22.296l-1.758-.591a3.767 3.767 0 00-2.038-.012L7.073 16.42a2.25 2.25 0 01-1.27-.022l-2.171-.675A2.26 2.26 0 012 13.556V10.5a2.223 2.223 0 01.69-1.622 2.268 2.268 0 011.252-.605c.302.75.752 1.43 1.324 2.002l2.675 2.59a2.237 2.237 0 003.13 0l2.672-2.598a5.97 5.97 0 001.36-2.115l.403.133A2.254 2.254 0 0117 10.404v3.862z"/></svg><svg viewBox="0 0 26 16" id="metro" xmlns="http://www.w3.org/2000/svg"><path d="M16.523 10c-.456 0-.848.312-1.005.74a8 8 0 110-5.48c.157.428.549.74 1.005.74H25a1 1 0 011 1v2a1 1 0 01-1 1h-8.477z"/></svg><svg viewBox="0 0 20 18" id="metro-icon" xmlns="http://www.w3.org/2000/svg"><path d="M12.563 13.013h-.55l.437-.72.252.72h-.139zm-2.087 2.528l1.528-2.512v2.661h7.306v-2.678h-1.383L13.972 3.01l-.429-1.083-.578 1.012-2.967 5.194L7.035 2.94l-.578-1.013-.429 1.084L2.07 13.013H.69v2.677h7.307v-2.66l1.523 2.51.478.787.479-.787zm-3.04-2.528h-.138l.251-.718.436.718h-.548z"/></svg><svg viewBox="0 0 20 20" id="minus" xmlns="http://www.w3.org/2000/svg"><path d="M3.125 10h13.75"/></svg><svg viewBox="0 0 12 12" id="money-check-edit" xmlns="http://www.w3.org/2000/svg"><g clip-path="url(#dia)"><path d="M8.291 6.5H7v-1h2.31a2.25 2.25 0 011.421-.5c.46 0 .898.135 1.269.386V2.5c0-.827-.673-1.5-1.5-1.5h-9C.673 1 0 1.673 0 2.5V11h5V9.79L8.291 6.5zM7 3.5h3v1H7v-1zM4.178 6.62l-1.52-.253A1.38 1.38 0 011.5 5c0-.827.673-1.5 1.5-1.5V3h1v.5c.827 0 1.5.673 1.5 1.5h-1a.5.5 0 00-.5-.5H3a.5.5 0 00-.5.5c0 .189.135.349.322.38l1.52.253A1.38 1.38 0 015.5 7c0 .827-.673 1.5-1.5 1.5V9H3v-.5c-.827 0-1.5-.673-1.5-1.5h1a.5.5 0 00.5.5h1a.5.5 0 00.5-.5.384.384 0 00-.322-.38zm7.823.649c0 .339-.133.658-.372.897L7.795 12H6v-1.795l3.834-3.833a1.27 1.27 0 012.167.897z"/></g><defs><clipPath id="dia"><path d="M0 0h12v12H0z"/></clipPath></defs></svg><svg viewBox="0 0 12 12" id="new-buildings" xmlns="http://www.w3.org/2000/svg"><path d="M5.5 0h-4A1.5 1.5 0 000 1.5V12h7V1.5A1.5 1.5 0 005.5 0zM3 9.5H1.5v-1H3v1zm0-2H1.5v-1H3v1zm0-2H1.5v-1H3v1zm0-2H1.5v-1H3v1zm2.5 6H4v-1h1.5v1zm0-2H4v-1h1.5v1zm0-2H4v-1h1.5v1zm0-2H4v-1h1.5v1zm5-1H8V12h4V4a1.5 1.5 0 00-1.5-1.5zm0 7h-1v-1h1v1zm0-2h-1v-1h1v1zm0-2h-1v-1h1v1z"/></svg><svg data-name="Layer 1" viewBox="0 0 24 24" id="newsline" xmlns="http://www.w3.org/2000/svg"><path d="M21 15H10.26c-.8 0-1.55-.31-2.12-.88l-1.42-1.41c-.19-.19-.29-.44-.29-.71s.11-.52.29-.71l1.42-1.41C8.71 9.31 9.46 9 10.26 9H21c1.65 0 3 1.35 3 3s-1.35 3-3 3zM8.85 12l.71.71c.19.19.44.29.71.29h10.74c.55 0 1-.45 1-1s-.45-1-1-1H10.26c-.26 0-.52.11-.71.29l-.71.71zM18 6h-7.74c-.8 0-1.55-.31-2.12-.88L6.72 3.71c-.19-.19-.29-.44-.29-.71s.11-.52.29-.71L8.14.88C8.71.31 9.46 0 10.26 0H18c1.65 0 3 1.35 3 3s-1.35 3-3 3zM8.85 3l.71.71c.19.19.44.29.71.29h7.74c.55 0 1-.45 1-1s-.45-1-1-1h-7.74c-.26 0-.52.11-.71.29L8.85 3zM16 24h-5.74c-.8 0-1.55-.31-2.12-.88l-1.42-1.41c-.19-.19-.29-.44-.29-.71s.11-.52.29-.71l1.42-1.41c.57-.57 1.32-.88 2.12-.88H16c1.65 0 3 1.35 3 3s-1.35 3-3 3zm-7.15-3l.71.71c.19.19.44.29.71.29h5.74c.55 0 1-.45 1-1s-.45-1-1-1h-5.74c-.26 0-.52.11-.71.29l-.71.71zM2 19c-1.1 0-2 .9-2 2s.9 2 2 2 2-.9 2-2-.9-2-2-2zm0-9c-1.1 0-2 .9-2 2s.9 2 2 2 2-.9 2-2-.9-2-2-2zm0-9C.9 1 0 1.9 0 3s.9 2 2 2 2-.9 2-2-.9-2-2-2z"/></svg><svg viewBox="0 0 16 16" id="notification" xmlns="http://www.w3.org/2000/svg"><path d="M8 1a1 1 0 00-1 1v.12a4.17 4.17 0 00-3.15 3.6L3.5 9l-.87 1.74A1.21 1.21 0 003.7 12.5h8.58a1.21 1.21 0 001.08-1.76L12.5 9l-.35-3.27A4.17 4.17 0 009 2.13V2a1 1 0 00-1-1zm0 14.5c1 0 1.5-.95 1.5-1.5v-.5h-3v.5c0 .55.5 1.5 1.5 1.5z"/></svg><svg data-name="Layer 1" viewBox="0 0 24 24" id="past" xmlns="http://www.w3.org/2000/svg"><path d="M1.359 6.36a12.09 12.09 0 011.325-1.986L4.2 5.681a10.1 10.1 0 00-1.06 1.583zm-.9 2.192A11.932 11.932 0 00.005 10.9l1.99.2a9.99 9.99 0 01.373-1.944zm5.885-7.159A12.013 12.013 0 004.4 2.681l1.241 1.563a10.018 10.018 0 011.646-1.087zM10.863.055A11.9 11.9 0 008.547.5l.567 1.917a9.933 9.933 0 011.93-.368zM1.359 17.64a12.09 12.09 0 001.325 1.986L4.2 18.319a10.1 10.1 0 01-1.06-1.583zm1.009-2.786A9.99 9.99 0 012 12.91l-1.99.2a11.932 11.932 0 00.453 2.343zm4.919 5.989a10.018 10.018 0 01-1.646-1.087L4.4 21.319a12.013 12.013 0 001.948 1.288zm3.757 1.111a9.933 9.933 0 01-1.93-.368L8.547 23.5a11.9 11.9 0 002.316.442zm9.715-5.165a9.975 9.975 0 01-1.059 1.583l1.517 1.307a12.006 12.006 0 001.325-1.986zm2.684-1.289a11.932 11.932 0 00.453-2.343l-1.99-.2a9.986 9.986 0 01-.373 1.945zm-5.886 7.16a12.013 12.013 0 001.948-1.288L18.26 19.81a10.082 10.082 0 01-1.646 1.09zM13.038 24a11.974 11.974 0 002.316-.442l-.567-1.918a9.934 9.934 0 01-1.93.369zm6.842-13a8 8 0 11-7.931-7 7.916 7.916 0 01.991.068h.009V.051A12.009 12.009 0 0123.9 11zm-2.931 0h-3.277a2 2 0 00-.723-.723V6h-2v4.277A1.994 1.994 0 1013.672 13h3.277z"/></svg><svg viewBox="0 0 11 11" id="path" xmlns="http://www.w3.org/2000/svg"><path fill-rule="evenodd" clip-rule="evenodd" d="M8.594 8.313a.281.281 0 100 .562.281.281 0 000-.563zm-1.781.28a1.781 1.781 0 113.562 0 1.781 1.781 0 01-3.563 0z"/><path fill-rule="evenodd" clip-rule="evenodd" d="M2.344 2.406a.75.75 0 01.75-.75h4.125a2.125 2.125 0 110 4.25H3.094a.969.969 0 100 1.938h4.469a.75.75 0 010 1.5h-4.47a2.469 2.469 0 010-4.938H7.22a.625.625 0 000-1.25H3.094a.75.75 0 01-.75-.75z"/></svg><svg viewBox="0 0 12 12" id="pause" xmlns="http://www.w3.org/2000/svg"><g clip-path="url(#doa)"><path d="M0 8.75a1.75 1.75 0 001.75 1.75h8.5a1.75 1.75 0 000-3.5h-8.5A1.75 1.75 0 000 8.75zm0-5.5A1.75 1.75 0 001.75 5h8.5a1.75 1.75 0 000-3.5h-8.5A1.75 1.75 0 000 3.25z"/></g><defs><clipPath id="doa"><path transform="rotate(-90 6 6)" d="M0 0h12v12H0z"/></clipPath></defs></svg><svg viewBox="0 0 20 20" id="pencil" xmlns="http://www.w3.org/2000/svg"><path d="M7.242 16.876H3.75a.625.625 0 01-.625-.625v-3.492a.617.617 0 01.18-.438l9.375-9.375a.625.625 0 01.89 0l3.485 3.485a.627.627 0 010 .89L7.68 16.696a.616.616 0 01-.438.18zM10.625 5L15 9.375m-2.187-2.187l-7.5 7.5m2.147 2.148l-4.296-4.297"/></svg><svg data-name="Layer 1" viewBox="0 0 24 24" id="percent" xmlns="http://www.w3.org/2000/svg"><path d="M12 24a5.789 5.789 0 01-4.217-1.82 5.797 5.797 0 01-5.964-5.963c-2.401-2.149-2.401-6.285 0-8.434a5.797 5.797 0 011.695-4.269 5.733 5.733 0 014.269-1.695c2.148-2.402 6.286-2.402 8.434 0a5.797 5.797 0 015.964 5.963c2.401 2.149 2.401 6.285 0 8.434a5.797 5.797 0 01-5.964 5.964A5.787 5.787 0 0112 24zm-3.563-4.897a1.5 1.5 0 011.244.662c1.031 1.628 3.608 1.628 4.639 0 .337-.499.937-.75 1.53-.634a2.792 2.792 0 002.515-.767 2.803 2.803 0 00.767-2.515 1.5 1.5 0 01.634-1.529c1.628-1.031 1.628-3.609 0-4.64a1.5 1.5 0 01-.634-1.529 2.797 2.797 0 00-3.282-3.282 1.496 1.496 0 01-1.53-.634c-1.031-1.628-3.608-1.628-4.639 0a1.493 1.493 0 01-1.53.634 2.796 2.796 0 00-3.282 3.282 1.5 1.5 0 01-.634 1.529c-1.628 1.031-1.628 3.609 0 4.64a1.5 1.5 0 01.634 1.529 2.797 2.797 0 003.282 3.282 1.46 1.46 0 01.286-.028zM8.5 8c-1.972.034-1.971 2.967 0 3 1.972-.034 1.971-2.967 0-3zm7 5c-1.972.034-1.971 2.967 0 3 1.972-.034 1.971-2.967 0-3zm-4.252 2.832l4-6a1.5 1.5 0 10-2.496-1.664l-4 6a1.5 1.5 0 102.496 1.664z"/></svg><svg data-name="Layer 1" viewBox="0 0 24 24" id="phone" xmlns="http://www.w3.org/2000/svg"><path d="M13 1a1 1 0 011-1 10.011 10.011 0 0110 10 1 1 0 01-2 0 8.009 8.009 0 00-8-8 1 1 0 01-1-1zm1 5a4 4 0 014 4 1 1 0 002 0 6.006 6.006 0 00-6-6 1 1 0 000 2zm9.093 10.739a3.1 3.1 0 010 4.378l-.91 1.049c-8.19 7.841-28.12-12.084-20.4-20.3l1.15-1a3.081 3.081 0 014.327.04c.031.031 1.884 2.438 1.884 2.438a3.1 3.1 0 01-.007 4.282L7.979 9.082a12.781 12.781 0 006.931 6.945l1.465-1.165a3.1 3.1 0 014.281-.006s2.406 1.852 2.437 1.883zm-1.376 1.454s-2.393-1.841-2.424-1.872a1.1 1.1 0 00-1.549 0c-.027.028-2.044 1.635-2.044 1.635a1 1 0 01-.979.152A15.009 15.009 0 015.9 9.3a1 1 0 01.145-1s1.607-2.018 1.634-2.044a1.1 1.1 0 000-1.549c-.031-.03-1.872-2.425-1.872-2.425a1.1 1.1 0 00-1.51.039l-1.15 1C-2.495 10.105 14.776 26.418 20.721 20.8l.911-1.05a1.121 1.121 0 00.085-1.557z"/></svg><svg viewBox="0 0 24 24" id="pin" xmlns="http://www.w3.org/2000/svg"><path fill-rule="evenodd" clip-rule="evenodd" d="M6.5 5a1 1 0 011-1h9a1 1 0 110 2h-.405l.818 9H19a1 1 0 110 2h-6v5a1 1 0 11-2 0v-5H5a1 1 0 110-2h2.087l.818-9H7.5a1 1 0 01-1-1zm3.413 1l-.818 9h5.81l-.818-9H9.913z"/></svg><svg viewBox="0 0 16 16" id="play" xmlns="http://www.w3.org/2000/svg"><path d="M14.519 7.144l-9-5.494a.969.969 0 00-1.006-.018A.988.988 0 004 2.5v11a.987.987 0 00.513.87.968.968 0 001.006-.02l9-5.493a1 1 0 000-1.713z" fill-opacity=".5"/></svg><svg viewBox="0 0 11 11" id="plus" xmlns="http://www.w3.org/2000/svg"><path fill-rule="evenodd" clip-rule="evenodd" d="M.719 5.5a1 1 0 011-1H9.28a1 1 0 010 2H1.72a1 1 0 01-1-1z"/><path fill-rule="evenodd" clip-rule="evenodd" d="M5.5.719a1 1 0 011 1V9.28a1 1 0 01-2 0V1.72a1 1 0 011-1z"/></svg><svg viewBox="0 0 20 20" id="plus--small" xmlns="http://www.w3.org/2000/svg"><path d="M3.125 10h13.75M10 3.125v13.75"/></svg><svg viewBox="0 0 25 24" id="present" xmlns="http://www.w3.org/2000/svg"><path d="M5.949 12.185V20a1 1 0 001 1h6.072M5.95 12.185h14.145m-14.145 0H4.5V7.82a1 1 0 011-1h7.521m7.073 5.365V20a1 1 0 01-1 1h-6.073m7.073-8.815H21.5V7.82a1 1 0 00-1-1h-7.479m0 14.18V6.82m0 0c-.828-2.172-3.355-6.387-5.16-4.216-1.912 2.3 2.548 3.577 5.16 4.216zm0 0c.064-1.405 2.103-5.749 4.397-4.216 2.294 1.533-1.53 4.216-4.396 4.216z"/><path d="M4.5 7h17v5h-17z"/></svg><svg viewBox="0 0 14 8" id="price-down" xmlns="http://www.w3.org/2000/svg"><path d="M10.233 7.433l.96-.96L7.94 3.22 5.746 5.413c-.26.26-.68.26-.94 0l-4-4.006a.664.664 0 11.94-.94L5.273 4l2.193-2.193c.26-.26.68-.26.94 0l3.727 3.72.96-.96a.333.333 0 01.567.233v2.86a.33.33 0 01-.334.333h-2.86c-.293.007-.44-.353-.233-.56z"/></svg><svg viewBox="0 0 14 8" id="price-up" xmlns="http://www.w3.org/2000/svg"><path d="M10.233.567l.96.96L7.94 4.78 5.746 2.587a.664.664 0 00-.94 0l-4 4.006a.664.664 0 10.94.94L5.273 4l2.193 2.193c.26.26.68.26.94 0l3.727-3.72.96.96c.207.207.567.06.567-.233V.333A.32.32 0 0013.333 0h-2.86c-.3 0-.447.36-.24.567z"/></svg><svg viewBox="0 0 20 20" id="prohibit" xmlns="http://www.w3.org/2000/svg"><path fill-rule="evenodd" clip-rule="evenodd" d="M10 3.25a6.75 6.75 0 100 13.5 6.75 6.75 0 000-13.5zM1.75 10a8.25 8.25 0 1116.5 0 8.25 8.25 0 01-16.5 0z"/><path fill-rule="evenodd" clip-rule="evenodd" d="M4.165 4.165a.75.75 0 011.06 0l10.61 10.61a.75.75 0 11-1.06 1.06L4.164 5.225a.75.75 0 010-1.06z"/></svg><svg viewBox="0 0 513.806 513.806" id="refresh" xmlns="http://www.w3.org/2000/svg"><path d="M66.074 228.731C81.577 123.379 179.549 50.542 284.901 66.045a192.81 192.81 0 0197.27 44.244l-24.853 24.853c-8.33 8.332-8.328 21.84.005 30.17a21.333 21.333 0 0015.078 6.246h97.835c11.782 0 21.333-9.551 21.333-21.333V52.39c-.003-11.782-9.556-21.331-21.338-21.329a21.333 21.333 0 00-15.078 6.246L427.418 65.04C321.658-29.235 159.497-19.925 65.222 85.835A256.527 256.527 0 002.885 219.408c-2.864 17.607 9.087 34.202 26.693 37.066 1.586.258 3.188.397 4.795.417 16.108-.174 29.629-12.185 31.701-28.16zm413.355 28.16c-16.108.174-29.629 12.185-31.701 28.16-15.503 105.352-113.475 178.189-218.827 162.687a192.81 192.81 0 01-97.27-44.244l24.853-24.853c8.33-8.332 8.328-21.84-.005-30.17a21.333 21.333 0 00-15.078-6.246H43.568c-11.782 0-21.333 9.551-21.333 21.333v97.835c.003 11.782 9.556 21.331 21.338 21.329a21.333 21.333 0 0015.078-6.246l27.733-27.733c105.735 94.285 267.884 85.004 362.17-20.732a256.504 256.504 0 0062.363-133.615c2.876-17.605-9.064-34.208-26.668-37.084a32.17 32.17 0 00-4.82-.421z"/></svg><svg viewBox="0 -5 16 16" id="resize" xmlns="http://www.w3.org/2000/svg"><g data-name="Layer 2"><path d="M6 3a.5.5 0 01-.5.5H1.71l1.64 1.65a.48.48 0 010 .7.48.48 0 01-.7 0l-2.5-2.5a.48.48 0 010-.7l2.5-2.5a.48.48 0 01.7 0 .48.48 0 010 .7L1.71 2.5H5.5A.5.5 0 016 3zm9.85-.35l-2.5-2.5a.48.48 0 00-.7 0 .48.48 0 000 .7l1.64 1.65H10.5a.5.5 0 000 1h3.79l-1.64 1.65a.48.48 0 000 .7.48.48 0 00.7 0l2.5-2.5a.48.48 0 000-.7z" data-name="Layer 1"/></g></svg><svg viewBox="0 0 48 48" id="reverse" xmlns="http://www.w3.org/2000/svg"><path fill-opacity=".01" d="M0 0h48v48H0z"/><path d="M34 6.676C39.978 10.134 44 16.597 44 24M34 6.676V14m0-7.324h7.324m0 27.324C37.866 39.978 31.403 44 24 44m17.324-10H34m7.324 0v7.324m-27.324 0C8.022 37.866 4 31.403 4 24m10 17.324V34m0 7.324H6.676m0-27.324C10.134 8.022 16.597 4 24 4M6.676 14H14m-7.324 0V6.676"/><path d="M41.324 34C37.866 39.978 31.403 44 24 44m17.324-10H34m7.324 0v7.324m-27.324 0C8.022 37.866 4 31.403 4 24m10 17.324V34m0 7.324H6.676m0-27.324C10.134 8.022 16.597 4 24 4M6.676 14H14m-7.324 0V6.676m27.324 0C39.978 10.134 44 16.597 44 24M34 6.676V14m0-7.324h7.324"/></svg><svg data-name="Layer 16" viewBox="0 0 24 24" id="right-left" xmlns="http://www.w3.org/2000/svg"><path d="M24 18.957H4.707l1.9 1.9-2.125 2.118-3.75-3.75a2.5 2.5 0 010-3.536l3.75-3.75L6.6 14.061l-1.9 1.9H24zM17.4 9.9l2.122 2.122 3.75-3.75a2.5 2.5 0 000-3.536L19.518.982 17.4 3.1 19.3 5H0v3h19.293z"/></svg><svg viewBox="0 0 14 17" id="rotate-1" xmlns="http://www.w3.org/2000/svg"><defs><path d="M5.999 4C7.999 4.665 9 6.665 9 9.997H5.999L12 16l6-6.002h-3c0-2.665-.334-4.665-1.002-5.999C12.986 1.98 11 0 7 0S1 4 0 8c2-4 3.852-4.716 5.999-4z" id="eea"/></defs><g transform="rotate(-135 8.015 8.42)" fill-rule="evenodd" opacity=".6"><use xlink:href="#eea"/><path d="M7.206 10.498L12 15.293l4.793-4.795H14.5v-.5c0-2.594-.322-4.523-.95-5.775C12.374 1.873 10.31.5 7 .5 4.695.5 2.953 1.962 1.711 4.574c1.327-1.315 2.76-1.61 4.446-1.049C8.399 4.272 9.5 6.474 9.5 9.998v.5H7.206z"/></g></svg><svg viewBox="0 0 14 17" id="rotate-2" xmlns="http://www.w3.org/2000/svg"><defs><path d="M5.999 4C7.999 4.665 9 6.665 9 9.997H5.999L12 16l6-6.002h-3c0-2.665-.334-4.665-1.002-5.999C12.986 1.98 11 0 7 0S1 4 0 8c2-4 3.852-4.716 5.999-4z" id="efa"/></defs><g transform="scale(1 -1) rotate(45 27.35 -2.4)" fill-rule="evenodd" opacity=".6"><use xlink:href="#efa"/><path d="M7.206 10.498L12 15.293l4.793-4.795H14.5v-.5c0-2.594-.322-4.523-.95-5.775C12.374 1.873 10.31.5 7 .5 4.695.5 2.953 1.962 1.711 4.574c1.327-1.315 2.76-1.61 4.446-1.049C8.399 4.272 9.5 6.474 9.5 9.998v.5H7.206z"/></g></svg><svg aria-hidden="true" viewBox="0 0 16 16" id="routes" xmlns="http://www.w3.org/2000/svg"><path fill-rule="evenodd" clip-rule="evenodd" d="M3 4a1 1 0 100-2 1 1 0 000 2zm2.83 0a3.001 3.001 0 110-2h6.67a3.5 3.5 0 110 7h-9a1.5 1.5 0 100 3h6.67a3.001 3.001 0 110 2H3.5a3.5 3.5 0 110-7h9a1.5 1.5 0 000-3H5.83zM13 14a1 1 0 100-2 1 1 0 000 2z"/></svg><svg data-name="Layer 1" viewBox="0 0 24 24" id="run" xmlns="http://www.w3.org/2000/svg"><path d="M23 12.5a1.5 1.5 0 01-1.5 1.5h-2.87a3.516 3.516 0 01-3-1.7l-1.225-2.034-1.79 4.363 2.614 1.487A3.507 3.507 0 0117 19.163V22.5a1.5 1.5 0 01-3 0v-3.337a.5.5 0 00-.252-.434l-4.082-2.323a3.511 3.511 0 01-1.427-4.322L9.5 9H7.736a.5.5 0 00-.447.277l-1.447 2.894a1.5 1.5 0 01-2.684-1.342l1.447-2.894A3.483 3.483 0 017.736 6h5.624a3.516 3.516 0 013 1.7l1.84 3.058a.5.5 0 00.43.242h2.87a1.5 1.5 0 011.5 1.5zM8.057 16.85a1.5 1.5 0 00-1.95.836.5.5 0 01-.464.314H3.5a1.5 1.5 0 000 3h2.143a3.484 3.484 0 003.25-2.2 1.5 1.5 0 00-.836-1.95zM14.5 5A2.5 2.5 0 1012 2.5 2.5 2.5 0 0014.5 5z"/></svg><svg viewBox="0 0 16 16" id="run2" xmlns="http://www.w3.org/2000/svg"><path d="M12.337 8.582a.805.805 0 01-.969.602 4.67 4.67 0 01-1.88-.917c-.066-.163-.237-.634-.315-.835v1.692l1.475 1.69c.13.146.2.334.202.528v2.94a.805.805 0 11-1.61 0v-2.638L7.754 9.94l-1.84 4.64a.805.805 0 11-1.497-.594L6.35 9.12V7.021l.358-.956-.358.367c-.442.513-.862 1.281-1.054 2.436a.805.805 0 01-1.586-.27c.653-3.927 3.448-4.65 3.764-4.72a.866.866 0 01.089 0 1.401 1.401 0 011.548.942l.015.032c.201.85.988 2.39 2.61 2.766a.805.805 0 01.601.964zm-4.22-5.063a1.51 1.51 0 100-3.019 1.51 1.51 0 000 3.02z"/></svg><svg viewBox="0 0 512 512" id="save" xmlns="http://www.w3.org/2000/svg"><path d="M483.883 92.438l-64.32-64.299A95.302 95.302 0 00351.68 0H96C43.005.059.059 43.005 0 96v320c.059 52.995 43.005 95.941 96 96h320c52.995-.059 95.941-43.005 96-96V160.32a95.341 95.341 0 00-28.117-67.882zM448 416c0 17.673-14.327 32-32 32H96c-17.673 0-32-14.327-32-32V96c0-17.673 14.327-32 32-32h32c0 47.128 38.205 85.333 85.333 85.333h64c46.29-.092 84.065-37.072 85.141-83.349a31.581 31.581 0 0111.819 7.381l64.341 64.341a31.787 31.787 0 019.365 22.613V416z"/><circle cx="256" cy="298.667" r="85.333"/></svg><svg viewBox="0 0 20 20" id="search" xmlns="http://www.w3.org/2000/svg"><path fill-rule="evenodd" clip-rule="evenodd" d="M9.063 3.25a5.812 5.812 0 100 11.625 5.812 5.812 0 000-11.625zM1.75 9.063a7.313 7.313 0 1114.625 0 7.313 7.313 0 01-14.625 0z"/><path fill-rule="evenodd" clip-rule="evenodd" d="M13.173 13.173a.75.75 0 011.06 0l3.797 3.797a.75.75 0 11-1.06 1.06l-3.797-3.797a.75.75 0 010-1.06z"/></svg><svg viewBox="0 0 20 20" id="send" xmlns="http://www.w3.org/2000/svg"><path d="M16.43 2.806L1.867 6.908a.625.625 0 00-.093 1.171l6.687 3.165c.131.06.236.165.297.296l3.164 6.688a.625.625 0 001.172-.094l4.101-14.562a.617.617 0 00-.765-.766zm-7.766 8.53l3.531-3.531"/></svg><svg viewBox="0 0 16 17" id="settings" xmlns="http://www.w3.org/2000/svg"><path d="M14.675 9.902l-.931-1.238c.006-.112 0-.23 0-.318l.93-1.244a.487.487 0 00.082-.431 7.174 7.174 0 00-.681-1.65.512.512 0 00-.363-.25l-1.53-.22-.232-.23-.219-1.532a.524.524 0 00-.244-.362 7.343 7.343 0 00-1.656-.681.488.488 0 00-.431.08l-1.238.926h-.325L6.6 1.827a.488.488 0 00-.431-.081 7.176 7.176 0 00-1.65.68.513.513 0 00-.25.363l-.22 1.532-.23.23-1.532.22a.513.513 0 00-.362.25 7.175 7.175 0 00-.681 1.65.488.488 0 00.08.43l.932 1.238v.32l-.931 1.243a.488.488 0 00-.081.431 7.2 7.2 0 00.68 1.65.513.513 0 00.363.25l1.532.219.23.231.22 1.531a.513.513 0 00.25.363c.52.295 1.073.524 1.65.681a.481.481 0 00.431-.081l1.237-.925h.325l1.238.925a.487.487 0 00.431.081 7.062 7.062 0 001.65-.681.512.512 0 00.25-.363l.219-1.537c.075-.075.162-.156.225-.225l1.537-.219a.513.513 0 00.363-.25 7.16 7.16 0 00.681-1.65.487.487 0 00-.081-.431zM8 11.252a2.75 2.75 0 110-5.5 2.75 2.75 0 010 5.5z"/></svg><svg data-name="Isolation Mode" viewBox="0 0 24 24" id="share" xmlns="http://www.w3.org/2000/svg"><path d="M19 14a4.969 4.969 0 00-3.818 1.811l-5.4-2.438A4.914 4.914 0 0010 12a4.929 4.929 0 00-.211-1.359l5.394-2.45A4.972 4.972 0 1014 5c0 .142.03.276.042.415L8.1 8.112A4.947 4.947 0 005 7a5 5 0 000 10 4.947 4.947 0 003.09-1.1l5.952 2.687c-.012.139-.042.272-.042.413a5 5 0 105-5zm0-11a2 2 0 11-2 2 2 2 0 012-2zM5 14a2 2 0 112-2 2 2 0 01-2 2zm14 7a2 2 0 112-2 2 2 0 01-2 2z"/></svg><svg viewBox="0 0 12 12" id="shield" xmlns="http://www.w3.org/2000/svg"><g clip-path="url(#eoa)"><path d="M9.972 1.32L6 .004 2.028 1.32A1.5 1.5 0 001 2.744V6c0 3.762 4.6 5.84 4.797 5.926l.177.079.184-.061C6.355 11.877 11 10.288 11 5.999V2.744A1.5 1.5 0 009.972 1.32z"/></g><defs><clipPath id="eoa"><path d="M0 0h12v12H0z"/></clipPath></defs></svg><svg viewBox="0 0 15 15" id="shopping-bag" xmlns="http://www.w3.org/2000/svg"><g clip-path="url(#epa)"><path d="M15 5.625a1.875 1.875 0 00-1.875-1.875H11.25a3.75 3.75 0 00-7.5 0H1.875A1.875 1.875 0 000 5.625v6.25A3.129 3.129 0 003.125 15h8.75A3.129 3.129 0 0015 11.875v-6.25zM5 3.75a2.5 2.5 0 115 0H5z"/></g><defs><clipPath id="epa"><path d="M0 0h15v15H0z"/></clipPath></defs></svg><svg data-name="Layer 1" viewBox="0 0 24 24" id="sign-in" xmlns="http://www.w3.org/2000/svg"><path d="M11.5 16a1.5 1.5 0 00-1.5 1.5v.8A2.7 2.7 0 017.3 21H5.7A2.7 2.7 0 013 18.3V5.7A2.7 2.7 0 015.7 3h1.6A2.7 2.7 0 0110 5.7v.8a1.5 1.5 0 003 0v-.8A5.706 5.706 0 007.3 0H5.7A5.706 5.706 0 000 5.7v12.6A5.706 5.706 0 005.7 24h1.6a5.706 5.706 0 005.7-5.7v-.8a1.5 1.5 0 00-1.5-1.5z"/><path d="M22.561 9.525l-4.586-4.586a1.5 1.5 0 00-2.121 2.122l3.411 3.411L7 10.5a1.5 1.5 0 000 3l12.318-.028-3.467 3.467a1.5 1.5 0 002.121 2.122l4.586-4.586a3.505 3.505 0 00.003-4.95z"/></svg><svg viewBox="0 0 20 21" id="smiley" xmlns="http://www.w3.org/2000/svg"><path d="M10 18a7.5 7.5 0 100-15 7.5 7.5 0 000 15z"/><path d="M7.188 9.719a.781.781 0 100-1.563.781.781 0 000 1.563zm5.625 0a.781.781 0 100-1.563.781.781 0 000 1.563zM13.25 12.375a3.758 3.758 0 01-6.5 0"/></svg><svg viewBox="0 0 14 14" id="sort" xmlns="http://www.w3.org/2000/svg"><defs><path d="M4 6h14v2H4V6zm0 6h9v2H4v-2zm0 6h5v2H4v-2z" id="esa"/></defs><g transform="translate(-4 -6)" fill-rule="evenodd"><path d="M0 0h24v24H0z"/><mask id="esb"><use xlink:href="#esa"/></mask><path d="M4.5 6.5v1h13v-1h-13zm0 6v1h8v-1h-8zm0 6v1h4v-1h-4z"/><g mask="url(#esb)" fill-rule="nonzero"><path d="M0 0h24v24H0z"/></g></g></svg><svg viewBox="0 0 17 15" id="star" xmlns="http://www.w3.org/2000/svg"><path d="M8.5 0l2.586 4.44 5.022 1.088-3.423 3.832.517 5.112L8.5 12.4l-4.702 2.072.517-5.112L.892 5.528 5.914 4.44 8.5 0z"/></svg><svg viewBox="0 0 25 26" id="star-2" xmlns="http://www.w3.org/2000/svg"><path d="M13.17.934l3.382 7.19c.044.1.14.17.243.185l7.568 1.156c.61.092.853.879.412 1.333l-5.318 5.425a.795.795 0 00-.213.694l1.258 7.667c.103.64-.537 1.125-1.081.825l-6.774-3.73a.3.3 0 00-.301 0l-6.774 3.73c-.544.3-1.184-.185-1.08-.825l1.3-7.898a.349.349 0 00-.095-.301L.226 10.79c-.442-.454-.199-1.24.411-1.333l7.568-1.156a.32.32 0 00.243-.185L11.83.926a.735.735 0 011.338.008z"/><defs><radialGradient id="eua" cx="0" cy="0" r="1" gradientUnits="userSpaceOnUse" gradientTransform="matrix(12.2181 0 0 12.8023 11.878 10.394)"><stop stop-color="#FFE343"/><stop offset=".549" stop-color="#FFE241"/><stop offset=".747" stop-color="#FFDF3A"/><stop offset=".887" stop-color="#FEDA2F"/><stop offset="1" stop-color="#FED31E"/></radialGradient></defs></svg><svg viewBox="0 0 16 15" id="star-default" xmlns="http://www.w3.org/2000/svg"><path d="M8 0l2.586 4.44 5.022 1.088-3.423 3.832.517 5.112L8 12.4l-4.702 2.072.517-5.112L.392 5.528 5.414 4.44 8 0z"/></svg><svg viewBox="0 0 32 32" id="storm" xmlns="http://www.w3.org/2000/svg"><path fill-rule="evenodd" d="M23.68 3.417a1.35 1.35 0 01.242 1.608L19.346 13.5h3.46c1.047 0 1.77 1.2 1.098 2.135-.535.744-2.981 4.112-5 6.228-2.77 2.904-7.67 6.097-8.918 6.892a1.34 1.34 0 01-1.665-.172 1.35 1.35 0 01-.242-1.607l4.576-8.476H9.194c-1.047 0-1.77-1.2-1.098-2.135.535-.744 2.982-4.113 5-6.228 2.77-2.904 7.67-6.097 8.918-6.892a1.34 1.34 0 011.665.172"/></svg><svg viewBox="0 0 40 40" id="swipe" xmlns="http://www.w3.org/2000/svg"><path d="M21.475 5.33c-.042-.021-4.203-1.997-7.514-2.249-3.48-.271-6.967 1.576-7.003 1.596l-.471-.883c.152-.081 3.78-1.992 7.55-1.711 3.499.268 7.692 2.261 7.869 2.345z"/><path d="M17.957 7.297l-.438-.899 3.43-1.672-2.216-3.045.809-.588 2.917 4.008zM3.023 9.914l-.431-.902c.177-.084 4.37-2.077 7.87-2.345 3.758-.274 7.397 1.63 7.549 1.711l-.471.883c-.035-.019-3.533-1.867-7.002-1.596-3.311.252-7.473 2.229-7.515 2.249z"/><path d="M6.542 11.881L2.039 9.685l2.917-4.008.809.588L3.549 9.31l3.43 1.672zm18.796 27.557c-1.273 0-2.564-.138-3.732-.398-1.993-.444-6.186-3.643-7.073-4.562-.802-.831-2.95-4.021-3.265-6.616-.138-1.13.729-4.497 1.79-5.695.209-.235.428-.393.652-.471a28.693 28.693 0 00-.137-.308c-.69-1.502-1.712-3.237-2.614-4.769-1.527-2.594-2.096-3.63-2-4.22.161-1 .981-2.154 2.073-2.356l.193-.039a4.06 4.06 0 01.859-.112c.953 0 1.826.544 2.749 1.711.799 1.011 2.093 3.802 3.182 6.327-.05-.636-.031-1.167.103-1.477.54-1.253 2.046-1.746 2.505-1.775l.113-.003c.291 0 1.78.073 2.47 1.521.11.232.215.482.312.735.124-.43.3-.805.551-1.019.772-.656 1.829-.996 2.548-.794.773.217 1.424 1.035 1.659 2.088.101-.228.223-.413.367-.521.699-.524 1.915-.58 2.685-.046.94.652 3.102 4.558 3.482 7.974.311 2.808.662 7.826-.497 9.894-1.204 2.145-3.667 3.811-5.446 4.45-.866.309-2.119.481-3.529.481zm-11.27-16.78c-.664.066-1.965 3.786-1.808 5.081.282 2.328 2.281 5.306 2.993 6.044.847.878 4.857 3.898 6.569 4.279 1.099.245 2.313.375 3.515.375 1.279 0 2.441-.155 3.189-.425 1.345-.483 3.761-1.946 4.912-3.999.748-1.331.885-4.719.376-9.292-.361-3.258-2.468-6.854-3.057-7.264-.473-.327-1.261-.167-1.516.025-.141.161-.35 1.103-.431 2l-.251 2.767-.729-2.681s-.324-1.19-.528-2.133c-.174-.797-.618-1.263-.957-1.357-.373-.106-1.122.161-1.629.593-.276.235-.481 1.593-.49 2.663l-.038 4.157-.949-4.048c-.004-.018-.401-1.703-.936-2.82-.432-.906-1.382-.952-1.567-.952-.291.02-1.356.378-1.7 1.175-.24.559.304 3.476.945 5.857l-.948.312c-.033-.087-3.518-8.942-4.983-10.795-.942-1.192-1.572-1.33-1.964-1.33-.22 0-.432.044-.655.091l-.215.043c-.562.104-1.153.821-1.27 1.534.009.382 1.044 2.14 1.876 3.553.913 1.552 1.949 3.311 2.66 4.858.181.393.349.802.504 1.22l.002.007c1.085 1.495 1.625 6.412 1.684 6.977l-.993.115c-.004-.035-.462-3.537-1.572-6.593a.393.393 0 00-.039-.037z"/></svg><svg viewBox="0 0 24 24" id="telegram" xmlns="http://www.w3.org/2000/svg"><path d="M12 0C5.373 0 0 5.373 0 12s5.373 12 12 12 12-5.373 12-12S18.627 0 12 0zm5.562 8.161c-.18 1.897-.962 6.502-1.359 8.627-.168.9-.5 1.201-.82 1.23-.697.064-1.226-.461-1.901-.903-1.056-.692-1.653-1.123-2.678-1.799-1.185-.781-.417-1.21.258-1.911.177-.184 3.247-2.977 3.307-3.23.007-.032.015-.15-.056-.212s-.174-.041-.248-.024c-.106.024-1.793 1.139-5.062 3.345-.479.329-.913.489-1.302.481-.428-.009-1.252-.242-1.865-.442-.751-.244-1.349-.374-1.297-.788.027-.216.324-.437.892-.663a585.592 585.592 0 016.998-3.015c3.333-1.386 4.025-1.627 4.477-1.635.566-.008.702.459.656.939z"/></svg><svg data-name="Layer 1" viewBox="0 0 24 24" id="telemost" xmlns="http://www.w3.org/2000/svg"><path d="M13 10v4c0 .551-.449 1-1 1H8c-.551 0-1-.449-1-1v-4c0-.551.449-1 1-1h4c.551 0 1 .449 1 1zm11 2c0 6.617-5.383 12-12 12S0 18.617 0 12 5.383 0 12 0s12 5.383 12 12zm-4.907-2.336c0-.94-1.058-1.491-1.828-.952L15 10.126V10c0-1.654-1.346-3-3-3H8c-1.654 0-3 1.346-3 3v4c0 1.654 1.346 3 3 3h4c1.654 0 3-1.346 3-3v-.126l2.265 1.414a1.162 1.162 0 001.828-.952V9.664z"/></svg><svg viewBox="0 0 24 24" id="tg" xmlns="http://www.w3.org/2000/svg"><circle cx="7" cy="22" r="2"/><circle cx="17" cy="22" r="2"/><path d="M19.75 13.162A2.5 2.5 0 0117.339 15H7.217a.329.329 0 01-.325-.3L6.036 8H10.5A1.5 1.5 0 0012 6.5 1.5 1.5 0 0010.5 5H5.653l-.262-2.061A3.327 3.327 0 002.087 0H1.5a1.5 1.5 0 000 3h.587a.329.329 0 01.325.3l1.5 11.76A3.327 3.327 0 007.217 18h10.122a5.5 5.5 0 005.3-4.042l.016-.06A1.5 1.5 0 0021.213 12a1.5 1.5 0 00-1.446 1.1zM22.5 3H21V1.5a1.5 1.5 0 00-3 0V3h-1.5a1.5 1.5 0 000 3H18v1.5a1.5 1.5 0 003 0V6h1.5a1.5 1.5 0 000-3z"/></svg><svg viewBox="0 0 24 24" id="tg-2" xmlns="http://www.w3.org/2000/svg"><path d="M9.633 15.181l-.364 5.584c.52 0 .746-.244 1.016-.537l2.441-2.545 5.059 4.041c.927.564 1.581.267 1.831-.93l3.32-16.973h.001c.295-1.497-.495-2.082-1.4-1.715L2.022 10.257c-1.332.564-1.311 1.374-.226 1.741l4.99 1.693 11.59-7.91c.545-.395 1.04-.177.633.217l-9.375 9.183z"/></svg><svg viewBox="0 0 20 20" id="thumbtack" xmlns="http://www.w3.org/2000/svg"><g clip-path="url(#fca)"><path d="M.833 20a.834.834 0 00.59-.244l5.515-5.516 1.04 1.077a4.307 4.307 0 003.004 1.345c.38 0 .758-.063 1.116-.19a3.025 3.025 0 002.03-2.601 7.08 7.08 0 00-.186-2.523l-.178-.868a.834.834 0 01.22-.786l1.322-1.323a.283.283 0 01.197-.083.142.142 0 01.14.054 2.564 2.564 0 003.308.36 2.5 2.5 0 00.316-3.804l-4.1-4.103a2.571 2.571 0 00-3.282-.333 2.5 2.5 0 00-.317 3.804l.064.063a.257.257 0 010 .362l-1.334 1.333a.834.834 0 01-.795.218l-.68-.174a7.193 7.193 0 00-2.569-.195 3.22 3.22 0 00-2.713 2.155 3.333 3.333 0 00.774 3.5l1.465 1.517-5.536 5.533A.833.833 0 00.834 20zm4.28-11.417A1.547 1.547 0 016.426 7.53a5.584 5.584 0 011.979.15l.685.176a2.508 2.508 0 002.386-.654l1.333-1.334a1.925 1.925 0 000-2.718l-.064-.063a.834.834 0 01.112-1.274.903.903 0 011.13.159l4.104 4.103a.834.834 0 01-.112 1.273.904.904 0 01-1.14-.166 1.843 1.843 0 00-1.32-.56 2 2 0 00-1.39.57L12.81 8.514a2.5 2.5 0 00-.667 2.334l.183.881c.168.643.22 1.31.15 1.972a1.38 1.38 0 01-.928 1.203 2.333 2.333 0 01-2.376-.75l-3.666-3.791a1.69 1.69 0 01-.393-1.78z"/></g><defs><clipPath id="fca"><path d="M0 0h20v20H0z"/></clipPath></defs></svg><svg viewBox="0 0 15 15" id="time" xmlns="http://www.w3.org/2000/svg"><path d="M15 4.375V5H0v-.625C0 2.649 1.4 1.25 3.125 1.25h.625V.625a.625.625 0 011.25 0v.625h5V.625a.625.625 0 011.25 0v.625h.625C13.601 1.25 15 2.65 15 4.375zm0 6.25A4.38 4.38 0 0110.625 15a4.38 4.38 0 01-4.375-4.375 4.38 4.38 0 014.375-4.375A4.38 4.38 0 0115 10.625zm-3.125.366l-.625-.625v-.991a.625.625 0 00-1.25 0v1.25c0 .166.066.325.183.442l.808.808a.625.625 0 00.884-.884zM5 10.625A5.61 5.61 0 017.093 6.25H0v5.625C0 13.601 1.4 15 3.125 15h3.968A5.612 5.612 0 015 10.625z"/></svg><svg class="febase-0-2-8" viewBox="0 0 16 16" id="time-2" xmlns="http://www.w3.org/2000/svg"><path d="M7.036 6a1 1 0 012 0v1.739l1.2.841a1 1 0 11-1.146 1.64L7.455 9.074a1 1 0 01-.415-.976A1.013 1.013 0 017.036 8V6z"/><path fill-rule="evenodd" d="M16 8A8 8 0 110 8a8 8 0 0116 0zm-2 0A6 6 0 112 8a6 6 0 0112 0z" clip-rule="evenodd"/></svg><svg viewBox="0 0 11 11" id="trash" xmlns="http://www.w3.org/2000/svg"><path fill-rule="evenodd" clip-rule="evenodd" d="M1.219 2.406a.5.5 0 01.5-.5H9.28a.5.5 0 010 1H1.72a.5.5 0 01-.5-.5zm3.25 1.563a.5.5 0 01.5.5v2.75a.5.5 0 01-1 0v-2.75a.5.5 0 01.5-.5zm2.062 0a.5.5 0 01.5.5v2.75a.5.5 0 01-1 0v-2.75a.5.5 0 01.5-.5z"/><path fill-rule="evenodd" clip-rule="evenodd" d="M2.406 1.906a.5.5 0 01.5.5v6.375h5.188V2.406a.5.5 0 011 0v6.531a.844.844 0 01-.844.844h-5.5a.844.844 0 01-.844-.844v-6.53a.5.5 0 01.5-.5z"/><path fill-rule="evenodd" clip-rule="evenodd" d="M3.63.88a1.18 1.18 0 01.839-.349H6.53A1.188 1.188 0 017.72 1.72v.687a.5.5 0 01-1 0V1.72a.187.187 0 00-.188-.188H4.47a.187.187 0 00-.188.188v.687a.5.5 0 01-1 0V1.72c0-.315.125-.617.348-.84z"/></svg><svg viewBox="0 0 512 512" id="trash-2" xmlns="http://www.w3.org/2000/svg"><path d="M490.667 96c0-17.673-14.327-32-32-32h-80.555C364.632 25.757 328.549.13 288 0h-64c-40.549.13-76.632 25.757-90.112 64H53.333c-17.673 0-32 14.327-32 32 0 17.673 14.327 32 32 32H64v266.667C64 459.468 116.532 512 181.333 512h149.333C395.468 512 448 459.468 448 394.667V128h10.667c17.673 0 32-14.327 32-32zM384 394.667C384 424.122 360.122 448 330.667 448H181.333C151.878 448 128 424.122 128 394.667V128h256v266.667z"/><path d="M202.667 384c17.673 0 32-14.327 32-32V224c0-17.673-14.327-32-32-32s-32 14.327-32 32v128c0 17.673 14.327 32 32 32zm106.666 0c17.673 0 32-14.327 32-32V224c0-17.673-14.327-32-32-32s-32 14.327-32 32v128c0 17.673 14.327 32 32 32z"/></svg><svg data-name="Layer 1" viewBox="0 0 24 24" id="usd" xmlns="http://www.w3.org/2000/svg"><path d="M12 0C5.383 0 0 5.383 0 12s5.383 12 12 12 12-5.383 12-12S18.617 0 12 0zm0 22C6.486 22 2 17.514 2 12S6.486 2 12 2s10 4.486 10 10-4.486 10-10 10zm4-8c0 1.654-1.346 3-3 3v1a1 1 0 11-2 0v-1h-.268a3.01 3.01 0 01-2.598-1.499 1 1 0 111.73-1.002c.179.31.511.501.867.501h2.268a1 1 0 001-1 .768.768 0 00-.644-.76l-3.041-.507A2.761 2.761 0 017.999 10c0-1.654 1.346-3 3-3V6a1 1 0 112 0v1h.268c1.067 0 2.063.575 2.598 1.5a1 1 0 11-1.73 1.001 1.004 1.004 0 00-.867-.5H11c-.552 0-1 .449-1 1 0 .378.271.698.644.76l3.041.507A2.761 2.761 0 0116 14.001z"/></svg><svg viewBox="0 0 12 12" id="user" xmlns="http://www.w3.org/2000/svg"><path d="M6 6a3 3 0 100-6 3 3 0 000 6zm0 1a4.505 4.505 0 00-4.5 4.5.5.5 0 00.5.5h8a.5.5 0 00.5-.5A4.505 4.505 0 006 7z"/></svg><svg viewBox="0 0 12 12" id="users-alt" xmlns="http://www.w3.org/2000/svg"><path d="M6 8a2 2 0 110-4 2 2 0 010 4zM2.841 8H.5a.5.5 0 01-.5-.5 3.011 3.011 0 012.566-2.958.5.5 0 01.55.633 2.968 2.968 0 00.178 2.11.5.5 0 01-.451.715h-.002zM8.5 12h-5a.5.5 0 01-.5-.5 3 3 0 016 0 .5.5 0 01-.5.5zM9 4a2 2 0 110-4 2 2 0 010 4zM3 4a2 2 0 110-4 2 2 0 010 4zm8.5 4H9.159a.5.5 0 01-.45-.715 2.969 2.969 0 00.173-2.11.5.5 0 01.553-.633A3.01 3.01 0 0112 7.5a.5.5 0 01-.5.5z"/></svg><svg viewBox="0 0 11 8" id="verif" xmlns="http://www.w3.org/2000/svg"><path d="M9.797 1.156L4.064 6.625l-2.86-2.734"/></svg><svg viewBox="0 0 16 16" id="verif2" xmlns="http://www.w3.org/2000/svg"><path fill-rule="evenodd" d="M8 15A7 7 0 108 1a7 7 0 000 14zm3.8-8.3a1 1 0 00-1.42-1.4L7.2 8.46a.28.28 0 01-.4 0l-1.1-1.1A1 1 0 004.3 8.8l2.08 2.09c.34.34.9.34 1.24 0L11.8 6.7z"/></svg><svg viewBox="0 0 24 24" id="vk" xmlns="http://www.w3.org/2000/svg"><g clip-path="url(#fma)"><path d="M19.915 13.028c-.388-.49-.277-.708 0-1.146.005-.005 3.208-4.431 3.538-5.932l.002-.001c.164-.547 0-.949-.793-.949h-2.624c-.668 0-.976.345-1.141.731 0 0-1.336 3.198-3.226 5.271-.61.599-.892.791-1.225.791-.164 0-.419-.192-.419-.739V5.949c0-.656-.187-.949-.74-.949H9.161c-.419 0-.668.306-.668.591 0 .622.945.765 1.043 2.515v3.797c0 .832-.151.985-.486.985-.892 0-3.057-3.211-4.34-6.886-.259-.713-.512-1.001-1.185-1.001H.9c-.749 0-.9.345-.9.731 0 .682.892 4.073 4.148 8.553C6.318 17.343 9.374 19 12.154 19c1.671 0 1.875-.368 1.875-1.001 0-2.922-.151-3.198.686-3.198.388 0 1.056.192 2.616 1.667C19.114 18.217 19.407 19 20.405 19h2.624c.748 0 1.127-.368.909-1.094-.499-1.527-3.871-4.668-4.023-4.878z"/></g><defs><clipPath id="fma"><path d="M0 0h24v24H0z"/></clipPath></defs></svg><svg viewBox="0 0 33 34" id="wallet" xmlns="http://www.w3.org/2000/svg"><path d="M28.9 7.091c2.267.05 4.1 2.514 4.1 5v18c0 1.345-1.642 3-3 3H3c-1.358 0-3-1.655-3-3v-21c0-4.469 2.933-4.839 3-5l22-4c2.375-.452 3 .889 3 1.514v2.486l-25 2c.659 1.155.99.97 2 1h23.9zm-.4 14.487v-1.661c0-1.168-.898-2.196-2.057-2.341l-2.284-.286c-.537-.067-1.403-.444-1.825-.796l-1.647-1.37c-.693-.577-1.922-1.033-2.861-1.033h-5.914c-.963 0-2.185.517-2.834 1.166l-1.861 1.819C6.523 17.771 6 18.998 6 19.917v1.661c0 1.166 1.016 2.156 2.267 2.156h.977c.347 1.072 1.375 1.897 2.587 1.897 1.211 0 2.24-.825 2.587-1.897h5.762c.348 1.072 1.376 1.897 2.587 1.897 1.212 0 2.24-.825 2.588-1.897h.977a2.147 2.147 0 002.168-2.156zm-5.733.365a.933.933 0 11-.932.932c0-.514.42-.932.932-.932zm-10.936 0a.932.932 0 11-.002 1.864.932.932 0 01.002-1.864zm14.411-2.604c.26.034.517.317.517.579v1.66c0 .262-.277.282-.427.282h-1.03c-.392-.938-1.379-1.75-2.535-1.75-1.156 0-2.143.812-2.533 1.75h-5.87c-.39-.938-1.377-1.75-2.533-1.75s-2.144.812-2.534 1.75h-1.03c-.23 0-.526-.093-.526-.282v-1.66c0-.45.358-1.213.707-1.563l1.871-1.85c.325-.325 1.104-.672 1.593-.672h5.913c.525 0 1.346.327 1.728.644l1.648 1.37c.682.57 1.861 1.091 2.742 1.201l2.3.292z"/></svg><svg viewBox="0 0 20 20" id="warning" xmlns="http://www.w3.org/2000/svg"><path d="M9.167 10.832v-5c0-.458.375-.833.833-.833.458 0 .833.375.833.833v5a.836.836 0 01-.833.833.836.836 0 01-.833-.833zM10 12.499c-.692 0-1.25.558-1.25 1.25a1.25 1.25 0 101.25-1.25zm9.65 4.066c-.583 1.125-1.808 1.767-3.342 1.767H3.7c-1.542 0-2.758-.642-3.342-1.767-.591-1.133-.425-2.583.417-3.8l6.7-10.6A3.06 3.06 0 0110 .832c1 0 1.933.483 2.5 1.308l6.733 10.642c.842 1.217 1 2.658.409 3.783h.008zm-1.792-2.85s-.017-.016-.017-.033L11.117 3.057A1.366 1.366 0 0010 2.499a1.36 1.36 0 00-1.133.591L2.158 13.682c-.516.733-.633 1.533-.333 2.108.292.567.958.875 1.867.875h12.6c.908 0 1.574-.308 1.866-.875.3-.575.183-1.375-.308-2.075h.008z"/></svg><svg viewBox="0 0 24 24" id="wh" xmlns="http://www.w3.org/2000/svg"><path d="M22 11.742c0 5.381-4.395 9.743-9.818 9.743a9.835 9.835 0 01-4.746-1.212L2 22l1.772-5.227a9.64 9.64 0 01-1.409-5.03C2.363 6.361 6.76 2 12.182 2 17.605 2 22 6.362 22 11.742zm-9.818-8.19c-4.552 0-8.255 3.674-8.255 8.19 0 1.793.584 3.452 1.573 4.803l-1.032 3.042 3.172-1.009a8.25 8.25 0 004.542 1.355c4.551 0 8.255-3.674 8.255-8.19 0-4.517-3.703-8.191-8.255-8.191zm4.958 10.434c-.06-.1-.221-.16-.462-.278-.24-.12-1.424-.698-1.644-.777-.22-.08-.382-.12-.542.12-.16.238-.621.776-.762.935-.14.16-.28.18-.522.06-.24-.119-1.015-.371-1.935-1.185-.715-.633-1.198-1.414-1.339-1.653-.14-.24-.014-.368.106-.487.108-.107.24-.279.361-.418.12-.14.16-.24.24-.399.081-.16.041-.298-.02-.418-.06-.12-.541-1.295-.742-1.773-.2-.478-.4-.398-.541-.398-.14 0-.3-.02-.461-.02-.16 0-.422.06-.642.299-.22.239-.842.816-.842 1.991 0 1.175.862 2.31.982 2.47.12.159 1.665 2.649 4.111 3.605 2.447.956 2.447.637 2.889.597.44-.04 1.423-.578 1.625-1.135.2-.558.2-1.036.14-1.136z"/></svg><svg viewBox="0 0 24 24" id="whatsapp" xmlns="http://www.w3.org/2000/svg"><path d="M22 11.742c0 5.381-4.395 9.743-9.818 9.743a9.835 9.835 0 01-4.746-1.212L2 22l1.772-5.227a9.64 9.64 0 01-1.409-5.03C2.363 6.361 6.76 2 12.182 2 17.605 2 22 6.362 22 11.742zm-9.818-8.19c-4.552 0-8.255 3.674-8.255 8.19 0 1.793.584 3.452 1.573 4.803l-1.032 3.042 3.172-1.009a8.25 8.25 0 004.542 1.355c4.551 0 8.255-3.674 8.255-8.19 0-4.517-3.703-8.191-8.255-8.191zm4.958 10.434c-.06-.1-.221-.16-.462-.278-.24-.12-1.424-.698-1.644-.777-.22-.08-.382-.12-.542.12-.16.238-.621.776-.762.935-.14.16-.28.18-.522.06-.24-.119-1.015-.371-1.935-1.185-.715-.633-1.198-1.414-1.339-1.653-.14-.24-.014-.368.106-.487.108-.107.24-.279.361-.418.12-.14.16-.24.24-.399.081-.16.041-.298-.02-.418-.06-.12-.541-1.295-.742-1.773-.2-.478-.4-.398-.541-.398-.14 0-.3-.02-.461-.02-.16 0-.422.06-.642.299-.22.239-.842.816-.842 1.991 0 1.175.862 2.31.982 2.47.12.159 1.665 2.649 4.111 3.605 2.447.956 2.447.637 2.889.597.44-.04 1.423-.578 1.625-1.135.2-.558.2-1.036.14-1.136z"/></svg><svg viewBox="0 0 24 24" id="x" xmlns="http://www.w3.org/2000/svg"><path d="M18 6a1 1 0 00-1.414 0L12 10.586 7.414 6A1 1 0 006 6a1 1 0 000 1.414L10.586 12 6 16.586A1 1 0 006 18a1 1 0 001.414 0L12 13.414 16.586 18A1 1 0 0018 18a1 1 0 000-1.414L13.414 12 18 7.414A1 1 0 0018 6z"/></svg><svg viewBox="0 0 10 10" id="x-two" xmlns="http://www.w3.org/2000/svg"><path d="M1.929 1.929a9.62 9.62 0 01.643-.588L5 3.769l2.427-2.427A9.267 9.267 0 018.7 2.624L6.277 5.046l2.38 2.381a9.295 9.295 0 01-1.23 1.23l-2.38-2.38L2.623 8.7a9.285 9.285 0 01-1.282-1.273L3.77 5 1.342 2.573c.182-.219.377-.434.587-.644z"/></svg></svg>