<svg xmlns="http://www.w3.org/2000/svg" width="56" height="56" viewBox="0 0 56 56" fill="none"><rect width="56" height="56" rx="28" fill="#FFDD2D"/><g clip-path="url(#seca0b0__a)"><path d="M27.466 12.201c-1.995 0-4.474 1.233-5.398 2.101l.363.825s-2.813.038-4.263.971c-1.45.934-2.111 1.568-2.825 3.076-.716.034-3.397 1.172-4.95 2.316 0 0-1.305 4.94 1.167 7.073L10 30.705c.394 1.349 2.093 2.72 3.782 2.883.76.92-.714 2.75-.714 2.75.624 1.981 4.825 4.158 7.333 4.158l-.345 1.166s2.795 2.035 7.304 1.845c3.812.124 6.913-.787 7.7-1.845l-.399-1.166c3.482-.519 6.112-1.654 7.575-4.064 0 0-1.09-2.29-.71-2.865 1.69-.164 3.27-1.827 3.69-2.554l-1.533-2.411c1.222-1.372 1.906-4.993 1.008-7.112-1.553-1.144-4.208-2.074-4.923-2.108-.284-1.674-2.105-2.983-2.105-2.983-1.725-1.5-4.862-1.272-4.862-1.272l.255-.825c-.8-.891-3.325-2.1-5.59-2.1Z" fill="white"/><path d="M22.814 16.887c-1.997-.509-3.502.187-4.804 1.145-1.305.959-1.82 2.203-1.706 2.648-1.066-.437-3.41.918-4.525 1.568 0 0-.863 4.221 1.344 5.855-.115 1.147-.924 2.523-1.344 2.78.728 1.148 2.269 1.461 2.921 1.17 1.091 1.51.564 3.557-.042 4.21 1.696 1.53 5.74 2.173 6.926 2.269 0 0-1.043-2.445-1.509-4.46-1.287-5.566-.594-12.513-.594-12.513s-3.007 3.5-1.33 11.937a55 55 0 0 0 .682 2.93c-.279-.137-.96-.054-2.21-.687.535-.577.305-4-1.274-5.68 0 0-.752.346-1.303.117.371-.228.834-1.683.834-2.796-1.785-1.067-1.596-2.997-1.507-4.011.876-.57 2.447-1.536 4.424-.692-.052-.479.084-1.753.626-2.646 0 0 .66-1.149 2.152-1.51 1.492-.36 2.239-1.634 2.239-1.634Zm9.587 0c1.997-.509 3.502.187 4.804 1.145 1.305.959 1.82 2.203 1.705 2.648 1.068-.437 3.41.918 4.526 1.568 0 0 .863 4.221-1.344 5.855.115 1.147.924 2.523 1.344 2.78-.728 1.148-2.269 1.462-2.921 1.17-1.091 1.51-.564 3.557.042 4.21-1.696 1.53-5.74 2.173-6.926 2.269 0 0 1.043-2.445 1.509-4.46 1.287-5.566.594-12.513.594-12.513s3.007 3.5 1.33 11.937a54.179 54.179 0 0 1-.682 2.93c.279-.137.96-.053 2.21-.687-.535-.577-.305-4 1.274-5.68 0 0 .752.347 1.303.117-.371-.228-.834-1.683-.834-2.796 1.785-1.067 1.596-2.997 1.507-4.011-.876-.57-2.447-1.536-4.424-.692.052-.479-.084-1.753-.626-2.646 0 0-.66-1.149-2.152-1.51-1.492-.36-2.239-1.634-2.239-1.634Z" fill="#333"/><path fill-rule="evenodd" clip-rule="evenodd" d="M27.77 20.139c-1.437-.005-3.335.377-3.335.377l-.57-5.677 3.837-1.16 3.649 1.16-.313 5.677s-1.854-.372-3.268-.377Zm0-1.619c-.797-.02-1.822.123-1.822.123l-.235-2.69 1.989-.54 1.974.54v2.69s-1.092-.101-1.906-.123Zm-.183 23.195c3.322-.039 5.449-1.029 5.449-1.029l-1.299-4.08s-2.787.808-4.13.81c-1.342-.002-4.085-.81-4.085-.81l-1.343 4.08s2.087.99 5.409 1.029Zm.02-1.362c1.892-.007 3.06-.395 3.695-.653l-.348-1.398c-.783.257-2.14.541-3.347.551-1.206-.01-2.572-.222-3.355-.479L23.95 39.7c.634.258 1.766.646 3.657.653Zm6.725-18.048H20.883c.105.145.528.85.68 1.258.152.408.264.82.27 1.074.003.201.028.825.06 1.641v.008c.063 1.618.157 3.997.183 5.402.011.62.15 1.442.646 2.113.507.684 1.362 1.181 2.736 1.181h.967c.096 0 .161.025.213.06a.58.58 0 0 1 .159.182c.052.085.106.203.156.316.046.103.097.218.158.322.02.028.104.14.181.189a.572.572 0 0 0 .316.084c.13 0 .235-.032.319-.084.078-.048.157-.161.18-.189a3.35 3.35 0 0 0 .17-.331c.05-.114.099-.225.15-.31a.567.567 0 0 1 .153-.18.35.35 0 0 1 .21-.059h.966c1.375 0 2.23-.496 2.736-1.18.498-.672.635-1.494.647-2.114.026-1.405.12-3.783.183-5.401v-.008c.032-.816.057-1.44.06-1.642.006-.254.118-.666.27-1.074.152-.407.575-1.113.68-1.258Zm-10.89 1.904a5.275 5.275 0 0 0-.05-.247h8.47a2.1 2.1 0 0 0-.053.248c-.03.197-.036.514-.036.514-.066 1.654-.198 5.101-.198 6.816 0 .707-.228 1.164-.53 1.443a1.533 1.533 0 0 1-1.091.39l-.262-.006a19.225 19.225 0 0 1-.368-.008c-.385-.017-.76 0-1.085.09a1.51 1.51 0 0 0-.629.33c-.41-.405-1.072-.584-1.75-.553-.064.003-.238.006-.4.008a26.27 26.27 0 0 0-.294.005c-.72.023-1.45-.573-1.45-1.7 0-1.872-.121-5.016-.184-6.629 0 0-.044-.46-.09-.701Z" fill="#333"/><path d="M23.372 23.962c.018.076.036.16.052.247.045.241.09.701.09.701.062 1.613.184 4.757.184 6.63 0 1.126.729 1.722 1.449 1.7l.295-.006c.161-.002.335-.005.399-.008.678-.03 1.34.148 1.75.554.176-.162.393-.267.63-.331.325-.09.7-.107 1.084-.09.064.003.222.006.368.008l.262.005c.383.013.786-.107 1.091-.39.302-.278.53-.735.53-1.442 0-1.715.132-5.161.198-6.816 0 0 .006-.317.036-.514.012-.079.029-.163.052-.248h-8.47Z" fill="#FFDD2D"/></g><defs><clipPath id="seca0b0__a"><path fill="white" transform="translate(10 10)" d="M0 0h36v36H0z"/></clipPath></defs></svg>