<svg width="47" height="26" viewBox="0 0 47 26" fill="none" xmlns="http://www.w3.org/2000/svg">
<g clip-path="url(#clip0_3724_1548)">
<path d="M34.0698 0.5H12.9302C6.0652 0.5 0.5 6.09644 0.5 13C0.5 19.9036 6.0652 25.5 12.9302 25.5H34.0698C40.9348 25.5 46.5 19.9036 46.5 13C46.5 6.09644 40.9348 0.5 34.0698 0.5Z" fill="#303030"/>
<path d="M7.71124 6.92679H21.1024V13.6993C21.1024 15.4356 20.1805 17.0403 18.6863 17.9085L14.4068 20.3932L10.1274 17.9085C8.6312 17.0403 7.71124 15.4356 7.71124 13.6993V6.92679Z" fill="#FFDD2D"/>
<path fill-rule="evenodd" clip-rule="evenodd" d="M11.3852 10.4918V12.5974C11.6723 12.2713 12.1919 12.0513 12.7876 12.0513H13.4341V14.5006C13.4341 15.1527 13.2583 15.7224 12.9966 16.0366H15.8112C15.5514 15.7224 15.3756 15.1527 15.3756 14.5026V12.0533H16.0221C16.6179 12.0533 17.1394 12.2733 17.4245 12.5993V10.4937H11.3833L11.3852 10.4918Z" fill="#333333"/>
<path d="M28.7473 17.2466V9.28772H26.2511V17.2466H28.7473Z" fill="white"/>
<path d="M34.7632 17.2466C37.9215 17.2466 39.4841 15.5574 39.4841 13.2671C39.4841 10.9769 37.9196 9.28772 35.0288 9.28772H30.5735V17.2466H34.7651H34.7632ZM34.5112 11.193C36.2242 11.193 36.9391 11.9629 36.9391 13.2671C36.9391 14.4712 36.2261 15.3904 34.5112 15.3904H32.9819V11.193H34.5112Z" fill="white"/>
</g>
<defs>
<clipPath id="clip0_3724_1548">
<rect width="46" height="25" fill="white" transform="translate(0.5 0.5)"/>
</clipPath>
</defs>
</svg>
