<svg xmlns="http://www.w3.org/2000/svg" xmlns:xlink="http://www.w3.org/1999/xlink" width="32.000000" height="48.000000" viewBox="0 0 32 48" fill="none">
	<defs/>
	<rect id="Фон документа" x="0.500000" y="0.500000" rx="2.000000" width="31.000000" height="47.000000" fill="#FFFFFF"/>
	<rect id="Фон документа" x="0.500000" y="0.500000" rx="2.000000" width="31.000000" height="47.000000" stroke="#EAE9F2"/>
	<rect id="Полоска" x="5.000000" y="16.000000" width="9.000000" height="1.000000" fill="#B9B6C9"/>
	<rect id="Полоска" x="5.000000" y="19.000000" width="6.000000" height="1.000000" fill="#B9B6C9"/>
	<rect id="Полоска" x="15.000000" y="16.000000" width="5.000000" height="1.000000" fill="#B9B6C9"/>
	<rect id="Полоска" x="12.000000" y="19.000000" width="5.000000" height="1.000000" fill="#B9B6C9"/>
	<rect id="Полоска" x="21.000000" y="16.000000" width="6.000000" height="1.000000" fill="#B9B6C9"/>
	<path id="Выписка" d="M7.53613 11L7.53613 8.18359L8.71191 8.18359Q9.15527 8.18359 9.38965 8.39258Q9.62402 8.60156 9.62402 8.92383Q9.62402 9.14844 9.51855 9.30078Q9.41309 9.45312 9.25684 9.52344Q9.4502 9.58398 9.58984 9.75Q9.72949 9.91602 9.72949 10.1875Q9.72949 10.5469 9.46973 10.7734Q9.20996 11 8.76855 11L7.53613 11ZM8.25293 10.416L8.66504 10.416Q8.82129 10.416 8.91309 10.3398Q9.00488 10.2637 9.00488 10.1289Q9.00488 9.99414 8.91309 9.91699Q8.82129 9.83984 8.66504 9.83984L8.25293 9.83984L8.25293 10.416ZM8.25293 9.29688L8.6084 9.29688Q8.75098 9.29688 8.82812 9.22168Q8.90527 9.14648 8.90527 9.03125Q8.90527 8.9043 8.8252 8.83594Q8.74512 8.76758 8.59668 8.76758L8.25293 8.76758L8.25293 9.29688ZM10.0967 11L10.0967 8.91211L10.7646 8.91211L10.7646 9.47266L11.085 9.47266Q11.4639 9.47266 11.6885 9.68555Q11.9131 9.89844 11.9131 10.2324Q11.9131 10.5684 11.6875 10.7842Q11.4619 11 11.085 11L10.0967 11ZM10.7646 10.4648L11.001 10.4648Q11.1104 10.4648 11.1777 10.3994Q11.2451 10.334 11.2451 10.2324Q11.2451 10.1309 11.1787 10.0693Q11.1123 10.0078 11.001 10.0078L10.7646 10.0078L10.7646 10.4648ZM12.1006 11L12.1006 8.91211L12.7686 8.91211L12.7686 11L12.1006 11ZM13.2314 11L13.2314 8.91211L15.2061 8.91211L15.2061 11L14.5264 11L14.5264 9.49219L13.9111 9.49219L13.9111 11L13.2314 11ZM15.6709 11L15.6709 8.91211L16.335 8.91211L16.335 10.0039L17.042 8.91211L17.6826 8.91211L17.6826 11L17.0186 11L17.0186 9.9082L16.3096 11L15.6709 11ZM18.0361 9.95508Q18.0361 9.64258 18.1631 9.39551Q18.29 9.14844 18.5322 9.00391Q18.7744 8.85938 19.0928 8.85938Q19.5166 8.85938 19.7754 9.09668Q20.0342 9.33398 20.0654 9.69141L19.417 9.69141Q19.3896 9.58789 19.3086 9.51562Q19.2275 9.44336 19.0928 9.44336Q18.9189 9.44336 18.8184 9.58301Q18.7178 9.72266 18.7178 9.95508Q18.7178 10.1953 18.8193 10.332Q18.9209 10.4688 19.0967 10.4688Q19.2373 10.4688 19.3203 10.3975Q19.4033 10.3262 19.4287 10.2168L20.0732 10.2168Q20.0459 10.5879 19.7812 10.8203Q19.5166 11.0527 19.0928 11.0527Q18.6123 11.0527 18.3242 10.7441Q18.0361 10.4355 18.0361 9.95508ZM20.417 11L20.417 8.91211L21.0967 8.91211L21.0967 9.70703L21.6963 8.91211L22.4443 8.91211L21.7002 9.89258L22.4639 11L21.6885 11L21.0967 10.1113L21.0967 11L20.417 11ZM22.5674 10.3809Q22.5674 10.0527 22.7988 9.87207Q23.0303 9.69141 23.4404 9.69141L23.8564 9.69141L23.8564 9.61523Q23.8564 9.49805 23.7764 9.4375Q23.6963 9.37695 23.5635 9.37695Q23.4404 9.37695 23.3682 9.4248Q23.2959 9.47266 23.2803 9.54492L22.6514 9.54492Q22.6943 9.24805 22.9395 9.05371Q23.1846 8.85938 23.5967 8.85938Q24.0264 8.85938 24.2734 9.05859Q24.5205 9.25781 24.5205 9.64062L24.5205 11L23.8955 11L23.8955 10.7832Q23.8037 10.9102 23.6504 10.9814Q23.4971 11.0527 23.2959 11.0527Q22.9814 11.0527 22.7744 10.8721Q22.5674 10.6914 22.5674 10.3809ZM23.249 10.3398Q23.249 10.4297 23.3174 10.4824Q23.3857 10.5352 23.5049 10.5352Q23.6514 10.5352 23.7539 10.4502Q23.8564 10.3652 23.8564 10.2129L23.8564 10.1445L23.4932 10.1445Q23.3857 10.1445 23.3174 10.1982Q23.249 10.252 23.249 10.3398Z" fill-rule="evenodd" fill="#6E6A81"/>
	<path id="Печать" d="M23 35C20.791 35 19 36.7908 19 39C19 41.2092 20.791 43 23 43C25.209 43 27 41.2092 27 39C27 36.7908 25.209 35 23 35ZM20.0767 39.6807L20.0767 39.6807C20.0254 39.4597 20 39.2329 20 39C20 38.7673 20.0254 38.5405 20.0767 38.3196L20.0767 38.3193L20.0767 38.3193C20.1152 38.1538 20.168 37.9915 20.2354 37.8325C20.3052 37.668 20.3877 37.512 20.4839 37.3645C20.5972 37.1904 20.7285 37.0286 20.8789 36.8787C21.0288 36.7288 21.1904 36.5972 21.3643 36.4839L21.3643 36.4839L21.3643 36.4839C21.5117 36.3879 21.668 36.3049 21.8325 36.2354C21.9917 36.1682 22.1538 36.1152 22.3193 36.0769L22.3193 36.0769C22.5405 36.0256 22.7671 36 23 36C23.2329 36 23.4595 36.0256 23.6807 36.0769L23.6807 36.0769C23.8462 36.1152 24.0083 36.1682 24.1675 36.2354C24.332 36.3049 24.4878 36.3877 24.6353 36.4839L24.6357 36.4839C24.8096 36.5972 24.9712 36.7288 25.1211 36.8787C25.2715 37.0286 25.4028 37.1907 25.5161 37.3645L25.5161 37.3645C25.6123 37.512 25.6948 37.668 25.7646 37.8325C25.832 37.9915 25.8848 38.1538 25.9233 38.3193L25.9233 38.3193C25.9746 38.5403 26 38.7671 26 39C26 39.2329 25.9746 39.4597 25.9233 39.6807L25.9233 39.6807L25.9233 39.6807L25.9233 39.6807C25.8848 39.8462 25.832 40.0085 25.7646 40.1675C25.6948 40.332 25.6123 40.488 25.5161 40.6355L25.5161 40.6355C25.4028 40.8093 25.2715 40.9714 25.1211 41.1213C24.9712 41.2712 24.8096 41.4028 24.6357 41.5161L24.6357 41.5161C24.4883 41.6123 24.332 41.6951 24.1675 41.7646C24.0083 41.8318 23.8462 41.8848 23.6807 41.9231C23.4595 41.9744 23.2329 42 23 42C22.7671 42 22.5405 41.9744 22.3193 41.9231L22.3193 41.9231L22.3188 41.9231C22.1533 41.8845 21.9912 41.8318 21.8325 41.7646C21.668 41.6951 21.5117 41.6121 21.3643 41.5161L21.3643 41.5161C21.1904 41.4028 21.0288 41.2712 20.8789 41.1213C20.7285 40.9714 20.5972 40.8096 20.4839 40.6357L20.4839 40.6355C20.3877 40.488 20.3052 40.332 20.2354 40.1675C20.168 40.0085 20.1152 39.8462 20.0767 39.6807L20.0767 39.6807ZM21 39C21 37.8955 21.8955 37 23 37C24.1045 37 25 37.8955 25 39C25 40.1045 24.1045 41 23 41C21.8955 41 21 40.1045 21 39ZM22 39C22 39.0825 22.0098 39.1628 22.0288 39.2407C22.041 39.2913 22.0576 39.3406 22.0781 39.3889C22.1001 39.4414 22.1265 39.4912 22.1567 39.5383L22.1567 39.5383C22.1953 39.5989 22.2407 39.655 22.293 39.707C22.3447 39.759 22.4014 39.8044 22.4614 39.8433C22.5088 39.8735 22.5586 39.8997 22.6108 39.9219C22.6597 39.9424 22.709 39.9587 22.7593 39.9712L22.7593 39.9712C22.8369 39.9905 22.9175 40 23 40C23.0825 40 23.1631 39.9905 23.2407 39.9712C23.291 39.9587 23.3403 39.9424 23.3892 39.9219C23.4414 39.8997 23.4912 39.8735 23.5386 39.8433C23.5986 39.8044 23.6553 39.759 23.707 39.707C23.7593 39.655 23.8047 39.5989 23.8433 39.5383C23.8735 39.4912 23.8999 39.4414 23.9219 39.3889C23.9424 39.3406 23.9585 39.2913 23.9712 39.241L23.9712 39.2407C23.9902 39.1628 24 39.0825 24 39C24 38.9175 23.9902 38.8372 23.9712 38.7593C23.959 38.7087 23.9424 38.6594 23.9219 38.6111C23.8999 38.5586 23.8735 38.5088 23.8433 38.4617C23.8047 38.4011 23.7593 38.345 23.707 38.293C23.6553 38.241 23.5986 38.1956 23.5386 38.1567C23.4912 38.1265 23.4414 38.1003 23.3892 38.0781C23.3403 38.0576 23.291 38.0413 23.2407 38.0288L23.2407 38.0288C23.1631 38.0095 23.0825 38 23 38C22.9175 38 22.8369 38.0095 22.7593 38.0288L22.7593 38.0288C22.709 38.0413 22.6597 38.0576 22.6108 38.0781C22.5586 38.1003 22.5088 38.1265 22.4614 38.1567L22.4614 38.1567L22.4614 38.1567C22.4014 38.1956 22.3447 38.241 22.293 38.293C22.2407 38.345 22.1953 38.4011 22.1567 38.4617L22.1567 38.4617L22.1567 38.4617C22.1265 38.5088 22.1001 38.5586 22.0781 38.6111C22.0576 38.6594 22.041 38.7087 22.0288 38.7593L22.0288 38.7593C22.0098 38.8372 22 38.9175 22 39Z" clip-rule="evenodd" fill-rule="evenodd" fill="#A391F3" fill-opacity="1.000000"/>
	<rect id="Полоска" x="5.000000" y="23.000000" width="15.000000" height="1.000000" fill="#EAE9F2"/>
	<rect id="Полоска" x="5.000000" y="25.000000" width="15.000000" height="1.000000" fill="#EAE9F2"/>
	<rect id="Полоска" x="5.000000" y="27.000000" width="15.000000" height="1.000000" fill="#EAE9F2"/>
	<rect id="Полоска" x="5.000000" y="29.000000" width="15.000000" height="1.000000" fill="#EAE9F2"/>
	<rect id="Полоска" x="5.000000" y="31.000000" width="15.000000" height="1.000000" fill="#EAE9F2"/>
	<rect id="Полоска" x="21.000000" y="23.000000" width="6.000000" height="1.000000" fill="#EAE9F2"/>
	<rect id="Полоска" x="21.000000" y="25.000000" width="6.000000" height="1.000000" fill="#EAE9F2"/>
	<rect id="Полоска" x="21.000000" y="27.000000" width="6.000000" height="1.000000" fill="#EAE9F2"/>
	<rect id="Полоска" x="21.000000" y="29.000000" width="6.000000" height="1.000000" fill="#EAE9F2"/>
	<rect id="Полоска" x="21.000000" y="31.000000" width="6.000000" height="1.000000" fill="#EAE9F2"/>
</svg>